<svg width="161" height="155" viewBox="0 0 161 155" fill="none" xmlns="http://www.w3.org/2000/svg">
    <path d="M133.608 71.0464L103.774 78.8957C105.086 78.5528 108.324 83.5554 109.157 84.4164C112.157 87.5164 116.279 90.4905 118.519 94.1975C117.02 95.0327 113.813 94.131 112.14 93.842C109.867 93.4521 107.628 92.9213 105.347 92.6043L94.1105 91.0419C93.8059 96.0726 94.8031 101.521 95.1342 106.56C95.4715 111.629 96.736 117.567 96.1136 122.578C92.6987 118.795 90.1953 113.402 87.4497 109.081L78.9505 95.707C78.8956 95.6205 78.8419 95.5336 78.7856 95.4475C75.6416 99.5561 72.5521 103.706 69.4153 107.82C66.47 111.683 63.5546 116.516 59.9023 119.709C59.8519 114.74 61.0995 109.905 61.818 105.027C62.0517 103.433 62.7331 90.6951 63.6528 90.453L36.1985 97.6792L54.4705 77.9347C53.8469 78.6079 43.2168 74.2459 42.1907 73.9078C38.9938 72.8603 35.7743 71.8795 32.5685 70.8633C29.5333 69.9011 25.5916 69.1876 22.9185 67.4778C27.0544 65.5223 32.8392 65.9112 37.3336 65.2505L53.9501 62.8107L54.7679 62.6899C54.0224 62.8 49.5064 54.6817 49.0207 53.9429C48.429 51.7346 46.5731 49.8752 45.23 48.0838C43.4973 45.7721 41.8684 43.3873 40.3432 40.9293C40.2199 40.7282 40.1741 40.5626 40.3147 40.3587C44.8596 40.912 49.249 44.0733 53.4158 45.8484C54.2691 46.2111 64.4669 49.8605 64.434 50.5416L66.0358 18.6515C66.0699 17.9801 66.0724 17.2609 66.2194 16.6388C68.0191 19.109 69.065 22.6616 70.3447 25.4677C72.8573 29.2764 74.36 34.2855 76.257 38.4515C77.3217 40.8063 78.0978 44.129 79.8171 46.051C83.1601 42.9114 86.1937 39.4267 89.3671 36.1184L96.4866 28.695C96.9104 28.2532 100.294 24.0197 100.853 24.1533L100.956 24.1488C100.842 29.659 98.4041 35.7327 97.1759 41.1149L95.5678 48.1604C95.3381 49.1704 95.3432 50.2361 94.8882 51.1821C99.3736 49.279 103.93 47.5479 108.513 45.9121C112.826 44.3717 117.683 41.9888 122.208 41.349C121.623 43.8189 118.819 46.4498 117.14 48.3341C115.234 50.4712 113.224 52.5163 111.404 54.7289C110.777 55.4911 104.887 63.859 104.068 63.6519L133.608 71.0464Z" fill="#FF7348"/>
    <path d="M72.035 58.7866C71.5008 54.7172 71.2894 50.6118 71.4027 46.509C73.9395 50.1732 76.196 54.0238 78.1528 58.0279C81.058 53.8156 84.0364 49.5259 88.1205 46.4436L86.7356 57.0582C91.9721 55.5493 97.3207 54.4608 102.73 53.8033L91.8618 68.6406C91.5439 69.0728 91.2146 69.6353 91.4671 70.1084C91.6966 70.5384 92.2657 70.6173 92.7511 70.6535C96.9067 70.9506 101.031 71.5836 105.085 72.5463C102.159 75.8619 97.8679 77.5713 93.7439 79.1665C96.637 81.005 99.2285 83.2797 101.427 85.91C100.527 86.7294 99.1142 86.453 97.9508 86.104C94.2614 85.0017 90.6303 83.7128 87.0716 82.2425C86.0437 85.991 85.5575 89.8673 85.6276 93.7535L78.0058 83.8649C77.3584 85.5551 76.0735 86.9056 74.8122 88.2094L69.9577 93.2404C69.9811 89.9218 70.1791 86.6068 70.5512 83.3091L61.9585 84.3551C61.3773 84.4255 60.5924 84.3611 60.4719 83.7876C60.4 83.4382 60.6445 83.1095 60.8729 82.8343C63.0286 80.2264 64.9206 77.4113 66.521 74.4302C66.6065 74.2963 66.6589 74.144 66.6737 73.9859C66.6825 73.4413 65.9421 73.2841 65.3984 73.2895C61.558 73.325 57.7529 72.5541 54.229 71.0268C58.6196 69.5581 62.8037 67.5322 66.6787 64.9988L60.8809 60.1907C59.6018 59.1296 58.2861 58.0233 57.5446 56.5347C62.2681 57.3819 66.989 58.2374 71.7073 59.1014" fill="white"/>
    <path d="M144.513 60.7411C144.513 60.7411 147.558 71.8765 145.989 79.9278C141.423 79.7054 133.695 79.0018 130.034 80.4438C126.374 81.8858 109.181 73.3977 107.61 68.9827C107.029 66.3796 111.476 54.4007 122.731 50.7272C129.165 55.612 144.513 60.7411 144.513 60.7411Z" fill="#FC92C3"/>
    <path d="M140.927 49.302C140.927 49.302 117.481 47.3806 114.969 56.9034C114.5 59.8081 119.541 61.5932 125.394 59.7806C126.966 63.5524 133.026 73.1539 146.384 73.3642C146.516 69.8805 144.137 56.1031 140.927 49.302Z" fill="#FC92C3"/>
    <path d="M116.03 54.0167C115.108 55.351 114.104 57.2117 115.31 58.7104C116.389 60.0392 118.554 60.4727 120.158 60.6181C121.093 60.6936 122.033 60.6938 122.968 60.6186C123.447 60.5841 123.943 60.4829 124.422 60.4789C125.06 60.4743 125.366 61.147 125.724 61.618C127.032 63.3481 128.303 65.1197 129.78 66.7091C131.296 68.3401 133.041 69.7766 135.079 70.7023C135.588 70.9346 136.031 70.1768 135.517 69.9429C133.361 68.9636 131.573 67.4171 130.009 65.6588C129.096 64.6311 128.259 63.5412 127.434 62.4449C127.036 61.9171 126.64 61.3854 126.239 60.8596C125.967 60.4987 125.695 59.9934 125.312 59.7461C124.929 59.4989 124.516 59.5966 124.095 59.6386C123.497 59.7018 122.897 59.7543 122.296 59.7793C121.143 59.8497 119.987 59.7683 118.855 59.5373C117.836 59.3072 116.287 58.8824 115.802 57.8569C115.237 56.6696 116.153 55.3876 116.796 54.4519C117.116 53.9872 116.358 53.5572 116.036 54.0135L116.03 54.0167Z" fill="#112870"/>
    <path d="M117.077 55.9003C117.808 56.3928 118.747 56.3292 119.475 55.8579C120.304 55.3219 120.66 54.3461 120.954 53.4532C121.133 52.9167 120.287 52.6894 120.109 53.2229C119.763 54.2626 118.885 56.0636 117.515 55.1426C117.047 54.8269 116.61 55.5873 117.077 55.9003Z" fill="white"/>
    <path d="M111.381 130.971C110.242 131.394 108.969 130.814 108.62 129.651C107.074 124.49 107.377 120.868 107.49 119.976C107.534 117.44 108.691 114.921 111.038 112.274C112.989 110.074 115.562 107.958 118.289 105.724C122.41 102.343 126.672 98.8513 129.47 94.5738C132.554 89.8626 133.241 85.1155 131.633 79.6374C129.739 73.1833 126.515 68.6833 122.046 66.2631C115.437 62.6845 108.141 64.81 108.072 64.8315L106.79 60.6409C107.156 60.5284 115.835 57.9426 124.084 62.3802C129.644 65.3724 133.6 70.7623 135.841 78.4029C137.809 85.1119 136.927 91.1865 133.14 96.9722C129.978 101.806 125.249 105.687 121.077 109.111C116.336 112.998 111.866 116.668 111.882 120.119L111.883 120.323L111.853 120.486C111.829 120.657 111.448 123.602 112.752 128.113C113.09 129.281 112.52 130.548 111.381 130.971Z" fill="#F9CE46"/>
    <path d="M105.465 60.2664C107.678 60.2386 108.144 62.2261 107.876 63.508C107.81 63.8018 107.172 65.1151 106.869 65.1456" fill="#213779"/>
    <path d="M105.458 60.7037C106.586 60.7224 107.363 61.376 107.486 62.5111C107.536 62.8793 107.498 63.254 107.376 63.6048C107.295 63.8172 106.977 64.6471 106.757 64.7206C106.226 64.8976 106.453 65.7447 106.983 65.5664C107.557 65.3752 107.883 64.6095 108.112 64.1073C108.346 63.5732 108.429 62.9847 108.351 62.4065C108.172 60.8352 107.032 59.8581 105.466 59.8326C104.901 59.8235 104.896 60.6996 105.459 60.7091L105.458 60.7037Z" fill="#112870"/>
    <path d="M88.7109 57.9751L96.6432 56.2876C101.396 55.2765 106.069 58.3097 107.08 63.0625C107.565 65.3449 107.124 67.7267 105.854 69.6839C104.583 71.6411 102.587 73.0134 100.305 73.499L92.3725 75.1865L88.7109 57.9751H88.7109Z" fill="#75DDF9"/>
    <path d="M88.2852 56.3257L89.8369 55.9956C91.6424 55.6099 93.5272 55.9578 95.0762 56.9624C96.6251 57.967 97.7113 59.5461 98.0955 61.352L99.5845 68.3513C99.9684 70.1561 99.6197 72.0396 98.615 73.5874C97.6102 75.1351 96.0318 76.2204 94.2269 76.6043L92.6697 76.9356L88.2852 56.3257Z" fill="#75DDF9"/>
    <ellipse cx="90.5183" cy="66.6199" rx="10.5356" ry="4.4536" transform="rotate(-102.01 90.5183 66.6199)" fill="#4081F4"/>
    <path d="M87.0164 63.5907C86.9124 63.1019 87.2244 62.6213 87.7133 62.5173L90.1925 61.9898C90.6814 61.8858 91.162 62.1978 91.266 62.6867C91.37 63.1755 91.058 63.6561 90.5692 63.7601L88.0899 64.2876C87.601 64.3916 87.1204 64.0796 87.0164 63.5907Z" fill="#112870"/>
    <path d="M88.2469 69.3983C88.1429 68.9095 88.4549 68.4289 88.9437 68.3249L91.423 67.7974C91.9119 67.6934 92.3925 68.0054 92.4965 68.4943C92.6005 68.9831 92.2885 69.4638 91.7996 69.5678L89.3204 70.0952C88.8315 70.1992 88.3509 69.8872 88.2469 69.3983Z" fill="#112870"/>
    <path d="M88.5782 56.6676C90.5174 57.1167 91.8156 58.6701 92.6535 60.3946C93.5021 62.1422 94.0779 64.0916 94.5152 65.9826C94.9485 67.8372 95.1832 69.7492 95.0229 71.6544C94.8747 73.4002 94.4464 75.568 92.8025 76.5174C92.3125 76.7933 92.7573 77.5575 93.2468 77.2745C94.9414 76.2928 95.5468 74.3059 95.8061 72.4783C96.1125 70.3142 95.8926 68.1177 95.4151 65.9902C94.9312 63.8282 94.2694 61.5795 93.2376 59.612C92.3048 57.8306 90.8232 56.2887 88.8099 55.8219C88.261 55.6943 88.028 56.5404 88.5782 56.6676Z" fill="#112870"/>
    <path d="M98.9726 73.4145C99.8088 70.5995 99.4566 67.6664 99.0663 64.807C98.9905 64.249 98.1434 64.476 98.2192 65.034C98.5842 67.7396 98.9216 70.5206 98.1273 73.1841C97.9643 73.7251 98.811 73.9551 98.9726 73.4145Z" fill="#112870"/>
    <path d="M97.9516 63.5567C98.4912 63.4121 98.2646 62.5663 97.725 62.7109C97.1854 62.8555 97.412 63.7013 97.9516 63.5567Z" fill="#112870"/>
    <path d="M108.258 65.2028C108.258 65.2028 104.985 71.7821 110.388 74.4636C114.132 76.2594 122.624 63.8822 118.903 61.8171C115.222 59.7875 111.795 64.9692 110.651 66.9197" fill="#FC92C3"/>
    <path d="M119.815 64.0217C119.815 64.0217 122.227 62.3893 124.621 64.0019C127.015 65.6144 122.089 72.57 118.783 77.286C116.601 79.7503 111.668 77.2665 113.248 73.1145C114.828 68.9624 119.815 64.0217 119.815 64.0217Z" fill="#FC92C3"/>
    <path d="M124.798 67.409C124.798 67.409 126.039 65.969 128.342 67.285C130.645 68.6009 128.667 72.5472 127.082 75.3938C125.497 78.2403 123.34 81.0923 121.365 80.0659C119.39 79.0395 118.252 77.313 119.151 75.1549C120.051 72.9967 124.798 67.409 124.798 67.409Z" fill="#FC92C3"/>
    <path d="M128.165 71.235C128.165 71.235 129.976 69.593 133.022 71.8535C136.068 74.1139 131.166 79.58 129.001 81.6998C126.836 83.8196 122.362 80.0811 124.073 77.3368C125.784 74.5925 128.165 71.235 128.165 71.235Z" fill="#FC92C3"/>
    <path d="M110.785 67.2463C111.955 65.5203 113.071 63.2707 114.88 62.1295C116.558 61.0715 118.967 61.5174 119.135 63.8002C119.284 65.8336 117.669 67.8595 116.549 69.4177C115.879 70.3468 115.159 71.2389 114.393 72.0902C113.623 72.9456 112.811 73.7879 111.643 74.0386C111.097 74.1562 111.324 75.0033 111.87 74.8857C113.843 74.4613 115.224 72.5572 116.401 71.0591C117.645 69.4782 118.961 67.7331 119.673 65.8362C120.257 64.279 120.155 62.2373 118.657 61.2174C117.404 60.3662 115.666 60.599 114.438 61.3734C112.48 62.6079 111.289 64.9454 110.026 66.8092C109.708 67.2759 110.47 67.7123 110.785 67.2463Z" fill="#112870"/>
    <path d="M120.606 64.2517C121.913 63.9798 124.393 64.0756 124.809 65.6963C125.224 67.3171 123.677 68.8913 122.825 70.0824L119.859 74.2357C119.353 74.9495 118.851 75.6626 118.337 76.3684C117.865 77.017 117.239 77.8497 116.327 77.4985C115.8 77.2939 115.573 78.1342 116.096 78.3439C117.968 79.0698 119.187 76.6743 120.054 75.4601L124.221 69.623C125.217 68.2254 126.487 66.2514 125.228 64.5964C124.176 63.2127 121.931 63.0814 120.375 63.4057C119.828 63.5206 120.054 64.3664 120.602 64.2528L120.606 64.2517Z" fill="#112870"/>
    <path d="M126.359 67.3499C126.964 67.3444 127.544 67.5924 127.959 68.0338C128.374 68.4753 128.585 69.0699 128.541 69.674C128.478 70.9589 127.759 72.2634 127.203 73.3941C126.664 74.492 126.058 75.5558 125.389 76.5794C124.708 77.6207 123.958 78.9742 122.831 79.5782C122.333 79.8433 122.778 80.6045 123.274 80.3343C124.568 79.6448 125.44 78.1128 126.216 76.9175C127.125 75.5148 127.915 74.0384 128.578 72.5037C129.124 71.2384 129.744 69.7855 129.227 68.4087C128.783 67.2264 127.607 66.4833 126.366 66.4761C125.801 66.4727 125.797 67.3515 126.359 67.3526L126.359 67.3499Z" fill="#112870"/>
    <path d="M129.817 71.1735C132.088 71.4673 133.98 73.5744 132.676 75.8264C132.13 76.7679 131.404 77.6246 130.759 78.4973L128.574 81.448C128.239 81.9022 129.001 82.3355 129.333 81.8865L132.084 78.1711C132.848 77.1379 133.816 76.0705 133.981 74.7438C134.291 72.2504 132.051 70.5851 129.823 70.2957C129.265 70.2241 129.266 71.1015 129.817 71.1735Z" fill="#112870"/>
    <path d="M114.598 64.6061C114.757 65.3207 115.286 65.8958 115.985 66.114C116.594 66.2934 117.35 66.0663 117.529 65.4023C117.673 64.8579 116.83 64.6268 116.684 65.172C116.619 65.4136 116.178 65.2655 116.039 65.1916C115.73 65.0236 115.513 64.7264 115.447 64.3814C115.323 63.8364 114.477 64.0631 114.6 64.6084L114.598 64.6061Z" fill="white"/>
    <path d="M120.358 66.7029C120.492 67.4728 121.06 68.0952 121.815 68.2984C122.569 68.5017 123.373 68.2488 123.876 67.6502C124.234 67.22 123.616 66.5993 123.253 67.0333C122.569 67.8527 121.383 67.5258 121.204 66.4762C121.111 65.9229 120.264 66.1499 120.358 66.7029Z" fill="white"/>
    <path d="M125.312 70.8456C125.866 71.4816 126.796 71.6279 127.519 71.1926C127.998 70.9007 127.558 70.1425 127.076 70.4436C126.696 70.6766 126.201 70.5838 125.93 70.2288C125.571 69.7945 124.956 70.4203 125.314 70.8524L125.312 70.8456Z" fill="white"/>
    <path d="M129.89 73.6371C130.336 74.7363 131.773 75.1017 132.564 74.106C132.912 73.6702 132.292 73.0482 131.941 73.4908C131.616 73.8946 130.961 73.9673 130.735 73.4104C130.525 72.8886 129.678 73.1156 129.89 73.6371Z" fill="white"/>
    <path d="M19.4758 102.882C19.4758 102.882 23.6512 113.646 29.6957 119.186C33.2377 116.298 39.03 111.13 42.8322 110.12C46.6344 109.11 55.4102 92.0472 54.0424 87.563C52.956 85.1273 42.2644 78.1403 31.0275 81.8741C28.7666 89.6295 19.4758 102.882 19.4758 102.882Z" fill="#FC92C3"/>
    <path fill-rule="evenodd" clip-rule="evenodd" d="M39.5081 152.144C40.7107 152.014 41.5709 150.932 41.5851 149.722C41.6639 143.044 45.0379 135.401 48.3285 129.767C50.6496 130.92 53.1754 131.604 55.7612 131.779C58.6487 131.952 61.3912 131.379 63.6925 130.121C66.4192 128.631 68.5674 125.9 69.4418 122.817C70.2105 120.101 69.9288 117.372 68.6495 115.128C67.7325 113.519 66.4636 112.458 64.984 112.062C63.9856 111.794 63.037 111.875 62.3236 111.975C57.4187 112.663 52.7843 115.856 48.5494 121.472C48.063 122.117 47.5189 122.882 46.9389 123.744C45.3808 122.529 44.0196 121.08 42.9035 119.449C39.2869 114.153 38.748 107.652 38.9358 103.13C39.1187 98.8218 39.9652 95.0528 41.4624 91.9205C42.8544 89.0216 44.3642 86.0392 46.1854 83.647C48.0067 81.2549 51.209 78.3134 53.5563 77.5717L52.2356 73.3929C48.3437 74.6238 44.417 78.7468 42.7047 80.9898C40.6587 83.6763 38.9972 86.9235 37.5158 90.0285C35.7621 93.698 34.7695 98.044 34.566 102.945C34.2568 110.381 35.891 116.944 39.2932 121.92C40.7488 124.046 42.5423 125.921 44.6028 127.469C43.3901 129.534 42.2827 131.659 41.2847 133.836C38.5178 139.907 37.1493 145.396 37.2023 150.194C37.2156 151.404 38.3052 152.274 39.5081 152.144ZM59.6192 127.052C56.9425 127.767 53.7163 127.415 50.678 126.025C51.1619 125.311 51.624 124.667 52.0484 124.104C55.5573 119.452 59.2196 116.83 62.9332 116.309L62.939 116.308C63.1049 116.285 63.5879 116.216 63.8515 116.289C64.1622 116.369 64.5376 116.755 64.8437 117.294C65.5359 118.506 65.6711 120.042 65.2254 121.615C64.6661 123.591 63.3075 125.33 61.5912 126.269C60.9674 126.607 60.3054 126.87 59.6192 127.052Z" fill="#F9CE46"/>
    <path d="M15.5543 91.5545C15.5543 91.5545 33.2606 76.0663 40.9427 82.2302C43.0406 84.2807 40.0573 88.7192 34.2711 90.7424C35.2486 94.7037 36.0906 106.032 25.4748 114.145C23.2968 111.417 17.0175 98.9308 15.5543 91.5545Z" fill="#FC92C3"/>
    <path d="M38.0796 81.3643C39.1717 81.7382 40.7544 82.2871 40.8621 83.6549C40.9511 84.7371 39.9872 85.9742 39.3102 86.734C38.5539 87.5607 37.6972 88.2895 36.76 88.9036C36.3349 89.1896 35.8974 89.4615 35.4597 89.7219C35.0857 89.945 34.5811 90.1337 34.3797 90.5477C34.1783 90.9616 34.2506 91.4903 34.2443 91.9257C34.2347 92.5427 34.2313 93.161 34.2274 93.778C34.2175 95.1006 34.2021 96.4248 34.1061 97.7445C33.9259 100.223 33.4292 102.697 32.2109 104.884C31.9371 105.378 32.6951 105.817 32.9704 105.323C35.0651 101.55 35.0761 97.1882 35.1095 92.9907C35.1146 92.4703 35.0694 91.9186 35.1287 91.3952C35.2047 90.756 35.6785 90.6088 36.1872 90.3005C36.9732 89.8306 37.7284 89.311 38.448 88.7448C39.7945 87.6727 41.1826 86.2106 41.6488 84.5025C42.2601 82.2567 40.0853 81.1117 38.3217 80.5086C37.7867 80.3252 37.5585 81.1729 38.09 81.3543L38.0796 81.3643Z" fill="#112870"/>
    <path d="M37.8276 82.3865C37.2757 83.9368 35.4146 82.8885 34.5695 82.2922C34.1064 81.9667 33.674 82.7274 34.1307 83.0503C34.9318 83.6121 35.8354 84.1839 36.8577 84.0546C37.6895 83.9682 38.3968 83.4099 38.674 82.6209C38.8639 82.0886 38.0166 81.8616 37.8283 82.3892L37.8276 82.3865Z" fill="white"/>
    <path d="M51.2761 84.9124C51.2761 84.9124 57.8193 88.2557 55.0726 93.6313C53.1309 97.3005 38.9441 92.3995 40.711 88.5255C42.4631 84.7046 48.3015 86.8314 50.3761 87.7156" fill="#FC92C3"/>
    <path d="M41.2765 90.8301C41.2765 90.8301 38.3659 90.9535 37.3998 93.6718C36.4336 96.39 44.5318 99.0563 49.9919 100.883C53.2122 101.57 55.6997 96.635 51.9604 94.2378C48.2212 91.8406 41.2765 90.8301 41.2765 90.8301Z" fill="#FC92C3"/>
    <path d="M39.2891 96.5214C39.2891 96.5214 37.4345 96.1075 36.3658 98.5293C35.2971 100.951 39.2316 102.949 42.2002 104.299C45.1687 105.649 48.5973 106.655 49.5756 104.656C50.5538 102.658 50.4412 100.592 48.4352 99.3913C46.4292 98.191 39.2891 96.5214 39.2891 96.5214Z" fill="#FC92C3"/>
    <path d="M38.8619 101.598C38.8619 101.598 36.4299 101.354 35.326 104.983C34.222 108.611 41.4116 110.088 44.4122 110.5C47.4128 110.912 48.7891 105.251 45.7849 104.06C42.7807 102.868 38.8619 101.598 38.8619 101.598Z" fill="#FC92C3"/>
    <path d="M50.7479 87.2321C48.8081 86.5489 46.7509 85.5676 44.6663 85.4929C43.1379 85.4383 41.4381 86.0875 40.7056 87.5141C39.902 89.0799 40.7345 90.8593 42.0189 91.8756C43.5384 93.0733 45.6071 93.693 47.4338 94.2402C49.493 94.8567 52.1145 95.7533 54.1928 94.8118C54.7089 94.5796 54.2596 93.8252 53.7489 94.0561C52.6378 94.5605 51.3857 94.296 50.242 94.0531C49.1661 93.8246 48.1024 93.5416 47.0552 93.2052C45.2344 92.6203 42.7145 91.9466 41.665 90.1935C40.4953 88.2399 42.2099 86.4749 44.1898 86.3695C46.3275 86.2536 48.5454 87.3813 50.5154 88.0751C51.0497 88.2616 51.277 87.4156 50.7471 87.2294L50.7479 87.2321Z" fill="#112870"/>
    <path d="M40.3985 90.7034C38.9389 91.375 37.1747 92.9118 37.2648 94.6834C37.3694 96.6925 39.5223 97.4588 41.1236 97.9796L47.947 100.2C49.417 100.673 51.724 101.82 52.8192 100.091C53.1245 99.6118 52.3618 99.1771 52.0598 99.6528C51.5744 100.42 50.5619 100.122 49.8573 99.8988C49.0341 99.6379 48.2121 99.3652 47.3901 99.0982L42.4052 97.4801C41.013 97.0275 38.8794 96.6783 38.2645 95.1442C37.6308 93.5617 39.6171 92.0174 40.8425 91.4591C41.3575 91.2228 40.9068 90.4689 40.4003 90.7101L40.3985 90.7034Z" fill="#112870"/>
    <path d="M37.5164 96.6717C36.5064 97.4295 35.9647 98.7154 36.3228 99.9655C36.7201 101.351 38.0678 102.161 39.2367 102.838C40.6448 103.654 42.1157 104.356 43.6353 104.939C45.0554 105.485 46.7253 106.219 48.2689 105.99C48.8251 105.908 48.5981 105.061 48.0419 105.143C46.8443 105.319 45.4313 104.67 44.3237 104.26C43.0949 103.812 41.8979 103.282 40.7407 102.672C39.717 102.133 38.5524 101.569 37.7571 100.71C36.8635 99.7498 36.8624 98.2508 37.9594 97.4291C38.4046 97.0944 37.9667 96.3341 37.515 96.672L37.5164 96.6717Z" fill="#112870"/>
    <path d="M36.9152 101.877C35.2851 103.445 34.5459 106.206 36.3483 107.969C37.2531 108.852 38.5905 109.133 39.7592 109.491L44.3091 110.883C44.8509 111.049 45.0795 110.202 44.5408 110.037L41.1663 109.001C40.0633 108.662 38.8504 108.409 37.8042 107.904C35.4819 106.791 35.96 104.016 37.5442 102.492C37.9494 102.095 37.3277 101.485 36.9206 101.876L36.9152 101.877Z" fill="#112870"/>
    <path d="M45.0399 88.5851C45.1683 88.8946 45.1567 89.2446 45.0079 89.545C44.9647 89.6318 44.6698 90.0476 44.5204 89.9272C44.0857 89.5781 43.4633 90.196 43.9039 90.5507C44.4586 91.0021 45.2003 90.7701 45.6081 90.2256C46.047 89.6174 46.1184 88.8179 45.7943 88.1415C45.6981 87.9229 45.3823 87.8774 45.1944 87.9856C44.9903 88.1116 44.9216 88.376 45.0385 88.5854L45.0399 88.5851Z" fill="white"/>
    <path d="M41.6555 93.6969C41.8666 94.0959 41.82 94.5822 41.5369 94.9338C41.2538 95.2854 40.7886 95.4348 40.3538 95.3137C39.8057 95.1786 39.5737 96.0229 40.1217 96.158C40.8993 96.367 41.7266 96.0926 42.2253 95.4604C42.724 94.8283 42.7982 93.9598 42.414 93.2522C42.1561 92.743 41.4008 93.194 41.665 93.6943L41.6555 93.6969Z" fill="white"/>
    <path d="M40.0508 99.5187C40.0227 99.9234 39.714 100.253 39.312 100.307C38.7471 100.357 38.7432 101.233 39.3036 101.176C40.1848 101.112 40.88 100.401 40.9255 99.5186C40.955 98.9541 40.0778 98.9505 40.049 99.512L40.0508 99.5187Z" fill="white"/>
    <path d="M38.0683 104.83C38.1457 105.072 38.0801 105.338 37.8986 105.517C37.7172 105.695 37.4507 105.757 37.2092 105.676C36.6648 105.532 36.433 106.372 36.9775 106.521C37.5192 106.677 38.1024 106.528 38.5033 106.132C38.9041 105.736 39.0603 105.154 38.9119 104.611C38.774 104.069 37.9269 104.296 38.0661 104.837L38.0683 104.83Z" fill="white"/>
    <path d="M76.7862 72.0823L69.3403 74.543L68.6515 72.4793L75.776 70.125C75.9778 70.0634 76.1969 70.0999 76.3678 70.2238L76.8269 70.5345C77.4085 70.9296 77.3778 71.8834 76.7862 72.0823Z" fill="#112870"/>
    <path d="M73.8179 66.5766L66.372 69.0373L65.6906 66.9745L72.8141 64.6162C73.0159 64.5552 73.2347 64.5917 73.4058 64.715L73.865 65.0257C74.4449 65.4255 74.4146 66.3806 73.8179 66.5766Z" fill="#112870"/>
    <path d="M68.54 80.3367L60.84 82.8817C56.2263 84.4067 51.25 81.9027 49.7251 77.2891C48.2001 72.6754 50.704 67.6991 55.3177 66.1742L63.0178 63.6291L68.54 80.3367V80.3367Z" fill="#75DDF9"/>
    <path d="M70.0529 70.6039C68.2358 65.1066 64.8872 61.2644 62.5524 61.9883L61.0462 62.4859C57.4003 63.6903 55.4198 67.621 56.6214 71.2679L58.8686 78.0683C60.0752 81.7166 64.01 83.697 67.659 82.4923L69.1652 81.9948C71.4694 81.1836 71.869 76.1029 70.0529 70.6039Z" fill="#75DDF9"/>
    <path d="M62.5121 81.9867C63.2898 78.1552 62.6305 74.1716 60.6598 70.795C60.3762 70.3086 59.6184 70.7502 59.9041 71.239C61.7612 74.4096 62.3884 78.1521 61.6664 81.755C61.5554 82.3066 62.4001 82.5401 62.5121 81.9867Z" fill="#112870"/>
    <path d="M59.4809 69.9587C60.0205 69.8142 59.7935 68.967 59.2539 69.1116C58.7143 69.2562 58.9346 70.1051 59.4809 69.9587Z" fill="#112870"/>
    <path d="M47.7859 76.0376C48.0997 76.1299 48.3514 76.3892 48.5599 76.6601C48.877 77.0719 49.1333 77.5272 49.3211 78.0118C49.5712 78.6591 49.7799 79.4489 50.3942 79.6964C50.6061 79.775 50.8362 79.7902 51.0565 79.7401C51.7851 79.5941 52.3484 78.9226 52.5124 78.1587C52.6763 77.3947 52.496 76.5597 52.1207 75.8607C51.5779 74.8495 50.499 74.0441 49.4415 74.2523C49.0085 74.3562 48.6097 74.5702 48.2836 74.8734C48.0499 75.0806 47.8077 75.3638 47.8502 75.6951" fill="#112870"/>
    <path d="M47.6699 76.4607C49.2236 77.0954 48.7168 79.8279 50.4951 80.1785C52.0865 80.4952 53.1016 78.6935 53.0056 77.337C52.9085 75.8956 51.9812 74.3989 50.5746 73.9141C49.377 73.502 47.4564 74.2609 47.415 75.6875C47.3988 76.2528 48.2759 76.2564 48.2915 75.6941C48.3096 75.0762 49.2895 74.6488 49.8154 74.6525C50.3412 74.6562 50.8487 74.98 51.2119 75.3482C52.0045 76.1479 52.4882 77.5914 51.8605 78.6212C51.5308 79.1607 50.73 79.6471 50.2391 79.0181C49.9417 78.6366 49.8313 78.0951 49.6423 77.6541C49.2844 76.8204 48.769 75.9652 47.9005 75.6109C47.3776 75.3968 47.1524 76.2451 47.6688 76.4566L47.6699 76.4607Z" fill="#112870"/>
    <path d="M80.552 56.0378L82.5763 59.0869C82.8866 59.5546 83.6465 59.1153 83.3256 58.6461L81.3028 55.5967C80.9924 55.129 80.2325 55.5683 80.5453 56.0397L80.552 56.0378Z" fill="#A89FFF"/>
    <path d="M76.3009 61.4397L79.1737 61.909C79.7257 61.9997 79.9618 61.1542 79.4054 61.0633L76.5258 60.5958C75.9742 60.5065 75.7377 61.3506 76.2941 61.4416L76.3009 61.4397Z" fill="#A89FFF"/>
    <path d="M78.6146 68.1807L79.8658 67.708C80.0951 67.6397 80.2308 67.4039 80.1745 67.1713C80.1107 66.9389 79.8722 66.8007 79.6388 66.8609L78.3876 67.3335C78.1581 67.4018 78.0219 67.6376 78.0775 67.8706C78.1415 68.1035 78.3809 68.2417 78.6146 68.1807Z" fill="#A89FFF"/>
    <path d="M72.7333 83.8008C74.1785 82.725 75.1721 81.1503 75.5212 79.3829C75.6278 78.8309 74.783 78.5975 74.6755 79.1511C74.3882 80.6989 73.5381 82.0856 72.289 83.0437C71.8458 83.3808 72.2841 84.1424 72.7333 83.8008Z" fill="#A89FFF"/>
    <path d="M125.633 110.859C127.743 108.042 130.155 105.465 132.827 103.173C133.253 102.807 132.63 102.19 132.203 102.558C129.478 104.903 127.018 107.54 124.868 110.422C124.53 110.872 125.293 111.307 125.627 110.86L125.633 110.859Z" fill="#A89FFF"/>
    <path d="M50.8928 134.777C53.9951 136.34 57.8486 136.023 60.6147 133.899C61.0545 133.56 60.6175 132.798 60.1704 133.142C57.6524 135.076 54.1746 135.451 51.3299 134.018C50.8284 133.765 50.3879 134.522 50.8928 134.777Z" fill="#A89FFF"/>
</svg>