<svg width="53" height="60" viewBox="0 0 53 60" fill="none" xmlns="http://www.w3.org/2000/svg">
<path d="M32.1784 7.01374C32.253 6.63701 32.2935 6.24951 32.2935 5.85124C32.2935 2.61993 29.6995 0 26.5002 0C23.301 0 20.707 2.61993 20.707 5.85124C20.707 6.24951 20.7475 6.63701 20.8221 7.01374L20.8243 7.01805C20.8562 7.17735 20.8967 7.33666 20.9415 7.49166L26.5024 30.0011L32.0633 7.49166C32.108 7.33666 32.1485 7.17951 32.1805 7.01805L32.1784 7.01374Z" fill="black"/>
<path d="M20.8221 52.9864C20.7475 53.3631 20.707 53.7506 20.707 54.1489C20.707 57.3802 23.301 60.0001 26.5002 60.0001C29.6995 60.0001 32.2935 57.3802 32.2935 54.1489C32.2935 53.7506 32.253 53.3631 32.1784 52.9864L32.1762 52.9821C32.1443 52.8228 32.1038 52.6634 32.059 52.5084L26.4981 29.999L20.9394 52.5084C20.8946 52.6634 20.8541 52.8206 20.8221 52.9821V52.9864Z" fill="black"/>
<path d="M43.3702 13.5388C43.6558 13.2848 43.9692 13.0566 44.3102 12.8585C47.081 11.2439 50.6235 12.2019 52.222 15.0005C53.8206 17.7991 52.8721 21.377 50.1013 22.9916C49.7602 23.1897 49.4064 23.3511 49.0483 23.4717L49.0441 23.4738C48.8906 23.5255 48.735 23.5707 48.5794 23.6073L26.5 29.9989L43.0207 13.8811C43.1315 13.7648 43.2466 13.6507 43.3681 13.5431L43.3702 13.5388Z" fill="black"/>
<path d="M9.62978 46.4591C9.34417 46.7132 9.03085 46.9414 8.68982 47.1394C5.91897 48.754 2.37654 47.796 0.777973 44.9974C-0.820596 42.1988 0.127888 38.6209 2.89874 37.0063C3.23977 36.8082 3.59358 36.6468 3.95166 36.5262L3.95593 36.5241C4.10939 36.4724 4.26498 36.4272 4.42058 36.3906L26.5 29.999L9.97933 46.1168C9.8685 46.2331 9.7534 46.3472 9.63191 46.4548L9.62978 46.4591Z" fill="black"/>
<path d="M9.62983 13.5388C9.34422 13.2848 9.0309 13.0566 8.68987 12.8585C5.91902 11.2439 2.37659 12.2019 0.778026 15.0005C-0.820543 17.7991 0.12581 21.377 2.89666 22.9916C3.23769 23.1897 3.59151 23.3511 3.94959 23.4717L3.95385 23.4738C4.10731 23.5255 4.2629 23.5707 4.4185 23.6073L26.4979 29.9989L9.97939 13.8811C9.86855 13.7648 9.75345 13.6507 9.63196 13.5431L9.62983 13.5388Z" fill="black"/>
<path d="M43.3702 46.4591C43.6558 46.7132 43.9692 46.9414 44.3102 47.1394C47.081 48.754 50.6235 47.796 52.222 44.9974C53.8206 42.1988 52.8721 38.6209 50.1013 37.0063C49.7602 36.8082 49.4064 36.6468 49.0483 36.5262L49.0441 36.5241C48.8906 36.4724 48.735 36.4272 48.5794 36.3906L26.5 29.999L43.0207 46.1168C43.1315 46.2331 43.2466 46.3472 43.3681 46.4548L43.3702 46.4591Z" fill="black"/>
</svg>
