<svg class="svg-max" preserveAspectRatio="none" viewBox="0 0 177.29 228.41"><path d="M154.11,172.13l-2.94-7.44-19.38,7.64a116.13,116.13,0,0,0,6.83-43.39C136.84,78.63,102,44.73,73,25.16l-3.31-2.24L65.2,29.54l3.31,2.24c39.75,26.87,60.64,59.53,62.11,97.07a108.94,108.94,0,0,1-6.62,41.4L115.54,151l-7.33,3.22,13.6,31,6.21-2.73Z" style="transform-origin: 0px 0px 0px;" data-svg-origin="118.5459991455078 120.30000190734863" ></path><path stroke="none" fill="none" d="M122.45,82.65a108.64,108.64,0,0,1,10.12,29,104.5,104.5,0,0,1,1.45,27"></path></svg>