<svg preserveAspectRatio="none" data-bbox="0.017 0.876 653.781 228" xmlns="http://www.w3.org/2000/svg" viewBox="0 0 655 230" height="230" width="655" data-type="ugc" role="img" aria-labelledby="svgcid--qm0xq4-z6ds60"><title id="svgcid--qm0xq4-z6ds60">A line icon of the globe</title>
    <g stroke-width="2" stroke="#FFFFFF" fill-rule="evenodd">
        <path d="M653.798 115.401c0 62.671-146.015 113.475-326.132 113.475-180.119 0-326.132-50.804-326.132-113.475 0-62.67 146.013-113.474 326.132-113.474 180.117 0 326.132 50.804 326.132 113.474z" fill="none"></path>
        <path d="M476.321 115.401c0 62.09-66.555 112.424-148.655 112.424-82.101 0-148.657-50.334-148.657-112.424S245.565 2.978 327.667 2.978c82.1 0 148.655 50.333 148.655 112.423z" fill="none"></path>
        <path d="M550.866 32.677c-54.972 23.053-134.608 37.545-223.2 37.545-88.595 0-168.23-14.493-223.204-37.546" fill="none"></path>
        <path d="M550.866 198.405c-54.972-23.053-134.608-37.545-223.2-37.545-88.595 0-168.23 14.493-223.204 37.546" fill="none"></path>
        <path fill="none" d="M.017 114.351h652.264"></path>
        <path fill="none" d="M327.665.876v226.949"></path>
    </g>
</svg>