<svg width="235" height="235" viewBox="0 0 235 235" fill="none" xmlns="http://www.w3.org/2000/svg">
    <path fill-rule="evenodd" clip-rule="evenodd" d="M117.5 78.3333C52.6063 78.3333 0 95.869 0 117.5C0 139.131 52.6063 156.667 117.5 156.667C182.394 156.667 235 139.131 235 117.5C235 95.869 182.394 78.3333 117.5 78.3333ZM117.5 79.8999C148.721 79.8999 178.052 83.9451 200.09 91.2912C221.28 98.3553 233.433 107.907 233.433 117.5C233.433 127.093 221.28 136.645 200.09 143.709C178.052 151.055 148.721 155.1 117.5 155.1C86.2787 155.1 56.9476 151.055 34.91 143.709C13.7201 136.645 1.56667 127.093 1.56667 117.5C1.56667 107.907 13.7201 98.3553 34.91 91.2912C56.9476 83.9451 86.2787 79.8999 117.5 79.8999Z" fill="white"/>
    <path fill-rule="evenodd" clip-rule="evenodd" d="M117.5 39.1667C52.6063 39.1667 0 74.2374 0 117.5C0 160.763 52.6063 195.833 117.5 195.833C182.394 195.833 235 160.763 235 117.5C235 74.2374 182.394 39.1667 117.5 39.1667ZM117.5 40.7334C181.425 40.7334 233.433 75.1711 233.433 117.5C233.433 159.829 181.425 194.267 117.5 194.267C53.5745 194.267 1.56667 159.829 1.56667 117.5C1.56667 75.1711 53.5745 40.7334 117.5 40.7334Z" fill="white"/>
    <path fill-rule="evenodd" clip-rule="evenodd" d="M117.5 0C95.8687 0 78.333 52.6063 78.333 117.5C78.333 182.394 95.8687 235 117.5 235C139.131 235 156.666 182.394 156.666 117.5C156.666 52.6063 139.131 0 117.5 0ZM117.5 1.56667C127.092 1.56667 136.644 13.7201 143.708 34.91C151.055 56.9476 155.1 86.2787 155.1 117.5C155.1 148.721 151.055 178.052 143.708 200.09C136.644 221.28 127.092 233.433 117.5 233.433C107.907 233.433 98.355 221.28 91.2909 200.09C83.9448 178.052 79.8997 148.721 79.8997 117.5C79.8997 86.2787 83.9448 56.9476 91.2909 34.91C98.355 13.7201 107.907 1.56667 117.5 1.56667Z" fill="white"/>
    <path fill-rule="evenodd" clip-rule="evenodd" d="M117.5 0C74.2376 0 39.167 52.6063 39.167 117.5C39.167 182.394 74.2376 235 117.5 235C160.763 235 195.834 182.394 195.834 117.5C195.834 52.6063 160.763 0 117.5 0ZM117.5 1.56667C159.829 1.56667 194.267 53.5745 194.267 117.5C194.267 181.425 159.829 233.433 117.5 233.433C75.1713 233.433 40.7337 181.425 40.7337 117.5C40.7337 53.5745 75.1713 1.56667 117.5 1.56667Z" fill="white"/>
    <path fill-rule="evenodd" clip-rule="evenodd" d="M117.5 0C52.6063 0 0 52.6063 0 117.5C0 182.394 52.6063 235 117.5 235C182.394 235 235 182.394 235 117.5C235 52.6063 182.394 0 117.5 0ZM117.5 1.56667C148.467 1.56667 177.58 13.6261 199.477 35.5226C221.374 57.4199 233.433 86.5333 233.433 117.5C233.433 148.467 221.374 177.58 199.477 199.477C177.58 221.374 148.467 233.433 117.5 233.433C86.5333 233.433 57.4199 221.374 35.5226 199.477C13.6261 177.58 1.56667 148.467 1.56667 117.5C1.56667 86.5333 13.6261 57.4199 35.5226 35.5226C57.4199 13.6261 86.5333 1.56667 117.5 1.56667Z" fill="white"/>
</svg>