<?xml version="1.0" encoding="utf-8"?>
<!-- Generator: Adobe Illustrator 25.2.1, SVG Export Plug-In . SVG Version: 6.00 Build 0)  -->
<svg version="1.1" id="Warstwa_1" xmlns="http://www.w3.org/2000/svg" xmlns:xlink="http://www.w3.org/1999/xlink" x="0px" y="0px"
	 viewBox="0 0 1517.93 606.45" style="enable-background:new 0 0 1517.93 606.45;" xml:space="preserve">
<style type="text/css">
	.st0{fill:#FFFFFF;}
	.st1{fill:#CEFF00;}
</style>
<g>
	<g>
		<rect x="864.79" y="254.71" class="st0" width="30.27" height="181.63"/>
		<path class="st0" d="M229.07,391.78V254.71H198.8v115.17c0,3.79,1.51,7.43,4.19,10.11l52.17,52.17c2.68,2.68,6.32,4.19,10.11,4.19
			h115.17v-30.27H243.37C235.47,406.07,229.07,399.67,229.07,391.78z"/>
		<path class="st0" d="M562.07,391.78c0,7.9-6.4,14.29-14.29,14.29h-92.5c-7.9,0-14.29-6.4-14.29-14.29V254.71h-30.27v115.17
			c0,3.79,1.51,7.43,4.19,10.11l52.17,52.17c2.68,2.68,6.32,4.19,10.11,4.19h48.7c3.79,0,7.43-1.51,10.11-4.19l52.17-52.17
			c2.68-2.68,4.18-6.32,4.18-10.11V254.71h-30.27V391.78z"/>
		<path class="st0" d="M1050.61,258.9c-2.68-2.68-6.32-4.19-10.11-4.19h-48.7c-3.79,0-7.43,1.5-10.11,4.19l-52.17,52.17
			c-2.68,2.68-4.19,6.32-4.19,10.11v115.17h30.27V299.28c0-7.9,6.4-14.3,14.29-14.3h92.5c7.9,0,14.29,6.4,14.29,14.3v137.07h30.27
			V321.18c0-3.79-1.51-7.43-4.19-10.11L1050.61,258.9z"/>
		<path class="st0" d="M834.52,315.26l-4.19-4.19l0,0L804.26,285l-0.02-0.02l-26.08-26.08c-2.68-2.68-6.32-4.19-10.11-4.19h-79.73
			h-5.92l-30.28,30.27l-30.27,30.27v5.92v115.17v0h30.27v-137.1c0.02-7.88,6.41-14.26,14.29-14.26h47.01v151.36h29.51V284.99h47.01
			c7.87,0,14.26,6.37,14.29,14.25v137.11h30.27v0h0V321.18c0-0.01,0-0.01,0-0.01V315.26z"/>
		<path class="st0" d="M1314.58,311.06l-51.93-52.21c-2.75-2.75-6.33-4.13-10.17-4.13h-48.64c-3.84,0-7.69,1.38-10.16,4.13
			l-52.21,52.21c-2.74,2.75-4.12,6.32-4.12,10.17v115.13h30.22v-45.34h120.91v45.34h30.5V321.23
			C1318.98,317.38,1317.33,313.81,1314.58,311.06z M1288.48,360.8h-120.91v-61.55c0-7.97,6.32-14.29,14.29-14.29h92.33
			c7.97,0,14.29,6.32,14.29,14.29V360.8z"/>
	</g>

</g>
</svg>
