<?xml version="1.0" encoding="utf-8"?>
<!-- Generator: Adobe Illustrator 25.2.3, SVG Export Plug-In . SVG Version: 6.00 Build 0)  -->
<svg version="1.1" id="Warstwa_1" xmlns="http://www.w3.org/2000/svg" xmlns:xlink="http://www.w3.org/1999/xlink" x="0px" y="0px"
	 viewBox="0 0 331.63 389.72" style="enable-background:new 0 0 331.63 389.72;" xml:space="preserve">
<style type="text/css">
	.st0{fill:#FFFFFF;}
	.st1{fill:#484D9B;}
	.st2{fill:none;stroke:#484D9B;stroke-width:4;stroke-linecap:round;stroke-linejoin:round;stroke-miterlimit:10;}
	.st3{fill:none;stroke:#FFFFFF;stroke-width:5;stroke-miterlimit:10;}
	.st4{fill:none;stroke:#FFFFFF;stroke-width:2;stroke-miterlimit:10;}
	.st5{fill:none;stroke:#FFFFFF;stroke-width:10;stroke-miterlimit:10;}
	.st6{fill:none;stroke:#FFFFFF;stroke-width:10;stroke-linecap:round;stroke-miterlimit:10;}
</style>
<g>
	<path d="M326.86,179.34c-10.22-34.74-41.13-40.39-51.58-41.3c-5.32-11.55-12.15-21.91-19.85-27.27
		c-12.9-8.99-38.25-9.02-49.74-8.51c-0.06-23.49,0.73-50.14,1.56-64.58c0.81-14.05-1.9-24.37-8.04-30.68
		c-4.76-4.89-11.34-7.24-19.49-6.98c-16.73,0.52-29.33,5.49-47.97,30.18c-16.02,21.23-9.66,69.66-5.45,101.71
		c0.94,7.13,1.75,13.28,2.16,18.01c2.31,26.37-1.48,51.54-10.2,68.91c-16.5-14.7-40.96-28.63-62.97-29.57
		c-13.31-0.55-28.49,5.41-39.5,15.59c-9.75,9.02-15.35,20.56-15.77,32.48c-0.71,20.1,25,34.32,74.33,41.13
		c8.43,1.16,21.13,16.53,32.33,30.1c3.25,3.94,6.62,8.01,9.88,11.76c3.77,4.33,7.67,8.8,12.37,13.07
		c-2.13,4.99-4.52,13.94-0.57,24.01c6.2,15.79,36.03,32.32,79.34,32.32c0.58,0,1.16,0,1.74-0.01c30.89-0.32,54.98-9.73,62.88-24.58
		c3.55-6.68,3.6-14.15,0.34-21.48c25.3-14.5,35.42-36.98,41.38-50.25c0.91-2.03,1.74-3.89,2.54-5.51
		C325.16,270.27,338.99,220.56,326.86,179.34z M263.23,360.3c-6.04,11.35-27.2,18.85-53.9,19.13c-0.56,0.01-1.11,0.01-1.67,0.01
		c-40.65,0-65.61-15.29-69.74-25.79c-2.07-5.26-1.52-10.08-0.53-13.51c14.34,9.85,35.89,17.37,75.1,17.37c0.63,0,1.27,0,1.9-0.01
		c20.24-0.12,36.27-3.71,49.08-9.24C265.28,352.52,265.21,356.56,263.23,360.3z M307.32,283.37c-0.84,1.72-1.72,3.67-2.67,5.81
		c-6.44,14.35-15.8,35.12-40.33,47.53c-0.49,0.14-0.96,0.33-1.41,0.62c-0.08,0.05-0.15,0.12-0.22,0.18
		c-12.1,5.78-27.75,9.56-48.35,9.68c-0.64,0-1.26,0.01-1.89,0.01c-58.82,0-73.73-17.1-88.15-33.64c-3.17-3.64-6.49-7.66-9.7-11.55
		c-13.6-16.47-26.45-32.03-38.85-33.74c-41.46-5.72-65.92-17.15-65.45-30.58c0.41-11.74,7.01-20.23,12.48-25.29
		c8.94-8.27,21.55-13.29,32.08-12.87c18.65,0.79,43.17,13.32,61.03,31.17c1.11,1.11,2.66,1.64,4.21,1.48
		c1.55-0.17,2.94-1.05,3.78-2.37c12.06-19.12,17.61-49.33,14.84-80.8c-0.43-4.95-1.26-11.21-2.21-18.45
		c-3.75-28.54-10.03-76.31,3.46-94.18c17.82-23.62,27.85-25.71,40.07-26.1c5.19-0.15,9.1,1.1,11.8,3.88
		c3.99,4.1,5.77,12.02,5.14,22.91c-1.45,25.15-2.72,83.33,0.03,104.88c2.86,22.36,10.14,32.77,10.45,33.2
		c1.64,2.3,4.83,2.83,7.13,1.2c2.31-1.63,2.87-4.83,1.26-7.15c-0.06-0.09-6.15-9.05-8.63-28.55c-0.82-6.43-1.26-16.53-1.44-28.1
		c12.07-0.53,34.2-0.02,43.77,6.65c6.34,4.42,12.64,14.36,17.56,25.63c0.06,0.16,0.13,0.32,0.21,0.48
		c4.91,11.39,8.4,24.08,9.09,33.79c0.19,2.71,2.45,4.78,5.13,4.78c0.12,0,0.24,0,0.37-0.01c2.83-0.2,4.97-2.66,4.77-5.49
		c-0.56-8.01-3.06-18.75-6.94-29.47c10.88,1.95,30.07,8.86,37.26,33.33C328.26,220.57,315.35,266.93,307.32,283.37z"/>
	<path d="M193.04,267.32c-0.02,0-0.05,0-0.07,0c-2.84,0.04-5.12,2.37-5.08,5.21c0.01,0.36,0.41,36.29-2.59,49.15
		c-0.64,2.77,1.07,5.53,3.84,6.18c0.39,0.09,0.79,0.14,1.17,0.14c2.34,0,4.45-1.6,5.01-3.98c3.28-14.06,2.87-50.08,2.86-51.61
		C198.15,269.59,195.85,267.32,193.04,267.32z"/>
	<path d="M235.8,247.84c-2.83-0.31-5.36,1.73-5.67,4.56c-0.06,0.5-5.47,50.05-13.35,72.36c-0.95,2.68,0.46,5.62,3.14,6.56
		c0.57,0.2,1.15,0.3,1.71,0.3c2.12,0,4.1-1.32,4.85-3.43c8.28-23.44,13.65-72.6,13.88-74.68
		C240.67,250.68,238.62,248.14,235.8,247.84z"/>
	<path d="M271.75,271.28c-2.66-0.99-5.62,0.35-6.62,3.01c-0.1,0.27-10.19,27.13-20.35,46.12c-1.34,2.51-0.39,5.62,2.11,6.96
		c0.77,0.41,1.6,0.61,2.42,0.61c1.84,0,3.61-0.99,4.54-2.72c10.48-19.59,20.49-46.24,20.91-47.37
		C275.76,275.24,274.41,272.28,271.75,271.28z"/>
</g>
</svg>
