<?xml version="1.0" encoding="utf-8"?>
<!-- Generator: Adobe Illustrator 25.2.1, SVG Export Plug-In . SVG Version: 6.00 Build 0)  -->
<svg version="1.1" id="Warstwa_1" xmlns="http://www.w3.org/2000/svg" xmlns:xlink="http://www.w3.org/1999/xlink" x="0px" y="0px"
	 viewBox="0 0 1517.93 606.45" style="enable-background:new 0 0 1517.93 606.45;" xml:space="preserve">
<style type="text/css">
	.st0{fill:#FFFFFF;}
	.st1{fill:#CEFF00;}
</style>
<g>
	<g>
		<rect x="864.79" y="254.71" class="st0" width="30.27" height="181.63"/>
		<path class="st0" d="M229.07,391.78V254.71H198.8v115.17c0,3.79,1.51,7.43,4.19,10.11l52.17,52.17c2.68,2.68,6.32,4.19,10.11,4.19
			h115.17v-30.27H243.37C235.47,406.07,229.07,399.67,229.07,391.78z"/>
		<path class="st0" d="M562.07,391.78c0,7.9-6.4,14.29-14.29,14.29h-92.5c-7.9,0-14.29-6.4-14.29-14.29V254.71h-30.27v115.17
			c0,3.79,1.51,7.43,4.19,10.11l52.17,52.17c2.68,2.68,6.32,4.19,10.11,4.19h48.7c3.79,0,7.43-1.51,10.11-4.19l52.17-52.17
			c2.68-2.68,4.18-6.32,4.18-10.11V254.71h-30.27V391.78z"/>
		<path class="st0" d="M1050.61,258.9c-2.68-2.68-6.32-4.19-10.11-4.19h-48.7c-3.79,0-7.43,1.5-10.11,4.19l-52.17,52.17
			c-2.68,2.68-4.19,6.32-4.19,10.11v115.17h30.27V299.28c0-7.9,6.4-14.3,14.29-14.3h92.5c7.9,0,14.29,6.4,14.29,14.3v137.07h30.27
			V321.18c0-3.79-1.51-7.43-4.19-10.11L1050.61,258.9z"/>
		<path class="st0" d="M834.52,315.26l-4.19-4.19l0,0L804.26,285l-0.02-0.02l-26.08-26.08c-2.68-2.68-6.32-4.19-10.11-4.19h-79.73
			h-5.92l-30.28,30.27l-30.27,30.27v5.92v115.17v0h30.27v-137.1c0.02-7.88,6.41-14.26,14.29-14.26h47.01v151.36h29.51V284.99h47.01
			c7.87,0,14.26,6.37,14.29,14.25v137.11h30.27v0h0V321.18c0-0.01,0-0.01,0-0.01V315.26z"/>
		<path class="st0" d="M1314.58,311.06l-51.93-52.21c-2.75-2.75-6.33-4.13-10.17-4.13h-48.64c-3.84,0-7.69,1.38-10.16,4.13
			l-52.21,52.21c-2.74,2.75-4.12,6.32-4.12,10.17v115.13h30.22v-45.34h120.91v45.34h30.5V321.23
			C1318.98,317.38,1317.33,313.81,1314.58,311.06z M1288.48,360.8h-120.91v-61.55c0-7.97,6.32-14.29,14.29-14.29h92.33
			c7.97,0,14.29,6.32,14.29,14.29V360.8z"/>
		<path class="st0" d="M1502.26,294.29c-9.62-15.11-22.26-27.75-35.72-39.29c-26.93-23.08-57.98-40.39-89.86-55.23
			c-63.75-30.22-131.35-50.83-199.49-67.05c-54.41-12.64-109.64-22.53-164.87-29.68v2.75c0,7.14-0.55,14.29-1.92,21.16
			c54.68,5.22,109.08,12.64,162.95,23.08c68.15,13.2,136.02,30.5,199.76,57.98c31.6,14.01,62.66,30.23,89.04,52.21
			c13.19,10.99,25.55,23.35,34.62,37.64c9.07,14.29,15.12,30.77,15.12,47.54c0,17.04-6.05,33.52-15.12,47.81
			c-9.34,14.29-21.43,26.38-34.62,37.37c-26.66,21.98-57.71,38.19-89.31,52.21c-63.75,27.2-131.62,43.97-199.77,57.16
			c-68.15,12.91-137.12,21.16-206.36,26.1c-69.25,5.22-138.49,7.69-207.74,7.69c-69.52,0-138.77-2.48-208.01-7.69
			c-69.25-4.94-138.21-12.91-206.36-25.83C276.44,527.04,208.57,510,144.82,482.8c-31.6-13.74-62.66-29.95-89.31-51.93
			c-13.2-11-25.56-23.36-34.9-37.65C11.55,378.93,5.5,362.45,5.5,345.41c0-16.76,6.04-33.25,15.11-47.54
			c9.34-14.56,21.43-26.93,34.62-37.92c26.66-21.98,57.71-38.19,89.31-52.21c63.75-27.48,131.62-44.51,199.77-57.98
			c68.15-12.92,137.12-21.16,206.36-26.38c65.68-5.23,131.35-7.42,197.29-7.7c-0.27-3.29-0.27-6.59-0.27-9.89
			c0-6.59,0.55-12.91,1.65-19.23C611.96,86.84,474.56,101.68,340.74,133c-68.42,16.21-136.02,36.82-199.77,66.77
			c-31.88,15.11-62.65,32.43-89.86,55.51c-13.19,11.27-25.83,24.18-35.45,39.3c-9.62,15.11-15.94,32.7-15.66,50.83
			c-0.28,18.42,6.04,36,15.38,51.11c9.62,15.11,22.26,28.03,35.72,39.57c26.93,23.08,57.98,40.67,89.58,55.51
			c63.75,30.23,131.35,51.11,199.77,67.6c136.84,32.42,277.81,47.26,418.5,47.26c140.42,0,281.38-14.84,418.22-46.99
			c68.42-16.49,136.02-37.37,199.77-67.6c31.88-15.11,62.65-32.7,89.86-55.51c13.46-11.55,25.83-24.45,35.45-39.57
			c9.62-15.39,15.94-32.97,15.66-51.39C1518.2,327.27,1511.88,309.68,1502.26,294.29z"/>
	</g>
	<path class="st1" d="M985.66,106.07c-20.06,0-38.74,5.49-54.41,15.11c-30.77,18.41-51.38,52.21-51.38,90.67
		c0-42.04-24.46-78.31-59.91-95.34c-13.74-6.6-29.4-10.45-45.89-10.45c21.98,0,42.32-6.59,59.08-18.13
		c28.3-18.97,46.72-51.39,46.72-87.94c0,41.22,23.35,76.94,57.7,94.53C951.86,101.94,968.35,106.07,985.66,106.07z"/>
	<path class="st1" d="M985.66,106.07c-20.06,0-38.74,5.49-54.41,15.11c-30.77,18.41-51.38,52.21-51.38,90.67
		c0-42.04-24.46-78.31-59.91-95.34c-13.74-6.6-29.4-10.45-45.89-10.45c21.98,0,42.32-6.59,59.08-18.13
		c28.3-18.97,46.72-51.39,46.72-87.94c0,41.22,23.35,76.94,57.7,94.53C951.86,101.94,968.35,106.07,985.66,106.07z"/>
</g>
</svg>
