<?xml version="1.0" encoding="utf-8"?>
<!-- Generator: Adobe Illustrator 25.2.3, SVG Export Plug-In . SVG Version: 6.00 Build 0)  -->
<svg version="1.1" id="Warstwa_1" xmlns="http://www.w3.org/2000/svg" xmlns:xlink="http://www.w3.org/1999/xlink" x="0px" y="0px"
	 viewBox="0 0 318.79 369.14" style="enable-background:new 0 0 318.79 369.14;" xml:space="preserve">
<style type="text/css">
	.st0{fill:#FFFFFF;}
	.st1{fill:#484D9B;}
	.st2{fill:none;stroke:#484D9B;stroke-width:4;stroke-linecap:round;stroke-linejoin:round;stroke-miterlimit:10;}
	.st3{fill:none;stroke:#FFFFFF;stroke-width:5;stroke-miterlimit:10;}
	.st4{fill:none;stroke:#FFFFFF;stroke-width:2;stroke-miterlimit:10;}
	.st5{fill:none;stroke:#FFFFFF;stroke-width:10;stroke-miterlimit:10;}
	.st6{fill:none;stroke:#FFFFFF;stroke-width:10;stroke-linecap:round;stroke-miterlimit:10;}
</style>
<g>
	<path d="M194.98,128.96c10.58-22.92,15.96-55.61,5.76-83.67c-7.02-19.29-21.89-35.38-38.81-41.97c-12.34-4.81-24.6-4.37-35.47,1.27
		c-27.21,14.12-20.56,46.24-13.51,80.24l1.1,5.32c4.55,22.17-10.3,33.72-29.1,48.35c-8.3,6.46-16.88,13.13-24.55,21.37
		c-6.67,7.17-11.67,14.56-15.29,22.33c-6.42-0.6-19.1-0.37-29.58,8.61C3.57,201.05-1.52,219.15,0.39,244.61
		c3.18,42.21,15.85,75.06,34.78,90.12c6.82,5.43,14.07,8.23,21.19,8.23c1.36,0,2.71-0.1,4.05-0.31c11.62-1.77,18.93-4.98,22.36-9.81
		c0.15-0.21,0.26-0.42,0.39-0.62c6.12,4.98,12.82,9.53,20.11,13.54c21.13,11.64,56.52,23.39,86.08,23.39
		c12.13,0,23.28-1.98,32.06-6.75c20.33-11.06,24.85-32.03,24.4-45.16c19.14-3.08,32.09-15.75,38.68-29.69
		c7.37-15.59,4.64-31.48,2.2-39.94c5.86-1.46,11.62-3.92,16.7-7.95c10.21-8.1,15.39-20.69,15.39-37.43
		C318.79,156.87,243.34,132.03,194.98,128.96z M74.25,326.76c-0.49,0.67-3.33,3.7-15.41,5.54c-5.45,0.82-11.37-1.16-17.15-5.77
		c-7.88-6.27-26.65-26.88-30.86-82.72c-1.65-21.89,2.2-37.03,11.44-45.02c6.2-5.36,13.8-6.38,18.91-6.34
		c-6.68,22.05-3.89,47.31,3.19,78.75c4.54,20.2,15.05,38.45,30.38,53.46C74.45,325.33,74.26,326.03,74.25,326.76z M296.9,231.45
		c-14.05,11.14-36.89,6.91-43.55,5.36c-2.81-0.66-5.63,1.09-6.29,3.9c-0.66,2.81,1.09,5.63,3.9,6.29
		c5.32,1.25,14.89,2.92,25.28,2.21c2,6.41,5.08,20.57-1.21,33.86c-10.13,21.41-31.56,29.35-57.33,21.25
		c-2.74-0.86-5.69,0.67-6.56,3.42c-0.87,2.76,0.67,5.69,3.42,6.56c7.47,2.35,14.36,3.44,20.73,3.59c0.17,8.17-1.62,25.91-18.89,35.3
		c-23.1,12.57-75.51,1.34-108.09-16.61c-28.35-15.61-47.44-39.64-53.75-67.67c-11.85-52.65-8.44-78.37,13.5-101.94
		c7.09-7.62,15.34-14.03,23.31-20.24c19.94-15.52,38.78-30.17,32.93-58.71l-1.1-5.34c-7.5-36.18-11.12-58.87,8.08-68.83
		c10.26-5.32,20.26-3.37,26.85-0.8c14.2,5.53,26.76,19.25,32.77,35.8c10.18,28,2.54,62.35-8.87,82.42
		c-0.91,1.61-0.91,3.59,0.01,5.19c0.92,1.61,2.63,2.6,4.48,2.63c41.34,0.44,121.79,23.13,121.79,63.12
		C308.33,215.61,304.48,225.44,296.9,231.45z"/>
	<path d="M91.49,225.9c0.58,0,1.16-0.1,1.74-0.3c0.24-0.09,24.73-8.64,46.56-11.76c2.86-0.41,4.85-3.06,4.44-5.92
		c-0.41-2.86-3.06-4.84-5.92-4.44c-22.87,3.27-47.51,11.88-48.55,12.25c-2.73,0.96-4.16,3.95-3.2,6.67
		C87.31,224.56,89.33,225.9,91.49,225.9z"/>
	<path d="M156.5,244.59c-22.83-3.73-66.95-2.88-68.82-2.84c-2.89,0.06-5.18,2.45-5.13,5.34c0.06,2.89,2.52,5.25,5.34,5.12
		c0.44-0.01,45.02-0.87,66.92,2.7c0.29,0.05,0.57,0.07,0.85,0.07c2.52,0,4.74-1.82,5.16-4.39
		C161.29,247.75,159.35,245.06,156.5,244.59z"/>
	<path d="M135.56,283.49c-15.15-8.31-46.1-10.47-47.41-10.56c-2.81-0.19-5.37,1.99-5.57,4.87c-0.19,2.88,1.99,5.38,4.87,5.57
		c0.3,0.02,29.96,2.1,43.08,9.29c0.8,0.44,1.66,0.65,2.51,0.65c1.85,0,3.64-0.98,4.59-2.72
		C139.02,288.06,138.09,284.88,135.56,283.49z"/>
</g>
</svg>
