<?xml version="1.0" encoding="utf-8"?>
<!-- Generator: Adobe Illustrator 25.2.3, SVG Export Plug-In . SVG Version: 6.00 Build 0)  -->
<svg version="1.1" id="Warstwa_1" xmlns="http://www.w3.org/2000/svg" xmlns:xlink="http://www.w3.org/1999/xlink" x="0px" y="0px"
	 viewBox="0 0 244.84 389.72" style="enable-background:new 0 0 244.84 389.72;" xml:space="preserve">
<style type="text/css">
	.st0{fill:#FFFFFF;}
	.st1{fill:#484D9B;}
	.st2{fill:none;stroke:#484D9B;stroke-width:4;stroke-linecap:round;stroke-linejoin:round;stroke-miterlimit:10;}
	.st3{fill:none;stroke:#FFFFFF;stroke-width:5;stroke-miterlimit:10;}
	.st4{fill:none;stroke:#FFFFFF;stroke-width:2;stroke-miterlimit:10;}
	.st5{fill:none;stroke:#FFFFFF;stroke-width:10;stroke-miterlimit:10;}
	.st6{fill:none;stroke:#FFFFFF;stroke-width:10;stroke-linecap:round;stroke-miterlimit:10;}
</style>
<g>
	<path d="M243.59,214.13c-7.66-41.68-36.93-48.49-48.22-49.55c-5.17-41.95,4.67-80.49,9.36-98.82c0.4-1.56,0.76-2.97,1.08-4.24
		c4.12-16.58,12.69-51.09-23.09-60.46c-9.04-2.37-17.91-0.78-26.37,4.72c-19.73,12.83-32.73,44.16-36.87,69.53
		c-2.32,14.26-3.55,30.56-4.18,44.75c-1.34-6.62-2.5-13.15-3.4-19.22c-0.32-2.16-0.67-4.76-1.06-7.69
		c-4.37-32.89-10.55-68.89-28.7-79.87c-6.04-3.66-12.79-4.16-20.06-1.51C30.4,23.36,24.35,66.41,44.1,139.76
		c2.44,9.06,3.8,17.67,4.37,25.73c-23.7,8.88-38.9,23.06-45.18,42.22c-12.75,38.87,14.54,86.59,31.94,111.58
		c2.76,3.96,5.83,7.6,9.15,10.94c-2.93,7.44-6.35,24.99,15.82,42.06c28.53,21.96,73.97,19.9,95.7,11.59
		c1.09-0.42,2.14-0.85,3.17-1.3c11.78-5.16,19.44-12.48,21.72-20.83c1.1-4.01,0.87-8.01-0.59-11.66c0.33-0.21,0.67-0.41,0.99-0.63
		C207.85,331.5,252.9,264.83,243.59,214.13z M12.34,210.68c5.07-15.46,17.34-27.21,36.46-35.06c-0.25,35.25-14.88,57.83-15.07,58.13
		c-1.46,2.19-0.87,5.14,1.32,6.61c1.4,0.94,3.12,1.03,4.57,0.4c0.8-0.35,1.52-0.93,2.05-1.71c1.14-1.7,27.65-42.31,11.65-101.76
		C35.06,69.53,39.13,30.34,65.35,20.72c4.48-1.64,8.36-1.41,11.86,0.71c15.76,9.53,21.45,52.38,24.19,72.97
		c0.4,2.99,0.75,5.64,1.08,7.84c3.75,25.19,11.92,59.79,20.99,76.24c1.27,2.31,4.16,3.12,6.48,1.88c2.3-1.27,3.15-4.17,1.88-6.47
		c-2.59-4.7-5.17-11.29-7.61-18.89c-0.06-5.9-0.28-47.57,4.7-78.16c3.67-22.54,15.46-51.89,32.65-63.07
		c6.19-4.04,12.33-5.17,18.75-3.49c22.21,5.82,22.69,23.04,16.25,48.94c-0.31,1.25-0.67,2.64-1.06,4.17
		c-5.91,23.11-19.76,77.23-3.52,131.72c0.75,2.52,3.41,3.96,5.93,3.21c0.19-0.06,0.38-0.13,0.56-0.2c2.17-0.95,3.34-3.39,2.65-5.72
		c-1.81-6.07-3.21-12.15-4.29-18.18c10.07,1.33,31.24,8.16,37.39,41.64c8.3,45.18-32.9,108.55-58.35,125.69
		c-20.8,14-86.06,17.68-122.19-15.57c-0.18-0.2-0.38-0.38-0.6-0.55c-3.68-3.46-7.05-7.31-10.03-11.59
		C29.85,294.9,0.46,246.92,12.34,210.68z M171.59,359.23c-1.63,5.98-8.6,11.72-19.1,15.73c-20.5,7.84-61.95,8.64-86.49-10.24
		c-14.33-11.03-15.13-21.51-13.88-27.59c35.23,27.84,90.45,28.93,119.46,17.28C172.04,355.94,172.05,357.56,171.59,359.23z"/>
	<path d="M90.17,325.37c-0.99,2.44,0.18,5.21,2.61,6.21c1.24,0.51,2.57,0.45,3.71-0.05c1.1-0.48,2.01-1.37,2.5-2.56
		c0.44-1.09,10.72-26.85-0.8-50.15c-1.17-2.36-4.01-3.34-6.39-2.16c-2.36,1.17-3.33,4.03-2.16,6.39
		C99.24,302.43,90.26,325.15,90.17,325.37z"/>
	<path d="M120.23,329.49c1.35,0.75,2.92,0.78,4.23,0.2c0.92-0.4,1.72-1.1,2.25-2.04c0.74-1.33,18.04-32.96,7.69-63.97
		c-0.83-2.5-3.53-3.84-6.03-3.01c-2.5,0.86-3.85,3.53-3.01,6.03c8.97,26.89-6.73,55.86-6.98,56.31
		C117.11,325.31,117.93,328.21,120.23,329.49z"/>
	<path d="M150.4,329.97c0.4-0.18,0.79-0.41,1.14-0.71c0.9-0.75,22.04-18.71,19.02-45.45c-0.3-2.62-2.66-4.5-5.27-4.2
		c-2.62,0.29-4.5,2.66-4.2,5.27c2.44,21.56-15.47,36.92-15.66,37.07c-2.01,1.69-2.28,4.69-0.6,6.71
		C146.21,330.32,148.5,330.8,150.4,329.97z"/>
</g>
</svg>
