<svg width="633" height="498" viewBox="0 0 633 498" fill="none" xmlns="http://www.w3.org/2000/svg">
<path d="M252.745 323.609C183.33 291.819 125.857 251.365 89.0478 211.679C70.6422 191.835 57.4203 172.202 50.4441 153.957C43.4688 135.715 42.7505 118.901 49.2813 104.641C55.8121 90.3809 69.0119 79.9411 87.3804 73.3059C105.751 66.6698 129.254 63.8553 156.302 64.8279C210.396 66.773 278.569 83.8617 347.984 115.652C417.4 147.443 474.872 187.896 511.682 227.583C530.087 247.427 543.309 267.06 550.285 285.304C557.261 303.546 557.979 320.36 551.448 334.621C544.917 348.881 531.718 359.321 513.349 365.956C494.978 372.592 471.476 375.406 444.428 374.434C390.334 372.489 322.161 355.4 252.745 323.609Z" stroke="white"/>
<path d="M285.308 382.196C215.892 350.406 158.42 309.952 121.61 270.266C103.205 250.422 89.9828 230.788 83.0066 212.544C76.0313 194.302 75.313 177.488 81.8438 163.228C88.3746 148.968 101.574 138.528 119.943 131.893C138.314 125.257 161.816 122.442 188.864 123.415C242.958 125.36 311.131 142.449 380.547 174.239C449.962 206.03 507.435 246.483 544.244 286.17C562.65 306.014 575.872 325.647 582.848 343.891C589.823 362.133 590.542 378.947 584.011 393.207C577.48 407.468 564.28 417.907 545.912 424.543C527.541 431.179 504.038 433.993 476.99 433.021C422.896 431.076 354.723 413.987 285.308 382.196Z" stroke="white"/>
<path d="M549.958 323.251C550.226 323.105 550.322 322.959 550.432 322.542C550.659 321.688 551.345 319.926 551.879 318.866C554.981 312.577 561.444 308.233 568.461 307.697C570.633 307.531 572.998 307.713 574.764 308.172C575.501 308.368 575.637 308.37 575.924 308.194C576.692 307.758 576.5 306.803 575.602 306.564C574.791 306.349 572.895 305.604 571.934 305.131C565.621 301.989 561.336 295.69 560.725 288.653C560.545 286.661 560.672 284.681 561.093 282.621C561.324 281.538 561.336 281.278 561.209 281.027C560.997 280.616 560.439 280.479 560.004 280.741C559.709 280.902 559.643 281.022 559.481 281.631C559.004 283.426 557.998 285.572 556.789 287.366C553.836 291.763 549.099 294.907 543.837 295.944C541.203 296.468 538.847 296.47 535.91 295.941C534.362 295.655 534.204 295.648 533.963 295.823C533.654 296.039 533.513 296.482 533.638 296.789C533.793 297.151 534.114 297.362 534.82 297.549C535.813 297.814 537.788 298.647 538.915 299.267C544.473 302.37 548.348 308.056 549.171 314.338C549.487 316.766 549.348 319.738 548.826 321.704C548.632 322.43 548.675 323.002 548.943 323.199C549.261 323.421 549.633 323.44 549.958 323.251ZM555.999 305.338C555.849 303.193 556.021 307.796 555.056 305.618C554.539 304.462 558.789 307.364 558.063 306.439C556.437 304.337 543.211 299.93 540.657 298.221C540.577 298.177 559.916 308.28 560.617 308.226C567.033 307.713 554.285 294.033 557.969 288.778C558.339 288.248 558.701 287.749 558.755 287.672C558.846 287.548 547.791 301.857 547.797 302.007C548.17 307.574 561.082 297.808 564.59 301.737C565.516 302.773 567.305 304.347 568.544 305.191C569.046 305.542 561.823 298.884 561.729 298.893C559.192 299.099 557.588 296.463 555.869 296.99C552.16 298.119 556.454 310.132 553.776 313.023C552.939 313.933 556.622 311.265 556.54 311.575C556.452 311.906 562.118 295.033 555.999 305.338Z" fill="#CEFF00"/>
<path d="M234.779 140.917C235.324 140.62 235.519 140.323 235.744 139.475C236.206 137.736 237.602 134.151 238.687 131.995C245 119.197 258.15 110.358 272.427 109.267C276.847 108.93 281.659 109.301 285.252 110.234C286.752 110.633 287.03 110.637 287.614 110.28C289.176 109.392 288.785 107.449 286.959 106.964C285.307 106.525 281.45 105.009 279.495 104.048C266.649 97.6528 257.93 84.837 256.687 70.5189C256.322 66.465 256.578 62.4368 257.437 58.2436C257.907 56.0414 257.931 55.5118 257.671 55.0009C257.241 54.1654 256.106 53.8863 255.22 54.4184C254.62 54.7474 254.486 54.991 254.156 56.23C253.185 59.882 251.139 64.2488 248.679 67.9001C242.67 76.8459 233.032 83.2438 222.323 85.3536C216.966 86.4195 212.17 86.4244 206.196 85.3477C203.045 84.7666 202.723 84.7504 202.233 85.1084C201.604 85.5465 201.318 86.4482 201.571 87.0732C201.887 87.8092 202.541 88.2386 203.976 88.6202C205.998 89.1578 210.015 90.8544 212.309 92.1162C223.617 98.4291 231.503 109.999 233.178 122.78C233.82 127.722 233.538 133.769 232.475 137.769C232.082 139.247 232.168 140.41 232.713 140.811C233.361 141.263 234.118 141.301 234.779 140.917ZM247.072 104.467C246.766 100.103 247.116 109.47 245.152 105.038C244.101 102.687 252.749 108.591 251.271 106.709C247.963 102.431 221.05 93.4646 215.854 89.9877C215.692 89.8979 255.042 110.454 256.468 110.345C269.523 109.301 243.583 81.4647 251.08 70.7736C251.833 69.6938 252.569 68.6788 252.68 68.5221C252.864 68.2689 230.37 97.3853 230.382 97.6907C231.142 109.018 257.413 89.1457 264.551 97.1414C266.435 99.2483 270.075 102.451 272.597 104.169C273.618 104.883 258.922 91.3351 258.731 91.3545C253.569 91.774 250.304 86.409 246.806 87.481C239.259 89.7797 247.998 114.224 242.547 120.105C240.844 121.957 248.339 116.529 248.171 117.159C247.993 117.833 259.521 83.4998 247.072 104.467Z" fill="#CEFF00"/>
</svg>
