<svg width="649" height="504" viewBox="0 0 649 504" fill="none" xmlns="http://www.w3.org/2000/svg">
<path d="M379.276 136.858C449.23 164.705 506.377 202.881 542.227 242.071C578.105 281.291 592.534 321.381 577.454 353.134C562.374 384.888 520.508 402.568 464.708 405.294C408.952 408.017 339.482 395.79 269.528 367.943C199.574 340.096 142.427 301.921 106.577 262.731C70.6985 223.51 56.2694 183.421 71.3498 151.667C86.4301 119.914 128.296 102.234 184.096 99.508C239.851 96.7843 309.322 109.012 379.276 136.858Z" stroke="white"/>
<path d="M569.388 295.007C569.298 295.344 569.347 295.547 569.616 295.998C570.167 296.922 571.13 298.999 571.611 300.342C574.519 308.269 573.043 317.139 567.846 323.122C566.236 324.974 564.172 326.673 562.354 327.661C561.591 328.07 561.479 328.175 561.399 328.553C561.155 329.538 562.131 330.22 563.06 329.723C563.9 329.273 566.069 328.433 567.251 328.09C575.045 325.871 583.918 327.999 590.463 333.659C592.322 335.257 593.923 337.083 595.355 339.213C596.1 340.339 596.314 340.575 596.633 340.694C597.156 340.887 597.724 340.568 597.851 339.997C597.949 339.624 597.9 339.468 597.506 338.809C596.348 336.868 595.313 334.205 594.744 331.689C593.345 325.531 594.46 319.065 597.812 314.024C599.485 311.497 601.384 309.643 604.207 307.797C605.701 306.829 605.835 306.712 605.879 306.369C605.943 305.938 605.675 305.441 605.31 305.271C604.874 305.077 604.433 305.145 603.703 305.536C602.675 306.086 600.365 306.911 598.923 307.256C591.772 308.916 583.756 307.001 577.69 302.166C575.346 300.295 572.902 297.593 571.633 295.467C571.164 294.681 570.638 294.215 570.252 294.254C569.805 294.311 569.488 294.587 569.388 295.007ZM579.924 315.386C581.89 317.14 577.792 313.258 580.444 314.4C581.854 315.003 575.931 315.811 577.312 316.047C580.431 316.604 594.888 310.054 598.417 309.538C598.52 309.514 574.235 315.897 573.716 316.495C568.982 321.986 591.03 323.904 592.578 331.384C592.736 332.138 592.874 332.858 592.896 332.968C592.93 333.147 589.537 311.972 589.403 311.846C584.314 307.282 582.302 325.952 576.093 325.28C574.456 325.104 571.659 325.136 569.933 325.374C569.227 325.462 580.778 325.596 580.846 325.513C582.715 323.339 586.276 324.379 587.21 322.568C589.229 318.667 575.433 311.56 575.107 306.932C574.999 305.481 574.323 310.703 574.124 310.368C573.909 310.01 583.853 329.187 579.924 315.386Z" fill="#CEFF00"/>
<path d="M87.5559 91.6482C87.713 92.1632 87.9352 92.3927 88.6287 92.7763C90.0511 93.563 92.9033 95.5469 94.5723 96.9409C104.506 105.111 109.745 117.937 108.055 129.863C107.531 133.554 106.321 137.4 104.849 140.117C104.226 141.249 104.171 141.475 104.373 142.036C104.854 143.522 106.611 143.66 107.37 142.281C108.056 141.035 110.082 138.239 111.277 136.867C119.194 127.872 131.919 123.761 144.566 126.112C148.149 126.767 151.595 127.925 155.074 129.613C156.897 130.515 157.352 130.659 157.843 130.567C158.647 130.412 159.098 129.55 158.801 128.7C158.626 128.133 158.439 127.966 157.426 127.405C154.438 125.752 151.028 123.053 148.316 120.184C141.667 113.168 137.897 103.786 138.044 94.5376C138.109 89.9081 138.99 85.9878 141.027 81.3579C142.113 78.9198 142.186 78.6607 141.966 78.1756C141.702 77.5587 140.973 77.1126 140.384 77.1723C139.688 77.2578 139.194 77.691 138.599 78.7741C137.759 80.2999 135.546 83.1847 134.028 84.7626C126.466 92.5198 114.976 96.2432 103.581 94.6061C99.177 93.968 93.9848 92.3158 90.7122 90.5057C89.5025 89.8366 88.4779 89.6333 88.0297 89.9847C87.5185 90.4079 87.3456 91.0182 87.5559 91.6482ZM116.899 110.269C120.74 111.045 112.552 109.128 116.758 108.566C118.991 108.26 112.274 113.938 114.179 113.173C118.5 111.476 131.245 91.5893 135.22 88.1605C135.328 88.0489 110.235 115.374 110.066 116.565C108.561 127.481 137.492 112.828 145.38 121.47C146.178 122.339 146.922 123.179 147.038 123.307C147.223 123.517 126.124 98.2846 125.857 98.2225C115.893 96.1788 128.277 122.325 120.025 126.278C117.85 127.322 114.4 129.543 112.445 131.201C111.637 131.867 126.1 123.043 126.119 122.882C126.708 118.564 131.963 117.158 131.679 114.047C131.079 107.338 108.266 108.731 104.172 102.893C102.88 101.065 106.204 108.467 105.689 108.182C105.137 107.878 132.785 125.376 116.899 110.269Z" fill="#CEFF00"/>
</svg>
