<svg viewBox="0 0 100 90" fill="none" xmlns="http://www.w3.org/2000/svg" class="">
    <path
          d="M57.7792 31.3763C61.0612 31.3763 63.7217 28.7098 63.7217 25.4206C63.7217 22.1313 61.0612 19.4648 57.7792 19.4648C54.4973 19.4648 51.8367 22.1313 51.8367 25.4206C51.8367 28.7098 54.4973 31.3763 57.7792 31.3763Z"
          fill="#D3FD50"></path>
    <path
          d="M44.5572 55.9437C47.2648 55.9437 49.4598 53.7439 49.4598 51.0302C49.4598 48.3166 47.2648 46.1168 44.5572 46.1168C41.8496 46.1168 39.6547 48.3166 39.6547 51.0302C39.6547 53.7439 41.8496 55.9437 44.5572 55.9437Z"
          fill="#D3FD50"></path>
    <path
          d="M28.6611 43.4367C30.5482 43.4367 32.078 41.9035 32.078 40.0121C32.078 38.1208 30.5482 36.5876 28.6611 36.5876C26.774 36.5876 25.2441 38.1208 25.2441 40.0121C25.2441 41.9035 26.774 43.4367 28.6611 43.4367Z"
          fill="#D3FD50"></path>
    <path
          d="M68.9214 66.9618C70.8085 66.9618 72.3383 65.4286 72.3383 63.5373C72.3383 61.646 70.8085 60.1128 68.9214 60.1128C67.0343 60.1128 65.5045 61.646 65.5045 63.5373C65.5045 65.4286 67.0343 66.9618 68.9214 66.9618Z"
          fill="#D3FD50"></path>
    <path  fill-rule="evenodd" clip-rule="evenodd" stroke-width="1"
          d="M50.8376 25.4203C50.8376 21.5809 53.9438 18.4646 57.7801 18.4646C61.6165 18.4646 64.7226 21.5809 64.7226 25.4203C64.7226 29.2598 61.6165 32.3761 57.7801 32.3761C53.9438 32.3761 50.8376 29.2598 50.8376 25.4203ZM57.7801 20.4646C55.0526 20.4646 52.8376 22.6813 52.8376 25.4203C52.8376 28.1594 55.0526 30.3761 57.7801 30.3761C60.5077 30.3761 62.7226 28.1594 62.7226 25.4203C62.7226 22.6813 60.5077 20.4646 57.7801 20.4646Z"
          fill="white"></path>
    <path  fill-rule="evenodd" clip-rule="evenodd" stroke-width="1"
          d="M44.5581 45.1166C41.2961 45.1166 38.6555 47.7662 38.6555 51.0301C38.6555 54.2939 41.2961 56.9435 44.5581 56.9435C47.8201 56.9435 50.4606 54.2939 50.4606 51.0301C50.4606 47.7662 47.8201 45.1166 44.5581 45.1166ZM40.6555 51.0301C40.6555 48.8666 42.4048 47.1166 44.5581 47.1166C46.7113 47.1166 48.4606 48.8666 48.4606 51.0301C48.4606 53.1935 46.7113 54.9435 44.5581 54.9435C42.4048 54.9435 40.6555 53.1935 40.6555 51.0301Z"
          fill="white"></path>
    <path  fill-rule="evenodd" clip-rule="evenodd" stroke-width="1"
          d="M24.2449 40.0119C24.2449 37.5704 26.2203 35.5874 28.6618 35.5874C31.1033 35.5874 33.0787 37.5704 33.0787 40.0119C33.0787 42.4535 31.1033 44.4365 28.6618 44.4365C26.2203 44.4365 24.2449 42.4535 24.2449 40.0119ZM28.6618 37.5874C27.3291 37.5874 26.2449 38.6708 26.2449 40.0119C26.2449 41.3531 27.3291 42.4365 28.6618 42.4365C29.9945 42.4365 31.0787 41.3531 31.0787 40.0119C31.0787 38.6708 29.9945 37.5874 28.6618 37.5874Z"
          fill="white"></path>
    <path  fill-rule="evenodd" clip-rule="evenodd" stroke-width="1"
          d="M68.9221 59.1125C66.4806 59.1125 64.5051 61.0956 64.5051 63.5371C64.5051 65.9786 66.4806 67.9616 68.9221 67.9616C71.3636 67.9616 73.339 65.9786 73.339 63.5371C73.339 61.0956 71.3636 59.1125 68.9221 59.1125ZM66.5051 63.5371C66.5051 62.196 67.5893 61.1125 68.9221 61.1125C70.2548 61.1125 71.339 62.196 71.339 63.5371C71.339 64.8782 70.2548 65.9616 68.9221 65.9616C67.5893 65.9616 66.5051 64.8782 66.5051 63.5371Z"
          fill="white"></path>
    <path fill-rule="evenodd" clip-rule="evenodd" stroke-width="1"
          d="M14.2683 49.5802C10.6028 53.0839 7.81603 56.5179 6.17958 59.6284C4.51387 62.7945 3.92456 65.8607 5.19052 68.3114C6.40206 70.6915 8.97991 72.0188 12.2345 72.577C15.5099 73.1387 19.6736 72.9637 24.4107 72.1536C24.835 72.0811 25.2644 72.0033 25.6987 71.9204C32.2099 77.9649 40.9242 81.6598 50.5005 81.6598C70.6646 81.6598 87.0069 65.2778 87.0069 45.0743C87.0069 43.5172 86.9099 41.9828 86.7214 40.4768C87.0734 40.1414 87.4169 39.8071 87.7518 39.4743C91.1539 36.0928 93.7089 32.8147 95.1561 29.8383C96.5935 26.8819 97.0238 24.0305 95.8085 21.6848L95.8021 21.6723L95.7952 21.66C94.452 19.2369 91.6051 17.931 88.0345 17.45C84.5736 16.9838 80.2166 17.2572 75.2857 18.2127C68.7763 12.1774 60.0687 8.48877 50.5005 8.48877C30.3365 8.48877 13.9941 24.8708 13.9941 45.0743C13.9941 46.5998 14.0873 48.1036 14.2683 49.5802ZM15.9941 45.0743C15.9941 25.9711 31.4453 10.4888 50.5005 10.4888C67.7422 10.4888 82.0332 23.1643 84.5973 39.7285C77.9839 45.8562 68.4894 52.4157 57.3213 58.1818C46.1012 63.9747 35.1929 67.9318 26.3289 69.7564C19.9508 63.481 15.9941 54.7412 15.9941 45.0743ZM23.9654 70.2007C19.2893 65.2427 15.9819 58.9749 14.6482 52.0045C11.5803 55.0672 9.30555 57.9822 7.94958 60.5596C6.38479 63.5339 6.15679 65.8266 6.96853 67.3956L6.9718 67.4019C7.76653 68.9654 9.58899 70.094 12.5726 70.6057C15.5137 71.1102 19.39 70.9749 23.9654 70.2007ZM77.0182 19.9293C81.6848 24.8705 84.9911 31.115 86.3368 38.0608L86.3419 38.0558C89.6622 34.7556 92.0469 31.6592 93.3574 28.9638C94.6741 26.2557 94.8222 24.1419 94.0392 22.6173C93.1502 21.0267 91.0966 19.8806 87.7675 19.4321C84.8978 19.0456 81.2482 19.2052 77.0182 19.9293ZM84.8869 42.1685C84.9664 43.1265 85.0069 44.0957 85.0069 45.0743C85.0069 64.1774 69.5558 79.6598 50.5005 79.6598C41.9685 79.6598 34.1591 76.5559 28.1357 71.4128C36.9492 69.4292 47.4794 65.514 58.2388 59.9589C68.942 54.4328 78.1794 48.1596 84.8869 42.1685Z"
          fill="white"></path>
</svg>