<svg width="44" height="44" viewBox="0 0 44 44" fill="none" xmlns="http://www.w3.org/2000/svg">
<path d="M28.1134 42.9687C28.2741 42.7096 28.2852 42.5349 28.1759 42.118C27.9516 41.2628 27.6779 39.3918 27.6187 38.2072C27.2112 31.2058 30.6864 24.2372 36.5236 20.3067C38.3308 19.09 40.4774 18.081 42.2392 17.6077C42.977 17.4142 43.097 17.3487 43.2597 17.0546C43.712 16.2958 43.0736 15.5604 42.1752 15.796C41.3627 16.0091 39.3467 16.2975 38.2776 16.3609C31.2359 16.7449 24.3998 13.3834 20.3942 7.5658C19.2543 5.9219 18.3867 4.13805 17.7361 2.13767C17.4024 1.08251 17.2842 0.850376 17.0493 0.695006C16.6629 0.442196 16.1099 0.598415 15.8602 1.04092C15.6837 1.32702 15.6855 1.46372 15.8454 2.07315C16.3165 3.86958 16.5017 6.2323 16.3364 8.3897C15.9387 13.6712 13.3722 18.7441 9.30755 22.2443C7.27645 23.9999 5.22825 25.1655 2.4135 26.1552C0.926066 26.6712 0.784686 26.7424 0.661926 27.0144C0.499546 27.3542 0.595966 27.809 0.855696 28.0148C1.16954 28.2526 1.55308 28.2775 2.25899 28.0924C3.25346 27.8315 5.38225 27.5817 6.66875 27.5644C13.0334 27.5184 19.2109 30.5497 23.0284 35.6057C24.5016 37.562 25.8486 40.2145 26.3646 42.182C26.5554 42.9093 26.8744 43.3855 27.2046 43.4244C27.591 43.4603 27.9241 43.2927 28.1134 42.9687ZM24.5223 24.4078C23.3327 22.6169 25.7552 26.5351 23.8404 25.1173C22.8208 24.3676 27.9493 24.7927 26.861 24.347C24.4093 23.3214 10.7316 26.0197 7.66735 25.7945C7.57615 25.7955 29.3814 25.0326 29.9643 24.6399C35.2906 21.0259 17.4499 15.4235 18.0598 9.0351C18.1195 8.391 18.1876 7.7787 18.197 7.6848C18.2143 7.5319 15.6662 25.4337 15.7454 25.5613C18.8185 30.2181 25.2245 15.3503 30.2151 17.0355C31.5314 17.4788 33.8643 17.9644 35.3591 18.0865C35.9686 18.1441 26.4005 15.9199 26.3234 15.9746C24.2191 17.4065 21.522 15.9058 20.2872 17.2127C17.6195 20.0264 27.2856 28.3527 26.3833 32.189C26.1048 33.3935 27.9907 29.2552 28.0719 29.5652C28.1593 29.8964 24.7554 12.4258 24.5223 24.4078Z" fill="black"/>
</svg>
