<svg width="160" height="160" viewBox="0 0 160 160" fill="none" xmlns="http://www.w3.org/2000/svg">
    <circle cx="80" cy="80" r="78.5" stroke="white" stroke-width="3"/>
    <path d="M36 80C36 103.748 55.6995 123 80 123C104.301 123 124 103.748 124 80" stroke="white" stroke-width="3" stroke-linecap="round" stroke-linejoin="round"/>
    <mask id="path-3-inside-1" fill="white">
        <ellipse rx="7" ry="16" transform="matrix(-1 0 0 1 60 54)"/>
    </mask>
    <path d="M62 54C62 57.4772 62.6344 60.1948 63.2957 61.7063C63.6322 62.4755 63.8005 62.5328 63.5308 62.2721C63.2179 61.9696 62.0113 61 60 61V79C56.0557 79 53.0076 77.135 51.0197 75.2132C49.0752 73.3332 47.7351 71.0474 46.8048 68.9211C44.9326 64.6417 44 59.3594 44 54H62ZM60 61C57.9887 61 56.7821 61.9696 56.4692 62.2721C56.1995 62.5328 56.3678 62.4755 56.7043 61.7063C57.3656 60.1948 58 57.4772 58 54H76C76 59.3594 75.0674 64.6417 73.1952 68.9211C72.2649 71.0474 70.9248 73.3332 68.9803 75.2132C66.9924 77.135 63.9443 79 60 79V61ZM58 54C58 50.5228 57.3656 47.8052 56.7043 46.2937C56.3678 45.5245 56.1995 45.4672 56.4692 45.7279C56.7821 46.0304 57.9887 47 60 47V29C63.9443 29 66.9924 30.865 68.9803 32.7868C70.9248 34.6668 72.2649 36.9526 73.1952 39.0789C75.0674 43.3583 76 48.6406 76 54H58ZM60 47C62.0113 47 63.2179 46.0304 63.5308 45.7279C63.8005 45.4672 63.6322 45.5245 63.2957 46.2937C62.6344 47.8052 62 50.5228 62 54H44C44 48.6406 44.9326 43.3583 46.8048 39.0789C47.7351 36.9526 49.0752 34.6668 51.0197 32.7868C53.0076 30.865 56.0557 29 60 29V47Z" fill="white" mask="url(#path-3-inside-1)"/>
    <mask id="path-5-inside-2" fill="white">
        <ellipse rx="7" ry="16" transform="matrix(-1 0 0 1 101 54)"/>
    </mask>
    <path d="M103 54C103 57.4772 103.634 60.1948 104.296 61.7063C104.632 62.4755 104.8 62.5328 104.531 62.2721C104.218 61.9696 103.011 61 101 61V79C97.0557 79 94.0076 77.135 92.0197 75.2132C90.0752 73.3332 88.7351 71.0474 87.8048 68.9211C85.9326 64.6417 85 59.3594 85 54H103ZM101 61C98.9887 61 97.7821 61.9696 97.4692 62.2721C97.1995 62.5328 97.3678 62.4755 97.7043 61.7063C98.3656 60.1948 99 57.4772 99 54H117C117 59.3594 116.067 64.6417 114.195 68.9211C113.265 71.0474 111.925 73.3332 109.98 75.2132C107.992 77.135 104.944 79 101 79V61ZM99 54C99 50.5228 98.3656 47.8052 97.7043 46.2937C97.3678 45.5245 97.1995 45.4672 97.4692 45.7279C97.7821 46.0304 98.9887 47 101 47V29C104.944 29 107.992 30.865 109.98 32.7868C111.925 34.6668 113.265 36.9526 114.195 39.0789C116.067 43.3583 117 48.6406 117 54H99ZM101 47C103.011 47 104.218 46.0304 104.531 45.7279C104.8 45.4672 104.632 45.5245 104.296 46.2937C103.634 47.8052 103 50.5228 103 54H85C85 48.6406 85.9326 43.3583 87.8048 39.0789C88.7351 36.9526 90.0752 34.6668 92.0197 32.7868C94.0076 30.865 97.0557 29 101 29V47Z" fill="white" mask="url(#path-5-inside-2)"/>
</svg>