<svg width="89" height="125" viewBox="0 0 89 125" fill="none" xmlns="http://www.w3.org/2000/svg">
    <path d="M27.8217 17.0952C27.757 36.5004 15.7558 52.2107 0.953125 52.2107C15.7928 52.2107 27.8217 67.9993 27.8217 87.4736C27.8217 68.05 39.7905 52.2936 54.5747 52.2107C39.8229 52.1232 27.8818 36.4497 27.8217 17.0952V17.0952Z" fill="#F9CE46"/>
    <path d="M71.3599 0.338379C71.329 10.5034 65.3245 18.734 57.9258 18.734C65.3421 18.734 71.3599 27.0244 71.3599 37.2032C71.3599 27.029 77.3423 18.78 84.7366 18.734C77.3644 18.6879 71.3907 10.4804 71.3599 0.338379Z" fill="#F9CE46"/>
    <path d="M66.35 67.3652C66.2986 83.0757 56.5459 95.7915 44.5195 95.7915C56.5739 95.7915 66.35 108.572 66.35 124.338C66.35 108.614 76.0747 95.8564 88.0871 95.7915C76.1027 95.7219 66.392 83.034 66.35 67.3652Z" fill="#F9CE46"/>
</svg>