<svg width="132" height="132" viewBox="0 0 132 132" fill="none" xmlns="http://www.w3.org/2000/svg">
<path d="M66 132L59.259 91.109L32.9809 123.156L47.6257 84.3743L8.84405 99.0191L40.891 72.741L0 66L40.891 59.259L8.84405 32.9809L47.6257 47.6257L32.9809 8.84405L59.259 40.891L66 0L72.7411 40.891L99.0191 8.84405L84.3743 47.6257L123.156 32.9809L91.109 59.259L132 66L91.109 72.741L123.156 99.0191L84.3743 84.3743L99.0191 123.156L72.7411 91.109L66 132ZM59.5004 90.2068L66 129.63L72.4996 90.2068L97.831 121.097L83.7135 83.7135L121.097 97.831L90.2068 72.4996L129.63 66L90.2068 59.5004L121.097 34.169L83.7135 48.2865L97.831 10.9026L72.4996 41.7932L66 2.36985L59.5004 41.7932L34.169 10.9026L48.2865 48.2865L10.9026 34.169L41.7932 59.5004L2.36985 66L41.7932 72.4996L10.9026 97.831L48.2865 83.7135L34.169 121.097L59.5004 90.2068Z" fill="white"/>
</svg>
