<svg width="121" height="121" viewBox="0 0 121 121" fill="none" xmlns="http://www.w3.org/2000/svg">
<path d="M60.5 121L53.1441 106.894L41.8027 118.052L39.1762 102.358L24.9328 109.438L27.2929 93.7071L11.5619 96.0672L18.6422 81.8238L2.94785 79.1973L14.1056 67.8559L0 60.5L14.1056 53.1441L2.94785 41.8027L18.6422 39.1762L11.5619 24.9328L27.2929 27.293L24.9328 11.5619L39.1762 18.6422L41.8027 2.94786L53.1441 14.1056L60.5 0L67.8559 14.1056L79.1973 2.94786L81.8237 18.6422L96.0671 11.5619L93.707 27.293L109.438 24.9328L102.358 39.1762L118.052 41.8027L106.894 53.1441L121 60.5L106.894 67.8559L118.052 79.1973L102.358 81.8238L109.438 96.0672L93.707 93.7071L96.0671 109.438L81.8237 102.358L79.1973 118.052L67.8559 106.894L60.5 121ZM53.3002 105.884L60.5 119.678L67.6997 105.884L78.7932 116.794L81.3554 101.449L95.2866 108.382L92.9815 92.9907L108.373 95.2958L101.439 81.3646L116.785 78.8024L105.875 67.7089L119.668 60.5092L105.875 53.3094L116.785 42.2159L101.439 39.6538L108.373 25.7226L92.9815 28.0276L95.2866 12.6363L81.3554 19.5697L78.7932 4.20598L67.6997 15.1158L60.5 1.32241L53.3002 15.1158L42.2067 4.20598L39.6446 19.5514L25.7134 12.6179L28.0184 28.0093L12.6271 25.7042L19.5606 39.6354L4.21516 42.1976L15.125 53.2911L1.33157 60.4908L15.125 67.6906L4.21516 78.7841L19.5606 81.3462L12.6271 95.2774L28.0184 92.9724L25.7134 108.364L39.6446 101.43L42.2067 116.776L53.3002 105.884Z" fill="white"/>
</svg>
