<svg width="114" height="114" viewBox="0 0 114 114" fill="none" xmlns="http://www.w3.org/2000/svg">
<g clip-path="url(#clip0_405_118)">
<path d="M56.9639 68.2773C60.1082 65.133 65.2062 65.133 68.3506 68.2773" stroke="white" stroke-width="2.4"/>
<path d="M68.8432 56.3985C65.6989 59.5428 65.6989 64.6408 68.8432 67.7851" stroke="white" stroke-width="2.4"/>
<path d="M57.5662 55.303L55.8691 57L67.7485 68.8794L69.4456 67.1823L57.5662 55.303Z" fill="white"/>
<path d="M53.0403 50.7776L51.3433 52.4746L54.1717 55.303L55.8687 53.606L53.0403 50.7776Z" fill="white"/>
<path d="M49.6468 47.383L47.9497 49.0801L49.6468 50.7771L51.3438 49.0801L49.6468 47.383Z" fill="white"/>
<path d="M46.8181 44.5549L45.1211 46.252L46.2525 47.3833L47.9495 45.6863L46.8181 44.5549Z" fill="white"/>
<path d="M84.5772 29.4228C69.3467 14.1924 44.6533 14.1924 29.4229 29.4228C14.1924 44.6533 14.1924 69.3467 29.4229 84.5772C44.6533 99.8076 69.3467 99.8076 84.5772 84.5772C99.8076 69.3467 99.8076 44.6533 84.5772 29.4228Z" stroke="white" stroke-width="2"/>
</g>
<defs>
<clipPath id="clip0_405_118">
<rect width="80" height="80" fill="white" transform="translate(0.431641 57) rotate(-45)"/>
</clipPath>
</defs>
</svg>
