<?xml version="1.0" encoding="utf-8"?>
<!-- Generator: Adobe Illustrator 25.2.1, SVG Export Plug-In . SVG Version: 6.00 Build 0)  -->
<svg version="1.1" id="Warstwa_1" xmlns="http://www.w3.org/2000/svg" xmlns:xlink="http://www.w3.org/1999/xlink" x="0px" y="0px"
	 viewBox="0 0 372.9 298.8" style="enable-background:new 0 0 372.9 298.8;" xml:space="preserve">
<style type="text/css">
	.st0{fill:none;stroke:#CEFF00;stroke-width:0.5;stroke-miterlimit:10;}
	.st1{fill:#CEFF00;}
</style>
<path class="st1" d="M372.9,148.11c-79.01,0-122.16,0.22-136.16-13.41C223.85,122.15,223.85,79.28,223.85,0v0h-2.58v0
	c0,79.28,0,122.15-12.89,134.7c-1.88,1.83-4.28,3.41-7.22,4.77c-9.24,4.28-20.15,4.28-29.39,0c-2.94-1.36-5.35-2.94-7.23-4.77
	C151.64,122.15,151.64,79.28,151.64,0v0h-2.58v0c0,79.28,0,122.15-12.89,134.7c-14,13.63-57.16,13.41-136.16,13.41l0.01,0H0v2.58
	c79.01,0,122.16-0.22,136.16,13.41c12.89,12.55,12.89,55.43,12.89,134.7h2.58c0-79.28,0-122.15,12.89-134.7
	c1.88-1.83,4.28-3.41,7.23-4.77c9.24-4.28,20.15-4.28,29.39,0c2.94,1.36,5.35,2.94,7.22,4.77c12.89,12.55,12.89,55.43,12.89,134.7
	h2.58c0-79.28,0-122.15,12.89-134.7c14-13.63,57.16-13.41,136.16-13.41V148.11l-0.01,0L372.9,148.11z"/>
</svg>
