<?xml version="1.0" encoding="utf-8"?>
<!-- Generator: Adobe Illustrator 25.2.1, SVG Export Plug-In . SVG Version: 6.00 Build 0)  -->
<svg version="1.1" id="Warstwa_1" xmlns="http://www.w3.org/2000/svg" xmlns:xlink="http://www.w3.org/1999/xlink" x="0px" y="0px"
	 viewBox="0 0 248.66 278.71" style="enable-background:new 0 0 248.66 278.71;" xml:space="preserve">
<style type="text/css">
	.st0{fill:none;stroke:#CEFF00;stroke-width:0.5;stroke-miterlimit:10;}
	.st1{fill:#CEFF00;}
<!--	.st1{fill:#000000;}-->
</style>
<g>
	<g>
		<path class="st1" d="M150.97,32.58L150.97,32.58c0.35-1.75,0.54-3.55,0.54-5.4C151.51,12.17,139.34,0,124.33,0
			S97.15,12.17,97.15,27.18c0,1.85,0.19,3.65,0.54,5.4h0l0.01,0.02c0.15,0.74,0.34,1.48,0.55,2.2l26.09,104.56l26.09-104.56
			c0.21-0.72,0.4-1.45,0.55-2.2L150.97,32.58z"/>
		<path class="st1" d="M97.69,246.13L97.69,246.13c-0.35,1.75-0.54,3.55-0.54,5.4c0,15.01,12.17,27.18,27.18,27.18
			s27.18-12.17,27.18-27.18c0-1.85-0.19-3.65-0.54-5.4h0l-0.01-0.02c-0.15-0.74-0.34-1.48-0.55-2.2l-26.09-104.56L98.24,243.91
			c-0.21,0.72-0.4,1.45-0.55,2.2L97.69,246.13z"/>
	</g>
	<g>
		<path class="st1" d="M203.48,62.89L203.48,62.89c1.34-1.18,2.81-2.24,4.41-3.16c13-7.5,29.62-3.05,37.12,9.95
			s3.05,29.62-9.95,37.12c-1.6,0.92-3.26,1.67-4.94,2.23l0,0l-0.02,0.01c-0.72,0.24-1.45,0.45-2.18,0.62l-103.59,29.69l77.51-74.87
			c0.52-0.54,1.06-1.07,1.63-1.57L203.48,62.89z"/>
		<path class="st1" d="M45.18,215.81L45.18,215.81c-1.34,1.18-2.81,2.24-4.41,3.16c-13,7.5-29.62,3.05-37.12-9.95
			s-3.05-29.62,9.95-37.12c1.6-0.92,3.26-1.67,4.94-2.23l0,0l0.02-0.01c0.72-0.24,1.45-0.45,2.18-0.62l103.59-29.69l-77.51,74.87
			c-0.52,0.54-1.06,1.07-1.63,1.57L45.18,215.81z"/>
	</g>
	<g>
		<path class="st1" d="M45.18,62.89L45.18,62.89c-1.34-1.18-2.81-2.24-4.41-3.16c-13-7.5-29.62-3.05-37.12,9.95
			S0.59,99.3,13.59,106.8c1.6,0.92,3.26,1.67,4.94,2.23l0,0l0.02,0.01c0.72,0.24,1.45,0.45,2.18,0.62l103.59,29.69L46.82,64.48
			c-0.52-0.54-1.06-1.07-1.63-1.57L45.18,62.89z"/>
		<path class="st1" d="M203.48,215.81L203.48,215.81c1.34,1.18,2.81,2.24,4.41,3.16c13,7.5,29.62,3.05,37.12-9.95
			s3.05-29.62-9.95-37.12c-1.6-0.92-3.26-1.67-4.94-2.23l0,0l-0.02-0.01c-0.72-0.24-1.45-0.45-2.18-0.62l-103.59-29.69l77.51,74.87
			c0.52,0.54,1.06,1.07,1.63,1.57L203.48,215.81z"/>
	</g>
</g>
</svg>
