<svg width="38" height="38" viewBox="0 0 38 38" fill="none" xmlns="http://www.w3.org/2000/svg">
	<path d="M19.0005 38C8.52336 38 0 29.4766 0 19.0005C0 8.52444 8.52336 0 19.0005 0C29.4766 0 38 8.52336 38 19.0005C38 29.4777 29.4766 38 19.0005 38ZM19.0005 2.59435C9.95358 2.59435 2.59435 9.95358 2.59435 19.0005C2.59435 28.0475 9.95358 35.4067 19.0005 35.4067C28.0464 35.4067 35.4057 28.0475 35.4057 19.0005C35.4057 9.95358 28.0464 2.59435 19.0005 2.59435Z" fill="white"/>
	<path d="M19.0005 1.29712C28.7771 1.29712 36.7039 9.22286 36.7039 19.0005C36.7039 28.7781 28.7782 36.7038 19.0005 36.7038V1.29712Z" fill="white"/>
</svg>
