<svg width="232" height="276" viewBox="0 0 232 276" fill="none" xmlns="http://www.w3.org/2000/svg">
<g clip-path="url(#clip0)">
<path d="M196.695 97.3907C191.948 86.6581 184.012 77.613 174.958 72.2366C177.108 64.2252 176.122 55.9597 172.066 48.2358C165.859 36.4159 153.216 27.159 136.461 22.1625C133.012 21.1325 129.652 20.3147 126.352 19.7156C115.408 17.7056 105.164 18.0269 94.7499 20.6431C81.7691 23.9023 68.0861 30.7261 50.3823 42.7516C14.7081 66.9796 11.0509 103.62 23.2555 129.179C27.1239 137.287 32.9369 143.125 40.5842 146.636C40.5306 146.78 40.4932 146.934 40.4639 147.093C39.4561 153.406 40.8681 164.83 44.2309 177.645C48.0905 192.36 54.1754 207.578 61.3587 220.511C77.3721 249.337 95.0099 262.653 115.278 261.218C123.882 260.612 130.958 256.552 135.215 249.783C141.328 240.062 141.233 226.064 134.943 210.359C130.977 200.457 124.559 188.676 117.937 177.628C122.77 180.268 128.296 182.23 133.882 183.138C142.679 184.57 150.451 183.174 155.761 179.206C163.265 173.6 167.293 165.503 167.722 155.946C172.636 154.777 189.43 149.509 198.087 130.728C202.418 121.336 201.908 109.184 196.695 97.3907ZM109.763 164.435C103.394 154.474 97.7708 146.309 95.1056 142.507C99.2496 140.553 103.837 137.971 107.869 134.743C111.205 137.365 119.279 144.949 120.006 157.44C120.082 158.819 121.273 159.878 122.66 159.792C124.042 159.714 125.105 158.525 125.02 157.141C124.223 143.346 115.968 134.849 111.659 131.321C114.52 128.38 116.817 125.008 118.044 121.195C119.733 115.944 119.21 110.496 116.513 104.939C134.94 104.895 148.333 114.143 157.374 133.111C166.004 151.211 164.317 166.552 152.76 175.192C148.556 178.339 142.144 179.401 134.706 178.186C124.586 176.548 114.404 170.91 109.763 164.435ZM45.3467 148.445C47.892 149.233 50.6047 149.807 53.4896 150.159C64.5954 151.515 75.6073 149.3 82.8832 147.195C83.7588 146.941 86.6422 146.074 90.4109 144.551C95.6877 152.079 120.742 188.379 130.284 212.215C135.879 226.193 136.124 238.914 130.964 247.122C127.531 252.576 121.987 255.721 114.93 256.222C96.8135 257.504 80.7253 245.026 65.7546 218.073C50.8407 191.237 43.9274 159.869 45.3467 148.445ZM170.366 69.8677C169.14 69.3278 167.896 68.8544 166.65 68.4571C164.97 67.9275 163.327 67.5129 161.712 67.2149C153.425 65.6962 146.046 67.2831 140.154 71.9069C132.509 77.9134 128.355 88.4795 128.506 101.238C127.772 101.064 127.029 100.913 126.269 100.772C122.267 100.04 118.025 99.7868 113.563 100.003C113.092 99.3354 112.595 98.6748 112.061 98.0029C111.226 96.9585 110.362 95.9629 109.454 95.0126C113.549 80.3498 110.707 70.717 107.534 65.1621C103.885 58.7828 98.9971 56.1987 98.7909 56.092C98.5618 55.9772 98.3279 55.898 98.0891 55.8545C97.0317 55.658 95.9287 56.1617 95.4071 57.167C94.7686 58.3945 95.2428 59.9011 96.4659 60.5383C97.1042 60.8811 110.568 68.3965 105.262 91.1799C96.746 84.3945 85.7931 81.1951 73.074 81.8611C60.8732 82.5006 51.4367 86.4283 51.0371 86.5973C49.757 87.1385 49.1574 88.6042 49.6982 89.8806C50.239 91.157 51.7074 91.7533 52.9875 91.2122C53.1629 91.1407 62.1754 87.4224 73.4763 86.8569C86.4406 86.2052 96.9614 89.7746 104.832 97.4585C104.868 97.4909 104.897 97.5249 104.933 97.5573C106.052 98.6612 107.123 99.8463 108.131 101.116C113.371 107.696 115.094 113.938 113.254 119.661C109.473 131.442 91.5095 139.483 81.4884 142.372C69.2336 145.911 39.4742 151.494 27.7861 127.004C16.5073 103.376 19.9903 69.4304 53.2018 46.8663C86.6715 24.1204 108.085 18.9068 135.013 26.94C150.462 31.5474 162.043 39.9272 167.617 50.5421C170.889 56.7954 171.824 63.4209 170.366 69.8677ZM193.53 128.639C186.391 144.134 172.798 149.33 167.624 150.785C167.106 144.585 165.216 137.896 161.903 130.957C156.911 120.486 150.517 112.577 142.886 107.45C139.988 105.503 136.874 103.935 133.571 102.738C133.076 90.8434 136.568 81.1046 143.26 75.8397C148.926 71.3896 156.483 70.488 165.124 73.2266C176.175 76.7323 186.513 86.7665 192.104 99.4087C196.736 109.902 197.256 120.55 193.53 128.639Z" fill="#fff"/>
</g>
<defs>
<clipPath id="clip0">
<rect width="238.818" height="178.028" fill="white" transform="translate(58.6899 275.872) rotate(-104.066)"/>
</clipPath>
</defs>
</svg>
