<?xml version="1.0" encoding="utf-8"?>
<!-- Generator: Adobe Illustrator 25.2.1, SVG Export Plug-In . SVG Version: 6.00 Build 0)  -->
<svg version="1.1" id="Warstwa_1" xmlns="http://www.w3.org/2000/svg" xmlns:xlink="http://www.w3.org/1999/xlink" x="0px" y="0px"
	 viewBox="0 0 300.69 298.81" style="enable-background:new 0 0 300.69 298.81;" xml:space="preserve">
<style type="text/css">
	.st0{fill:none;stroke:#CEFF00;stroke-width:0.5;stroke-miterlimit:10;}
	.st1{fill:#CEFF00;}
</style>
<path class="st1" d="M173.5,140.22c-0.21-0.08-0.42-0.16-0.63-0.26c-0.33-0.13-0.66-0.28-0.98-0.43c-1.02-0.46-1.97-0.95-2.86-1.48
	c-0.26-0.14-0.51-0.3-0.76-0.45c-0.2-0.13-0.4-0.26-0.6-0.39c-0.28-0.18-0.54-0.37-0.8-0.56c-0.86-0.61-1.64-1.26-2.34-1.95
	c-12.9-12.55-12.9-55.42-12.9-134.7h-2.58c0,39.64,0,70.18-1.61,92.37c-1.61,22.2-4.84,36.06-11.28,42.33
	c-0.7,0.69-1.48,1.34-2.34,1.95c-0.26,0.19-0.52,0.38-0.8,0.56c-0.2,0.13-0.4,0.26-0.6,0.39c-0.25,0.16-0.5,0.31-0.76,0.45
	c-0.85,0.5-1.76,0.97-2.72,1.42c-0.05,0.02-0.09,0.04-0.14,0.06c-0.32,0.15-0.65,0.3-0.98,0.43c-0.21,0.09-0.42,0.18-0.63,0.26
	c-19.73,8.04-60.8,7.89-127.18,7.89H0v2.58c66.38,0,107.46-0.16,127.19,7.89c0.21,0.08,0.42,0.17,0.63,0.26
	c0.33,0.13,0.66,0.28,0.98,0.43c0.05,0.02,0.09,0.04,0.14,0.06c0.74,0.34,1.44,0.7,2.1,1.07c0.32,0.17,0.62,0.34,0.92,0.53
	c0.37,0.21,0.72,0.43,1.06,0.66c0.28,0.18,0.54,0.37,0.8,0.56c0.29,0.2,0.56,0.41,0.83,0.63c0.27,0.21,0.52,0.42,0.77,0.64
	c0.26,0.22,0.5,0.45,0.74,0.68c12.89,12.55,12.89,55.43,12.89,134.71h2.58c0-79.28,0-122.16,12.9-134.71
	c0.24-0.23,0.48-0.46,0.74-0.68c0.25-0.22,0.5-0.43,0.77-0.64c0.27-0.22,0.54-0.43,0.83-0.63c0.26-0.19,0.52-0.38,0.8-0.56
	c0.34-0.23,0.69-0.45,1.06-0.66c0.3-0.19,0.6-0.36,0.92-0.53c0.71-0.4,1.46-0.77,2.24-1.13c0.32-0.15,0.65-0.3,0.98-0.43
	c0.21-0.1,0.42-0.18,0.63-0.26c19.73-8.05,60.8-7.89,127.19-7.89v-2.58C234.3,148.11,193.23,148.27,173.5,140.22z"/>
</svg>
