<?xml version="1.0" encoding="utf-8"?>
<!-- Generator: Adobe Illustrator 25.2.3, SVG Export Plug-In . SVG Version: 6.00 Build 0)  -->
<svg version="1.1" id="Warstwa_1" xmlns="http://www.w3.org/2000/svg" xmlns:xlink="http://www.w3.org/1999/xlink" x="0px" y="0px"
	 viewBox="0 0 357.47 265.77" style="enable-background:new 0 0 357.47 265.77;" xml:space="preserve">
<style type="text/css">
	.st0{fill:#FFFFFF;}
	.st1{fill:#484D9B;}
	.st2{fill:none;stroke:#484D9B;stroke-width:4;stroke-linecap:round;stroke-linejoin:round;stroke-miterlimit:10;}
	.st3{fill:none;stroke:#FFFFFF;stroke-width:5;stroke-miterlimit:10;}
	.st4{fill:none;stroke:#FFFFFF;stroke-width:2;stroke-miterlimit:10;}
	.st5{fill:none;stroke:#FFFFFF;stroke-width:10;stroke-miterlimit:10;}
	.st6{fill:none;stroke:#FFFFFF;stroke-width:10;stroke-linecap:round;stroke-miterlimit:10;}
</style>
<path d="M208.94,264.6c17.31-2.98,33.33-11.19,44.43-22.35c10.85,6.02,23.21,7.59,35.9,4.52c19.42-4.7,37.46-19.65,50.81-42.1
	c2.75-4.62,5.16-9.19,7.23-13.75c6.9-15.12,10.16-30.07,10.15-46.1c-0.01-19.98-4.94-42.27-15.96-72.27
	C319.3,12.1,267.43-6.49,225.88,1.91c-13.18,2.66-23.77,8.96-31.65,18.76c-0.19-0.13-0.4-0.24-0.62-0.34
	c-8.8-3.75-25.9-5.85-45.73-5.63c-22.77,0.25-47.08,3.54-68.47,9.25C31.73,36.68,5.98,57.39,0.69,87.26
	c-2.25,12.68,1.07,24.4,9.35,33.02c11.89,12.38,32.25,17.32,57.34,13.91c15.82-2.15,35.26-7.17,53.71-12.75
	c-5.59,6.04-10.45,13.33-13.8,21.09c-5.28,12.22-6.08,23.98-2.25,33.11c5.41,12.9,15.7,21.67,29.42,25.76
	c-0.09,7.54,1.45,33.77,25.57,53.12C172.09,264.2,189.92,267.87,208.94,264.6z M143.22,114.39c16.78-5.61,30.68-10.79,37.17-13.27
	c1.33,6.71,3.41,14.29,6.63,21.3c-5.02,3.88-18.97,12.82-37.37,9.34c-2.03-0.39-4,0.95-4.38,2.99c-0.39,2.03,0.95,4,2.99,4.38
	c20.32,3.85,35.66-5.02,42.35-9.98c3.23,5.21,7.29,9.76,12.38,12.92c7.01,4.35,15.11,5.57,24.16,3.68
	c-6.64,26.7-24.94,42.74-55.77,48.95c-29.42,5.93-51.08-2.08-59.42-21.95c-3.04-7.23-2.25-16.9,2.22-27.23
	C120.24,131.46,132.13,118.76,143.22,114.39z M189.87,26.91c-2.07,3.4-3.89,7.12-5.45,11.17c-6.01,15.59-6.8,32.34-6.39,43.64
	c0.05,1.36,0.26,5.85,1.1,11.86c-12.85,4.91-74.67,28.02-112.75,33.19c-22.33,3.03-40.89-1.23-50.93-11.68
	c-6.67-6.95-9.22-16.12-7.38-26.52c4.73-26.7,28.7-45.47,73.28-57.37C125.74,19.34,173.8,20.71,189.87,26.91z M258.48,236.46
	c1.23-1.58,2.37-3.21,3.4-4.87c1.38-2.24,2.58-4.47,3.6-6.7c5.22-11.45,5.6-22.71,1.03-32.92c-5.94-13.25-19.77-23.1-38.35-27.51
	c0.52-1,1.01-2.02,1.49-3.07c2.52-5.53,4.43-11.58,5.74-18.12c1.14-0.44,2.28-0.92,3.45-1.45c1.82-0.83,3.58-1.72,5.29-2.69
	c19.8,11.25,34.82,10.63,44.04,8.05c10.59-2.97,16.12-9.11,16.35-9.37c0.25-0.29,0.45-0.6,0.6-0.93c0.67-1.46,0.34-3.24-0.93-4.36
	c-1.55-1.37-3.91-1.23-5.28,0.31c-0.73,0.8-16.54,17.57-47.69,1.62c12.95-9.87,21.58-24.57,25.24-43.23
	c3.51-17.9,1.24-32.99,1.14-33.63c-0.32-2.05-2.23-3.45-4.28-3.13s-3.45,2.23-3.13,4.28c0.04,0.28,2.16,14.68-1.13,31.25
	c-3.77,19.01-12.78,32.95-26.8,41.56c-0.06,0.04-0.12,0.07-0.18,0.11c-2.01,1.22-4.12,2.34-6.33,3.34
	c-11.46,5.2-21.15,5.43-28.79,0.69c-15.73-9.75-20.87-38.68-21.42-54.24c-0.68-19.03,2.04-64.15,41.85-72.19
	c38.41-7.76,86.43,9.6,107.11,65.88c20.85,56.72,20.63,89.62-0.83,125.7c-12.31,20.7-28.69,34.43-46.13,38.65
	C277.27,241.96,267.31,240.91,258.48,236.46z M164.72,248.68c-19.9-15.96-22.5-37.53-22.73-45.55c9.19,1.5,19.59,1.19,30.87-1.09
	c17.02-3.43,30.83-9.82,41.05-19.01c3.88-3.49,7.29-7.43,10.23-11.78c17.45,3.6,30.32,12.19,35.53,23.79
	c4.4,9.82,2.96,21.09-4.16,32.61c-9.11,14.73-27.44,26.06-47.83,29.57C190.76,260.12,175.11,257.01,164.72,248.68z"/>
</svg>
