<?xml version="1.0" encoding="utf-8"?>
<!-- Generator: Adobe Illustrator 25.2.3, SVG Export Plug-In . SVG Version: 6.00 Build 0)  -->
<svg version="1.1" id="Warstwa_1" xmlns="http://www.w3.org/2000/svg" xmlns:xlink="http://www.w3.org/1999/xlink" x="0px" y="0px"
	 viewBox="0 0 58.11 270.65" style="enable-background:new 0 0 58.11 270.65;" xml:space="preserve">
<style type="text/css">
	.st0{fill:#1D1D1B;}
	.st1{fill:#CEFF00;}
	.st2{fill:#FFFFFF;}
	.st3{fill:none;stroke:#CEFF00;stroke-width:0.25;stroke-miterlimit:10;}
	.st4{clip-path:url(#SVGID_2_);}
	.st5{clip-path:url(#SVGID_4_);}
	.st6{clip-path:url(#SVGID_8_);}
	.st7{clip-path:url(#SVGID_10_);fill:#CEFF00;}
	.st8{fill:none;stroke:#1D1D1B;stroke-width:0.5;stroke-miterlimit:10;}
	.st9{fill:none;stroke:#1D1D1B;stroke-width:0.01;stroke-miterlimit:10;}
	.st10{clip-path:url(#SVGID_12_);fill:#CEFF00;}
	.st11{fill:#0A0A0A;}
	.st12{clip-path:url(#SVGID_14_);fill:#CEFF00;}
	.st13{fill:none;stroke:#000000;stroke-width:1.1;stroke-miterlimit:10;}
	.st14{fill:#FFEC00;}
	.st15{fill:none;stroke:#000000;stroke-miterlimit:10;}
	.st16{fill:none;stroke:#FFFFFF;stroke-miterlimit:10;}
	.st17{fill:none;stroke:#000000;}
	.st18{fill:none;}
</style>
<g>
	<g>
		<path d="M40.97,50.17c-0.07-0.27-0.18-0.67-0.31-0.94c-0.38-0.73-1.01-0.75-1.72-0.39c-0.76,0.39-1.06,1.18-0.65,1.97
			c0.17,0.33,0.42,0.51,0.75,0.61c0.36,0.12,1.03,0.27,1.52,0.4c0.56,0.11,0.98,0.36,1.25,0.88c0.3,0.58,0.28,1.17,0.05,1.68
			c-0.17,0.4-0.5,0.73-0.96,0.97c-0.59,0.3-1.1,0.27-1.41,0.11l-0.07,0.59l-0.24-0.01c-0.04-0.69-0.18-1.49-0.3-2.01l0.26-0.09
			c0.25,1.15,0.94,1.5,1.69,1.11c0.75-0.39,0.83-1.11,0.5-1.76c-0.18-0.38-0.51-0.61-0.97-0.71c-0.63-0.19-1.1-0.29-1.42-0.37
			c-0.51-0.1-0.92-0.31-1.17-0.79c-0.24-0.46-0.29-0.95-0.17-1.42c0.18-0.66,0.65-1.15,1.31-1.49c0.63-0.33,1.38-0.42,1.97-0.3
			c0.03,0.46,0.21,1.31,0.32,1.78L40.97,50.17z"/>
		<path d="M31.72,53l-0.15-0.51c0.26-0.9,1.13-1.74,2.23-2.01c1.48-0.37,2.44,0.39,2.8,1.85c0.31,1.25,0.11,2.84-0.66,3.97
			c-0.38,0.55-0.98,1.08-1.89,1.31c-0.72,0.18-1.35,0.03-1.66-0.28l-0.21,0.62l-0.23-0.07c0.08-0.54,0.16-1.63,0.13-2.18l0.25-0.07
			c0.03,0.66,0.19,1.15,0.44,1.4c0.3,0.28,0.68,0.4,1.21,0.27c0.53-0.13,1.05-0.46,1.42-1.12c0.58-1.08,0.67-2.5,0.38-3.67
			c-0.15-0.61-0.46-1.13-0.75-1.35c-0.36-0.28-0.85-0.39-1.35-0.27c-1.11,0.28-1.61,1-1.81,2.08L31.72,53z"/>
		<path d="M29.21,57.96c-0.25-0.01-0.77-0.06-1.12-0.07c-0.35-0.01-0.77,0.01-1.33,0c-0.7-0.02-1.08-0.14-1.35-0.4
			c-0.24-0.22-0.32-0.55-0.31-0.94c0.03-1.18,0.96-1.76,2.18-1.91l0-0.04c-1.02-0.22-1.27-0.63-1.22-1.28
			c-0.04-0.21-0.01-0.48,0.15-1.04c0.13-0.54,0.03-0.81-0.45-0.84c-0.08,0-0.25,0-0.33,0.01l0.13-0.28
			c0.11-0.03,0.36-0.05,0.54-0.05c0.92,0.02,1.06,0.49,0.89,1.24c-0.08,0.32-0.14,0.56-0.19,0.79c-0.21,0.98,0.38,1.21,1.05,1.27
			c0.28,0.05,0.62,0.08,0.78,0.05c0.53-1.69,0.67-2.18,0.76-2.54c0.06-0.26,0.01-0.33-0.27-0.35l-0.53-0.06l0.11-0.27
			c0.25,0.01,0.82,0.05,1.27,0.06c0.43,0.01,0.87-0.01,1.2,0l-0.11,0.27l-0.37,0.04c-0.33,0.02-0.41,0.11-0.51,0.37
			c-0.12,0.29-0.43,1.23-0.91,2.76c-0.5,1.56-0.68,2.22-0.77,2.56c-0.07,0.23-0.01,0.28,0.23,0.31l0.61,0.08L29.21,57.96z
			 M27.32,57.6c0.2,0,0.29-0.04,0.37-0.22c0.1-0.22,0.18-0.51,0.83-2.56c-0.1-0.01-0.21-0.02-0.33-0.02
			c-1.38-0.03-2.29,0.61-2.32,1.82c-0.01,0.27,0.06,0.5,0.18,0.65c0.15,0.17,0.4,0.32,0.94,0.34L27.32,57.6z"/>
		<path d="M17.88,53.71c0.36-1.2,1.31-2.56,2.41-3.16c0.8-0.43,1.58-0.53,2.45-0.27c1.21,0.36,1.93,1.27,1.47,2.82
			c-0.41,1.36-1.62,2.87-2.96,3.37c-0.64,0.23-1.28,0.28-1.97,0.07C17.94,56.14,17.47,55.09,17.88,53.71z M21.21,55.91
			c1.01-0.7,1.92-2.05,2.26-3.21c0.37-1.23-0.08-1.89-0.84-2.11c-0.55-0.17-1.11-0.14-1.77,0.28c-1.02,0.68-1.94,2.15-2.29,3.34
			c-0.27,0.91-0.13,1.77,0.84,2.06C19.95,56.43,20.58,56.34,21.21,55.91z"/>
		<path d="M14.14,48.27c0.31-0.23,1.04-0.78,1.61-1.19c0.3,0.26,1.5,1,2.73,1.75c0.38,0.23,0.91,0.52,1.14,0.67l-0.21,0.19
			c-0.17-0.09-0.35-0.17-0.53-0.25c-0.14-0.07-0.26-0.08-0.4,0.03c-0.49,0.39-1.21,1.04-2.29,2.04c-0.83,0.76-1.47,1.36-1.99,1.87
			c-0.11,0.1-0.1,0.17,0.06,0.3l0.47,0.34l-0.24,0.19c-0.2-0.12-0.67-0.46-0.99-0.66c-0.3-0.19-0.72-0.41-1.11-0.63l0.22-0.2
			l0.5,0.25c0.21,0.1,0.29,0.09,0.46-0.04c0.46-0.36,1.11-0.94,2.03-1.8c0.9-0.84,1.79-1.66,2.26-2.15c0.08-0.1,0.03-0.17-0.52-0.5
			c-1.1-0.68-1.32-0.75-1.76-0.62c-0.4,0.13-0.85,0.38-1.23,0.59L14.14,48.27z"/>
		<path d="M10.15,44.39c0.36-0.15,1.2-0.51,1.84-0.79c0.23,0.32,1.22,1.32,2.25,2.34c0.31,0.31,0.76,0.72,0.96,0.92L14.94,47
			c-0.14-0.13-0.3-0.25-0.46-0.37c-0.13-0.1-0.23-0.14-0.4-0.06c-0.57,0.27-1.42,0.73-2.71,1.45c-0.99,0.54-1.75,0.99-2.37,1.36
			c-0.13,0.07-0.14,0.14-0.01,0.3l0.38,0.44L9.1,50.24c-0.16-0.16-0.55-0.61-0.81-0.87c-0.25-0.25-0.61-0.57-0.93-0.88l0.26-0.14
			l0.43,0.36c0.18,0.15,0.26,0.16,0.45,0.07c0.53-0.24,1.3-0.66,2.39-1.27c1.07-0.61,2.12-1.2,2.7-1.56
			c0.1-0.08,0.07-0.16-0.39-0.61c-0.91-0.91-1.11-1.04-1.57-1.01c-0.42,0.03-0.91,0.17-1.33,0.29L10.15,44.39z"/>
		<path d="M3.31,42.68c-0.08-0.2-0.28-0.74-0.42-1.03c-0.17-0.38-0.39-0.78-0.64-1.33C1.9,39.53,1.83,38.93,2,38.39
			c0.14-0.52,0.66-1.03,1.37-1.34c1.59-0.71,3.47-0.57,4.74,0.6c0.38,0.36,0.73,0.94,0.99,1.52c0.2,0.45,0.35,0.92,0.55,1.37
			c0.12,0.28,0.43,0.89,0.52,1.09l-0.29,0.02l-0.25-0.43C9.51,41,9.44,40.94,9.12,40.96c-0.28,0.02-0.68,0.06-2.69,0.34
			c-1.88,0.25-2.47,0.36-2.84,0.43c-0.21,0.04-0.25,0.11-0.18,0.31l0.2,0.62L3.31,42.68z M3.1,41.04c0.25-0.02,0.78-0.05,2.91-0.37
			c2.15-0.33,2.65-0.41,2.93-0.48c0.15-0.05,0.22-0.15-0.05-0.76c-0.35-0.78-0.66-1.14-0.96-1.38c-1.11-0.88-2.98-0.82-4.34-0.21
			c-0.53,0.24-0.89,0.55-1.06,0.87c-0.26,0.5-0.17,1.09,0.11,1.72C2.88,40.98,2.98,41.05,3.1,41.04z"/>
		<path d="M2.05,29.36c1.24-0.16,2.87,0.17,3.86,0.93c0.72,0.56,1.12,1.24,1.23,2.13c0.16,1.25-0.38,2.28-1.98,2.48
			c-1.41,0.18-3.28-0.32-4.27-1.34c-0.46-0.49-0.77-1.06-0.86-1.77C-0.15,30.39,0.62,29.54,2.05,29.36z M1.38,33.29
			c1.04,0.64,2.65,0.93,3.84,0.77c1.27-0.16,1.69-0.84,1.59-1.62c-0.07-0.57-0.31-1.07-0.97-1.51c-1.03-0.65-2.75-0.9-3.98-0.75
			c-0.94,0.12-1.67,0.59-1.54,1.6C0.39,32.35,0.72,32.89,1.38,33.29z"/>
		<path d="M0.02,26.92c0.07-0.26,0.18-0.66,0.26-1.06c0.09-0.45,0.13-0.78,0.2-1.2l0.26,0.13c-0.09,0.67-0.08,0.75,0.22,0.83
			c1.02,0.27,3,0.73,4.9,1.18c-1.28-1-3.27-2.63-4.71-3.7c-0.08-0.06-0.19-0.12-0.29-0.17c0.04-0.14,0.08-0.44,0.06-0.62
			c0.54,0.13,3.06,0.64,5.65,1.2c-2.66-2.36-3.61-3.18-4.39-3.78c-0.23-0.18-0.3-0.14-0.38,0.06l-0.17,0.56l-0.27-0.13
			c0.05-0.23,0.18-0.69,0.25-1.04c0.08-0.38,0.1-0.73,0.18-1.09l0.26,0.13C2,18.76,2.05,18.94,2.32,19.22
			c1.17,1.17,4.06,3.71,5.15,4.61c-0.01,0.21,0,0.39,0.03,0.52l-0.05,0.04c-1.18-0.28-3.43-0.71-5.67-1.21
			c2.26,1.74,3.97,3.19,5.02,3.94c-0.01,0.24,0,0.36,0.03,0.53L6.79,27.7c-1.13-0.27-4.82-1.15-6.04-1.36
			c-0.19-0.04-0.25-0.01-0.3,0.18c-0.06,0.2-0.13,0.37-0.16,0.54L0.02,26.92z"/>
		<path d="M6.09,12.72c-0.19-0.15-0.29-0.13-0.47,0.12l-0.3,0.42l-0.19-0.24c0.15-0.28,0.41-0.62,0.56-0.88
			c0.18-0.31,0.41-0.82,0.56-1.03l0.2,0.22c-0.08,0.15-0.15,0.3-0.19,0.46c-0.06,0.14-0.06,0.28,0.08,0.46
			c0.46,0.58,2.68,2.9,4.38,4.47c-0.1,0.16-0.15,0.38-0.17,0.52c-1.35-0.31-4.16-0.79-6.12-1.14c1.55,1.55,3.03,3.03,3.6,3.54
			c0.27,0.24,0.4,0.23,0.53,0.09c0.11-0.13,0.28-0.33,0.43-0.57l0.19,0.22c-0.19,0.33-0.46,0.73-0.68,1.1
			c-0.16,0.28-0.37,0.65-0.52,0.95L7.8,21.22c0.07-0.12,0.15-0.36,0.2-0.49c0.07-0.18,0.02-0.33-0.18-0.59
			c-0.33-0.45-2.44-2.63-3.72-3.92c-0.19-0.2-0.3-0.13-0.45,0.07L3.26,16.8l-0.19-0.24c0.11-0.18,0.34-0.5,0.52-0.8
			c0.12-0.21,0.19-0.37,0.25-0.49c1.65,0.29,4.19,0.74,5.87,1.02C7.65,14.18,6.55,13.08,6.09,12.72z"/>
		<path d="M13.73,10.05c0.72,1.18,1.74,1.26,2.87,0.55c0.93-0.59,1.42-1.51,0.79-2.52c-0.42-0.66-1.1-0.6-2.44-0.28
			c-1.36,0.33-2.2,0.34-2.74-0.53c-0.69-1.09-0.16-2.34,1-3.06c1.2-0.76,2.43-0.76,3.29,0.52l-0.56,0.35
			c-0.62-0.9-1.5-0.97-2.44-0.38C12.69,5.22,12.2,6,12.75,6.88c0.36,0.58,0.98,0.54,2.06,0.28c1.43-0.34,2.47-0.54,3.13,0.52
			c0.79,1.24,0.27,2.59-1.06,3.42c-1.31,0.82-2.78,0.89-3.74-0.69L13.73,10.05z"/>
		<path d="M23.53,2.47c-0.44-0.97-1.28-1.37-2.35-1.05c-2.02,0.6-2.33,2.87-1.79,4.7c0.42,1.41,1.38,2.31,2.91,1.85
			c1.31-0.39,1.86-1.56,1.77-2.88l0.65-0.2c0.06,0.83-0.08,1.6-0.44,2.25c-0.36,0.67-0.99,1.17-1.84,1.43
			c-1.85,0.55-3.2-0.39-3.74-2.21c-0.63-2.1-0.07-4.79,2.37-5.52c1.35-0.4,2.54,0.05,3.12,1.45L23.53,2.47z"/>
		<path d="M31.34,7.53l-0.7,0c-0.09-0.11-0.19-0.32-0.17-0.96c0-0.22,0.01-0.52,0.06-0.86c0.1-1.2-0.27-1.54-1.37-1.55l-2.23-0.01
			l-0.66,3.36l-0.69,0L27.06,0l2.83,0.01c0.63,0,1.13,0.16,1.48,0.46c0.38,0.33,0.56,0.81,0.56,1.41c0,1.05-0.6,1.71-1.48,2v0.03
			c0.65,0.28,0.85,0.8,0.76,1.82c-0.04,0.33-0.05,0.6-0.05,0.81c0,0.66,0.1,0.86,0.2,0.95V7.53z M27.04,3.56l2.26,0.01
			c1.13,0,1.91-0.5,1.92-1.67c0-0.79-0.46-1.27-1.42-1.28l-2.17-0.01L27.04,3.56z"/>
		<path d="M32.99,4.52c0.69-2.19,2.7-3.87,4.96-3.16c1.71,0.53,2.62,2.13,2,4.13c-0.69,2.2-2.61,3.87-4.96,3.14
			C33.3,8.09,32.37,6.52,32.99,4.52z M39.27,5.27c0.48-1.52-0.06-2.87-1.52-3.33c-1.9-0.59-3.46,0.87-4.06,2.79
			c-0.48,1.53,0.06,2.85,1.52,3.31C37.12,8.64,38.67,7.18,39.27,5.27z"/>
		<path d="M39.61,9.66l3.18,2.1l-0.46,0.46l-3.75-2.48l5.35-5.46l0.58,0.38L39.61,9.66z"/>
		<path d="M43.94,12.79l2.59,2.8l-0.56,0.34l-3.06-3.31l6.49-4.04l0.47,0.51L43.94,12.79z"/>
		<path d="M54.9,16.1l0.92,2.14c0.78,1.8,0.04,3.04-1.6,3.74c-2.21,0.95-4.67,0.67-5.73-1.79l-1.06-2.46L54.9,16.1z M48.3,18.24
			l0.73,1.69c0.88,2.05,2.89,2.25,4.86,1.41c1.34-0.58,1.96-1.48,1.35-2.89l-0.68-1.58L48.3,18.24z"/>
		<path d="M53.26,23.79c2.28-0.21,4.6,0.99,4.83,3.35c0.17,1.78-0.95,3.24-3.03,3.43c-2.29,0.21-4.58-0.91-4.8-3.36
			C50.09,25.46,51.17,23.99,53.26,23.79z M54.99,29.86c1.58-0.15,2.62-1.16,2.48-2.69c-0.18-1.98-2.13-2.85-4.14-2.66
			c-1.6,0.15-2.6,1.15-2.46,2.68C51.06,29.19,52.99,30.05,54.99,29.86z"/>
		<path d="M56.84,37.71l-5.06-0.75c-0.54-0.08-1.44-0.26-1.44-0.26l0,0.02c0,0,0.82,0.57,1.3,0.93l4.4,3.29l-0.17,0.67l-6.5-4.95
			l0.17-0.69l5.43,0.85c0.5,0.08,1.21,0.22,1.21,0.22l0-0.02c0,0-0.62-0.42-1.08-0.76l-4.73-3.63l0.18-0.7L58,33.1l-0.17,0.67
			l-5-0.85c-0.55-0.09-1.47-0.28-1.47-0.28l-0.01,0.02c0,0,0.8,0.58,1.26,0.93l4.41,3.39L56.84,37.71z"/>
		<path d="M45.65,43.32l0.4-0.6l5.59,0.99c0.63,0.11,1.38,0.29,1.38,0.29l0.01-0.02l-4.74-4.65l0.37-0.55l5.46,5.35l-0.41,0.62
			l-5.66-1c-0.64-0.11-1.28-0.28-1.28-0.28l-0.01,0.02l4.73,4.64l-0.36,0.55L45.65,43.32z"/>
	</g>
	<g>
		<path d="M38.53,28.88L38.53,28.88c-5.2-0.01-9.4-4.21-9.4-9.41H29l0.12,0v-6.25h-1.09v6.3h0c-0.02,5.18-4.24,9.36-9.42,9.36v0.01
			h-6.25v1.09h6.25v-0.01c5.19,0,9.42,4.23,9.42,9.42h-0.01v6.25h1.09v-6.25h0.01c0-5.2,4.21-9.42,9.4-9.42v-0.02l0.01,0.03h6.25
			v-1.09H38.53z"/>
	</g>
	<g>
		<rect x="28.08" y="68.06" width="1" height="202.59"/>
	</g>
	<g>
		<path d="M29.08,270.65h-1c0-11.56,9.41-20.97,20.97-20.97v1C38.04,250.68,29.08,259.64,29.08,270.65z"/>
	</g>
	<g>
		<path d="M29.08,270.65h-1c0-11.01-8.96-19.97-19.97-19.97v-1C19.67,249.68,29.08,259.08,29.08,270.65z"/>
	</g>
</g>
</svg>
