<?xml version="1.0" encoding="utf-8"?>
<!-- Generator: Adobe Illustrator 25.2.3, SVG Export Plug-In . SVG Version: 6.00 Build 0)  -->
<svg version="1.1" id="Warstwa_1" xmlns="http://www.w3.org/2000/svg" xmlns:xlink="http://www.w3.org/1999/xlink" x="0px" y="0px"
	 viewBox="0 0 273.19 273.19" style="enable-background:new 0 0 273.19 273.19;" xml:space="preserve">
<style type="text/css">
	.st0{fill:#FFFFFF;}
	.st1{fill:#484D9B;}
	.st2{fill:none;stroke:#484D9B;stroke-width:4;stroke-linecap:round;stroke-linejoin:round;stroke-miterlimit:10;}
	.st3{fill:none;stroke:#FFFFFF;stroke-width:5;stroke-miterlimit:10;}
	.st4{fill:none;stroke:#FFFFFF;stroke-width:2;stroke-miterlimit:10;}
	.st5{fill:none;stroke:#FFFFFF;stroke-width:10;stroke-miterlimit:10;}
	.st6{fill:none;stroke:#FFFFFF;stroke-width:10;stroke-linecap:round;stroke-miterlimit:10;}
</style>
<g>
	<path d="M136.6,0C61.28,0,0,61.28,0,136.6s61.28,136.6,136.6,136.6s136.6-61.28,136.6-136.6S211.92,0,136.6,0z M136.6,263.19
		C66.79,263.19,10,206.4,10,136.6S66.79,10,136.6,10s126.6,56.79,126.6,126.6S206.4,263.19,136.6,263.19z"/>
	<path d="M225.7,166.39c-0.12-0.04-11.86-3.93-12.77-13.4c-0.26-2.75-2.71-4.76-5.46-4.5c-2.75,0.26-4.76,2.71-4.5,5.46
		c0.5,5.25,2.7,9.38,5.45,12.59c-6.1,12.93-15.51,24.09-27.07,32.1c-13.1,9.11-28.88,14.08-44.76,14.03
		c-15.88,0.05-31.66-4.92-44.76-14.03c-11.88-8.23-21.48-19.8-27.56-33.19c2.33-3.03,4.11-6.82,4.56-11.49
		c0.26-2.75-1.75-5.19-4.5-5.46c-2.74-0.26-5.19,1.75-5.46,4.5c-0.91,9.43-12.54,13.33-12.77,13.4c-2.62,0.83-4.08,3.63-3.26,6.26
		c0.67,2.14,2.64,3.51,4.77,3.51c0.49,0,1-0.07,1.5-0.23c0.36-0.11,4.75-1.54,9.3-4.85c5.55,14.06,15.19,26.63,27.48,35.77
		c7.21,5.44,15.36,9.63,23.95,12.51c8.61,2.85,17.68,4.27,26.74,4.33c9.06-0.05,18.13-1.48,26.74-4.33
		c8.59-2.89,16.74-7.08,23.95-12.51c12.07-8.97,21.58-21.25,27.18-35.01c4.14,2.78,7.89,3.99,8.22,4.1c0.5,0.16,1,0.23,1.49,0.23
		c2.12,0,4.08-1.36,4.76-3.49C229.77,170.05,228.32,167.24,225.7,166.39z"/>
	<path d="M97.89,116.66c8.19,0,14.82-11.85,14.82-26.47c0-14.62-6.64-26.47-14.82-26.47c-8.19,0-14.82,11.85-14.82,26.47
		C83.07,104.81,89.7,116.66,97.89,116.66z"/>
	<path d="M175.3,116.66c8.19,0,14.82-11.85,14.82-26.47c0-14.62-6.64-26.47-14.82-26.47c-8.19,0-14.82,11.85-14.82,26.47
		C160.48,104.81,167.12,116.66,175.3,116.66z"/>
</g>
</svg>
