<?xml version="1.0" encoding="utf-8"?>
<!-- Generator: Adobe Illustrator 25.2.3, SVG Export Plug-In . SVG Version: 6.00 Build 0)  -->
<svg version="1.1" id="Warstwa_1" xmlns="http://www.w3.org/2000/svg" xmlns:xlink="http://www.w3.org/1999/xlink" x="0px" y="0px"
	 viewBox="0 0 58.11 270.62" style="enable-background:new 0 0 58.11 270.62;" xml:space="preserve">
<style type="text/css">
	.st0{fill:#1D1D1B;}
	.st1{fill:#CEFF00;}
	.st2{fill:#FFFFFF;}
	.st3{fill:none;stroke:#CEFF00;stroke-width:0.25;stroke-miterlimit:10;}
	.st4{clip-path:url(#SVGID_2_);}
	.st5{clip-path:url(#SVGID_4_);}
	.st6{clip-path:url(#SVGID_8_);}
	.st7{clip-path:url(#SVGID_10_);fill:#CEFF00;}
	.st8{fill:none;stroke:#1D1D1B;stroke-width:0.5;stroke-miterlimit:10;}
	.st9{fill:none;stroke:#1D1D1B;stroke-width:0.01;stroke-miterlimit:10;}
	.st10{clip-path:url(#SVGID_12_);fill:#CEFF00;}
	.st11{fill:#0A0A0A;}
	.st12{clip-path:url(#SVGID_14_);fill:#CEFF00;}
	.st13{fill:none;stroke:#000000;stroke-width:1.1;stroke-miterlimit:10;}
	.st14{fill:#FFEC00;}
	.st15{fill:none;stroke:#000000;stroke-miterlimit:10;}
	.st16{fill:none;stroke:#FFFFFF;stroke-miterlimit:10;}
	.st17{fill:none;stroke:#000000;}
	.st18{fill:none;}
</style>
<g>
	<path class="st1" d="M40.83,55.05c-0.75,0.39-1.44,0.03-1.69-1.11l-0.26,0.09c0.12,0.52,0.26,1.32,0.3,2.01l0.24,0.02l0.07-0.59
		c0.31,0.16,0.82,0.19,1.41-0.11c0.47-0.24,0.79-0.58,0.96-0.97c0.23-0.51,0.25-1.1-0.05-1.68c-0.27-0.52-0.69-0.77-1.25-0.88
		c-0.49-0.12-1.16-0.27-1.52-0.4c-0.33-0.1-0.58-0.27-0.75-0.61c-0.41-0.79-0.11-1.58,0.65-1.97c0.71-0.37,1.34-0.34,1.72,0.39
		c0.12,0.27,0.24,0.67,0.31,0.94l0.23-0.19c-0.11-0.46-0.29-1.32-0.32-1.78c-0.59-0.12-1.34-0.03-1.97,0.3
		c-0.66,0.34-1.13,0.83-1.31,1.49c-0.13,0.47-0.07,0.96,0.17,1.42c0.25,0.49,0.65,0.69,1.17,0.79c0.32,0.07,0.79,0.17,1.42,0.37
		c0.47,0.1,0.79,0.34,0.97,0.71C41.67,53.94,41.58,54.66,40.83,55.05z"/>
	<path class="st1" d="M32.17,57.94l0.21-0.63c0.3,0.31,0.94,0.46,1.66,0.28c0.92-0.23,1.51-0.76,1.89-1.31
		c0.77-1.13,0.97-2.72,0.66-3.97c-0.36-1.46-1.33-2.21-2.8-1.85c-1.1,0.27-1.96,1.11-2.23,2.01L31.72,53l0.15-0.04
		c0.2-1.08,0.7-1.81,1.81-2.08c0.5-0.12,0.99-0.01,1.35,0.27c0.28,0.22,0.59,0.74,0.75,1.35c0.29,1.17,0.2,2.59-0.38,3.67
		c-0.37,0.66-0.89,0.99-1.42,1.12c-0.53,0.13-0.92,0.01-1.21-0.27c-0.26-0.25-0.41-0.74-0.44-1.4l-0.25,0.07
		c0.03,0.55-0.05,1.64-0.13,2.18L32.17,57.94z"/>
	<path class="st1" d="M29.27,54.74c0.49-1.53,0.79-2.47,0.91-2.76c0.1-0.26,0.19-0.34,0.51-0.37l0.37-0.03l0.11-0.27
		c-0.33-0.01-0.77,0.01-1.2,0c-0.45-0.01-1.02-0.05-1.27-0.06l-0.11,0.27l0.53,0.06c0.27,0.03,0.32,0.09,0.27,0.35
		c-0.09,0.37-0.23,0.86-0.76,2.54c-0.16,0.03-0.49,0-0.78-0.05c-0.67-0.07-1.26-0.29-1.05-1.27c0.05-0.23,0.11-0.47,0.19-0.79
		c0.17-0.75,0.04-1.22-0.89-1.24c-0.18,0-0.43,0.02-0.54,0.05l-0.13,0.28c0.07-0.01,0.24-0.02,0.33-0.01
		c0.48,0.03,0.58,0.3,0.45,0.84c-0.16,0.55-0.19,0.83-0.15,1.04c-0.05,0.65,0.2,1.05,1.22,1.28v0.04c-1.22,0.15-2.16,0.74-2.18,1.91
		c-0.01,0.39,0.08,0.73,0.31,0.94c0.27,0.26,0.64,0.38,1.35,0.4c0.57,0.01,0.99-0.01,1.33,0c0.36,0.01,0.87,0.06,1.12,0.07
		l0.12-0.27l-0.61-0.08c-0.24-0.03-0.3-0.08-0.23-0.31C28.59,56.96,28.77,56.3,29.27,54.74z M27.7,57.38
		c-0.08,0.19-0.17,0.23-0.37,0.22l-0.32-0.01c-0.54-0.01-0.78-0.16-0.94-0.33c-0.12-0.15-0.19-0.37-0.18-0.64
		c0.03-1.21,0.93-1.85,2.32-1.82c0.12,0,0.22,0,0.33,0.02C27.87,56.87,27.79,57.16,27.7,57.38z"/>
	<path class="st1" d="M19.28,56.54c0.69,0.21,1.33,0.16,1.97-0.07c1.34-0.5,2.55-2.01,2.96-3.37c0.46-1.55-0.26-2.46-1.47-2.82
		c-0.87-0.26-1.65-0.16-2.45,0.27c-1.1,0.6-2.05,1.96-2.41,3.16C17.47,55.08,17.95,56.14,19.28,56.54z M18.58,54.21
		c0.35-1.19,1.27-2.66,2.29-3.34c0.66-0.43,1.22-0.45,1.77-0.28c0.75,0.23,1.21,0.89,0.84,2.12c-0.35,1.16-1.25,2.51-2.26,3.21
		c-0.63,0.44-1.26,0.52-1.8,0.36C18.44,55.98,18.31,55.12,18.58,54.21z"/>
	<path class="st1" d="M16.18,51.51c1.08-1,1.8-1.65,2.29-2.04c0.15-0.12,0.26-0.1,0.4-0.04c0.18,0.09,0.37,0.16,0.53,0.25l0.21-0.19
		c-0.23-0.14-0.77-0.44-1.14-0.67c-1.23-0.76-2.43-1.5-2.73-1.75c-0.56,0.42-1.3,0.96-1.61,1.19l0.2,0.17
		c0.38-0.21,0.83-0.46,1.23-0.59c0.44-0.13,0.66-0.06,1.76,0.62c0.54,0.34,0.6,0.41,0.52,0.5c-0.47,0.49-1.36,1.31-2.26,2.15
		c-0.92,0.85-1.57,1.44-2.03,1.8c-0.17,0.13-0.25,0.14-0.46,0.04l-0.5-0.25l-0.22,0.2c0.39,0.23,0.81,0.45,1.11,0.63
		c0.31,0.19,0.79,0.54,0.99,0.66l0.24-0.19l-0.47-0.34c-0.17-0.13-0.18-0.19-0.06-0.3C14.71,52.87,15.34,52.26,16.18,51.51z"/>
	<path class="st1" d="M9.09,50.23l0.28-0.12l-0.38-0.44c-0.13-0.16-0.13-0.23,0.01-0.3c0.62-0.37,1.38-0.82,2.37-1.36
		c1.29-0.72,2.14-1.19,2.71-1.45c0.17-0.08,0.28-0.04,0.4,0.06c0.16,0.13,0.32,0.25,0.46,0.37l0.25-0.13
		c-0.19-0.19-0.64-0.6-0.96-0.91c-1.02-1.03-2.02-2.02-2.25-2.34c-0.65,0.27-1.49,0.64-1.84,0.78l0.16,0.21
		c0.42-0.12,0.91-0.26,1.33-0.29c0.46-0.03,0.66,0.1,1.57,1.01c0.45,0.45,0.49,0.54,0.39,0.61c-0.57,0.36-1.63,0.96-2.7,1.56
		c-1.09,0.62-1.87,1.03-2.39,1.27c-0.19,0.09-0.27,0.08-0.45-0.07l-0.43-0.36l-0.26,0.14c0.33,0.31,0.68,0.62,0.93,0.88
		C8.54,49.62,8.93,50.07,9.09,50.23z"/>
	<path class="st1" d="M3.59,41.73c0.37-0.07,0.97-0.18,2.84-0.43c2-0.27,2.41-0.32,2.69-0.34c0.32-0.03,0.39,0.03,0.51,0.24
		l0.25,0.43l0.29-0.02c-0.09-0.2-0.4-0.81-0.52-1.09c-0.2-0.45-0.35-0.92-0.55-1.37C8.84,38.58,8.49,38,8.11,37.64
		c-1.27-1.17-3.15-1.31-4.74-0.6C2.66,37.36,2.15,37.87,2,38.39c-0.17,0.54-0.1,1.14,0.25,1.92c0.25,0.55,0.47,0.96,0.64,1.33
		c0.13,0.3,0.34,0.84,0.42,1.03l0.29-0.02l-0.2-0.62C3.34,41.84,3.37,41.77,3.59,41.73z M3.1,41.04c-0.12,0.01-0.22-0.06-0.47-0.61
		c-0.28-0.63-0.38-1.23-0.11-1.72c0.17-0.32,0.54-0.63,1.06-0.87c1.36-0.61,3.23-0.67,4.34,0.22c0.3,0.23,0.61,0.6,0.96,1.38
		c0.27,0.61,0.2,0.71,0.05,0.76c-0.28,0.07-0.77,0.15-2.92,0.48C3.89,40.99,3.35,41.02,3.1,41.04z"/>
	<path class="st1" d="M5.16,34.9c1.6-0.2,2.14-1.23,1.98-2.48c-0.11-0.89-0.52-1.58-1.23-2.13c-1-0.76-2.62-1.09-3.86-0.93
		c-1.43,0.18-2.2,1.04-2.02,2.42c0.09,0.72,0.39,1.28,0.86,1.77C1.88,34.58,3.75,35.08,5.16,34.9z M1.38,33.29
		c-0.65-0.4-0.99-0.94-1.05-1.5c-0.13-1.01,0.61-1.48,1.54-1.6c1.23-0.16,2.94,0.09,3.98,0.75c0.66,0.43,0.9,0.93,0.97,1.51
		c0.1,0.78-0.32,1.46-1.59,1.62C4.02,34.22,2.42,33.93,1.38,33.29z"/>
	<path class="st1" d="M0.44,26.52c0.06-0.19,0.12-0.22,0.31-0.18c1.22,0.21,4.91,1.09,6.04,1.36l0.05-0.04
		c-0.03-0.17-0.04-0.29-0.03-0.53c-1.05-0.75-2.76-2.2-5.02-3.94c2.24,0.49,4.49,0.93,5.67,1.21l0.05-0.04
		c-0.04-0.12-0.04-0.31-0.03-0.52c-1.09-0.89-3.99-3.44-5.15-4.61C2.05,18.94,2,18.76,2.07,18.21L1.8,18.08
		c-0.08,0.36-0.1,0.71-0.18,1.09c-0.07,0.35-0.21,0.82-0.25,1.04l0.27,0.13l0.17-0.55c0.07-0.2,0.14-0.24,0.38-0.06
		c0.78,0.6,1.73,1.42,4.39,3.78c-2.58-0.56-5.11-1.07-5.65-1.2c0.02,0.17-0.02,0.48-0.06,0.62c0.1,0.04,0.2,0.11,0.29,0.17
		c1.44,1.07,3.44,2.71,4.71,3.71c-1.9-0.45-3.89-0.91-4.9-1.18c-0.29-0.08-0.31-0.16-0.22-0.83l-0.26-0.13
		c-0.07,0.42-0.11,0.75-0.2,1.2c-0.08,0.4-0.18,0.8-0.26,1.06l0.26,0.14C0.31,26.89,0.38,26.72,0.44,26.52z"/>
	<path class="st1" d="M3.65,16.29c0.15-0.19,0.26-0.26,0.45-0.07c1.28,1.29,3.39,3.47,3.72,3.92c0.2,0.26,0.25,0.41,0.18,0.59
		c-0.05,0.13-0.13,0.37-0.2,0.49l0.18,0.23c0.15-0.3,0.35-0.67,0.52-0.95c0.22-0.37,0.49-0.77,0.68-1.1l-0.19-0.22
		c-0.15,0.23-0.32,0.44-0.43,0.57c-0.13,0.14-0.26,0.15-0.53-0.09c-0.57-0.51-2.05-1.99-3.6-3.54c1.96,0.35,4.77,0.83,6.12,1.14
		c0.02-0.14,0.07-0.36,0.17-0.52c-1.71-1.58-3.92-3.89-4.38-4.47c-0.14-0.18-0.14-0.32-0.08-0.46c0.04-0.16,0.11-0.31,0.19-0.46
		l-0.2-0.22c-0.14,0.22-0.38,0.73-0.56,1.04c-0.15,0.25-0.41,0.6-0.56,0.88l0.19,0.24l0.29-0.42c0.19-0.26,0.28-0.27,0.47-0.12
		c0.46,0.36,1.55,1.46,3.62,3.57c-1.69-0.28-4.22-0.72-5.88-1.02c-0.05,0.12-0.13,0.28-0.25,0.49c-0.17,0.3-0.41,0.62-0.52,0.8
		l0.19,0.24L3.65,16.29z"/>
	<path class="st1" d="M14.95,7.8c1.34-0.32,2.02-0.38,2.43,0.28c0.63,1,0.15,1.93-0.78,2.52c-1.13,0.71-2.15,0.62-2.87-0.55
		l-0.58,0.36c0.96,1.58,2.43,1.51,3.74,0.69c1.32-0.83,1.84-2.18,1.06-3.42c-0.67-1.06-1.7-0.87-3.13-0.52
		c-1.08,0.26-1.7,0.3-2.06-0.28C12.2,6,12.69,5.22,13.51,4.7c0.93-0.59,1.82-0.52,2.44,0.38l0.56-0.35
		c-0.87-1.28-2.09-1.28-3.29-0.52c-1.16,0.73-1.69,1.97-1,3.06C12.76,8.14,13.6,8.13,14.95,7.8z"/>
	<path class="st1" d="M22.44,8.56c0.86-0.25,1.48-0.76,1.84-1.43c0.36-0.64,0.5-1.42,0.44-2.25l-0.65,0.19
		c0.09,1.32-0.46,2.5-1.77,2.88c-1.53,0.46-2.49-0.44-2.91-1.85c-0.55-1.83-0.24-4.09,1.79-4.7c1.08-0.32,1.91,0.08,2.35,1.05
		l0.66-0.19c-0.58-1.39-1.77-1.85-3.12-1.45c-2.44,0.73-2.99,3.41-2.37,5.52C19.24,8.17,20.59,9.11,22.44,8.56z"/>
	<path class="st1" d="M26.93,4.15l2.23,0.01c1.1,0,1.47,0.35,1.37,1.55c-0.04,0.35-0.06,0.64-0.06,0.86
		c-0.01,0.64,0.08,0.85,0.17,0.96l0.7,0V7.49c-0.09-0.08-0.2-0.29-0.2-0.95c0-0.21,0.01-0.48,0.06-0.81
		c0.09-1.02-0.11-1.54-0.76-1.82V3.88c0.88-0.29,1.47-0.95,1.48-2c0-0.6-0.18-1.08-0.56-1.41c-0.35-0.3-0.85-0.46-1.48-0.46L27.06,0
		l-1.48,7.5l0.69,0L26.93,4.15z M27.62,0.61l2.18,0.01c0.97,0,1.43,0.49,1.42,1.28c0,1.18-0.78,1.68-1.92,1.67l-2.26-0.01
		L27.62,0.61z"/>
	<path class="st1" d="M35,8.62c2.35,0.73,4.27-0.94,4.96-3.14c0.62-2-0.29-3.59-2-4.13c-2.27-0.71-4.28,0.97-4.96,3.16
		C32.37,6.52,33.31,8.09,35,8.62z M33.69,4.73c0.6-1.93,2.16-3.39,4.06-2.79c1.46,0.46,2,1.81,1.52,3.33
		c-0.6,1.92-2.15,3.37-4.06,2.77C33.74,7.58,33.21,6.27,33.69,4.73z"/>
	<polygon class="st1" points="42.33,12.23 42.79,11.76 39.62,9.66 44.5,4.67 43.93,4.29 38.58,9.75 	"/>
	<polygon class="st1" points="45.98,15.93 46.54,15.59 43.95,12.79 49.88,9.09 49.41,8.59 42.92,12.63 	"/>
	<path class="st1" d="M48.49,20.21c1.06,2.46,3.52,2.74,5.73,1.79c1.64-0.71,2.38-1.94,1.6-3.74l-0.92-2.14l-7.47,1.64L48.49,20.21z
		 M55.25,18.46c0.61,1.41-0.01,2.31-1.35,2.89c-1.97,0.85-3.98,0.64-4.86-1.41l-0.73-1.69l6.26-1.38L55.25,18.46z"/>
	<path class="st1" d="M53.26,23.79c-2.09,0.2-3.18,1.67-3.01,3.43c0.23,2.45,2.52,3.57,4.8,3.36c2.08-0.19,3.2-1.66,3.03-3.43
		C57.87,24.79,55.54,23.58,53.26,23.79z M57.47,27.18c0.14,1.53-0.9,2.54-2.48,2.69c-2,0.19-3.93-0.68-4.12-2.67
		c-0.14-1.53,0.86-2.53,2.46-2.67C55.34,24.33,57.28,25.2,57.47,27.18z"/>
	<path class="st1" d="M50.38,32.62l4.73,3.63c0.46,0.34,1.08,0.76,1.08,0.76l0,0.02c0,0-0.71-0.13-1.21-0.22l-5.43-0.85l-0.17,0.69
		l6.5,4.95l0.17-0.67l-4.4-3.29c-0.48-0.36-1.3-0.93-1.3-0.93l0.01-0.02c0,0,0.9,0.18,1.44,0.26l5.06,0.75l0.18-0.72l-4.42-3.39
		c-0.46-0.35-1.26-0.93-1.26-0.93l0-0.02c0,0,0.92,0.19,1.47,0.28l5,0.85L58,33.1l-7.44-1.19L50.38,32.62z"/>
	<path class="st1" d="M48.29,39.33l4.74,4.65l-0.01,0.02c0,0-0.75-0.17-1.38-0.29l-5.59-0.99l-0.4,0.6l5.46,5.35l0.37-0.55
		l-4.73-4.64l0.01-0.02c0,0,0.64,0.17,1.28,0.28l5.66,1l0.41-0.62l-5.46-5.35L48.29,39.33z"/>
	<path class="st1" d="M18.67,28.85h-6.25v1.09h6.25v-0.01c5.19,0,9.42,4.23,9.42,9.42h-0.01v6.25h1.09v-6.25h0.01
		c0-5.2,4.21-9.42,9.4-9.42v-0.02l0.01,0.03h6.25v-1.09h-6.26v-0.01c-5.2,0-9.4-4.21-9.4-9.4h-0.13l0.12,0v-6.25h-1.09v6.3h0
		C28.07,24.66,23.85,28.84,18.67,28.85L18.67,28.85z"/>
	<path class="st1" d="M29.13,264.24V68.03h-1v196.21c-2.71-8.45-10.63-14.59-19.97-14.59v1c11.01,0,19.97,8.96,19.97,19.97h1
		c0-11.01,8.96-19.97,19.97-19.97v-1C39.76,249.65,31.84,255.79,29.13,264.24z"/>
</g>
</svg>
