<svg width="115" height="116" viewBox="0 0 115 116" class="_3Kp1Hwtj"><path pid="0" d="M56.72 8.68a3.96 3.96 0 100-7.92 3.96 3.96 0 000 7.92zm.44 10.85a3.96 3.96 0 100-7.92 3.96 3.96 0 000 7.92zm-.14 10.7a3.96 3.96 0 100-7.92 3.96 3.96 0 000 7.92zm.14 10.84a3.96 3.96 0 100-7.91 3.96 3.96 0 000 7.91zM68 9.56a3.96 3.96 0 100-7.92 3.96 3.96 0 000 7.92zm.3 11.14a3.96 3.96 0 100-7.92 3.96 3.96 0 000 7.92zM68 31.54a3.96 3.96 0 100-7.91 3.96 3.96 0 000 7.91zm0 11.29a3.96 3.96 0 100-7.91 3.96 3.96 0 000 7.91zm9.97-5.13a3.96 3.96 0 100-7.91 3.96 3.96 0 000 7.91zm9.83-6a3.96 3.96 0 100-7.92 3.96 3.96 0 000 7.91zm8.64-6.17a3.96 3.96 0 100-7.91 3.96 3.96 0 000 7.91zm-8.5-7.18a3.96 3.96 0 100-7.91 3.96 3.96 0 000 7.91zm-9.52 7.04a3.96 3.96 0 100-7.92 3.96 3.96 0 000 7.92zm0-12.46a3.96 3.96 0 100-7.91 3.96 3.96 0 000 7.91zm29.46 31.95a3.96 3.96 0 100-7.91 3.96 3.96 0 000 7.91zm2.34 11.14a3.96 3.96 0 100-7.91 3.96 3.96 0 000 7.91zM98.35 50.9a3.96 3.96 0 100-7.92 3.96 3.96 0 000 7.91zm-9.97 5.85a3.96 3.96 0 100-7.91 3.96 3.96 0 000 7.91zm-9.82 5.43a3.96 3.96 0 100-7.92 3.96 3.96 0 000 7.92zm9.97 5.72a3.96 3.96 0 100-7.92 3.96 3.96 0 000 7.91zm10.41 5.12a3.96 3.96 0 100-7.91 3.96 3.96 0 000 7.91zm.58-11.43a3.96 3.96 0 100-7.91 3.96 3.96 0 000 7.91zm10.85 4.84a3.96 3.96 0 100-7.92 3.96 3.96 0 000 7.92zm-2.2 11.14a3.96 3.96 0 100-7.92 3.96 3.96 0 000 7.92zM66.4 56.17a3.96 3.96 0 100-7.92 3.96 3.96 0 000 7.92zm9.52-4.99a3.96 3.96 0 100-7.91 3.96 3.96 0 000 7.91zm9.53-5.56a3.96 3.96 0 100-7.92 3.96 3.96 0 000 7.91zm9.09-5.42a3.96 3.96 0 100-7.92 3.96 3.96 0 000 7.91zm8.64-5.58a3.96 3.96 0 100-7.91 3.96 3.96 0 000 7.91zM57.02 51.18a3.96 3.96 0 100-7.91 3.96 3.96 0 000 7.91zm0 10.7a3.96 3.96 0 100-7.91 3.96 3.96 0 000 7.91zm-.44 9.97a3.96 3.96 0 100-7.91 3.96 3.96 0 000 7.91zm0 10.85a3.96 3.96 0 100-7.92 3.96 3.96 0 000 7.92zm.29 10.99a3.96 3.96 0 100-7.92 3.96 3.96 0 000 7.92zm.15 10.55a3.96 3.96 0 100-7.91 3.96 3.96 0 000 7.91zm10.84-24.77a3.96 3.96 0 100-7.91 3.96 3.96 0 000 7.91zm0 10.7a3.96 3.96 0 100-7.91 3.96 3.96 0 000 7.91zm0 11.29a3.96 3.96 0 100-7.92 3.96 3.96 0 000 7.92zm1.61 12.46a3.96 3.96 0 100-7.92 3.96 3.96 0 000 7.92zm10.85-3.82a3.96 3.96 0 100-7.9 3.96 3.96 0 000 7.9zm8.94-5.27a3.96 3.96 0 100-7.92 3.96 3.96 0 000 7.92zm-10.7-6.16a3.96 3.96 0 100-7.91 3.96 3.96 0 000 7.91zm-.14-12.02a3.96 3.96 0 100-7.91 3.96 3.96 0 000 7.91zm10.11 5.87a3.96 3.96 0 100-7.92 3.96 3.96 0 000 7.92zm-42.51 9.08a3.96 3.96 0 100-7.9 3.96 3.96 0 000 7.9zm.59-11.57a3.96 3.96 0 100-7.92 3.96 3.96 0 000 7.92zm-.15-10.7a3.96 3.96 0 100-7.92 3.96 3.96 0 000 7.92zm-7.91-6.16a3.96 3.96 0 100-7.92 3.96 3.96 0 000 7.92zM28.87 78a3.96 3.96 0 100-7.9 3.96 3.96 0 000 7.9zm-9.52 5.72a3.96 3.96 0 100-7.91 3.96 3.96 0 000 7.91zm-3.81-10.84a3.96 3.96 0 100-7.92 3.96 3.96 0 000 7.92zm10.4-5.28a3.96 3.96 0 100-7.91 3.96 3.96 0 000 7.91zm-11.28-5.57a3.96 3.96 0 100-7.91 3.96 3.96 0 000 7.91zm11.28 30.78a3.96 3.96 0 100-7.91 3.96 3.96 0 000 7.91zm9.97-6.16a3.96 3.96 0 100-7.91 3.96 3.96 0 000 7.91zm-.59 11.44a3.96 3.96 0 100-7.92 3.96 3.96 0 000 7.92zm62.3-1.32a3.96 3.96 0 100-7.92 3.96 3.96 0 000 7.92zM46.32 9.85a3.96 3.96 0 100-7.91 3.96 3.96 0 000 7.91zm0 10.7a3.96 3.96 0 100-7.91 3.96 3.96 0 000 7.91zm-.3 11.87a3.96 3.96 0 100-7.91 3.96 3.96 0 000 7.91zm.44 10.56a3.96 3.96 0 100-7.92 3.96 3.96 0 000 7.92zm10.84 72.26a3.96 3.96 0 100-7.92 3.96 3.96 0 000 7.92zM11.14 34.77a3.96 3.96 0 100-7.92 3.96 3.96 0 000 7.92zm9.23 5.57a3.96 3.96 0 100-7.92 3.96 3.96 0 000 7.92zm8.94 5.28a3.96 3.96 0 100-7.92 3.96 3.96 0 000 7.91zm8.95 5.28a3.96 3.96 0 100-7.92 3.96 3.96 0 000 7.91zM17.88 25.68a3.96 3.96 0 100-7.91 3.96 3.96 0 000 7.91zm9.09 6.02a3.96 3.96 0 100-7.92 3.96 3.96 0 000 7.91zm-.44-13.35a3.96 3.96 0 100-7.91 3.96 3.96 0 000 7.91zm9.23-5.42a3.96 3.96 0 100-7.91 3.96 3.96 0 000 7.91zm-.14 11.87a3.96 3.96 0 100-7.91 3.96 3.96 0 000 7.91zm1.02 12.75a3.96 3.96 0 100-7.91 3.96 3.96 0 000 7.91zm11 18.76a3.96 3.96 0 100-7.91 3.96 3.96 0 000 7.91zM6.6 44.88a3.96 3.96 0 100-7.91 3.96 3.96 0 000 7.91zM4.25 55.29a3.96 3.96 0 100-7.92 3.96 3.96 0 000 7.92zm-.29 10.84a3.96 3.96 0 100-7.91 3.96 3.96 0 000 7.91zM6.3 77.42a3.96 3.96 0 100-7.91 3.96 3.96 0 000 7.91zm4.25 10.11a3.96 3.96 0 100-7.91 3.96 3.96 0 000 7.91zM17 97.06a3.96 3.96 0 100-7.91 3.96 3.96 0 000 7.91zm8.65 7.77a3.96 3.96 0 100-7.92 3.96 3.96 0 000 7.92zm8.8 5.42a3.96 3.96 0 100-7.91 3.96 3.96 0 000 7.91zm11.28 3.81a3.96 3.96 0 100-7.91 3.96 3.96 0 000 7.91zM16.27 50.45a3.96 3.96 0 100-7.91 3.96 3.96 0 000 7.91zm9.82 5.57a3.96 3.96 0 100-7.91 3.96 3.96 0 000 7.91zm9.97 5.57a3.96 3.96 0 100-7.91 3.96 3.96 0 000 7.91zm10.99 5.28a3.96 3.96 0 100-7.92 3.96 3.96 0 000 7.92zm19.49.14a3.96 3.96 0 100-7.91 3.96 3.96 0 000 7.91zm9.38 5.72a3.96 3.96 0 100-7.91 3.96 3.96 0 000 7.91zm9.68 5.13a3.96 3.96 0 100-7.91 3.96 3.96 0 000 7.91zm8.79 5.57a3.96 3.96 0 100-7.92 3.96 3.96 0 000 7.92zm9.68 4.25a3.96 3.96 0 100-7.91 3.96 3.96 0 000 7.91z" fill="currentColor"></path></svg>