<svg width="922" height="622" viewBox="0 0 922 622" fill="none" xmlns="http://www.w3.org/2000/svg">
<path d="M365.094 454.457C266.282 409.628 187.575 352.94 140.193 297.547C116.501 269.849 100.656 242.493 94.0316 217.121C87.408 191.751 90.0082 168.394 103.156 148.646C116.304 128.899 138.798 114.567 168.294 105.585C197.793 96.6013 234.263 92.9799 275.288 94.6438C357.337 97.9715 457.5 122.435 556.311 167.265C655.123 212.094 733.83 268.782 781.212 324.176C804.904 351.873 820.749 379.229 827.373 404.602C833.997 429.971 831.397 453.328 818.249 473.076C805.101 492.823 782.607 507.155 753.111 516.137C723.612 525.121 687.142 528.742 646.117 527.078C564.068 523.751 463.905 499.287 365.094 454.457Z" stroke="white"/>
<path d="M425.209 137.191C425.374 136.912 425.37 136.723 425.2 136.272C424.851 135.347 424.345 133.325 424.16 132.044C422.996 124.477 426.437 116.954 432.972 112.721C434.995 111.41 437.441 110.325 439.483 109.817C440.338 109.61 440.474 109.54 440.638 109.222C441.1 108.403 440.272 107.607 439.231 107.859C438.289 108.088 435.927 108.395 434.667 108.461C426.359 108.859 417.931 105.21 412.619 98.9136C411.108 97.1343 409.907 95.2045 408.941 93.0411C408.443 91.9001 408.28 91.6489 407.987 91.4804C407.504 91.2063 406.864 91.3738 406.611 91.8515C406.43 92.1602 406.446 92.308 406.694 92.9669C407.427 94.9094 407.876 97.4632 407.89 99.7943C407.932 105.501 405.384 110.977 400.908 114.75C398.671 116.643 396.358 117.897 393.118 118.96C391.406 119.514 391.245 119.591 391.126 119.885C390.967 120.251 391.125 120.743 391.453 120.966C391.848 121.224 392.305 121.252 393.123 121.053C394.277 120.774 396.775 120.509 398.298 120.493C405.836 120.459 413.451 123.749 418.467 129.222C420.403 131.34 422.257 134.209 423.06 136.337C423.357 137.123 423.781 137.639 424.176 137.682C424.638 137.721 425.016 137.541 425.209 137.191ZM419.148 117.124C417.565 115.186 420.816 119.426 418.409 117.889C417.128 117.077 423.247 117.548 421.914 117.064C418.909 115.95 402.962 118.833 399.309 118.583C399.201 118.584 424.967 117.811 425.62 117.388C431.581 113.495 409.894 107.398 409.995 100.496C410.003 99.7999 410.025 99.1384 410.027 99.0369C410.032 98.8717 408.753 118.212 408.86 118.35C412.954 123.39 419.1 107.338 425.178 109.171C426.781 109.653 429.593 110.183 431.376 110.319C432.104 110.382 420.549 107.956 420.463 108.015C418.108 109.557 414.766 107.929 413.43 109.339C410.542 112.373 422.807 121.394 422.11 125.538C421.897 126.839 423.73 122.371 423.856 122.706C423.992 123.064 418.26 104.176 419.148 117.124Z" fill="#CEFF00"/>
<path d="M832.755 521.457C833.071 520.842 833.052 520.444 832.681 519.517C831.92 517.614 830.774 513.416 830.321 510.738C827.506 494.922 833.972 478.527 846.88 468.627C850.876 465.562 855.738 462.911 859.821 461.541C861.532 460.978 861.802 460.809 862.113 460.114C862.994 458.316 861.275 456.756 859.191 457.441C857.307 458.062 852.568 459.055 850.031 459.379C833.314 461.436 816.102 454.961 805.005 442.437C801.85 438.899 799.308 434.998 797.228 430.569C796.153 428.232 795.81 427.725 795.208 427.412C794.219 426.904 792.939 427.351 792.459 428.397C792.113 429.076 792.153 429.386 792.695 430.741C794.293 434.738 795.357 440.067 795.53 444.989C795.969 457.039 791.174 468.98 782.387 477.606C777.998 481.931 773.412 484.92 766.95 487.639C763.533 489.061 763.214 489.246 762.993 489.884C762.694 490.682 763.044 491.698 763.719 492.121C764.531 492.607 765.453 492.599 767.091 492.06C769.397 491.301 774.416 490.376 777.484 490.12C792.673 488.944 808.225 494.781 818.673 505.609C822.707 509.799 826.621 515.59 828.372 519.967C829.018 521.585 829.906 522.612 830.705 522.644C831.637 522.661 832.388 522.224 832.755 521.457ZM819.295 479.952C815.983 476.089 822.8 484.571 817.853 481.677C815.221 480.147 827.581 480.248 824.865 479.42C818.739 477.506 786.781 485.931 779.403 485.936C779.186 485.954 831.065 480.551 832.354 479.562C844.124 470.466 800.04 460.76 799.816 446.164C799.789 444.692 799.79 443.292 799.788 443.077C799.789 442.727 798.413 483.771 798.636 484.047C807.201 494.095 818.589 459.285 830.952 462.267C834.213 463.052 839.912 463.76 843.515 463.786C844.986 463.814 821.548 460.379 821.378 460.516C816.729 464.119 809.892 461.168 807.287 464.341C801.656 471.174 826.933 488.437 825.787 497.292C825.439 500.072 828.854 490.366 829.13 491.055C829.426 491.792 816.699 452.729 819.295 479.952Z" fill="#CEFF00"/>
</svg>
