<svg width="1190" height="901" viewBox="0 0 1190 901" fill="none" xmlns="http://www.w3.org/2000/svg">
<g filter="url(#filter0_d)">
<path d="M695.825 677.722C560.789 736.781 427.218 764.309 320.437 761.09C213.613 757.869 133.791 723.895 105.923 660.177C78.0544 596.458 107.296 514.783 177.45 434.16C247.575 353.568 358.464 274.178 493.499 215.118C628.535 156.058 762.106 128.531 868.888 131.75C975.711 134.971 1055.53 168.945 1083.4 232.663C1111.27 296.382 1082.03 378.057 1011.87 458.68C941.749 539.272 830.861 618.662 695.825 677.722Z" stroke="white"/>
<path d="M1081.65 188.792C1081.31 188.983 1081.2 189.171 1081.07 189.701C1080.8 190.789 1079.98 193.037 1079.33 194.391C1075.57 202.433 1067.51 208.1 1058.64 208.962C1055.89 209.229 1052.9 209.06 1050.65 208.526C1049.71 208.297 1049.54 208.298 1049.18 208.527C1048.22 209.1 1048.49 210.303 1049.63 210.582C1050.66 210.834 1053.08 211.726 1054.31 212.299C1062.38 216.112 1067.97 223.97 1068.93 232.86C1069.21 235.377 1069.1 237.885 1068.62 240.505C1068.36 241.88 1068.35 242.21 1068.52 242.524C1068.79 243.039 1069.5 243.198 1070.05 242.855C1070.42 242.643 1070.5 242.49 1070.69 241.715C1071.24 239.431 1072.46 236.688 1073.94 234.386C1077.57 228.744 1083.48 224.641 1090.11 223.191C1093.43 222.459 1096.41 222.394 1100.14 222.987C1102.11 223.308 1102.31 223.314 1102.61 223.085C1102.99 222.804 1103.16 222.24 1103 221.854C1102.79 221.4 1102.38 221.142 1101.48 220.923C1100.22 220.614 1097.69 219.611 1096.25 218.856C1089.14 215.075 1084.08 207.98 1082.88 200.052C1082.41 196.987 1082.51 193.222 1083.12 190.721C1083.35 189.796 1083.28 189.073 1082.93 188.831C1082.53 188.559 1082.05 188.545 1081.65 188.792ZM1074.47 211.621C1074.72 214.332 1074.38 208.51 1075.66 211.242C1076.34 212.69 1070.89 209.129 1071.83 210.281C1073.94 212.899 1090.8 218.129 1094.07 220.225C1094.18 220.279 1069.44 208 1068.55 208.086C1060.45 208.903 1076.94 225.883 1072.41 232.629C1071.96 233.311 1071.51 233.951 1071.45 234.05C1071.33 234.21 1084.95 215.811 1084.94 215.621C1084.32 208.586 1068.24 221.284 1063.69 216.403C1062.5 215.116 1060.19 213.171 1058.6 212.135C1057.96 211.704 1067.27 219.942 1067.39 219.927C1070.59 219.6 1072.69 222.895 1074.86 222.183C1079.52 220.656 1073.77 205.565 1077.08 201.836C1078.12 200.663 1073.53 204.135 1073.62 203.741C1073.73 203.32 1067 224.823 1074.47 211.621Z" fill="#CEFF00"/>
<path d="M114.022 635.999C113.726 636.169 113.622 636.334 113.508 636.803C113.274 637.763 112.548 639.749 111.976 640.945C108.653 648.048 101.529 653.054 93.6976 653.816C91.2731 654.051 88.6251 653.902 86.6406 653.431C85.812 653.229 85.6591 653.229 85.3427 653.432C84.4943 653.938 84.7311 655.001 85.7401 655.247C86.6525 655.469 88.7887 656.258 89.874 656.764C97.0041 660.131 101.94 667.073 102.786 674.925C103.033 677.148 102.937 679.364 102.513 681.678C102.281 682.893 102.273 683.184 102.422 683.462C102.667 683.916 103.294 684.056 103.775 683.754C104.101 683.567 104.172 683.431 104.339 682.747C104.831 680.729 105.905 678.307 107.215 676.273C110.415 671.29 115.637 667.665 121.497 666.384C124.428 665.738 127.062 665.68 130.357 666.204C132.095 666.488 132.272 666.493 132.537 666.29C132.877 666.043 133.024 665.544 132.878 665.203C132.696 664.803 132.332 664.574 131.539 664.381C130.423 664.109 128.196 663.222 126.921 662.555C120.637 659.215 116.173 652.949 115.107 645.945C114.699 643.238 114.784 639.913 115.323 637.703C115.523 636.886 115.462 636.248 115.158 636.034C114.797 635.793 114.38 635.781 114.022 635.999ZM107.683 656.165C107.9 658.559 107.601 653.417 108.731 655.829C109.335 657.109 104.517 653.964 105.35 654.981C107.216 657.293 122.104 661.914 124.998 663.765C125.088 663.812 103.236 652.966 102.454 653.042C95.2928 653.764 109.861 668.763 105.863 674.721C105.462 675.323 105.069 675.889 105.01 675.977C104.912 676.118 116.939 659.866 116.929 659.698C116.383 653.483 102.175 664.7 98.1626 660.388C97.1037 659.252 95.0674 657.534 93.6622 656.619C93.0933 656.238 101.321 663.514 101.426 663.501C104.257 663.212 106.112 666.123 108.022 665.494C112.142 664.145 107.063 650.815 109.99 647.522C110.905 646.485 106.849 649.552 106.934 649.204C107.024 648.832 101.081 667.826 107.683 656.165Z" fill="#CEFF00"/>
</g>
<defs>
<filter id="filter0_d" x="0.101318" y="0.703125" width="1189.12" height="899.434" filterUnits="userSpaceOnUse" color-interpolation-filters="sRGB">
<feFlood flood-opacity="0" result="BackgroundImageFix"/>
<feColorMatrix in="SourceAlpha" type="matrix" values="0 0 0 0 0 0 0 0 0 0 0 0 0 0 0 0 0 0 127 0"/>
<feOffset dy="4"/>
<feGaussianBlur stdDeviation="2"/>
<feColorMatrix type="matrix" values="0 0 0 0 0 0 0 0 0 0 0 0 0 0 0 0 0 0 0.25 0"/>
<feBlend mode="normal" in2="BackgroundImageFix" result="effect1_dropShadow"/>
<feBlend mode="normal" in="SourceGraphic" in2="effect1_dropShadow" result="shape"/>
</filter>
</defs>
</svg>
