<svg width="504" height="597" viewBox="0 0 504 597" fill="none" xmlns="http://www.w3.org/2000/svg">
<path d="M371.062 367.236C334.504 430.557 288.054 480.146 242.532 509.142C196.986 538.153 152.5 546.479 119.745 527.568C86.9906 508.657 71.9573 465.968 74.3086 412.018C76.6588 358.097 96.3795 293.076 132.938 229.755C169.496 166.434 215.946 116.845 261.468 87.8491C307.014 58.8382 351.5 50.5127 384.255 69.4235C417.009 88.3343 432.043 131.024 429.691 184.973C427.341 238.894 407.62 303.915 371.062 367.236Z" stroke="white"/>
<path d="M441.837 107.948C441.357 108.08 441.149 108.277 440.818 108.899C440.138 110.174 438.39 112.723 437.146 114.209C429.865 123.062 417.962 127.566 406.596 125.804C403.078 125.258 399.382 124.087 396.743 122.699C395.643 122.113 395.427 122.058 394.905 122.231C393.52 122.639 393.47 124.23 394.81 124.944C396.021 125.59 398.76 127.481 400.113 128.592C408.988 135.946 413.459 147.566 411.809 158.991C411.352 162.228 410.413 165.332 408.974 168.454C408.203 170.09 408.088 170.5 408.197 170.947C408.38 171.679 409.217 172.105 410.008 171.851C410.537 171.704 410.686 171.538 411.171 170.629C412.599 167.951 414.999 164.911 417.592 162.506C423.93 156.61 432.64 153.372 441.401 153.683C445.786 153.831 449.537 154.706 454.013 156.642C456.37 157.674 456.619 157.745 457.068 157.555C457.64 157.328 458.029 156.675 457.945 156.14C457.833 155.506 457.4 155.051 456.348 154.489C454.865 153.699 452.034 151.636 450.471 150.229C442.784 143.221 438.736 132.728 439.767 122.425C440.17 118.443 441.498 113.766 443.062 110.832C443.64 109.748 443.786 108.823 443.433 108.409C443.009 107.938 442.424 107.769 441.837 107.948ZM425.547 134.202C424.987 137.671 426.429 130.282 427.153 134.108C427.544 136.139 421.862 129.938 422.674 131.68C424.477 135.631 443.882 147.573 447.309 151.244C447.419 151.344 420.41 128.06 419.275 127.885C408.874 126.31 424.062 152.831 416.24 159.819C415.454 160.525 414.693 161.184 414.577 161.287C414.387 161.451 437.311 142.8 437.358 142.559C438.839 133.561 414.653 144.291 410.535 136.73C409.448 134.737 407.187 131.566 405.53 129.76C404.862 129.015 413.874 142.302 414.027 142.322C418.141 142.939 419.711 147.733 422.643 147.535C428.967 147.12 426.61 126.403 431.95 122.801C433.62 121.665 426.765 124.537 427.012 124.075C427.274 123.581 411.97 148.32 425.547 134.202Z" fill="#CEFF00"/>
<path d="M138.636 520.71C138.381 520.506 138.197 520.471 137.74 520.534C136.801 520.662 134.776 520.712 133.509 520.622C126.013 520.153 119.067 515.567 115.663 508.863C114.609 506.788 113.821 504.379 113.552 502.448C113.444 501.64 113.39 501.504 113.099 501.293C112.353 500.715 111.486 501.298 111.618 502.283C111.736 503.173 111.776 505.35 111.702 506.493C111.176 514.019 106.697 520.844 99.983 524.348C98.0846 525.347 96.0736 526.038 93.8612 526.471C92.6954 526.69 92.433 526.785 92.2367 527.015C91.9168 527.392 92.0096 528 92.4468 528.322C92.7275 528.546 92.873 528.562 93.542 528.47C95.5138 528.202 98.0497 528.309 100.321 528.762C105.882 529.864 110.934 533.242 114.115 538.008C115.712 540.391 116.679 542.715 117.358 545.831C117.71 547.477 117.767 547.636 118.039 547.801C118.379 548.017 118.875 547.974 119.128 547.724C119.423 547.422 119.5 547.018 119.397 546.244C119.251 545.155 119.268 542.863 119.42 541.495C120.215 534.731 124.256 528.563 130.135 525.161C132.41 523.848 135.408 522.76 137.568 522.465C138.366 522.356 138.914 522.079 139 521.733C139.089 521.328 138.955 520.952 138.636 520.71ZM118.431 522.133C116.37 523.166 120.856 521.098 119.095 522.948C118.163 523.934 119.295 518.544 118.677 519.642C117.262 522.113 118.317 536.982 117.671 540.207C117.66 540.304 119.74 517.055 119.399 516.385C116.264 510.265 107.945 528.485 101.235 527.016C100.559 526.869 99.9168 526.718 99.8183 526.696C99.658 526.658 118.348 531.668 118.494 531.6C123.851 528.937 108.897 520.222 111.35 515.14C111.996 513.8 112.821 511.385 113.149 509.814C113.291 509.174 109.659 519.046 109.707 519.135C110.95 521.554 108.997 524.224 110.222 525.703C112.859 528.898 122.991 519.707 126.949 521.159C128.192 521.61 124.043 519.075 124.384 519.028C124.747 518.978 105.727 520.343 118.431 522.133Z" fill="#CEFF00"/>
</svg>
