<svg width="1067" height="1046" viewBox="0 0 1067 1046" fill="none" xmlns="http://www.w3.org/2000/svg">
<path d="M371.261 224.453C371.072 224.151 370.895 224.049 370.401 223.949C369.389 223.743 367.286 223.066 366.013 222.517C358.462 219.335 352.946 212.1 351.834 203.953C351.489 201.431 351.538 198.66 351.95 196.569C352.127 195.695 352.12 195.536 351.896 195.213C351.333 194.348 350.233 194.638 350.017 195.702C349.822 196.664 349.085 198.926 348.6 200.08C345.373 207.662 338.325 213.097 330.16 214.298C327.849 214.646 325.531 214.637 323.098 214.288C321.82 214.094 321.516 214.098 321.232 214.264C320.767 214.539 320.646 215.199 320.981 215.689C321.19 216.022 321.335 216.09 322.056 216.237C324.183 216.669 326.756 217.692 328.933 218.978C334.265 222.117 338.262 227.423 339.837 233.489C340.631 236.524 340.797 239.273 340.384 242.734C340.159 244.56 340.16 244.745 340.382 245.014C340.655 245.359 341.181 245.492 341.531 245.326C341.942 245.12 342.166 244.73 342.336 243.895C342.575 242.717 343.41 240.356 344.055 238.999C347.288 232.301 353.65 227.386 360.919 225.989C363.73 225.453 367.206 225.408 369.535 225.881C370.396 226.056 371.06 225.967 371.271 225.64C371.507 225.254 371.503 224.818 371.261 224.453ZM349.948 218.651C347.457 218.975 352.814 218.455 350.34 219.732C349.029 220.414 352.118 215.256 351.09 216.167C348.751 218.209 344.53 233.942 342.714 237.039C342.668 237.135 353.108 213.878 352.996 213.064C351.952 205.616 336.882 221.436 330.498 217.503C329.853 217.109 329.246 216.722 329.152 216.664C329.001 216.567 346.459 228.466 346.633 228.449C353.1 227.627 340.812 213.246 345.152 208.882C346.295 207.73 348.007 205.534 348.905 204.03C349.28 203.42 342.016 212.306 342.034 212.415C342.45 215.36 339.486 217.415 340.22 219.383C341.796 223.631 355.509 217.787 359.066 220.71C360.186 221.623 356.818 217.513 357.185 217.587C357.578 217.666 337.504 212.23 349.948 218.651Z" fill="#CEFF00"/>
<path d="M425.706 295.125C517.347 225.768 612.368 181.289 691.899 165.429C771.473 149.561 835.354 162.366 864.989 207.273C894.625 252.18 884.573 320.942 844.042 395.973C803.533 470.964 732.664 552.039 641.023 621.397C549.383 690.754 454.362 735.233 374.83 751.093C295.257 766.961 231.376 754.156 201.74 709.249C172.105 664.342 182.157 595.58 222.687 520.549C263.196 445.558 334.066 364.483 425.706 295.125Z" stroke="white"/>
<path d="M160.269 692.152C160.569 692.465 160.816 692.544 161.467 692.548C162.802 692.556 165.624 692.867 167.359 693.22C177.638 695.223 186.105 702.484 189.116 711.842C190.049 714.738 190.527 718.02 190.408 720.584C190.351 721.656 190.391 721.843 190.741 722.171C191.63 723.062 192.98 722.464 193.049 721.159C193.112 719.978 193.613 717.137 194.008 715.663C196.657 705.966 204.612 697.916 214.822 694.604C217.71 693.657 220.677 693.131 223.857 692.978C225.53 692.911 225.918 692.835 226.249 692.573C226.789 692.141 226.815 691.333 226.291 690.833C225.959 690.489 225.761 690.441 224.81 690.436C222.005 690.419 218.515 689.808 215.479 688.796C208.046 686.327 201.899 680.992 198.702 674.197C197.094 670.799 196.345 667.594 196.199 663.413C196.131 661.205 196.093 660.988 195.757 660.722C195.341 660.377 194.641 660.342 194.226 660.619C193.741 660.958 193.53 661.47 193.476 662.496C193.4 663.94 192.792 666.921 192.232 668.673C189.403 677.328 182.223 684.605 173.197 687.94C169.707 689.225 165.27 690.084 162.199 690.066C161.063 690.059 160.231 690.318 160.025 690.752C159.798 691.264 159.888 691.777 160.269 692.152ZM188.662 694.056C191.785 693.096 185.034 694.953 187.949 692.872C189.494 691.762 186.549 698.567 187.686 697.252C190.28 694.3 192.611 674.751 194.329 670.675C194.369 670.551 185.551 700.423 185.852 701.357C188.64 709.906 204.832 687.738 213.765 690.899C214.666 691.215 215.518 691.531 215.649 691.578C215.862 691.658 191.211 681.662 190.991 681.723C182.88 684.194 201.402 698.317 196.702 704.474C195.464 706.099 193.703 709.088 192.847 711.072C192.487 711.878 200.045 699.705 200.002 699.58C198.894 696.201 202.285 693.089 200.962 690.936C198.119 686.288 181.718 696.366 176.597 693.741C174.987 692.923 180.096 696.993 179.612 696.99C179.095 696.988 205.831 698.748 188.662 694.056Z" fill="#CEFF00"/>
<path d="M668.655 158.83C669.029 159.379 669.374 159.568 670.331 159.766C672.294 160.173 676.379 161.467 678.854 162.499C693.542 168.49 704.401 181.682 706.77 196.346C707.504 200.886 707.484 205.858 706.743 209.596C706.424 211.157 706.441 211.444 706.884 212.031C707.995 213.605 710.114 213.125 710.504 211.224C710.856 209.505 712.22 205.471 713.126 203.418C719.163 189.929 732.648 180.434 748.404 178.581C752.864 178.042 757.346 178.145 762.06 178.862C764.537 179.258 765.125 179.261 765.67 178.973C766.56 178.497 766.777 177.316 766.116 176.425C765.703 175.82 765.422 175.692 764.023 175.402C759.899 174.548 754.897 172.615 750.653 170.227C740.256 164.394 732.387 154.722 729.179 143.775C727.563 138.299 727.167 133.359 727.874 127.161C728.261 123.892 728.253 123.56 727.816 123.069C727.28 122.439 726.258 122.18 725.586 122.466C724.797 122.821 724.375 123.512 724.069 125.006C723.638 127.11 722.086 131.316 720.875 133.73C714.803 145.632 702.631 154.218 688.612 156.455C683.191 157.314 676.472 157.266 671.955 156.33C670.286 155.984 669.005 156.12 668.605 156.697C668.158 157.383 668.177 158.165 668.655 158.83ZM710.024 170.034C714.832 169.544 704.487 170.28 709.236 168.08C711.754 166.903 705.919 176.047 707.883 174.45C712.351 170.871 720.092 142.788 723.521 137.297C723.607 137.126 704.041 178.484 704.278 179.949C706.497 193.356 735.215 165.52 747.666 172.815C748.923 173.548 750.107 174.265 750.289 174.373C750.585 174.552 716.509 152.546 716.171 152.571C703.688 153.806 727.834 180.075 719.559 187.747C717.379 189.772 714.128 193.65 712.431 196.317C711.723 197.397 725.532 181.716 725.495 181.52C724.61 176.219 730.286 172.641 728.814 169.081C725.655 161.398 699.294 171.379 692.337 165.999C690.148 164.319 696.769 171.822 696.057 171.675C695.296 171.518 734.258 182.02 710.024 170.034Z" fill="#CEFF00"/>
</svg>
