<svg width="1190" height="901" viewBox="0 0 1190 901" fill="none" xmlns="http://www.w3.org/2000/svg">
<g filter="url(#filter0_d)">
<path d="M695.825 677.722C560.789 736.781 427.218 764.309 320.437 761.09C213.613 757.869 133.79 723.895 105.922 660.177C78.0541 596.458 107.296 514.783 177.45 434.16C247.575 353.568 358.463 274.178 493.499 215.118C628.535 156.058 762.106 128.531 868.887 131.75C975.711 134.971 1055.53 168.945 1083.4 232.663C1111.27 296.382 1082.03 378.057 1011.87 458.68C941.749 539.272 830.861 618.662 695.825 677.722Z" stroke="white"/>
<path d="M539.648 701.792C539.313 701.983 539.196 702.171 539.066 702.701C538.801 703.789 537.98 706.037 537.332 707.391C533.571 715.433 525.505 721.1 516.639 721.962C513.894 722.229 510.897 722.06 508.65 721.526C507.712 721.297 507.539 721.298 507.181 721.527C506.22 722.1 506.488 723.303 507.63 723.582C508.663 723.834 511.082 724.726 512.31 725.299C520.383 729.112 525.971 736.97 526.928 745.86C527.208 748.377 527.1 750.885 526.62 753.505C526.356 754.88 526.348 755.21 526.516 755.524C526.794 756.039 527.504 756.198 528.048 755.855C528.417 755.643 528.497 755.49 528.686 754.715C529.243 752.431 530.459 749.688 531.943 747.386C535.565 741.744 541.477 737.641 548.111 736.191C551.429 735.459 554.412 735.394 558.142 735.987C560.109 736.308 560.309 736.314 560.609 736.085C560.995 735.804 561.161 735.24 560.996 734.854C560.79 734.4 560.378 734.142 559.48 733.923C558.216 733.614 555.695 732.611 554.252 731.856C547.137 728.075 542.084 720.98 540.877 713.052C540.415 709.987 540.512 706.222 541.122 703.721C541.347 702.796 541.279 702.073 540.935 701.831C540.526 701.559 540.054 701.545 539.648 701.792ZM532.472 724.621C532.718 727.332 532.38 721.51 533.658 724.242C534.342 725.69 528.888 722.129 529.831 723.281C531.943 725.899 548.798 731.129 552.075 733.225C552.177 733.279 527.437 721 526.552 721.086C518.445 721.903 534.937 738.883 530.412 745.629C529.958 746.311 529.513 746.951 529.446 747.05C529.335 747.21 542.951 728.811 542.939 728.621C542.321 721.586 526.237 734.284 521.694 729.403C520.495 728.116 518.19 726.171 516.599 725.135C515.955 724.704 525.27 732.942 525.389 732.927C528.594 732.6 530.694 735.895 532.855 735.183C537.52 733.656 531.77 718.565 535.084 714.836C536.12 713.663 531.528 717.135 531.624 716.741C531.727 716.32 524.998 737.823 532.472 724.621Z" fill="#CEFF00"/>
<path d="M1019.69 137.334C1019.31 137.941 1019.29 138.348 1019.55 139.32C1020.08 141.313 1020.75 145.677 1020.9 148.441C1021.94 164.777 1013.91 181.084 1000.34 190.33C996.135 193.192 991.138 195.574 987.032 196.7C985.312 197.161 985.033 197.315 984.657 198.004C983.611 199.781 985.11 201.489 987.204 200.928C989.097 200.421 993.799 199.722 996.293 199.561C1012.72 198.577 1028.72 206.338 1038.14 219.866C1040.82 223.689 1042.87 227.842 1044.41 232.502C1045.2 234.961 1045.48 235.501 1046.03 235.861C1046.94 236.446 1048.23 236.075 1048.8 235.039C1049.21 234.369 1049.21 234.05 1048.83 232.629C1047.7 228.442 1047.24 222.93 1047.6 217.893C1048.46 205.561 1054.39 193.69 1063.83 185.47C1068.55 181.347 1073.32 178.601 1079.88 176.257C1083.34 175.034 1083.67 174.866 1083.95 174.23C1084.33 173.434 1084.1 172.374 1083.49 171.897C1082.75 171.346 1081.86 171.293 1080.21 171.734C1077.9 172.355 1072.93 172.964 1069.93 173.021C1055.07 173.207 1040.62 166.209 1031.65 154.456C1028.18 149.908 1025.01 143.734 1023.78 139.148C1023.32 137.453 1022.57 136.346 1021.8 136.259C1020.9 136.18 1020.12 136.576 1019.69 137.334ZM1028.3 180.609C1031.1 184.774 1025.39 175.66 1029.88 178.945C1032.27 180.682 1020.29 179.754 1022.84 180.78C1028.57 183.144 1060.46 176.676 1067.62 177.164C1067.83 177.16 1016.95 179.211 1015.59 180.135C1003.21 188.636 1044.92 201.49 1043.57 216.408C1043.44 217.912 1043.29 219.342 1043.27 219.561C1043.23 219.918 1048.95 178.105 1048.77 177.808C1041.54 166.978 1026.77 201.758 1015.1 197.887C1012.02 196.868 1006.57 195.764 1003.08 195.497C1001.66 195.371 1024.02 200.443 1024.2 200.314C1029.09 196.946 1035.41 200.415 1038.27 197.35C1044.46 190.75 1021.8 171.437 1023.86 162.472C1024.49 159.657 1020.14 169.339 1019.95 168.617C1019.74 167.845 1027.9 208.577 1028.3 180.609Z" fill="#CEFF00"/>
</g>
<defs>
<filter id="filter0_d" x="0.100952" y="0.703125" width="1189.12" height="899.434" filterUnits="userSpaceOnUse" color-interpolation-filters="sRGB">
<feFlood flood-opacity="0" result="BackgroundImageFix"/>
<feColorMatrix in="SourceAlpha" type="matrix" values="0 0 0 0 0 0 0 0 0 0 0 0 0 0 0 0 0 0 127 0"/>
<feOffset dy="4"/>
<feGaussianBlur stdDeviation="2"/>
<feColorMatrix type="matrix" values="0 0 0 0 0 0 0 0 0 0 0 0 0 0 0 0 0 0 0.25 0"/>
<feBlend mode="normal" in2="BackgroundImageFix" result="effect1_dropShadow"/>
<feBlend mode="normal" in="SourceGraphic" in2="effect1_dropShadow" result="shape"/>
</filter>
</defs>
</svg>
