<svg width="775" height="987" viewBox="0 0 775 987" fill="none" xmlns="http://www.w3.org/2000/svg">
<path d="M150.023 890.504C150.489 890.044 150.6 889.685 150.582 888.759C150.545 886.859 150.916 882.811 151.39 880.307C154.069 865.473 164.844 852.666 179.022 847.397C183.411 845.766 188.405 844.741 192.325 844.64C193.964 844.608 194.248 844.532 194.736 843.999C196.064 842.642 195.101 840.784 193.105 840.823C191.3 840.858 186.942 840.444 184.677 840.038C169.77 837.289 157.183 826.818 151.747 812.643C150.195 808.634 149.282 804.469 148.931 799.962C148.766 797.589 148.636 797.044 148.224 796.601C147.544 795.878 146.31 795.926 145.565 796.724C145.052 797.233 144.987 797.52 145.013 798.874C145.092 802.864 144.287 807.894 142.854 812.319C139.36 823.153 131.439 832.458 121.182 837.721C116.053 840.365 111.185 841.767 104.805 842.415C101.437 842.744 101.106 842.821 100.713 843.327C100.202 843.955 100.174 844.954 100.613 845.515C101.149 846.17 101.938 846.416 103.506 846.385C105.715 846.342 110.289 846.893 112.985 847.506C126.307 850.619 137.685 860.068 143.111 872.556C145.203 877.387 146.68 883.608 146.765 887.979C146.797 889.595 147.223 890.751 147.894 890.998C148.683 891.268 149.464 891.086 150.023 890.504ZM151.879 849.914C150.297 845.572 153.383 854.98 150.097 851.052C148.345 848.972 158.845 852.446 156.796 850.966C152.191 847.587 122.253 846.327 115.964 844.311C115.773 844.267 161.717 853.669 163.132 853.143C176.083 848.278 141.633 827.576 146.129 814.536C146.579 813.22 147.03 811.976 147.097 811.784C147.21 811.473 132.859 847.591 132.96 847.898C137.032 859.177 157.914 831.344 167.491 837.381C170.018 838.971 174.647 841.162 177.709 842.171C178.953 842.599 160.084 833.127 159.895 833.202C154.776 835.133 149.898 830.637 146.659 832.745C139.667 837.278 155.663 859.549 151.844 867.11C150.654 869.486 156.681 861.791 156.695 862.479C156.71 863.215 158.409 824.997 151.879 849.914Z" fill="#CEFF00"/>
<path d="M190.872 399.838C243.429 289.539 313.009 200.192 382.996 144.894C453.011 89.5749 523.291 68.4316 577.347 94.1895C631.404 119.947 659.253 187.849 660.393 277.074C661.532 366.263 635.97 476.585 583.413 586.883C530.856 697.182 461.275 786.529 391.289 841.827C321.274 897.146 250.994 918.289 196.937 892.531C142.881 866.773 115.031 798.872 113.892 709.647C112.752 620.458 138.314 510.136 190.872 399.838Z" stroke="white"/>
<path d="M190.872 399.838C243.429 289.539 313.009 200.192 382.996 144.894C453.011 89.5749 523.291 68.4316 577.347 94.1895C631.404 119.947 659.253 187.849 660.393 277.074C661.532 366.263 635.97 476.585 583.413 586.883C530.856 697.182 461.275 786.529 391.289 841.827C321.274 897.146 250.994 918.289 196.937 892.531C142.881 866.773 115.031 798.872 113.892 709.647C112.752 620.458 138.314 510.136 190.872 399.838Z" stroke="white"/>
<path d="M150.023 890.504C150.489 890.044 150.6 889.685 150.582 888.759C150.545 886.859 150.916 882.811 151.39 880.307C154.069 865.473 164.844 852.666 179.022 847.397C183.411 845.766 188.405 844.741 192.325 844.64C193.964 844.608 194.248 844.532 194.736 843.999C196.064 842.642 195.101 840.784 193.105 840.823C191.3 840.858 186.942 840.444 184.677 840.038C169.77 837.289 157.183 826.818 151.747 812.643C150.195 808.634 149.282 804.469 148.931 799.962C148.766 797.589 148.636 797.044 148.224 796.601C147.544 795.878 146.31 795.926 145.565 796.724C145.052 797.233 144.987 797.52 145.013 798.874C145.092 802.864 144.287 807.894 142.854 812.319C139.36 823.153 131.439 832.458 121.182 837.721C116.053 840.365 111.185 841.767 104.805 842.415C101.437 842.744 101.106 842.821 100.713 843.327C100.202 843.955 100.174 844.954 100.613 845.515C101.149 846.17 101.938 846.416 103.506 846.385C105.715 846.342 110.289 846.893 112.985 847.506C126.307 850.619 137.685 860.068 143.111 872.556C145.203 877.387 146.68 883.608 146.765 887.979C146.797 889.595 147.223 890.751 147.894 890.998C148.683 891.268 149.464 891.086 150.023 890.504ZM151.879 849.914C150.297 845.572 153.383 854.98 150.097 851.052C148.345 848.972 158.845 852.446 156.796 850.966C152.191 847.587 122.253 846.327 115.964 844.311C115.773 844.267 161.717 853.669 163.132 853.143C176.083 848.278 141.633 827.576 146.129 814.536C146.579 813.22 147.03 811.976 147.097 811.784C147.21 811.473 132.859 847.591 132.96 847.898C137.032 859.177 157.914 831.344 167.491 837.381C170.018 838.971 174.647 841.162 177.709 842.171C178.953 842.599 160.084 833.127 159.895 833.202C154.776 835.133 149.898 830.637 146.659 832.745C139.667 837.278 155.663 859.549 151.844 867.11C150.654 869.486 156.681 861.791 156.695 862.479C156.71 863.215 158.409 824.997 151.879 849.914Z" fill="#CEFF00"/>
<path d="M190.872 399.838C243.429 289.539 313.009 200.192 382.996 144.894C453.011 89.5749 523.291 68.4316 577.347 94.1895C631.404 119.947 659.253 187.849 660.393 277.074C661.532 366.263 635.97 476.585 583.413 586.883C530.856 697.182 461.275 786.529 391.289 841.827C321.274 897.146 250.994 918.289 196.937 892.531C142.881 866.773 115.031 798.872 113.892 709.647C112.752 620.458 138.314 510.136 190.872 399.838Z" stroke="white"/>
<path d="M150.023 890.504C150.489 890.044 150.6 889.685 150.582 888.759C150.545 886.859 150.916 882.811 151.39 880.307C154.069 865.473 164.844 852.666 179.022 847.397C183.411 845.766 188.405 844.741 192.325 844.64C193.964 844.608 194.248 844.532 194.736 843.999C196.064 842.642 195.101 840.784 193.105 840.823C191.3 840.858 186.942 840.444 184.677 840.038C169.77 837.289 157.183 826.818 151.747 812.643C150.195 808.634 149.282 804.469 148.931 799.962C148.766 797.589 148.636 797.044 148.224 796.601C147.544 795.878 146.31 795.926 145.565 796.724C145.052 797.233 144.987 797.52 145.013 798.874C145.092 802.864 144.287 807.894 142.854 812.319C139.36 823.153 131.439 832.458 121.182 837.721C116.053 840.365 111.185 841.767 104.805 842.415C101.437 842.744 101.106 842.821 100.713 843.327C100.202 843.955 100.174 844.954 100.613 845.515C101.149 846.17 101.938 846.416 103.506 846.385C105.715 846.342 110.289 846.893 112.985 847.506C126.307 850.619 137.685 860.068 143.111 872.556C145.203 877.387 146.68 883.608 146.765 887.979C146.797 889.595 147.223 890.751 147.894 890.998C148.683 891.268 149.464 891.086 150.023 890.504ZM151.879 849.914C150.297 845.572 153.383 854.98 150.097 851.052C148.345 848.972 158.845 852.446 156.796 850.966C152.191 847.587 122.253 846.327 115.964 844.311C115.773 844.267 161.717 853.669 163.132 853.143C176.083 848.278 141.633 827.576 146.129 814.536C146.579 813.22 147.03 811.976 147.097 811.784C147.21 811.473 132.859 847.591 132.96 847.898C137.032 859.177 157.914 831.344 167.491 837.381C170.018 838.971 174.647 841.162 177.709 842.171C178.953 842.599 160.084 833.127 159.895 833.202C154.776 835.133 149.898 830.637 146.659 832.745C139.667 837.278 155.663 859.549 151.844 867.11C150.654 869.486 156.681 861.791 156.695 862.479C156.71 863.215 158.409 824.997 151.879 849.914Z" fill="#CEFF00"/>
<path d="M150.023 890.504C150.489 890.044 150.6 889.685 150.582 888.759C150.545 886.859 150.916 882.811 151.39 880.307C154.069 865.473 164.844 852.666 179.022 847.397C183.411 845.766 188.405 844.741 192.325 844.64C193.964 844.608 194.248 844.532 194.736 843.999C196.064 842.642 195.101 840.784 193.105 840.823C191.3 840.858 186.942 840.444 184.677 840.038C169.77 837.289 157.183 826.818 151.747 812.643C150.195 808.634 149.282 804.469 148.931 799.962C148.766 797.589 148.636 797.044 148.224 796.601C147.544 795.878 146.31 795.926 145.565 796.724C145.052 797.233 144.987 797.52 145.013 798.874C145.092 802.864 144.287 807.894 142.854 812.319C139.36 823.153 131.439 832.458 121.182 837.721C116.053 840.365 111.185 841.767 104.805 842.415C101.437 842.744 101.106 842.821 100.713 843.327C100.202 843.955 100.174 844.954 100.613 845.515C101.149 846.17 101.938 846.416 103.506 846.385C105.715 846.342 110.289 846.893 112.985 847.506C126.307 850.619 137.685 860.068 143.111 872.556C145.203 877.387 146.68 883.608 146.765 887.979C146.797 889.595 147.223 890.751 147.894 890.998C148.683 891.268 149.464 891.086 150.023 890.504ZM151.879 849.914C150.297 845.572 153.383 854.98 150.097 851.052C148.345 848.972 158.845 852.446 156.796 850.966C152.191 847.587 122.253 846.327 115.964 844.311C115.773 844.267 161.717 853.669 163.132 853.143C176.083 848.278 141.633 827.576 146.129 814.536C146.579 813.22 147.03 811.976 147.097 811.784C147.21 811.473 132.859 847.591 132.96 847.898C137.032 859.177 157.914 831.344 167.491 837.381C170.018 838.971 174.647 841.162 177.709 842.171C178.953 842.599 160.084 833.127 159.895 833.202C154.776 835.133 149.898 830.637 146.659 832.745C139.667 837.278 155.663 859.549 151.844 867.11C150.654 869.486 156.681 861.791 156.695 862.479C156.71 863.215 158.409 824.997 151.879 849.914Z" fill="#CEFF00"/>
<path d="M623.618 540.192C623.851 539.816 623.868 539.562 623.709 538.957C623.383 537.715 622.985 534.997 622.9 533.277C622.308 523.109 627.355 512.989 635.832 507.281C638.456 505.514 641.574 504.048 644.133 503.361C645.204 503.08 645.378 502.985 645.614 502.558C646.271 501.456 645.344 500.388 644.039 500.73C642.86 501.039 639.932 501.458 638.379 501.55C628.153 502.108 618.225 497.226 612.408 488.777C610.752 486.39 609.492 483.799 608.547 480.894C608.063 479.362 607.891 479.025 607.55 478.799C606.989 478.432 606.186 478.659 605.823 479.301C605.567 479.717 605.569 479.915 605.801 480.8C606.486 483.409 606.755 486.841 606.515 489.974C605.937 497.644 602.21 505.011 596.307 510.094C593.357 512.644 590.382 514.337 586.295 515.774C584.134 516.524 583.929 516.627 583.751 517.022C583.515 517.515 583.655 518.176 584.032 518.475C584.488 518.82 585.045 518.856 586.07 518.587C587.514 518.209 590.606 517.846 592.474 517.821C601.718 517.754 610.689 522.156 616.233 529.499C618.373 532.34 620.329 536.192 621.078 539.049C621.355 540.106 621.819 540.797 622.298 540.854C622.859 540.906 623.343 540.662 623.618 540.192ZM618.403 513.236C616.675 510.636 620.193 516.326 617.412 514.267C615.932 513.178 623.38 513.795 621.799 513.148C618.239 511.659 598.375 515.577 593.925 515.25C593.792 515.252 625.459 514.144 626.306 513.574C634.041 508.325 608.132 500.189 609.017 490.911C609.104 489.976 609.203 489.087 609.217 488.95C609.242 488.728 605.541 514.726 605.656 514.912C610.119 521.675 619.422 500.082 626.67 502.53C628.582 503.174 631.97 503.879 634.141 504.056C635.026 504.14 621.13 500.91 621.018 500.989C617.962 503.069 614.045 500.889 612.252 502.787C608.378 506.873 622.416 518.966 621.105 524.537C620.701 526.286 623.44 520.276 623.558 520.726C623.685 521.207 618.741 495.835 618.403 513.236Z" fill="#CEFF00"/>
</svg>
