<svg width="840" height="859" viewBox="0 0 840 859" fill="none" xmlns="http://www.w3.org/2000/svg">
<path d="M512.9 596.055C441.916 658.029 366.844 699.841 302.868 717.357C238.852 734.884 186.131 728.045 159.594 693.042C133.056 658.04 137.542 601.256 166.556 537.56C195.552 473.905 248.971 403.535 319.955 341.56C390.939 279.586 466.011 237.774 529.987 220.258C594.003 202.731 646.724 209.57 673.261 244.573C699.799 279.575 695.313 336.36 666.299 400.055C637.304 463.71 583.884 534.081 512.9 596.055Z" stroke="white"/>
<path d="M228.656 717.212C228.334 716.919 228.081 716.857 227.428 716.899C226.089 716.984 223.237 716.869 221.474 716.636C211.031 715.342 202.06 708.629 198.421 699.421C197.295 696.571 196.598 693.301 196.548 690.712C196.534 689.629 196.482 689.444 196.109 689.138C195.159 688.304 193.844 689.001 193.861 690.32C193.877 691.512 193.562 694.407 193.263 695.919C191.246 705.866 183.798 714.528 173.776 718.579C170.941 719.735 168 720.473 164.821 720.85C163.147 721.036 162.763 721.14 162.448 721.426C161.935 721.899 161.962 722.714 162.521 723.181C162.877 723.504 163.078 723.538 164.033 723.477C166.847 723.296 170.388 723.666 173.5 724.472C181.119 726.434 187.636 731.372 191.292 737.987C193.129 741.294 194.091 744.467 194.515 748.666C194.728 750.883 194.781 751.099 195.136 751.344C195.576 751.661 196.28 751.647 196.678 751.339C197.142 750.963 197.319 750.434 197.306 749.398C197.287 747.938 197.7 744.895 198.146 743.092C200.412 734.182 207.134 726.352 215.966 722.361C219.383 720.822 223.776 719.645 226.858 719.448C227.997 719.375 228.815 719.056 228.993 718.604C229.187 718.074 229.063 717.563 228.656 717.212ZM200.051 717.292C196.982 718.478 203.63 716.134 200.844 718.434C199.368 719.66 201.873 712.603 200.819 714.006C198.412 717.16 197.365 737.001 195.91 741.225C195.879 741.353 202.751 710.665 202.387 709.745C199.026 701.337 184.249 724.787 175.08 722.234C174.155 721.979 173.28 721.721 173.145 721.683C172.927 721.618 198.312 729.946 198.529 729.869C206.502 726.813 186.992 713.899 191.299 707.37C192.433 705.648 194.002 702.516 194.73 700.459C195.038 699.622 188.26 712.406 188.312 712.529C189.646 715.852 186.451 719.223 187.92 721.297C191.079 725.776 206.864 714.479 212.173 716.761C213.842 717.471 208.449 713.733 208.935 713.702C209.454 713.668 182.52 713.776 200.051 717.292Z" fill="#CEFF00"/>
<path d="M745.427 289.267C744.403 289.081 743.81 289.262 742.533 290.12C739.914 291.88 733.964 295.049 730.081 296.697C707.192 306.616 680.484 304.287 661.498 290.782C655.621 286.601 650.091 281.096 646.734 276.14C645.344 274.059 645.004 273.763 643.861 273.614C640.878 273.128 639.076 276.043 640.769 278.577C642.3 280.869 645.299 286.852 646.592 290.135C654.993 311.803 650.72 337.444 635.411 357.216C631.093 362.829 626.033 367.758 620.034 372.271C616.86 374.622 616.207 375.28 615.927 376.211C615.477 377.737 616.556 379.283 618.281 379.523C619.412 379.725 619.865 379.55 621.732 378.296C627.234 374.598 634.91 371.101 642.257 368.959C660.237 363.693 679.717 365.504 695.477 373.967C703.375 378.187 709.326 383.189 715.467 390.819C718.689 394.859 719.069 395.216 720.098 395.266C721.394 395.357 722.81 394.493 723.232 393.422C723.706 392.142 723.401 390.906 722.071 388.914C720.197 386.109 717.212 379.724 715.853 375.7C709.261 355.745 713.101 332.581 726.066 314.34C731.087 307.294 738.552 299.786 744.578 295.736C746.806 294.239 748.068 292.649 747.864 291.562C747.592 290.303 746.697 289.463 745.427 289.267ZM687.287 323.458C682.53 329.408 693.12 316.957 690.338 324.727C688.875 328.858 685.102 312.208 684.719 316.179C683.786 325.153 706.602 364.831 708.952 374.744C709.048 375.029 684.451 307.409 682.555 306.06C665.139 293.772 664.54 356.78 642.662 362.744C640.458 363.351 638.351 363.892 638.029 363.978C637.503 364.113 699.66 350.038 700.004 349.632C712.394 334.224 656.432 332.425 656.992 314.654C657.136 309.968 656.393 302.033 655.287 297.183C654.862 295.195 657.138 328.024 657.398 328.199C664.293 333.049 662.026 343.381 667.625 345.651C679.688 350.568 697.621 309.902 711.301 308.006C715.592 307.396 699.912 306.572 700.861 305.934C701.875 305.251 647.174 337.508 687.287 323.458Z" fill="#CEFF00"/>
</svg>
