<svg width="633" height="498" viewBox="0 0 633 498" fill="none" xmlns="http://www.w3.org/2000/svg">
<path d="M252.745 323.609C183.33 291.819 125.857 251.365 89.0478 211.679C70.6422 191.835 57.4203 172.202 50.4441 153.957C43.4688 135.715 42.7505 118.901 49.2813 104.641C55.8121 90.3809 69.0119 79.9411 87.3804 73.3059C105.751 66.6698 129.254 63.8553 156.302 64.8279C210.396 66.773 278.569 83.8617 347.984 115.652C417.4 147.443 474.872 187.896 511.682 227.583C530.087 247.427 543.309 267.06 550.285 285.304C557.261 303.546 557.979 320.36 551.448 334.621C544.917 348.881 531.718 359.321 513.349 365.956C494.978 372.592 471.476 375.406 444.428 374.434C390.334 372.489 322.161 355.4 252.745 323.609Z" stroke="white"/>
<path d="M285.308 382.196C215.892 350.406 158.42 309.952 121.61 270.266C103.205 250.422 89.9828 230.788 83.0066 212.544C76.0313 194.302 75.313 177.488 81.8438 163.228C88.3746 148.968 101.574 138.528 119.943 131.893C138.314 125.257 161.816 122.442 188.864 123.415C242.958 125.36 311.131 142.449 380.547 174.239C449.962 206.03 507.435 246.483 544.244 286.17C562.65 306.014 575.872 325.647 582.848 343.891C589.823 362.133 590.542 378.947 584.011 393.207C577.48 407.468 564.28 417.907 545.912 424.543C527.541 431.179 504.038 433.993 476.99 433.021C422.896 431.076 354.723 413.987 285.308 382.196Z" stroke="white"/>
<path d="M549.958 323.251C550.226 323.105 550.322 322.959 550.432 322.542C550.659 321.688 551.345 319.926 551.879 318.866C554.981 312.577 561.444 308.233 568.461 307.697C570.633 307.531 572.998 307.713 574.764 308.172C575.501 308.368 575.637 308.37 575.924 308.194C576.692 307.758 576.5 306.803 575.602 306.564C574.791 306.349 572.895 305.604 571.934 305.131C565.621 301.989 561.336 295.69 560.725 288.653C560.545 286.661 560.672 284.681 561.093 282.621C561.324 281.538 561.336 281.278 561.209 281.027C560.997 280.616 560.439 280.479 560.004 280.741C559.709 280.902 559.643 281.022 559.481 281.631C559.004 283.426 557.998 285.572 556.789 287.366C553.836 291.763 549.099 294.907 543.837 295.944C541.203 296.468 538.847 296.47 535.91 295.941C534.362 295.655 534.204 295.648 533.963 295.823C533.654 296.039 533.513 296.482 533.638 296.789C533.793 297.151 534.114 297.362 534.82 297.549C535.813 297.814 537.788 298.647 538.915 299.267C544.473 302.37 548.348 308.056 549.171 314.338C549.487 316.766 549.348 319.738 548.826 321.704C548.632 322.43 548.675 323.002 548.943 323.199C549.261 323.421 549.633 323.44 549.958 323.251ZM555.999 305.338C555.849 303.193 556.021 307.796 555.056 305.618C554.539 304.462 558.789 307.364 558.063 306.439C556.437 304.337 543.211 299.93 540.657 298.221C540.577 298.177 559.916 308.28 560.617 308.226C567.033 307.713 554.285 294.033 557.969 288.778C558.339 288.248 558.701 287.749 558.755 287.672C558.846 287.548 547.791 301.857 547.797 302.007C548.17 307.574 561.082 297.808 564.59 301.737C565.516 302.773 567.305 304.347 568.544 305.191C569.046 305.542 561.823 298.884 561.729 298.893C559.192 299.099 557.588 296.463 555.869 296.99C552.16 298.119 556.454 310.132 553.776 313.023C552.939 313.933 556.622 311.265 556.54 311.575C556.452 311.906 562.118 295.033 555.999 305.338Z" fill="#CEFF00"/>
<path d="M134.149 98.8902C134.271 98.4176 134.204 98.1456 133.838 97.5611C133.086 96.3621 131.773 93.6353 131.116 91.8544C127.145 81.3555 129.12 69.05 136.156 60.2549C138.334 57.5322 141.131 54.9644 143.595 53.399C144.629 52.7506 144.781 52.5931 144.889 52.066C145.217 50.6908 143.89 49.8729 142.631 50.6625C141.492 51.3765 138.55 52.7812 136.948 53.3894C126.376 57.3437 114.327 55.479 105.427 48.5092C102.9 46.5435 100.721 44.2339 98.7711 41.4897C97.7568 40.0377 97.4652 39.7397 97.0322 39.6147C96.3211 39.4134 95.5512 39.9165 95.3814 40.7118C95.2487 41.2331 95.3168 41.4411 95.8524 42.2954C97.4312 44.8139 98.8441 48.334 99.6234 51.7083C101.542 59.9652 100.048 68.9409 95.5141 76.2309C93.2514 79.8837 90.6806 82.6436 86.8548 85.5014C84.8297 87.001 84.6478 87.1773 84.5904 87.6515C84.5049 88.2482 84.8697 88.8967 85.3648 89.0868C85.9579 89.2998 86.5556 89.1545 87.5453 88.5341C88.9394 87.6601 92.0714 86.2603 94.028 85.6186C103.727 82.5044 114.612 84.1797 122.861 90.0763C126.047 92.3597 129.373 95.7667 131.102 98.5251C131.741 99.5447 132.456 100.12 132.979 100.021C133.586 99.8909 134.015 99.4756 134.149 98.8902ZM119.787 72.2586C117.114 70.0922 122.688 74.9181 119.085 73.6684C117.169 73.011 125.206 71.2074 123.33 71.0472C119.095 70.6533 99.4947 81.3162 94.7067 82.4378C94.568 82.483 127.508 70.889 128.21 70.0104C134.617 61.943 104.688 61.9188 102.564 51.8698C102.348 50.8574 102.159 49.8897 102.128 49.7417C102.081 49.4999 106.751 78.0611 106.933 78.2181C113.854 83.8609 116.528 58.0886 124.956 58.2757C127.179 58.3232 130.974 57.9492 133.316 57.4208C134.274 57.2173 118.596 58.3962 118.505 58.5167C115.976 61.7101 111.138 60.7079 109.877 63.2946C107.149 68.8679 125.894 76.9623 126.351 83.2532C126.502 85.2261 127.403 78.0035 127.675 78.4381C127.967 78.9022 114.413 53.8463 119.787 72.2586Z" fill="#CEFF00"/>
</svg>
