<svg width="849" height="629" viewBox="0 0 849 629" fill="none" xmlns="http://www.w3.org/2000/svg">
<path d="M510.539 162.21C603.689 206.859 678.307 264.356 723.653 321.202C769.026 378.081 784.983 434.154 761.211 476.059C737.439 517.965 678.288 538.036 601.578 536.4C524.913 534.764 430.91 511.438 337.76 466.79C244.609 422.141 169.991 364.644 124.645 307.798C79.2727 250.919 63.3154 194.846 87.0872 152.941C110.859 111.035 170.011 90.9635 246.721 92.6004C323.386 94.2364 417.388 117.562 510.539 162.21Z" stroke="white"/>
<path d="M404.205 480.955C404.177 481.326 404.268 481.528 404.639 481.945C405.4 482.799 406.819 484.774 407.589 486.08C412.203 493.771 412.405 503.32 408.133 510.597C406.811 512.85 404.981 515.034 403.269 516.427C402.549 517.005 402.452 517.137 402.442 517.548C402.381 518.624 403.539 519.141 404.416 518.437C405.208 517.801 407.318 516.492 408.49 515.899C416.227 512.031 425.954 512.485 433.936 517.087C436.2 518.383 438.24 519.97 440.162 521.907C441.165 522.934 441.437 523.138 441.795 523.198C442.382 523.295 442.915 522.849 442.935 522.228C442.965 521.82 442.882 521.667 442.339 521.058C440.741 519.263 439.13 516.691 438.037 514.179C435.354 508.033 435.249 501.064 437.77 495.137C439.027 492.167 440.652 489.854 443.249 487.366C444.626 486.059 444.743 485.91 444.721 485.543C444.703 485.081 444.324 484.615 443.908 484.51C443.412 484.395 442.964 484.554 442.275 485.107C441.305 485.887 439.045 487.207 437.6 487.854C430.428 491.01 421.642 490.608 414.324 486.772C411.498 485.287 408.401 482.954 406.65 480.989C406.003 480.262 405.359 479.881 404.963 479.998C404.504 480.147 404.227 480.498 404.205 480.955ZM419.276 500.121C421.684 501.559 416.62 498.325 419.627 498.988C421.225 499.336 415.172 501.359 416.667 501.33C420.049 501.29 433.92 491.577 437.52 490.335C437.623 490.29 413.409 501.787 412.983 502.514C409.101 509.185 432.606 506.795 435.705 514.292C436.019 515.047 436.306 515.77 436.351 515.881C436.422 516.062 428.686 494.644 428.521 494.539C422.282 490.79 423.855 510.671 417.21 511.206C415.458 511.349 412.531 511.939 410.767 512.531C410.044 512.763 422.186 510.602 422.241 510.503C423.772 507.863 427.713 508.238 428.335 506.163C429.684 501.691 413.811 497.023 412.556 492.26C412.157 490.766 412.478 496.35 412.202 496.04C411.907 495.71 426.12 513.737 419.276 500.121Z" fill="#CEFF00"/>
<path d="M205.837 71.5903C205.984 72.1092 206.202 72.3438 206.892 72.7427C208.306 73.561 211.133 75.6085 212.782 77.04C222.599 85.4329 227.587 98.3862 225.62 110.288C225.012 113.972 223.708 117.796 222.166 120.484C221.514 121.604 221.453 121.829 221.644 122.395C222.096 123.893 223.861 124.069 224.655 122.705C225.373 121.472 227.475 118.717 228.708 117.369C236.878 108.536 249.777 104.694 262.455 107.321C266.047 108.054 269.49 109.287 272.953 111.052C274.768 111.994 275.223 112.148 275.719 112.067C276.532 111.93 277.006 111.076 276.725 110.219C276.562 109.647 276.378 109.476 275.37 108.893C272.399 107.174 269.027 104.398 266.36 101.467C259.824 94.3004 256.238 84.8273 256.592 75.5721C256.76 70.939 257.734 67.0336 259.887 62.4426C261.034 60.0253 261.114 59.7675 260.903 59.2772C260.651 58.6539 259.927 58.1916 259.333 58.2386C258.63 58.3092 258.124 58.7322 257.5 59.8036C256.621 61.313 254.33 64.1531 252.767 65.6999C244.982 73.3023 233.334 76.7817 221.902 74.8971C217.483 74.1633 212.293 72.3973 209.039 70.5146C207.837 69.8187 206.81 69.5931 206.351 69.9353C205.827 70.3478 205.639 70.9551 205.837 71.5903ZM234.958 90.8637C238.807 91.724 230.608 89.6282 234.855 89.1559C237.109 88.8978 230.222 94.4377 232.156 93.7128C236.543 92.107 249.814 72.4739 253.891 69.1273C254.002 69.0179 228.137 95.8311 227.941 97.0198C226.184 107.915 255.63 93.8702 263.377 102.692C264.161 103.579 264.891 104.436 265.005 104.566C265.187 104.781 244.51 79.0659 244.243 78.998C234.259 76.7371 246.143 103.178 237.749 106.957C235.537 107.956 232.015 110.105 230.01 111.722C229.182 112.372 243.936 103.85 243.958 103.689C244.647 99.3799 249.968 98.0855 249.752 94.9651C249.297 88.2361 226.303 89.1379 222.312 83.2052C221.052 81.348 224.234 88.8296 223.721 88.533C223.173 88.2166 250.612 106.33 234.958 90.8637Z" fill="#CEFF00"/>
</svg>
