<svg width="826" height="598" viewBox="0 0 826 598" fill="none" xmlns="http://www.w3.org/2000/svg">
<path d="M476.986 152.057C573.089 193.899 652.911 248.218 704.281 302.195C729.967 329.184 748.522 356.069 758.453 381.248C768.383 406.425 769.677 429.859 760.909 449.998C752.14 470.138 734.104 485.155 708.909 495.039C683.712 504.923 651.39 509.657 614.134 509.242C539.624 508.411 445.48 486.985 349.378 445.143C253.275 403.3 173.453 348.981 122.082 295.005C96.3962 268.015 77.841 241.13 67.9104 215.951C57.9808 190.774 56.6862 167.34 65.4547 147.201C74.2232 127.062 92.2595 112.044 117.454 102.161C142.651 92.276 174.973 87.5423 212.229 87.9578C286.739 88.7888 380.883 110.214 476.986 152.057Z" stroke="white"/>
</svg>
