<svg width="817" height="616" viewBox="0 0 817 616" fill="none" xmlns="http://www.w3.org/2000/svg">
<path d="M179.113 479.969C179.274 479.71 179.285 479.535 179.176 479.118C178.952 478.263 178.678 476.392 178.619 475.207C178.211 468.206 181.686 461.237 187.524 457.307C189.331 456.09 191.477 455.081 193.239 454.608C193.977 454.414 194.097 454.349 194.26 454.055C194.712 453.296 194.074 452.56 193.175 452.796C192.363 453.009 190.347 453.298 189.278 453.361C182.236 453.745 175.4 450.383 171.394 444.566C170.254 442.922 169.387 441.138 168.736 439.138C168.402 438.083 168.284 437.85 168.049 437.695C167.663 437.442 167.11 437.598 166.86 438.041C166.684 438.327 166.686 438.464 166.845 439.073C167.316 440.87 167.502 443.232 167.336 445.39C166.939 450.671 164.372 455.744 160.308 459.244C158.276 461 156.228 462.166 153.413 463.155C151.926 463.671 151.785 463.742 151.662 464.014C151.5 464.354 151.596 464.809 151.856 465.015C152.169 465.253 152.553 465.277 153.259 465.092C154.253 464.832 156.382 464.582 157.669 464.564C164.033 464.518 170.211 467.55 174.028 472.606C175.502 474.562 176.849 477.214 177.365 479.182C177.555 479.909 177.874 480.386 178.205 480.424C178.591 480.46 178.924 480.293 179.113 479.969ZM175.522 461.408C174.333 459.617 176.755 463.535 174.84 462.117C173.821 461.368 178.949 461.793 177.861 461.347C175.409 460.321 161.732 463.02 158.667 462.794C158.576 462.796 180.381 462.033 180.964 461.64C186.291 458.026 168.45 452.423 169.06 446.035C169.12 445.391 169.188 444.779 169.197 444.685C169.214 444.532 166.666 462.434 166.745 462.561C169.819 467.218 176.224 452.35 181.215 454.035C182.531 454.479 184.864 454.964 186.359 455.087C186.969 455.144 177.401 452.92 177.323 452.975C175.219 454.406 172.522 452.906 171.287 454.213C168.62 457.026 178.286 465.353 177.383 469.189C177.105 470.394 178.991 466.255 179.072 466.565C179.159 466.896 175.755 449.426 175.522 461.408Z" fill="#CEFF00"/>
<path d="M493.1 163.364C580.966 207.56 650.997 263.744 693.2 318.833C735.429 373.955 749.691 427.824 726.41 467.505C703.13 507.185 646.561 525.426 573.635 522.625C500.753 519.826 411.733 496.008 323.867 451.811C236.001 407.615 165.97 351.431 123.767 296.342C81.5376 241.22 67.2759 187.351 90.5564 147.67C113.837 107.99 170.406 89.7488 243.332 92.5496C316.214 95.3487 405.234 119.167 493.1 163.364Z" stroke="white"/>
<path d="M465.515 480.828C465.359 481.257 465.4 481.527 465.698 482.143C466.311 483.409 467.327 486.22 467.8 488.023C470.682 498.667 467.753 510.04 460.31 517.233C458.006 519.46 455.127 521.436 452.649 522.515C451.609 522.959 451.451 523.084 451.304 523.567C450.875 524.82 452.067 525.819 453.333 525.278C454.477 524.788 457.395 523.942 458.971 523.63C469.365 521.629 480.668 525.407 488.54 533.516C490.776 535.806 492.651 538.365 494.272 541.299C495.113 542.848 495.365 543.18 495.767 543.371C496.426 543.681 497.201 543.331 497.431 542.603C497.601 542.129 497.554 541.92 497.118 541.018C495.831 538.361 494.787 534.778 494.333 531.44C493.213 523.269 495.4 514.982 500.335 508.804C502.799 505.707 505.48 503.51 509.363 501.43C511.417 500.34 511.605 500.203 511.7 499.762C511.833 499.209 511.541 498.531 511.086 498.268C510.54 497.967 509.959 498.006 508.965 498.431C507.564 499.03 504.465 499.84 502.549 500.124C493.057 501.472 482.845 498.067 475.502 491.088C472.666 488.386 469.793 484.593 468.383 481.682C467.862 480.606 467.231 479.94 466.725 479.947C466.136 479.97 465.693 480.293 465.515 480.828ZM476.905 508.542C479.264 511.047 474.373 505.531 477.694 507.319C479.46 508.263 471.662 508.64 473.432 509.105C477.427 510.184 496.982 503.306 501.632 503.036C501.768 503.016 469.444 508.56 468.701 509.279C461.918 515.884 490.387 520.887 491.55 530.797C491.669 531.796 491.767 532.747 491.783 532.893C491.807 533.131 489.801 505.194 489.641 505.014C483.539 498.497 478.797 522.559 470.795 520.979C468.685 520.564 465.043 520.288 462.77 520.401C461.841 520.435 476.856 521.923 476.953 521.823C479.631 519.208 484.147 520.966 485.568 518.716C488.639 513.87 471.497 503.053 471.599 496.995C471.624 495.094 470.151 501.812 469.929 501.353C469.691 500.864 480.447 526.946 476.905 508.542Z" fill="#CEFF00"/>
<path d="M88.8554 85.296C89.0076 86.0702 89.2975 86.438 90.2513 87.1006C92.208 88.4599 96.0708 91.7777 98.2963 94.059C111.562 107.452 117.287 126.934 113.045 144.07C111.731 149.375 109.393 154.801 106.842 158.543C105.765 160.101 105.651 160.422 105.861 161.27C106.342 163.509 108.883 163.971 110.195 162.074C111.381 160.359 114.751 156.585 116.699 154.762C129.584 142.829 148.749 138.731 166.839 144.046C171.966 145.535 176.817 147.736 181.637 150.716C184.161 152.303 184.803 152.581 185.532 152.52C186.727 152.414 187.514 151.224 187.207 149.941C187.037 149.088 186.79 148.817 185.395 147.848C181.285 144.993 176.717 140.549 173.19 135.961C164.541 124.74 160.444 110.499 162.038 97.0369C162.823 90.2966 164.692 84.7121 168.352 78.2652C170.298 74.8723 170.444 74.5055 170.195 73.7654C169.903 72.8267 168.906 72.0675 168.039 72.0667C167.01 72.0875 166.227 72.6456 165.196 74.1359C163.745 76.2355 160.088 80.1115 157.64 82.1858C145.456 92.3684 128.149 96.0839 111.78 91.9981C105.453 90.4111 98.1294 87.228 93.6278 84.1008C91.9637 82.9448 90.5001 82.4956 89.7943 82.9413C88.9858 83.482 88.6428 84.346 88.8554 85.296ZM128.862 116.82C134.346 118.525 122.694 114.509 128.911 114.316C132.212 114.203 121.572 121.481 124.463 120.65C131.016 118.819 152.564 91.7243 158.87 87.3178C159.044 87.1711 118.384 123.271 117.961 124.982C114.139 140.673 158.506 123.622 168.718 137.399C169.751 138.785 170.711 140.121 170.861 140.324C171.1 140.658 144.099 100.723 143.719 100.592C129.496 96.1268 143.654 136.095 131.033 140.628C127.706 141.826 122.345 144.551 119.247 146.675C117.969 147.526 140.373 136.817 140.423 136.585C141.926 130.378 149.799 129.111 149.849 124.533C149.974 114.662 116.505 113.291 111.405 104.168C109.794 101.311 113.537 112.599 112.828 112.106C112.069 111.58 149.771 141.215 128.862 116.82Z" fill="#CEFF00"/>
</svg>
