<svg width="849" height="629" viewBox="0 0 849 629" fill="none" xmlns="http://www.w3.org/2000/svg">
<path d="M510.539 162.21C603.689 206.859 678.307 264.356 723.653 321.202C769.026 378.081 784.983 434.154 761.211 476.059C737.439 517.965 678.288 538.036 601.578 536.4C524.913 534.764 430.91 511.438 337.76 466.79C244.609 422.141 169.991 364.644 124.645 307.798C79.2727 250.919 63.3154 194.846 87.0872 152.941C110.859 111.035 170.011 90.9635 246.721 92.6004C323.386 94.2364 417.388 117.562 510.539 162.21Z" stroke="white"/>
<path d="M185.725 82.4015C185.728 82.6235 185.792 82.7393 186.034 82.9685C186.531 83.4385 187.478 84.5425 188.003 85.2812C191.144 89.6271 191.752 95.3045 189.579 99.8574C188.906 101.267 187.928 102.661 186.979 103.578C186.58 103.959 186.529 104.043 186.544 104.289C186.562 104.932 187.279 105.181 187.765 104.717C188.205 104.298 189.394 103.411 190.062 102.998C194.474 100.298 200.291 100.072 205.28 102.405C206.695 103.062 207.991 103.903 209.235 104.959C209.885 105.519 210.057 105.627 210.273 105.644C210.628 105.672 210.923 105.379 210.903 105.008C210.9 104.764 210.843 104.677 210.488 104.342C209.445 103.354 208.354 101.904 207.575 100.464C205.663 96.9398 205.244 92.794 206.443 89.1345C207.04 87.3016 207.89 85.841 209.31 84.2261C210.063 83.3771 210.126 83.2823 210.094 83.0651C210.059 82.7908 209.81 82.5328 209.557 82.4914C209.255 82.4483 208.996 82.566 208.614 82.9305C208.076 83.4441 206.797 84.3459 205.97 84.8051C201.859 87.0518 196.605 87.2607 192.05 85.3497C190.29 84.6089 188.327 83.3779 187.183 82.2965C186.761 81.8968 186.358 81.7026 186.128 81.7927C185.862 81.9044 185.715 82.1278 185.725 82.4015ZM195.682 93.0479C197.189 93.7814 194.007 92.1138 195.833 92.3555C196.802 92.4809 193.3 93.995 194.189 93.9015C196.201 93.7049 203.968 87.2106 206.049 86.2875C206.108 86.255 192.272 94.3401 192.055 94.7948C190.084 98.9668 203.962 96.343 206.191 100.65C206.417 101.084 206.624 101.5 206.657 101.564C206.708 101.668 201.007 89.3052 200.903 89.251C196.995 87.3366 198.947 99.0983 195.017 99.7566C193.98 99.931 192.267 100.432 191.247 100.875C190.828 101.05 197.95 99.1429 197.978 99.0809C198.755 97.43 201.122 97.4524 201.386 96.1846C201.961 93.4517 192.268 91.4818 191.277 88.7085C190.963 87.8394 191.439 91.1489 191.259 90.9786C191.066 90.7967 200.453 100.809 195.682 93.0479Z" fill="#CEFF00"/>
<path d="M733.022 463.333C732.898 463.683 732.933 463.902 733.183 464.401C733.694 465.425 734.549 467.702 734.951 469.163C737.397 477.793 735.099 487.063 729.076 492.972C727.211 494.802 724.875 496.433 722.858 497.33C722.012 497.7 721.884 497.803 721.768 498.197C721.428 499.219 722.411 500.021 723.441 499.57C724.372 499.163 726.75 498.45 728.036 498.184C736.515 496.47 745.786 499.447 752.29 505.973C754.137 507.816 755.692 509.88 757.042 512.252C757.742 513.504 757.951 513.772 758.281 513.924C758.822 514.17 759.453 513.879 759.634 513.285C759.77 512.899 759.73 512.729 759.365 512C758.291 509.85 757.407 506.947 757.008 504.237C756.023 497.603 757.74 490.848 761.722 485.785C763.71 483.246 765.882 481.438 769.039 479.714C770.709 478.811 770.862 478.698 770.936 478.339C771.039 477.888 770.795 477.34 770.421 477.129C769.972 476.889 769.497 476.925 768.688 477.28C767.548 477.778 765.022 478.463 763.458 478.71C755.71 479.885 747.334 477.203 741.272 471.59C738.931 469.418 736.55 466.358 735.374 464.004C734.938 463.133 734.417 462.597 734.003 462.607C733.522 462.63 733.163 462.897 733.022 463.333ZM742.568 485.768C744.517 487.785 740.472 483.341 743.202 484.767C744.654 485.519 738.282 485.892 739.733 486.255C743.008 487.098 758.934 481.343 762.733 481.085C762.844 481.068 736.469 485.845 735.868 486.435C730.379 491.862 753.692 495.691 754.727 503.737C754.833 504.548 754.921 505.321 754.936 505.439C754.957 505.632 753.081 482.938 752.948 482.793C747.905 477.546 744.233 497.147 737.679 495.93C735.95 495.61 732.971 495.416 731.114 495.527C730.355 495.562 742.64 496.646 742.719 496.565C744.887 494.416 748.593 495.807 749.735 493.966C752.204 490.001 738.1 481.351 738.132 476.425C738.137 474.88 736.989 480.353 736.804 479.983C736.605 479.586 745.619 500.699 742.568 485.768Z" fill="#CEFF00"/>
</svg>
