<?xml version="1.0" encoding="utf-8"?>
<!-- Generator: Adobe Illustrator 25.2.1, SVG Export Plug-In . SVG Version: 6.00 Build 0)  -->
<svg version="1.1" id="Warstwa_1" xmlns="http://www.w3.org/2000/svg" xmlns:xlink="http://www.w3.org/1999/xlink" x="0px" y="0px"
	 viewBox="0 0 1051.6 594.1" style="enable-background:new 0 0 1051.6 594.1;" xml:space="preserve">
<style type="text/css">
	.st0{fill:#FFFFFF;}
	.st1{fill:none;stroke:#FFFFFF;stroke-width:0.5;stroke-miterlimit:10;}
	.st2{fill:none;stroke:#FFFFFF;stroke-miterlimit:10;}
</style>
<g>
	<g>
		<g>
			<path class="st0" d="M548.8,465.7l-21-127.7l-82.1,100.1L491.4,317l-121.1,45.7l100.1-82l-127.7-21l127.7-21l-100.1-82
				l121.1,45.7L445.7,81.2l82.1,100.1l21-127.7l21,127.7l82.1-100.1l-45.7,121.1l121.1-45.7l-100.1,82l127.7,21l-127.7,21l100.1,82
				L606.2,317l45.7,121.1L569.9,338L548.8,465.7z M528.5,335.2l20.3,123.1l20.3-123.1l79.1,96.4l-44.1-116.7L720.9,359l-96.5-79.1
				l123.1-20.3l-123.1-20.3l96.5-79.1l-116.7,44.1l44.1-116.7L569.1,184L548.8,61L528.5,184l-79.1-96.4l44.1,116.7l-116.7-44.1
				l96.5,79.1l-123.1,20.3l123.1,20.3L376.8,359l116.7-44.1l-44.1,116.7L528.5,335.2z"/>
		</g>
	</g>
	<g>
		<g>
			<path class="st0" d="M269.7,571.3c-84.5,0-153.3-27.8-153.3-61.9c0-34.1,68.8-61.9,153.3-61.9S423,475.3,423,509.4
				C423,543.5,354.3,571.3,269.7,571.3z M269.7,448.8c-83.8,0-152,27.2-152,60.6c0,33.4,68.2,60.6,152,60.6s152-27.2,152-60.6
				C421.7,476,353.5,448.8,269.7,448.8z"/>
		</g>
	</g>
	<g>
		<g>
			<path class="st0" d="M160,270.3l-16.8-33.8l-21.7,30.9l-11.3-36l-26.6,26.9l-4.4-37.5l-31.8,20.6l5.3-37.5l-37.1,9.2l20.7-31.9
				L0,168.9l36.3-12.3l-20.7-31.9l37.1,9.2l-5.3-37.5l31.8,20.6l4.4-37.5l26.6,26.9l11.3-36l21.7,30.9L160,67.5l16.8,33.8l21.7-30.9
				l11.3,36l26.6-26.9l4.4,37.5l31.8-20.6l-5.3,37.5l37.1-9.2l-20.7,31.9l36.3,12.3l-36.3,12.3l20.7,31.9l-37.1-9.2l5.3,37.5
				l-31.8-20.6l-4.4,37.5l-26.6-26.9l-11.3,36l-21.7-30.9L160,270.3z M143.4,233.6l16.6,33.3l16.6-33.3l21.4,30.5l11.1-35.5
				l26.2,26.4l4.3-36.8l31.1,20.2l-5.2-36.5l35.6,8.9l-19.7-30.3l33.9-11.5l-33.9-11.5L301,127l-35.5,8.9l5.2-36.5l-31.1,20.2
				l-4.3-36.8l-26.2,26.4l-11.2-35.5l-21.4,30.5L160,70.9l-16.6,33.3L122,73.7l-11.1,35.5L84.7,82.8l-4.3,36.8L49.3,99.5l5.2,36.5
				L18.9,127l19.7,30.3L4.6,168.9l33.9,11.5l-19.7,30.3l35.5-8.9l-5.2,36.5l31.1-20.2l4.3,36.8l26.2-26.4l11.1,35.5L143.4,233.6z"/>
		</g>
	</g>
	<g>
		<g>
			<path class="st0" d="M920.9,290.6L905,260.1l-24.5,24.1l-5.7-33.9L844,265.6l5.1-34l-34,5.1l15.3-30.8l-33.9-5.7l24.1-24.5
				l-30.5-15.9l30.5-15.9l-24.1-24.5l33.9-5.7l-15.3-30.8l34,5.1l-5.1-34l30.8,15.3l5.7-33.9L905,59.7l15.9-30.5l15.9,30.5
				l24.5-24.1l5.7,33.9l30.8-15.3l-5.1,34l34-5.1l-15.3,30.8l33.9,5.7l-24.1,24.5l30.5,15.9l-30.5,15.9l24.1,24.5l-33.9,5.7
				l15.3,30.8l-34-5.1l5.1,34l-30.8-15.3l-5.7,33.9l-24.5-24.1L920.9,290.6z M905.3,257.9l15.6,29.8l15.6-29.8l24,23.6l5.5-33.1
				l30.1,15l-5-33.2l33.2,5l-15-30.1l33.2-5.5l-23.6-24l29.8-15.6l-29.8-15.6l23.6-24l-33.2-5.5l15-30.1l-33.2,5l5-33.2l-30.1,15
				l-5.5-33.2l-24,23.6l-15.6-29.8l-15.6,29.8l-24-23.6l-5.5,33.1l-30.1-15l5,33.2l-33.3-5l15,30.1l-33.2,5.5l23.6,24L793,159.9
				l29.8,15.6l-23.6,24l33.2,5.5l-15,30.1l33.3-5l-5,33.2l30.1-15l5.5,33.1L905.3,257.9z"/>
		</g>
	</g>
	<g>
		<g>
			<path class="st0" d="M602.8,77.9l-0.4-0.3c0.2-0.3,15.8-25.9,47.5-44.4C668.6,22.4,689,16,710.7,14.5c27.1-2,56.3,3.5,86.7,16.3
				l-0.2,0.5c-68.6-28.8-117.8-14.6-147,2.4C618.6,52.1,603,77.6,602.8,77.9z"/>
		</g>
	</g>
	<g>
		<g>
			<path class="st0" d="M792.8,36.4l13.3-1.5l-8-10.7L792.8,36.4z"/>
		</g>
	</g>
	<g>
		<g>
			<path class="st0" d="M131.7,447.7c-0.2-0.1-19.1-15.2-34.3-42.2c-8.9-15.9-14.8-32.7-17.6-50.1c-3.4-21.7-1.9-44.2,4.5-67
				l0.5,0.1c-14.6,51.4-1,91.8,13,116.7c15.1,27,34,42,34.1,42.1L131.7,447.7z"/>
		</g>
	</g>
	<g>
		<g>
			<path class="st0" d="M134.5,441.1l4.9,12.4l-13.2-1.9L134.5,441.1z"/>
		</g>
	</g>
	<g>
		<g>
			<path class="st0" d="M478.8,514.6l0-0.5c164.1-3.4,262.9-53.8,316.9-95.5c58.5-45.1,78.5-90,78.7-90.5l0.5,0.2
				c-0.2,0.4-20.2,45.5-78.8,90.7c-34.4,26.6-75.2,48-121.2,63.7C617.3,502.3,551.4,513.1,478.8,514.6z"/>
		</g>
	</g>
	<g>
		<g>
			<path class="st0" d="M480.6,507.5l-11.4,7l11.7,6.3L480.6,507.5z"/>
		</g>
	</g>
	<g>
		<g>
			<path class="st0" d="M862.6,571.1c4.7,4.1,10.6,6.6,16.2,7.1c0.8,4.3,3.2,8.1,6.9,10.9c5.7,4.3,13.9,5.8,23,4.4
				c1.9-0.3,3.7-0.7,5.4-1.1c5.7-1.5,10.5-4,14.9-7.7c5.5-4.5,10.5-10.9,16.2-20.8c11.5-19.8,4.9-38.2-6.8-47.7
				c-3.7-3-7.8-4.5-12.3-4.4c0-0.1,0-0.2,0-0.2c-1-3.3-4.3-8.4-8.8-13.8c-5.2-6.2-11.6-12.1-18-16.7c-14.3-10.2-25.8-12.6-35.2-7.2
				c-4,2.3-6.5,5.8-6.9,10c-0.7,6.1,2.6,12.8,9.2,18.9c4.2,3.9,10,8.1,15.7,11.8c-2.9-0.2-6,0.2-8.9,1c-4.5,1.3-8,3.8-9.6,6.9
				c-2.3,4.4-2.4,9.2-0.4,13.9c-2.1,1.7-8.9,8.1-8.8,19.1C854.3,560.9,857.4,566.7,862.6,571.1z M888.9,519.1
				c5.3,3.3,9.9,6,12.1,7.2c-1.5,1.9-3.2,4.2-4.3,6.6c-2.2-0.5-7.8-2.3-11-8.1c-0.4-0.6-1.2-0.9-1.8-0.5c-0.6,0.4-0.9,1.2-0.5,1.8
				c3.5,6.5,9.5,8.6,12.3,9.4c-0.7,2.1-1,4.2-0.7,6.3c0.4,2.9,1.9,5.4,4.5,7.5c-8.8,4.2-17.4,2.8-26.1-4.2
				c-8.3-6.7-11-14.5-7.4-21.3c1.3-2.5,4.1-4.5,8-5.6C879,516.6,885.2,517,888.9,519.1z M923.4,512c-1.4,0.2-2.8,0.5-4.3,1
				c-5.6,1.9-10.4,5.5-13.4,8.1c-0.4,0.3-1.5,1.4-3,3c-4.2-2.4-24.6-14.1-34.6-23.4c-5.9-5.4-8.9-11.5-8.3-16.6
				c0.4-3.4,2.3-6.2,5.6-8c8.4-4.8,19-2.4,32.3,7.1C911,492.7,921.5,506.2,923.4,512z M881.5,578.4c0.7,0,1.4-0.1,2.1-0.2
				c0.9-0.1,1.8-0.3,2.7-0.5c4.3-1.2,7.5-3.6,9.3-7.2c2.3-4.6,1.9-10.7-1.1-16.8c0.4-0.1,0.8-0.2,1.2-0.3c2.1-0.6,4.2-1.4,6.3-2.5
				c0.4,0.2,0.8,0.4,1.2,0.6c0.6,0.3,1.3,0.6,1.9,0.8c1.4,8,5,12,7.8,13.9c3.2,2.2,6.1,2.4,6.3,2.4c0.1,0,0.3,0,0.4,0
				c0.5-0.1,1-0.6,1-1.2c0-0.7-0.5-1.4-1.3-1.4c-0.4,0-8.6-0.6-11.2-12.7c5.6,1.3,11.6,0.4,17.6-2.9c5.7-3.1,9.3-7.1,9.5-7.3
				c0.5-0.6,0.4-1.4-0.1-1.9c-0.5-0.5-1.4-0.4-1.9,0.1c-0.1,0.1-3.5,3.9-8.8,6.8c-6.1,3.3-11.9,4-17.5,2.1c0,0,0,0-0.1,0
				c-0.8-0.3-1.6-0.6-2.3-1c-4-2-6.3-4.6-6.7-7.7c-0.9-6.5,5.9-14.5,10-18.2c5.1-4.5,18.1-14,29.3-4.9c10.8,8.8,16.9,25.9,6.2,44.3
				c-10.8,18.6-19.9,26-34.7,28.3c-8.5,1.3-15.9-0.1-21-3.9C884.3,584.8,882.3,581.8,881.5,578.4z M856.9,555.4
				c-0.1-9.1,5.2-14.7,7.3-16.6c1.7,2.9,4.1,5.6,7.3,8.2c4.8,3.9,9.7,6.2,14.5,7c1.8,0.3,3.7,0.3,5.5,0.1c3,5.6,3.5,11.1,1.5,15.1
				c-1.7,3.4-5.1,5.6-9.9,6.2c-6.1,0.8-13.4-1.6-18.9-6.4C859.7,565.1,857,560.1,856.9,555.4z"/>
		</g>
	</g>
	<g>
		<g>
			<path class="st0" d="M469.1,46.3c-0.3-0.2-28.4-22.5-74.1-35.8C352.7-1.8,286.4-8.8,210.1,28l-0.2-0.5
				c33.7-16.3,68.4-25.4,102.9-27.2c27.7-1.4,55.3,1.8,82.3,9.6c45.9,13.3,74,35.7,74.3,35.9L469.1,46.3z"/>
		</g>
	</g>
	<g>
		<g>
			<path class="st0" d="M208.9,21l-7.5,11.1l13.3,0.9L208.9,21z"/>
		</g>
	</g>
	<g>
		<g>
			<path class="st0" d="M496.8,256.7c2.3,0.8,3.5,2.5,3.5,5c0,1.7-0.6,3.1-1.7,4.1c-1.1,1-2.7,1.5-4.7,1.5h-10v-20.1h9.7
				c2,0,3.4,0.5,4.4,1.4c1,0.9,1.5,2.1,1.5,3.7c0,2.1-0.9,3.6-2.8,4.4V256.7z M486.5,249.3v6.5h7c1.1,0,2-0.3,2.6-0.9
				c0.6-0.6,0.9-1.4,0.9-2.4c0-1-0.3-1.8-0.9-2.3c-0.6-0.6-1.4-0.8-2.5-0.8H486.5z M493.8,265.1c1.2,0,2.1-0.3,2.7-0.9
				c0.7-0.6,1-1.5,1-2.5c0-1.1-0.3-1.9-1-2.6c-0.7-0.7-1.6-1-2.7-1h-7.3v7.1H493.8z"/>
		</g>
		<g>
			<path class="st0" d="M503.9,267.3v-14.4h2.3l0.3,2h0.2c0.5-0.7,1.1-1.3,1.9-1.7c0.7-0.4,1.7-0.6,2.9-0.6h1v2.6
				c-0.3-0.1-0.8-0.1-1.5-0.1c-1.3,0-2.4,0.4-3.2,1.3c-0.8,0.8-1.3,2-1.3,3.5v7.4H503.9z"/>
		</g>
		<g>
			<path class="st0" d="M529.1,265.3h0.5v2h-1.2c-1.6,0-2.5-0.7-2.8-2.1c-1.3,1.6-3.3,2.4-6.1,2.4c-1.7,0-3.1-0.3-4.1-1.1
				c-1-0.7-1.6-1.7-1.6-3.1c0-1.3,0.5-2.3,1.4-3c0.9-0.7,2.2-1.1,3.7-1.3l6.4-0.5V258c0-1.1-0.4-1.9-1.1-2.4
				c-0.7-0.6-1.8-0.9-3.1-0.9c-2.4,0-3.8,0.9-4.1,2.8h-2.6c0.2-1.5,0.9-2.7,2-3.5c1.2-0.9,2.7-1.3,4.7-1.3c2,0,3.7,0.5,4.9,1.4
				c1.2,0.9,1.9,2.3,1.9,4v5.9c0,0.5,0.1,0.9,0.3,1.1C528.3,265.2,528.6,265.3,529.1,265.3z M525.2,261.5v-1l-5.8,0.4
				c-2.2,0.2-3.3,1-3.3,2.4c0,1.5,1.1,2.2,3.4,2.2c1.5,0,2.8-0.3,3.9-1C524.7,263.9,525.2,262.9,525.2,261.5z"/>
		</g>
		<g>
			<path class="st0" d="M532.2,267.3v-14.4h2.3l0.2,2h0.2c1.2-1.5,3-2.3,5.2-2.3c1.9,0,3.5,0.5,4.6,1.6c1.2,1,1.7,2.5,1.7,4.5v8.6
				h-2.6v-8c0-1.5-0.4-2.6-1.2-3.3c-0.8-0.7-1.9-1.1-3.2-1.1c-1.4,0-2.6,0.4-3.5,1.2c-0.9,0.8-1.4,2-1.4,3.5v7.7H532.2z"/>
		</g>
		<g>
			<path class="st0" d="M563.4,246.9h2.5v20.4h-2.1l-0.3-2.2h-0.2c-1.3,1.7-3.2,2.5-5.7,2.5c-2.4,0-4.3-0.7-5.7-2.1
				c-1.4-1.4-2.2-3.2-2.2-5.5s0.7-4.1,2.2-5.4c1.5-1.4,3.4-2,5.7-2c2.5,0,4.5,0.8,5.8,2.4V246.9z M553.9,263.9
				c1,0.9,2.4,1.4,4.1,1.4s3-0.5,4-1.4s1.5-2.2,1.5-3.8c0-1.6-0.5-2.8-1.5-3.8c-1-0.9-2.3-1.4-4-1.4s-3,0.5-4.1,1.4
				c-1,0.9-1.5,2.2-1.5,3.8C552.3,261.7,552.9,262.9,553.9,263.9z"/>
		</g>
		<g>
			<path class="st0" d="M572.5,250.1c-0.3,0.3-0.7,0.5-1.2,0.5c-0.5,0-0.9-0.2-1.2-0.5c-0.3-0.3-0.5-0.7-0.5-1.2s0.2-0.9,0.5-1.2
				s0.7-0.5,1.2-0.5c0.5,0,0.9,0.2,1.2,0.5c0.3,0.3,0.5,0.7,0.5,1.2C573,249.4,572.8,249.8,572.5,250.1z M570,267.3v-14.4h2.5v14.4
				H570z"/>
		</g>
		<g>
			<path class="st0" d="M576.6,267.3v-14.4h2.3l0.2,2h0.2c1.2-1.5,3-2.3,5.2-2.3c1.9,0,3.5,0.5,4.6,1.6c1.2,1,1.7,2.5,1.7,4.5v8.6
				h-2.6v-8c0-1.5-0.4-2.6-1.2-3.3c-0.8-0.7-1.9-1.1-3.2-1.1c-1.4,0-2.6,0.4-3.5,1.2c-0.9,0.8-1.4,2-1.4,3.5v7.7H576.6z"/>
		</g>
		<g>
			<path class="st0" d="M603.8,264.6c1.7,0,3,0.4,3.9,1.1c0.9,0.7,1.4,1.7,1.4,3c0,1.5-0.7,2.7-2,3.5c-1.3,0.8-3.2,1.2-5.5,1.2
				c-2.3,0-4.1-0.4-5.4-1.3c-1.3-0.9-2-2-2.3-3.5l2.5-2.1c-0.6-0.2-1.1-0.6-1.5-1.1c-0.4-0.5-0.5-1.1-0.5-1.7c0-1.2,0.7-2.1,2-2.7
				c-1.1-0.9-1.6-2-1.6-3.4c0-1.5,0.6-2.6,1.8-3.6c1.2-0.9,2.8-1.4,4.8-1.4c1.6,0,2.9,0.3,4,0.9c1.1-0.4,2-1.1,2.8-2l1.4,1.6
				c-0.6,0.6-1.5,1.2-2.6,1.6c0.7,0.8,1.1,1.8,1.1,2.8c0,1.5-0.6,2.7-1.9,3.6c-1.2,0.9-2.8,1.3-4.8,1.3c-1.4,0-2.6-0.2-3.6-0.7
				c-0.7,0.4-1.1,0.8-1.1,1.4c0,0.4,0.2,0.8,0.6,1c0.4,0.2,0.9,0.4,1.6,0.4H603.8z M598.1,270.6c0.8,0.5,2,0.7,3.5,0.7
				c1.5,0,2.7-0.2,3.6-0.7c0.9-0.4,1.4-1.1,1.4-2c0-0.7-0.3-1.3-0.9-1.6c-0.6-0.3-1.3-0.5-2.1-0.5H599l-2.5,2.1
				C596.7,269.5,597.3,270.1,598.1,270.6z M601.5,254.6c-1.3,0-2.3,0.3-3.1,0.8s-1.2,1.3-1.2,2.2c0,0.8,0.4,1.5,1.2,2.1
				s1.8,0.8,3.1,0.8s2.3-0.3,3-0.8s1.1-1.2,1.1-2.1c0-0.9-0.4-1.6-1.1-2.2C603.8,254.8,602.8,254.6,601.5,254.6z"/>
		</g>
	</g>
	<g>
		<g>
			<path class="st0" d="M112.8,154c4.2,0,7.4,1.2,9.7,3.6c2.3,2.4,3.5,5.7,3.5,9.8c0,4.1-1.1,7.3-3.4,9.8s-5.5,3.7-9.7,3.7H101V154
				H112.8z M112.7,177.7c3.3,0,5.7-0.9,7.3-2.8c1.6-1.9,2.4-4.4,2.4-7.5c0-3.1-0.8-5.6-2.4-7.4c-1.6-1.8-4.1-2.7-7.3-2.7h-8.1v20.5
				H112.7z"/>
		</g>
		<g>
			<path class="st0" d="M134.3,158c-0.4,0.4-1,0.7-1.6,0.7s-1.1-0.2-1.6-0.7c-0.4-0.4-0.7-1-0.7-1.6s0.2-1.1,0.7-1.6
				c0.4-0.4,1-0.7,1.6-0.7s1.1,0.2,1.6,0.6c0.4,0.4,0.7,1,0.7,1.6C135,157,134.8,157.6,134.3,158z M131.1,181v-19.2h3.4V181H131.1z"
				/>
		</g>
		<g>
			<path class="st0" d="M152,177.3c2.2,0,3.9,0.5,5.2,1.4c1.2,0.9,1.8,2.2,1.8,3.9c0,2-0.9,3.6-2.7,4.7c-1.8,1.1-4.2,1.7-7.3,1.7
				c-3.1,0-5.5-0.6-7.2-1.8c-1.7-1.2-2.7-2.7-3-4.6l3.3-2.8c-0.8-0.3-1.5-0.8-2-1.4c-0.5-0.7-0.7-1.4-0.7-2.2c0-1.6,0.9-2.8,2.6-3.7
				c-1.4-1.2-2.2-2.7-2.2-4.5c0-1.9,0.8-3.5,2.4-4.8c1.6-1.2,3.8-1.8,6.5-1.8c2.1,0,3.9,0.4,5.4,1.2c1.4-0.5,2.7-1.4,3.8-2.7
				l1.8,2.1c-0.8,0.8-2,1.6-3.5,2.2c1,1.1,1.5,2.3,1.5,3.8c0,2-0.8,3.6-2.5,4.8c-1.7,1.2-3.8,1.7-6.4,1.7c-1.8,0-3.4-0.3-4.8-0.9
				c-1,0.5-1.5,1.1-1.5,1.9c0,0.6,0.3,1,0.8,1.4c0.5,0.3,1.2,0.5,2.1,0.5H152z M144.4,185.4c1.1,0.6,2.7,1,4.7,1s3.6-0.3,4.8-0.9
				c1.2-0.6,1.8-1.5,1.8-2.6c0-1-0.4-1.7-1.2-2.1s-1.7-0.6-2.7-0.6h-6.2l-3.3,2.8C142.5,183.9,143.3,184.7,144.4,185.4z M148.9,164
				c-1.7,0-3.1,0.4-4.1,1.1c-1,0.7-1.5,1.7-1.5,2.9c0,1.1,0.5,2.1,1.5,2.8c1,0.7,2.4,1.1,4.1,1.1s3-0.4,4-1.1c1-0.7,1.5-1.7,1.5-2.8
				c0-1.2-0.5-2.2-1.5-2.9C151.9,164.3,150.6,164,148.9,164z"/>
		</g>
		<g>
			<path class="st0" d="M166.4,158c-0.4,0.4-1,0.7-1.6,0.7s-1.1-0.2-1.6-0.7c-0.4-0.4-0.7-1-0.7-1.6s0.2-1.1,0.7-1.6
				c0.4-0.4,1-0.7,1.6-0.7s1.1,0.2,1.6,0.6c0.4,0.4,0.7,1,0.7,1.6C167.1,157,166.9,157.6,166.4,158z M163.2,181v-19.2h3.4V181H163.2
				z"/>
		</g>
		<g>
			<path class="st0" d="M179.8,181.3c-1.8,0-3.1-0.4-4-1.3c-0.9-0.9-1.3-2.1-1.3-3.6v-11.9h-4.7v-2.8h1.8c1.2,0,2-0.2,2.4-0.7
				c0.5-0.4,0.7-1.2,0.7-2.3v-2.4h3.1v5.4h5.5v2.8h-5.5v11.3c0,1.8,0.9,2.7,2.8,2.7c0.7,0,1.4-0.1,2.1-0.3v2.7
				C181.9,181.2,180.9,181.3,179.8,181.3z"/>
		</g>
		<g>
			<path class="st0" d="M206.6,178.3h0.6v2.6h-1.7c-2.1,0-3.4-0.9-3.8-2.8c-1.7,2.2-4.4,3.2-8.2,3.2c-2.3,0-4.2-0.5-5.5-1.4
				c-1.4-0.9-2.1-2.3-2.1-4.2c0-1.7,0.6-3.1,1.8-4.1s2.9-1.5,5-1.7l8.6-0.7v-0.8c0-1.4-0.5-2.5-1.4-3.3c-1-0.8-2.4-1.2-4.2-1.2
				c-3.2,0-5,1.2-5.5,3.7h-3.4c0.3-2,1.2-3.5,2.7-4.7c1.6-1.2,3.6-1.7,6.2-1.7c2.7,0,4.9,0.6,6.6,1.9c1.7,1.3,2.5,3,2.5,5.3v7.9
				c0,0.7,0.1,1.1,0.4,1.4C205.6,178.2,206,178.3,206.6,178.3z M201.5,173.2v-1.4l-7.7,0.6c-2.9,0.3-4.4,1.3-4.4,3.2
				c0,2,1.5,3,4.6,3c2,0,3.8-0.4,5.3-1.3C200.7,176.4,201.5,175.1,201.5,173.2z"/>
		</g>
		<g>
			<path class="st0" d="M210.8,181v-27.3h3.4V181H210.8z"/>
		</g>
	</g>
	<g>
		<g>
			<path class="st0" d="M875.1,150.7h3.1l-6.2,23.9h-3.7l-6.1-18.2h-0.2l-6.1,18.2h-3.6l-6.2-23.9h3.1l5,19.5h0.2l6-17.8h3.5
				l5.9,17.8h0.2L875.1,150.7z"/>
		</g>
		<g>
			<path class="st0" d="M898.2,165.6c0,0.2,0,0.6-0.1,1.1h-15.6c0.1,1.7,0.8,3.1,1.9,4.1s2.8,1.5,4.8,1.5c3,0,5-0.9,5.7-2.8h3
				c-0.4,1.7-1.4,3-3,3.9c-1.5,0.9-3.5,1.4-5.7,1.4c-3,0-5.4-0.8-7.1-2.4c-1.8-1.6-2.7-3.7-2.7-6.3c0-2.7,0.9-4.9,2.7-6.5
				c1.8-1.6,4.1-2.5,6.9-2.5c2.6,0,4.7,0.7,6.5,2.2C897.3,160.8,898.2,162.9,898.2,165.6z M889.1,159.6c-1.8,0-3.3,0.5-4.5,1.4
				c-1.1,0.9-1.8,2.1-2,3.5h12.6c-0.1-1.5-0.6-2.7-1.7-3.5C892.4,160.1,891,159.6,889.1,159.6z"/>
		</g>
		<g>
			<path class="st0" d="M912.2,157.1c2.8,0,5,0.8,6.7,2.4c1.7,1.6,2.6,3.7,2.6,6.4s-0.9,4.8-2.6,6.5c-1.7,1.6-4,2.4-6.8,2.4
				c-3,0-5.3-1-6.8-2.9h-0.2l-0.3,2.6h-2.5v-24.2h3v9.7C907,158.1,909.2,157.1,912.2,157.1z M907.2,170.5c1.2,1.1,2.7,1.7,4.7,1.7
				s3.6-0.6,4.8-1.7c1.2-1.1,1.8-2.6,1.8-4.5c0-1.8-0.6-3.3-1.8-4.5c-1.2-1.1-2.8-1.7-4.8-1.7s-3.6,0.6-4.7,1.7
				c-1.2,1.1-1.7,2.6-1.7,4.5C905.4,167.9,906,169.4,907.2,170.5z"/>
		</g>
		<g>
			<path class="st0" d="M946.1,150.7c3.7,0,6.6,1.1,8.6,3.2c2,2.1,3.1,5,3.1,8.7c0,3.6-1,6.5-3,8.7c-2,2.2-4.9,3.3-8.6,3.3h-10.5
				v-23.9H946.1z M945.9,171.7c2.9,0,5.1-0.8,6.5-2.5c1.4-1.7,2.1-3.9,2.1-6.6c0-2.8-0.7-5-2.2-6.6c-1.4-1.6-3.6-2.4-6.5-2.4h-7.2
				v18.2H945.9z"/>
		</g>
		<g>
			<path class="st0" d="M980.1,165.6c0,0.2,0,0.6-0.1,1.1h-15.6c0.1,1.7,0.8,3.1,1.9,4.1s2.8,1.5,4.8,1.5c3,0,5-0.9,5.7-2.8h3
				c-0.4,1.7-1.4,3-3,3.9c-1.5,0.9-3.5,1.4-5.7,1.4c-3,0-5.4-0.8-7.1-2.4c-1.8-1.6-2.7-3.7-2.7-6.3c0-2.7,0.9-4.9,2.7-6.5
				c1.8-1.6,4.1-2.5,6.9-2.5c2.6,0,4.7,0.7,6.5,2.2C979.2,160.8,980,162.9,980.1,165.6z M971,159.6c-1.8,0-3.3,0.5-4.5,1.4
				c-1.1,0.9-1.8,2.1-2,3.5h12.6c-0.1-1.5-0.6-2.7-1.7-3.5C974.3,160.1,972.8,159.6,971,159.6z"/>
		</g>
		<g>
			<path class="st0" d="M989.5,174.5l-7.9-17.1h3.3l6.4,14h0.2l6.4-14h3.2l-7.9,17.1H989.5z"/>
		</g>
	</g>
	<g>
		<g>
			<path class="st0" d="M174.2,514.6c0,2.2-0.9,3.9-2.7,4.9s-4,1.6-6.8,1.6c-3.1,0-5.5-0.6-7.2-1.9c-1.7-1.3-2.7-3-2.9-5.3h3.2
				c0.6,3,2.9,4.5,7,4.5c1.8,0,3.3-0.3,4.5-0.9c1.1-0.6,1.7-1.6,1.7-2.9c0-0.6-0.1-1.1-0.4-1.6s-0.5-0.8-0.9-1.1
				c-0.3-0.3-0.8-0.6-1.4-0.8c-0.6-0.2-1.1-0.4-1.5-0.5c-0.4-0.1-0.9-0.2-1.6-0.4l-3-0.6c-0.9-0.2-1.8-0.4-2.5-0.7
				c-0.7-0.3-1.4-0.7-2.1-1.1c-0.7-0.5-1.3-1.1-1.7-1.8c-0.4-0.8-0.6-1.6-0.6-2.6c0-2.1,0.9-3.7,2.6-4.9c1.7-1.2,4-1.8,6.7-1.8
				c2.8,0,5,0.6,6.7,1.9c1.7,1.3,2.6,2.9,2.7,4.9h-3.2c-0.2-1.2-0.8-2.2-1.8-2.9c-1-0.7-2.5-1.1-4.3-1.1c-1.8,0-3.2,0.3-4.4,1
				s-1.7,1.6-1.7,2.8c0,0.6,0.1,1.1,0.4,1.6c0.3,0.5,0.7,0.8,1.3,1.1c0.6,0.3,1.1,0.5,1.6,0.7c0.5,0.2,1.1,0.3,1.9,0.5l3,0.5
				C171.8,508.7,174.2,511,174.2,514.6z"/>
		</g>
		<g>
			<path class="st0" d="M187.7,521.2c-3,0-5.4-0.8-7.2-2.5c-1.9-1.7-2.8-3.8-2.8-6.4c0-2.6,0.9-4.7,2.8-6.4c1.9-1.7,4.3-2.5,7.2-2.5
				c3,0,5.4,0.8,7.2,2.5c1.9,1.7,2.8,3.8,2.8,6.4s-0.9,4.7-2.8,6.4C193,520.3,190.6,521.2,187.7,521.2z M182.6,516.7
				c1.3,1.2,3,1.8,5.1,1.8s3.8-0.6,5.1-1.8c1.3-1.2,1.9-2.6,1.9-4.4s-0.6-3.2-1.9-4.4c-1.3-1.2-3-1.8-5.1-1.8s-3.8,0.6-5.1,1.8
				c-1.3,1.2-1.9,2.6-1.9,4.4S181.3,515.5,182.6,516.7z"/>
		</g>
		<g>
			<path class="st0" d="M210.9,521.2c-3.1,0-5.5-0.8-7.3-2.5c-1.8-1.6-2.7-3.7-2.7-6.3c0-2.6,0.9-4.8,2.8-6.4
				c1.8-1.7,4.3-2.5,7.2-2.5c2.4,0,4.4,0.5,6,1.6c1.6,1.1,2.7,2.6,3,4.5h-3c-0.3-1-1-1.8-2.1-2.5c-1.1-0.6-2.4-1-3.9-1
				c-2.1,0-3.8,0.6-5.1,1.8c-1.3,1.2-1.9,2.7-1.9,4.5c0,1.8,0.6,3.3,1.8,4.4c1.2,1.1,2.9,1.7,5.1,1.7c1.6,0,2.9-0.3,3.9-0.8
				c1-0.5,1.8-1.3,2.1-2.4h3.1c-0.4,1.8-1.4,3.3-3,4.3S213.3,521.2,210.9,521.2z"/>
		</g>
		<g>
			<path class="st0" d="M226.7,500.5c-0.4,0.4-0.9,0.6-1.4,0.6c-0.5,0-1-0.2-1.4-0.6c-0.4-0.4-0.6-0.9-0.6-1.4s0.2-1,0.6-1.4
				c0.4-0.4,0.9-0.6,1.4-0.6c0.5,0,1,0.2,1.4,0.6c0.4,0.4,0.6,0.8,0.6,1.4C227.3,499.6,227.1,500.1,226.7,500.5z M223.8,520.8v-17.1
				h3v17.1H223.8z"/>
		</g>
		<g>
			<path class="st0" d="M249.2,518.5h0.5v2.3h-1.5c-1.9,0-3-0.8-3.3-2.5c-1.5,1.9-3.9,2.9-7.3,2.9c-2,0-3.7-0.4-4.9-1.2
				c-1.2-0.8-1.8-2.1-1.8-3.7c0-1.5,0.5-2.7,1.6-3.6c1.1-0.9,2.6-1.3,4.4-1.5l7.6-0.6v-0.8c0-1.3-0.4-2.2-1.3-2.9s-2.1-1-3.7-1
				c-2.8,0-4.5,1.1-4.9,3.3h-3c0.2-1.8,1-3.1,2.4-4.2c1.4-1,3.2-1.6,5.5-1.6c2.4,0,4.3,0.6,5.8,1.7c1.5,1.1,2.2,2.7,2.2,4.7v7
				c0,0.6,0.1,1,0.4,1.3C248.3,518.4,248.7,518.5,249.2,518.5z M244.6,514v-1.2l-6.8,0.5c-2.6,0.2-3.9,1.2-3.9,2.9
				c0,1.8,1.4,2.7,4.1,2.7c1.8,0,3.4-0.4,4.7-1.2C244,516.8,244.6,515.6,244.6,514z"/>
		</g>
		<g>
			<path class="st0" d="M252.9,520.8v-24.2h3v24.2H252.9z"/>
		</g>
		<g>
			<path class="st0" d="M298.3,497v23.9h-3.1v-18.7H295l-8.8,16h-3.4l-8.9-16h-0.3v18.7h-3.1V497h4l9.8,17.9h0.2l9.8-17.9H298.3z"/>
		</g>
		<g>
			<path class="st0" d="M321.5,511.9c0,0.2,0,0.6-0.1,1.1h-15.6c0.1,1.7,0.8,3.1,1.9,4.1s2.8,1.5,4.8,1.5c3,0,5-0.9,5.7-2.8h3
				c-0.4,1.7-1.4,3-3,3.9c-1.5,0.9-3.5,1.4-5.7,1.4c-3,0-5.4-0.8-7.1-2.4c-1.8-1.6-2.7-3.7-2.7-6.3c0-2.7,0.9-4.9,2.7-6.5
				c1.8-1.6,4.1-2.5,6.9-2.5c2.6,0,4.7,0.7,6.5,2.2C320.6,507.1,321.4,509.2,321.5,511.9z M312.4,505.9c-1.8,0-3.3,0.5-4.5,1.4
				c-1.1,0.9-1.8,2.1-2,3.5h12.6c-0.1-1.5-0.6-2.7-1.7-3.5C315.6,506.4,314.2,505.9,312.4,505.9z"/>
		</g>
		<g>
			<path class="st0" d="M340.9,496.6h3v24.2h-2.5l-0.3-2.6h-0.2c-1.5,2-3.8,2.9-6.8,2.9c-2.8,0-5.1-0.8-6.8-2.4
				c-1.7-1.6-2.6-3.8-2.6-6.5s0.9-4.8,2.6-6.4s4-2.4,6.7-2.4c3,0,5.3,1,6.8,2.9V496.6z M329.6,516.8c1.2,1.1,2.8,1.7,4.8,1.7
				c2,0,3.6-0.6,4.7-1.7c1.2-1.1,1.7-2.6,1.7-4.5c0-1.9-0.6-3.4-1.7-4.5s-2.7-1.7-4.7-1.7c-2,0-3.6,0.6-4.8,1.7
				c-1.2,1.1-1.8,2.6-1.8,4.5C327.7,514.2,328.3,515.7,329.6,516.8z"/>
		</g>
		<g>
			<path class="st0" d="M351.6,500.5c-0.4,0.4-0.9,0.6-1.4,0.6c-0.5,0-1-0.2-1.4-0.6c-0.4-0.4-0.6-0.9-0.6-1.4s0.2-1,0.6-1.4
				c0.4-0.4,0.9-0.6,1.4-0.6c0.5,0,1,0.2,1.4,0.6c0.4,0.4,0.6,0.8,0.6,1.4C352.2,499.6,352,500.1,351.6,500.5z M348.7,520.8v-17.1h3
				v17.1H348.7z"/>
		</g>
		<g>
			<path class="st0" d="M374.1,518.5h0.5v2.3h-1.5c-1.9,0-3-0.8-3.3-2.5c-1.5,1.9-3.9,2.9-7.3,2.9c-2,0-3.7-0.4-4.9-1.2
				c-1.2-0.8-1.8-2.1-1.8-3.7c0-1.5,0.5-2.7,1.6-3.6c1.1-0.9,2.6-1.3,4.4-1.5l7.6-0.6v-0.8c0-1.3-0.4-2.2-1.3-2.9s-2.1-1-3.7-1
				c-2.8,0-4.5,1.1-4.9,3.3h-3c0.2-1.8,1-3.1,2.4-4.2c1.4-1,3.2-1.6,5.5-1.6c2.4,0,4.3,0.6,5.8,1.7c1.5,1.1,2.2,2.7,2.2,4.7v7
				c0,0.6,0.1,1,0.4,1.3C373.2,518.4,373.5,518.5,374.1,518.5z M369.5,514v-1.2l-6.8,0.5c-2.6,0.2-3.9,1.2-3.9,2.9
				c0,1.8,1.4,2.7,4.1,2.7c1.8,0,3.4-0.4,4.7-1.2C368.8,516.8,369.5,515.6,369.5,514z"/>
		</g>
	</g>
</g>
</svg>
