<svg width="193" height="200" viewBox="0 0 193 200" fill="none" xmlns="http://www.w3.org/2000/svg">
<path d="M116.368 53.8498C137.274 66.2571 153.914 82.8282 163.925 99.5649C173.945 116.316 177.273 133.128 171.768 146.126C166.264 159.123 152.894 166.026 135.561 166.543C118.243 167.06 97.071 161.191 76.1651 148.783C55.2593 136.376 38.6193 119.805 28.608 103.068C18.588 86.3173 15.2609 69.5051 20.7652 56.5076C26.2695 43.5101 39.6395 36.6073 56.9725 36.0898C74.2907 35.5728 95.4625 41.4425 116.368 53.8498Z" stroke="white"/>
<path d="M165.096 91.2878C165.018 91.4068 165 91.4895 165.01 91.6906C165.028 92.1032 164.989 93.0001 164.922 93.5649C164.549 96.9049 162.745 100.127 160.297 101.842C159.539 102.373 158.671 102.797 157.985 102.975C157.699 103.048 157.65 103.076 157.567 103.211C157.344 103.56 157.524 103.927 157.873 103.838C158.189 103.759 158.955 103.674 159.354 103.672C161.981 103.675 164.252 105.454 165.295 108.325C165.592 109.137 165.779 110.008 165.869 110.976C165.913 111.487 165.94 111.6 166.015 111.681C166.138 111.811 166.354 111.751 166.479 111.547C166.566 111.416 166.576 111.351 166.562 111.057C166.523 110.19 166.631 109.062 166.854 108.04C167.396 105.539 168.723 103.195 170.485 101.637C171.365 100.856 172.209 100.356 173.321 99.9593C173.909 99.7531 173.966 99.7229 174.032 99.5968C174.117 99.4395 174.116 99.2207 174.035 99.116C173.937 98.9947 173.798 98.9728 173.523 99.0422C173.137 99.1401 172.333 99.2028 171.857 99.1772C169.504 99.0315 167.452 97.4275 166.422 94.9228C166.024 93.9538 165.726 92.6571 165.683 91.7079C165.667 91.357 165.585 91.1222 165.466 91.095C165.326 91.0678 165.19 91.1387 165.096 91.2878ZM165.032 100.208C165.337 101.091 164.736 99.1642 165.337 99.8887C165.657 100.272 163.796 99.935 164.165 100.176C164.992 100.728 170.242 99.8048 171.356 99.9925C171.389 99.9944 163.286 99.7832 163.041 99.9545C160.805 101.533 166.969 104.666 166.266 107.688C166.196 107.993 166.125 108.282 166.114 108.327C166.097 108.399 168.377 99.9535 168.357 99.8907C167.572 97.5955 164.095 104.497 162.38 103.564C161.927 103.318 161.103 103.026 160.56 102.929C160.339 102.885 163.704 104.195 163.736 104.171C164.62 103.545 165.503 104.33 166.056 103.741C167.251 102.473 164.308 98.2596 164.928 96.4592C165.121 95.8937 164.115 97.8119 164.108 97.6624C164.101 97.5026 164.049 105.9 165.032 100.208Z" fill="#CEFF00"/>
<path d="M22.6636 26.2586C22.7616 26.618 22.889 26.7948 23.2791 27.1256C24.0793 27.8039 25.6928 29.4342 26.6423 30.5431C32.2907 37.0587 35.4611 46.1563 34.8003 53.8979C34.5956 56.2944 34.0165 58.7181 33.268 60.3632C32.951 61.0475 32.9256 61.1918 33.0494 61.5866C33.3479 62.627 34.3174 62.9104 34.7035 62.077C35.0526 61.3235 36.104 59.6865 36.7305 58.9053C40.8829 53.7922 47.7894 52.45 54.799 55.3952C56.7848 56.2221 58.7064 57.3679 60.6576 58.8699C61.6808 59.6685 61.9343 59.814 62.2023 59.8066C62.641 59.7917 62.87 59.2679 62.687 58.6706C62.5782 58.2743 62.4718 58.143 61.9016 57.6596C60.2208 56.2346 58.2846 54.0679 56.7278 51.8644C52.9124 46.4747 50.6276 39.8272 50.5001 33.6964C50.4313 30.6264 50.8276 28.1171 51.8436 25.2623C52.3858 23.7605 52.4203 23.5963 52.2884 23.2499C52.1294 22.811 51.7182 22.4349 51.3957 22.4102C51.0144 22.3909 50.753 22.6249 50.4496 23.2797C50.0222 24.2021 48.8699 25.8776 48.0706 26.7605C44.0856 31.0899 37.8494 32.309 31.545 29.9758C29.1081 29.0704 26.2149 27.4049 24.374 25.8441C23.6935 25.2672 23.1253 25.0201 22.8867 25.2047C22.615 25.4301 22.5337 25.8169 22.6636 26.2586ZM39.2234 41.8411C41.3538 42.777 36.8066 40.6081 39.1079 40.694C40.3292 40.7346 36.7624 43.775 37.793 43.4745C40.1313 42.8186 46.6936 30.9937 48.8026 29.1491C48.8594 29.0867 35.673 44.5064 35.6071 45.2797C35.0254 52.3703 50.6086 45.7927 55.1422 52.3987C55.6005 53.0636 56.0289 53.7032 56.0953 53.8006C56.2021 53.9605 44.0277 34.8841 43.8794 34.8137C38.3526 32.3665 45.754 51.0978 41.304 52.8233C40.1311 53.2795 38.2836 54.3791 37.2454 55.267C36.816 55.6215 44.5725 51.3371 44.5791 51.2321C44.8059 48.4268 47.6651 48.0664 47.4387 45.9677C46.9573 41.4431 34.4405 39.8757 32.0565 35.5479C31.305 34.1922 33.3002 39.4751 33.0102 39.2292C32.7 38.9668 48.3021 53.618 39.2234 41.8411Z" fill="#CEFF00"/>
</svg>
