<svg width="193" height="198" viewBox="0 0 193 198" fill="none" xmlns="http://www.w3.org/2000/svg">
<path d="M116.368 51.8498C137.274 64.2571 153.914 80.8282 163.925 97.5649C173.945 114.316 177.273 131.128 171.768 144.126C166.264 157.123 152.894 164.026 135.561 164.543C118.243 165.06 97.071 159.191 76.1651 146.783C55.2593 134.376 38.6193 117.805 28.608 101.068C18.588 84.3173 15.2609 67.5051 20.7652 54.5076C26.2695 41.5101 39.6395 34.6073 56.9725 34.0898C74.2907 33.5728 95.4625 39.4425 116.368 51.8498Z" stroke="white"/>
<path d="M168.408 126.735C168.371 126.873 168.38 126.957 168.452 127.145C168.599 127.531 168.844 128.395 168.958 128.952C169.653 132.24 168.952 135.866 167.167 138.263C166.614 139.006 165.923 139.68 165.329 140.065C165.079 140.224 165.041 140.266 165.006 140.421C164.903 140.822 165.19 141.113 165.494 140.92C165.768 140.745 166.469 140.424 166.847 140.297C169.342 139.474 172.057 140.449 173.949 142.848C174.486 143.525 174.937 144.294 175.327 145.184C175.529 145.655 175.59 145.755 175.686 145.807C175.845 145.892 176.031 145.768 176.086 145.535C176.126 145.383 176.115 145.318 176.01 145.043C175.7 144.233 175.449 143.127 175.339 142.088C175.068 139.543 175.591 136.9 176.775 134.868C177.366 133.85 178.009 133.11 178.941 132.384C179.434 132.004 179.479 131.957 179.501 131.817C179.533 131.64 179.463 131.433 179.354 131.359C179.222 131.275 179.083 131.298 178.844 131.45C178.508 131.664 177.764 131.976 177.304 132.102C175.026 132.702 172.573 131.824 170.808 129.77C170.126 128.975 169.436 127.838 169.097 126.95C168.971 126.622 168.82 126.425 168.698 126.436C168.557 126.454 168.45 126.564 168.408 126.735ZM171.149 135.224C171.716 135.967 170.541 134.326 171.338 134.825C171.763 135.089 169.89 135.353 170.315 135.466C171.275 135.73 175.968 133.205 177.085 133.033C177.117 133.024 169.358 135.369 169.18 135.609C167.553 137.81 174.389 138.848 174.671 141.938C174.7 142.249 174.723 142.546 174.727 142.592C174.733 142.666 174.245 133.932 174.206 133.878C172.74 131.946 171.607 139.59 169.685 139.244C169.179 139.153 168.304 139.134 167.758 139.212C167.535 139.24 171.141 139.426 171.164 139.393C171.806 138.522 172.891 138.99 173.232 138.257C173.968 136.678 169.849 133.602 169.873 131.698C169.878 131.1 169.526 133.237 169.473 133.098C169.415 132.948 172.004 140.936 171.149 135.224Z" fill="#CEFF00"/>
<path d="M83.2007 26.5828C83.2987 26.9422 83.4261 27.1191 83.8162 27.4498C84.6164 28.1282 86.2299 29.7584 87.1794 30.8673C92.8278 37.383 95.9982 46.4805 95.3374 54.2221C95.1327 56.6186 94.5536 59.0424 93.8051 60.6874C93.4881 61.3717 93.4628 61.5161 93.5865 61.9109C93.885 62.9512 94.8545 63.2346 95.2406 62.4013C95.5897 61.6477 96.6411 60.0107 97.2676 59.2295C101.42 54.1164 108.326 52.7742 115.336 55.7194C117.322 56.5463 119.244 57.6921 121.195 59.1941C122.218 59.9927 122.471 60.1382 122.739 60.1308C123.178 60.1159 123.407 59.5921 123.224 58.9948C123.115 58.5986 123.009 58.4672 122.439 57.9838C120.758 56.5588 118.822 54.3922 117.265 52.1886C113.45 46.7989 111.165 40.1514 111.037 34.0206C110.968 30.9506 111.365 28.4413 112.381 25.5866C112.923 24.0847 112.957 23.9205 112.826 23.5741C112.666 23.1353 112.255 22.7591 111.933 22.7344C111.552 22.7151 111.29 22.9491 110.987 23.6039C110.559 24.5263 109.407 26.2018 108.608 27.0847C104.623 31.4141 98.3866 32.6332 92.0821 30.3C89.6452 29.3946 86.752 27.7291 84.9111 26.1683C84.2306 25.5914 83.6624 25.3443 83.4238 25.529C83.1522 25.7543 83.0708 26.1411 83.2007 26.5828ZM99.7605 42.1653C101.891 43.1013 97.3438 40.9323 99.645 41.0182C100.866 41.0588 97.2995 44.0992 98.3301 43.7988C100.668 43.1428 107.231 31.3179 109.34 29.4734C109.397 29.411 96.2101 44.8306 96.1443 45.6039C95.5625 52.6945 111.146 46.117 115.679 52.7229C116.138 53.3878 116.566 54.0274 116.632 54.1248C116.739 54.2848 104.565 35.2083 104.417 35.1379C98.8897 32.6907 106.291 51.422 101.841 53.1475C100.668 53.6037 98.8207 54.7034 97.7825 55.5912C97.3531 55.9457 105.11 51.6613 105.116 51.5563C105.343 48.751 108.202 48.3906 107.976 46.2919C107.494 41.7673 94.9776 40.1999 92.5937 35.8721C91.8422 34.5164 93.8373 39.7993 93.5473 39.5535C93.2371 39.291 108.839 53.9423 99.7605 42.1653Z" fill="#CEFF00"/>
</svg>
