<svg width="193" height="198" viewBox="0 0 193 198" fill="none" xmlns="http://www.w3.org/2000/svg">
<path d="M116.366 51.1916C137.272 63.5989 153.912 80.17 163.924 96.9067C173.944 113.658 177.271 130.47 171.766 143.467C166.262 156.465 152.892 163.368 135.559 163.885C118.241 164.402 97.069 158.533 76.1632 146.125C55.2573 133.718 38.6174 117.147 28.606 100.41C18.586 83.6591 15.2589 66.8469 20.7632 53.8494C26.2675 40.8519 39.6375 33.9491 56.9706 33.4316C74.2887 32.9146 95.4605 38.7843 116.366 51.1916Z" stroke="white"/>
<path d="M32.4078 98.7354C32.3705 98.8731 32.3802 98.957 32.4521 99.1451C32.5995 99.5309 32.8442 100.395 32.9582 100.952C33.6527 104.24 32.9523 107.866 31.1669 110.263C30.6142 111.006 29.9234 111.68 29.3287 112.065C29.0793 112.224 29.0414 112.266 29.0061 112.421C28.9033 112.822 29.1899 113.113 29.4936 112.92C29.7682 112.745 30.4686 112.424 30.847 112.297C33.342 111.474 36.0567 112.449 37.9487 114.848C38.4862 115.525 38.9371 116.294 39.327 117.184C39.5293 117.655 39.5899 117.755 39.6863 117.807C39.8447 117.892 40.0307 117.768 40.0856 117.535C40.1265 117.383 40.1151 117.318 40.0101 117.043C39.7005 116.233 39.449 115.127 39.3393 114.088C39.0683 111.543 39.5913 108.9 40.7747 106.868C41.3656 105.85 42.0087 105.11 42.9406 104.384C43.4335 104.004 43.4787 103.957 43.5014 103.817C43.533 103.64 43.4628 103.433 43.3536 103.359C43.2224 103.275 43.0829 103.298 42.8443 103.45C42.5081 103.664 41.7643 103.976 41.3043 104.102C39.0256 104.702 36.5729 103.824 34.808 101.77C34.1265 100.975 33.4357 99.8376 33.0966 98.95C32.9712 98.6219 32.8195 98.4248 32.698 98.4363C32.5567 98.4544 32.4504 98.5643 32.4078 98.7354ZM35.1493 107.224C35.7162 107.967 34.5406 106.326 35.3383 106.825C35.7626 107.089 33.8903 107.353 34.3154 107.466C35.2749 107.73 39.9684 105.205 41.0848 105.033C41.1175 105.024 33.3579 107.369 33.1797 107.609C31.5527 109.81 38.3891 110.848 38.6707 113.938C38.6998 114.249 38.7233 114.546 38.7273 114.592C38.7331 114.666 38.2447 105.932 38.2063 105.878C36.7396 103.946 35.6069 111.59 33.6853 111.244C33.1786 111.153 32.304 111.134 31.7584 111.212C31.5353 111.24 35.1406 111.426 35.1639 111.393C35.8064 110.522 36.8911 110.99 37.2315 110.257C37.9678 108.678 33.8495 105.602 33.8725 103.698C33.8781 103.1 33.5259 105.237 33.4725 105.098C33.4152 104.948 36.0042 112.936 35.1493 107.224Z" fill="#CEFF00"/>
<path d="M79.1505 130.194C79.0967 130.563 79.1428 130.776 79.3682 131.235C79.8305 132.177 80.6579 134.316 81.085 135.712C83.6581 143.942 82.9279 153.549 79.2277 160.381C78.0822 162.496 76.5826 164.486 75.239 165.695C74.6748 166.195 74.5939 166.317 74.5495 166.729C74.4073 167.802 75.1827 168.449 75.8697 167.839C76.491 167.288 78.109 166.208 78.9956 165.742C84.8456 162.715 91.7128 164.245 96.9609 169.747C98.4506 171.299 99.7541 173.117 100.942 175.274C101.561 176.415 101.735 176.649 101.984 176.75C102.392 176.911 102.811 176.523 102.882 175.902C102.941 175.496 102.896 175.333 102.566 174.662C101.595 172.683 100.686 169.924 100.14 167.281C98.7972 160.816 99.3599 153.809 101.694 148.139C102.858 145.297 104.224 143.155 106.296 140.945C107.394 139.785 107.491 139.648 107.508 139.278C107.538 138.812 107.312 138.303 107.026 138.151C106.684 137.981 106.351 138.091 105.811 138.57C105.051 139.245 103.325 140.32 102.239 140.81C96.8557 143.185 90.6521 141.81 85.8058 137.152C83.9339 135.348 81.9476 132.664 80.884 130.498C80.4908 129.697 80.0688 129.244 79.7763 129.317C79.4372 129.415 79.208 129.737 79.1505 130.194ZM88.1014 151.097C89.6801 152.806 86.3789 149.001 88.454 149.999C89.5573 150.525 85.0725 151.886 86.1373 152.022C88.5429 152.356 99.2847 144.14 101.955 143.292C102.032 143.257 83.7816 152.121 83.4121 152.803C80.0447 159.07 96.958 159.27 98.4732 167.137C98.6275 167.93 98.7646 168.688 98.7865 168.803C98.8205 168.993 95.286 146.64 95.1782 146.516C91.0903 142.064 90.3876 162.192 85.6188 161.995C84.3614 161.945 82.2284 162.214 80.9218 162.613C80.3865 162.766 89.209 161.939 89.2569 161.846C90.5861 159.365 93.351 160.178 93.9824 158.163C95.3497 153.823 84.5028 147.384 84.0474 142.464C83.9004 140.921 83.6176 146.561 83.4501 146.219C83.2706 145.855 91.7159 165.521 88.1014 151.097Z" fill="#CEFF00"/>
</svg>
