<?xml version="1.0" encoding="utf-8"?>
<!-- Generator: Adobe Illustrator 25.2.1, SVG Export Plug-In . SVG Version: 6.00 Build 0)  -->
<svg version="1.1" id="Warstwa_1" xmlns="http://www.w3.org/2000/svg" xmlns:xlink="http://www.w3.org/1999/xlink" x="0px" y="0px"
	 viewBox="0 0 576 643.7" style="enable-background:new 0 0 576 643.7;" xml:space="preserve">
<style type="text/css">
	.st0{fill:#FFFFFF;}
	.st1{fill:none;stroke:#FFFFFF;stroke-width:0.5;stroke-miterlimit:10;}
	.st2{fill:none;stroke:#FFFFFF;stroke-miterlimit:10;}
</style>
<g>
	<g>
		<g>
			<path class="st0" d="M414.5,600.8c6.4,5.5,14.3,8.9,21.8,9.6c1.1,5.9,4.3,10.9,9.3,14.7c7.7,5.8,18.7,7.9,31.1,5.9
				c2.6-0.4,5-0.9,7.3-1.5c7.7-2.1,14.2-5.4,20.2-10.3c7.4-6.1,14.1-14.8,21.8-28c15.6-26.7,6.6-51.6-9.2-64.4
				c-5-4.1-10.6-6.1-16.6-6c0-0.1,0-0.2-0.1-0.3c-1.3-4.4-5.8-11.4-11.9-18.7c-7.1-8.3-15.7-16.3-24.3-22.5
				c-19.3-13.8-34.8-17-47.5-9.8c-5.4,3.1-8.7,7.9-9.4,13.6c-0.9,8.2,3.4,17.2,12.4,25.5c5.6,5.2,13.4,10.9,21.1,16
				c-3.9-0.2-8.1,0.2-12,1.3c-6.1,1.8-10.7,5.1-12.9,9.3c-3.1,6-3.2,12.4-0.5,18.8c-2.8,2.3-12,10.9-11.8,25.7
				C403.4,587,407.5,594.7,414.5,600.8z M450,530.5c7.2,4.5,13.4,8.1,16.3,9.7c-2.1,2.5-4.3,5.6-5.8,9c-3-0.7-10.5-3.1-14.9-11
				c-0.5-0.9-1.6-1.2-2.4-0.7c-0.9,0.5-1.2,1.6-0.7,2.4c4.8,8.7,12.8,11.7,16.6,12.6c-0.9,2.8-1.4,5.7-1,8.5c0.5,3.9,2.6,7.3,6,10.1
				c-11.9,5.7-23.4,3.8-35.2-5.7c-11.2-9.1-14.8-19.5-10-28.7c1.7-3.3,5.6-6,10.7-7.5C436.6,527.2,445,527.7,450,530.5z M496.6,521
				c-1.9,0.3-3.8,0.7-5.8,1.4c-7.6,2.5-14,7.4-18.1,11c-0.5,0.4-2.1,1.9-4.1,4c-5.7-3.2-33.2-19.1-46.7-31.6
				c-7.9-7.3-12-15.5-11.2-22.4c0.5-4.6,3.1-8.3,7.5-10.8c11.3-6.4,25.6-3.3,43.6,9.6C479.8,495,494,513.2,496.6,521z M440,610.5
				c1,0,1.9-0.1,2.8-0.2c1.3-0.2,2.4-0.4,3.6-0.7c5.8-1.6,10.1-4.9,12.5-9.7c3.1-6.3,2.5-14.4-1.5-22.6c0.5-0.1,1.1-0.2,1.6-0.4
				c2.8-0.8,5.6-1.9,8.5-3.4c0.5,0.3,1,0.6,1.6,0.8c0.9,0.4,1.7,0.8,2.6,1.1c1.9,10.8,6.7,16.1,10.5,18.8c4.3,3,8.3,3.2,8.5,3.2
				c0.2,0,0.4,0,0.5-0.1c0.7-0.2,1.3-0.9,1.3-1.7c0-1-0.7-1.8-1.7-1.9c-0.5,0-11.6-0.8-15.2-17.2c7.6,1.8,15.7,0.5,23.7-3.9
				c7.7-4.2,12.6-9.6,12.8-9.9c0.7-0.7,0.6-1.9-0.1-2.5c-0.7-0.7-1.9-0.6-2.5,0.1c-0.1,0.1-4.8,5.3-11.9,9.1
				c-8.2,4.4-16.1,5.3-23.6,2.8c0,0-0.1,0-0.1,0c-1.1-0.4-2.1-0.8-3.2-1.3c-5.4-2.7-8.5-6.2-9-10.4c-1.2-8.8,7.9-19.6,13.5-24.5
				c6.8-6.1,24.4-18.9,39.5-6.6c14.6,11.8,22.9,34.9,8.4,59.8c-14.6,25.1-26.9,35-46.8,38.1c-11.4,1.8-21.5-0.1-28.4-5.3
				C443.7,619.1,441.1,615.1,440,610.5z M406.9,579.5c-0.2-12.3,7-19.8,9.9-22.3c2.3,3.9,5.5,7.6,9.8,11.1
				c6.5,5.2,13.1,8.4,19.6,9.4c2.5,0.4,5,0.4,7.5,0.2c4,7.6,4.7,15,2.1,20.4c-2.3,4.6-6.9,7.5-13.3,8.4c-8.2,1.1-18-2.2-25.6-8.7
				C410.6,592.7,406.9,585.9,406.9,579.5z"/>
		</g>
	</g>
	<g>
		<g>
			<path class="st0" d="M266.9,528.2l-18-109.1l-70.1,85.5l39.1-103.4l-103.5,39.1l85.5-70.1l-109.1-18l109.1-18l-85.5-70.1
				l103.5,39.1l-39.1-103.4l70.1,85.5l18-109.1l18,109.1l70.1-85.5l-39.1,103.4l103.5-39.1l-85.5,70.1l109.1,18l-109.1,18l85.5,70.1
				l-103.5-39.1L355,504.6l-70.1-85.5L266.9,528.2z M249.5,416.7l17.3,105.2l17.3-105.2l67.6,82.4l-37.7-99.7l99.7,37.7l-82.4-67.6
				l105.2-17.3l-105.2-17.3l82.4-67.6l-99.7,37.7l37.7-99.7l-67.6,82.4l-17.3-105.2l-17.3,105.2L182,205.2l37.7,99.7l-99.7-37.7
				l82.4,67.6L97.1,352.1l105.2,17.3L119.9,437l99.7-37.7L182,499.1L249.5,416.7z"/>
		</g>
	</g>
	<g>
		<g>
			<path class="st0" d="M222.4,349.7c2,0.7,3,2.2,3,4.3c0,1.5-0.5,2.7-1.4,3.5c-1,0.8-2.3,1.2-4,1.2h-8.5v-17.2h8.3
				c1.7,0,2.9,0.4,3.8,1.2c0.9,0.8,1.3,1.8,1.3,3.1c0,1.8-0.8,3-2.4,3.8V349.7z M213.6,343.3v5.6h6c1,0,1.7-0.3,2.2-0.8
				c0.5-0.5,0.8-1.2,0.8-2.1c0-0.9-0.3-1.5-0.8-2c-0.5-0.5-1.2-0.7-2.1-0.7H213.6z M219.9,356.8c1,0,1.8-0.3,2.3-0.8
				c0.6-0.5,0.8-1.3,0.8-2.2c0-0.9-0.3-1.6-0.9-2.2c-0.6-0.6-1.3-0.9-2.3-0.9h-6.3v6H219.9z"/>
		</g>
		<g>
			<path class="st0" d="M228.5,358.7v-12.3h1.9l0.2,1.7h0.2c0.4-0.6,1-1.1,1.6-1.5c0.6-0.3,1.4-0.5,2.4-0.5h0.9v2.2
				c-0.3,0-0.7-0.1-1.3-0.1c-1.1,0-2,0.4-2.7,1.1c-0.7,0.7-1.1,1.7-1.1,3v6.3H228.5z"/>
		</g>
		<g>
			<path class="st0" d="M250,357h0.4v1.7h-1.1c-1.3,0-2.1-0.6-2.4-1.8c-1.1,1.4-2.8,2.1-5.2,2.1c-1.5,0-2.7-0.3-3.5-0.9
				c-0.9-0.6-1.3-1.5-1.3-2.7c0-1.1,0.4-2,1.2-2.6c0.8-0.6,1.9-1,3.2-1.1l5.5-0.4v-0.5c0-0.9-0.3-1.6-0.9-2.1
				c-0.6-0.5-1.5-0.7-2.7-0.7c-2,0-3.2,0.8-3.5,2.4h-2.2c0.2-1.3,0.7-2.3,1.7-3c1-0.7,2.3-1.1,4-1.1c1.7,0,3.1,0.4,4.2,1.2
				c1.1,0.8,1.6,1.9,1.6,3.4v5c0,0.4,0.1,0.7,0.3,0.9C249.3,356.9,249.6,357,250,357z M246.7,353.7v-0.9l-4.9,0.4
				c-1.9,0.2-2.8,0.9-2.8,2.1c0,1.3,1,1.9,2.9,1.9c1.3,0,2.4-0.3,3.4-0.8C246.2,355.8,246.7,354.9,246.7,353.7z"/>
		</g>
		<g>
			<path class="st0" d="M252.7,358.7v-12.3h2l0.2,1.7h0.2c1-1.3,2.5-1.9,4.5-1.9c1.6,0,3,0.4,3.9,1.3c1,0.9,1.5,2.2,1.5,3.8v7.4
				h-2.2v-6.8c0-1.3-0.3-2.2-1-2.8c-0.7-0.6-1.6-0.9-2.7-0.9c-1.2,0-2.2,0.3-3,1c-0.8,0.7-1.2,1.7-1.2,3v6.6H252.7z"/>
		</g>
		<g>
			<path class="st0" d="M279.4,341.2h2.2v17.5h-1.8l-0.2-1.9h-0.2c-1.1,1.4-2.7,2.1-4.9,2.1c-2,0-3.6-0.6-4.9-1.8
				c-1.2-1.2-1.9-2.7-1.9-4.7c0-1.9,0.6-3.5,1.9-4.6c1.3-1.2,2.9-1.7,4.9-1.7c2.2,0,3.8,0.7,4.9,2.1V341.2z M271.2,355.8
				c0.9,0.8,2,1.2,3.5,1.2c1.4,0,2.6-0.4,3.4-1.2c0.8-0.8,1.3-1.9,1.3-3.3c0-1.3-0.4-2.4-1.3-3.2c-0.8-0.8-2-1.2-3.4-1.2
				c-1.4,0-2.6,0.4-3.5,1.2c-0.9,0.8-1.3,1.9-1.3,3.2C269.9,353.9,270.3,355,271.2,355.8z"/>
		</g>
		<g>
			<path class="st0" d="M287.1,344c-0.3,0.3-0.6,0.4-1,0.4c-0.4,0-0.7-0.1-1-0.4c-0.3-0.3-0.4-0.6-0.4-1c0-0.4,0.1-0.7,0.4-1
				c0.3-0.3,0.6-0.4,1-0.4c0.4,0,0.7,0.1,1,0.4c0.3,0.3,0.4,0.6,0.4,1C287.5,343.4,287.4,343.7,287.1,344z M285,358.7v-12.3h2.2
				v12.3H285z"/>
		</g>
		<g>
			<path class="st0" d="M290.6,358.7v-12.3h2l0.2,1.7h0.2c1-1.3,2.5-1.9,4.5-1.9c1.6,0,3,0.4,3.9,1.3c1,0.9,1.5,2.2,1.5,3.8v7.4
				h-2.2v-6.8c0-1.3-0.3-2.2-1-2.8c-0.7-0.6-1.6-0.9-2.7-0.9c-1.2,0-2.2,0.3-3,1c-0.8,0.7-1.2,1.7-1.2,3v6.6H290.6z"/>
		</g>
		<g>
			<path class="st0" d="M313.9,356.4c1.4,0,2.5,0.3,3.3,0.9c0.8,0.6,1.2,1.4,1.2,2.5c0,1.3-0.6,2.3-1.7,3c-1.1,0.7-2.7,1.1-4.7,1.1
				c-2,0-3.5-0.4-4.6-1.1c-1.1-0.8-1.7-1.7-1.9-3l2.1-1.8c-0.5-0.2-1-0.5-1.3-0.9c-0.3-0.4-0.5-0.9-0.5-1.4c0-1,0.6-1.8,1.7-2.3
				c-0.9-0.8-1.4-1.7-1.4-2.9c0-1.2,0.5-2.3,1.6-3c1-0.8,2.4-1.2,4.1-1.2c1.3,0,2.5,0.3,3.4,0.8c0.9-0.3,1.7-0.9,2.4-1.7l1.2,1.4
				c-0.5,0.5-1.3,1-2.3,1.4c0.6,0.7,1,1.5,1,2.4c0,1.3-0.5,2.3-1.6,3.1c-1.1,0.7-2.4,1.1-4.1,1.1c-1.2,0-2.2-0.2-3.1-0.6
				c-0.6,0.3-0.9,0.7-0.9,1.2c0,0.4,0.2,0.7,0.5,0.9c0.3,0.2,0.8,0.3,1.3,0.3H313.9z M309,361.5c0.7,0.4,1.7,0.6,3,0.6
				c1.3,0,2.3-0.2,3-0.6c0.8-0.4,1.2-0.9,1.2-1.7c0-0.6-0.3-1.1-0.8-1.4c-0.5-0.3-1.1-0.4-1.8-0.4h-3.9l-2.1,1.8
				C307.8,360.6,308.3,361.1,309,361.5z M311.9,347.8c-1.1,0-2,0.2-2.6,0.7c-0.7,0.5-1,1.1-1,1.9c0,0.7,0.3,1.3,1,1.8
				c0.7,0.5,1.5,0.7,2.6,0.7c1.1,0,1.9-0.2,2.6-0.7s1-1.1,1-1.8c0-0.8-0.3-1.4-0.9-1.9C313.8,348.1,313,347.8,311.9,347.8z"/>
		</g>
	</g>
	<g>
		<g>
			<path class="st0" d="M138.9,176.1l-14.6-29.3l-18.8,26.8l-9.8-31.3l-23.1,23.3L68.7,133l-27.6,17.9l4.6-32.6l-32.2,8l18-27.7
				L0,88l31.5-10.7l-18-27.7l32.2,8l-4.6-32.5L68.7,43l3.9-32.6l23.1,23.3l9.8-31.3l18.8,26.8L138.9,0l14.6,29.3l18.8-26.8l9.8,31.3
				l23.1-23.3L209,43l27.6-17.9L232,57.7l32.2-8l-18,27.7l31.5,10.7l-31.5,10.7l18,27.7l-32.2-8l4.6,32.6L209,133.1l-3.9,32.6
				l-23.1-23.3l-9.8,31.3l-18.8-26.8L138.9,176.1z M124.5,144.2l14.4,28.9l14.4-28.9l18.6,26.4l9.7-30.8l22.7,22.9l3.8-32l27,17.5
				l-4.5-31.6l30.9,7.7L244.2,98l29.5-10l-29.5-10l17.1-26.3l-30.8,7.7l4.5-31.6l-27,17.5l-3.8-32l-22.7,22.9l-9.7-30.8l-18.6,26.5
				L138.9,2.9l-14.4,28.9L105.9,5.4l-9.7,30.8L73.5,13.3l-3.8,32l-27-17.5l4.5,31.6l-30.9-7.7L33.5,78L4,88l29.5,10l-17.1,26.3
				l30.8-7.7l-4.5,31.6l27-17.5l3.8,32l22.7-22.9l9.7,30.8L124.5,144.2z"/>
		</g>
	</g>
	<g>
		<g>
			<path class="st0" d="M98,75.2c3.6,0,6.4,1,8.4,3.1c2,2.1,3,4.9,3,8.5c0,3.5-1,6.4-3,8.5c-2,2.1-4.8,3.2-8.5,3.2H87.7V75.2H98z
				 M97.8,95.7c2.8,0,5-0.8,6.4-2.5c1.4-1.6,2.1-3.8,2.1-6.5c0-2.7-0.7-4.9-2.1-6.5c-1.4-1.6-3.5-2.4-6.3-2.4h-7v17.8H97.8z"/>
		</g>
		<g>
			<path class="st0" d="M116.6,78.6c-0.4,0.4-0.8,0.6-1.4,0.6c-0.5,0-1-0.2-1.4-0.6c-0.4-0.4-0.6-0.8-0.6-1.4s0.2-1,0.6-1.4
				c0.4-0.4,0.9-0.6,1.4-0.6c0.5,0,1,0.2,1.4,0.6s0.6,0.8,0.6,1.4C117.2,77.8,117,78.2,116.6,78.6z M113.8,98.5V81.8h2.9v16.7H113.8
				z"/>
		</g>
		<g>
			<path class="st0" d="M132,95.4c1.9,0,3.4,0.4,4.5,1.2c1,0.8,1.6,2,1.6,3.4c0,1.8-0.8,3.1-2.3,4.1c-1.5,1-3.7,1.4-6.4,1.4
				c-2.7,0-4.8-0.5-6.3-1.6c-1.5-1-2.3-2.4-2.6-4l2.9-2.5c-0.7-0.2-1.3-0.7-1.7-1.2c-0.4-0.6-0.6-1.2-0.6-2c0-1.4,0.8-2.4,2.3-3.2
				c-1.2-1-1.9-2.3-1.9-3.9c0-1.7,0.7-3.1,2.1-4.1c1.4-1.1,3.3-1.6,5.6-1.6c1.8,0,3.4,0.3,4.7,1c1.2-0.5,2.3-1.2,3.3-2.3l1.6,1.8
				c-0.7,0.7-1.8,1.4-3.1,1.9c0.9,0.9,1.3,2,1.3,3.3c0,1.8-0.7,3.1-2.2,4.2c-1.4,1-3.3,1.5-5.5,1.5c-1.6,0-3-0.3-4.2-0.8
				c-0.8,0.4-1.3,1-1.3,1.6c0,0.5,0.2,0.9,0.7,1.2c0.5,0.3,1.1,0.4,1.8,0.4H132z M125.4,102.4c1,0.6,2.3,0.8,4,0.8
				c1.7,0,3.1-0.3,4.1-0.8c1-0.5,1.6-1.3,1.6-2.3c0-0.9-0.4-1.5-1.1-1.9c-0.7-0.4-1.5-0.6-2.4-0.6h-5.3l-2.9,2.5
				C123.7,101.1,124.4,101.8,125.4,102.4z M129.2,83.8c-1.5,0-2.6,0.3-3.5,1c-0.9,0.6-1.3,1.5-1.3,2.5c0,1,0.4,1.8,1.3,2.4
				c0.9,0.6,2.1,1,3.5,1c1.5,0,2.6-0.3,3.5-0.9c0.9-0.6,1.3-1.4,1.3-2.4c0-1-0.4-1.9-1.3-2.5C131.9,84.1,130.7,83.8,129.2,83.8z"/>
		</g>
		<g>
			<path class="st0" d="M144.5,78.6c-0.4,0.4-0.8,0.6-1.4,0.6s-1-0.2-1.4-0.6c-0.4-0.4-0.6-0.8-0.6-1.4s0.2-1,0.6-1.4
				c0.4-0.4,0.9-0.6,1.4-0.6s1,0.2,1.4,0.6c0.4,0.4,0.6,0.8,0.6,1.4C145.1,77.8,144.9,78.2,144.5,78.6z M141.7,98.5V81.8h2.9v16.7
				H141.7z"/>
		</g>
		<g>
			<path class="st0" d="M156.1,98.9c-1.5,0-2.7-0.4-3.4-1.1c-0.8-0.8-1.1-1.8-1.1-3.1V84.2h-4v-2.4h1.6c1,0,1.7-0.2,2.1-0.6
				c0.4-0.4,0.6-1,0.6-2v-2.1h2.7v4.7h4.8v2.4h-4.8v9.8c0,1.6,0.8,2.4,2.5,2.4c0.6,0,1.2-0.1,1.8-0.2v2.3
				C157.9,98.7,157,98.9,156.1,98.9z"/>
		</g>
		<g>
			<path class="st0" d="M179.4,96.3h0.5v2.3h-1.4c-1.8,0-2.9-0.8-3.3-2.5c-1.5,1.9-3.8,2.8-7.1,2.8c-2,0-3.6-0.4-4.8-1.2
				c-1.2-0.8-1.8-2-1.8-3.6c0-1.5,0.5-2.7,1.6-3.5s2.5-1.3,4.3-1.5l7.5-0.6v-0.7c0-1.2-0.4-2.2-1.3-2.8c-0.8-0.7-2-1-3.6-1
				c-2.8,0-4.4,1.1-4.8,3.2h-3c0.2-1.7,1-3.1,2.4-4.1c1.4-1,3.2-1.5,5.4-1.5c2.4,0,4.3,0.5,5.7,1.6c1.4,1.1,2.2,2.6,2.2,4.6v6.8
				c0,0.6,0.1,1,0.4,1.2C178.5,96.1,178.9,96.2,179.4,96.3z M174.9,91.8v-1.2l-6.7,0.5c-2.5,0.2-3.8,1.2-3.8,2.8
				c0,1.7,1.3,2.6,4,2.6c1.8,0,3.3-0.4,4.6-1.2S174.9,93.4,174.9,91.8z"/>
		</g>
		<g>
			<path class="st0" d="M183,98.5V74.8h2.9v23.7H183z"/>
		</g>
	</g>
	<g>
		<g>
			<path class="st0" d="M470.5,252.3l-12.8-24.6l-19.8,19.4l-4.6-27.4l-24.8,12.3l4.1-27.4l-27.4,4.1l12.3-24.8l-27.4-4.6l19.5-19.8
				l-24.6-12.8l24.6-12.8l-19.5-19.8l27.4-4.6l-12.3-24.8l27.4,4.1l-4.1-27.4l24.8,12.3l4.6-27.4L457.7,66l12.8-24.6L483.4,66
				l19.8-19.4l4.6,27.4l24.8-12.3L528.4,89l27.4-4.1l-12.3,24.8l27.4,4.6L551.4,134l24.6,12.8l-24.6,12.8l19.4,19.8l-27.4,4.6
				l12.3,24.8l-27.4-4.1l4.1,27.4l-24.8-12.3l-4.6,27.4l-19.8-19.4L470.5,252.3z M458,226l12.6,24l12.6-24l19.3,19l4.5-26.7
				l24.3,12.1l-4-26.8l26.8,4l-12.1-24.3l26.8-4.5l-19-19.3l24-12.5l-24-12.5l19-19.3l-26.8-4.5L554,86.2l-26.8,4l4-26.8l-24.3,12.1
				l-4.5-26.8l-19.3,19l-12.6-24l-12.6,24l-19.3-19l-4.5,26.7l-24.3-12.1l4,26.8l-26.8-4l12.1,24.3l-26.8,4.5l19,19.3l-24,12.5
				l24,12.5l-19,19.3l26.8,4.5l-12.1,24.3l26.8-4l-4,26.8l24.3-12.1l4.5,26.7L458,226z"/>
		</g>
	</g>
	<g>
		<g>
			<path class="st0" d="M433.6,139.4h2.5l-5,19.3h-2.9l-4.9-14.7H423l-4.9,14.7h-2.9l-5-19.3h2.5l4,15.7h0.2l4.8-14.3h2.8l4.8,14.3
				h0.2L433.6,139.4z"/>
		</g>
		<g>
			<path class="st0" d="M452.3,151.5c0,0.2,0,0.5-0.1,0.9h-12.6c0.1,1.4,0.6,2.5,1.6,3.3c1,0.8,2.3,1.2,3.9,1.2c2.5,0,4-0.8,4.6-2.3
				h2.4c-0.3,1.3-1.1,2.4-2.4,3.2c-1.2,0.8-2.8,1.1-4.6,1.1c-2.4,0-4.3-0.6-5.8-1.9c-1.4-1.3-2.1-3-2.1-5.1c0-2.2,0.7-3.9,2.1-5.3
				c1.4-1.3,3.3-2,5.6-2c2.1,0,3.8,0.6,5.2,1.8C451.5,147.6,452.2,149.3,452.3,151.5z M444.9,146.7c-1.5,0-2.7,0.4-3.6,1.1
				c-0.9,0.7-1.5,1.7-1.6,2.8h10.1c-0.1-1.2-0.5-2.1-1.4-2.9C447.6,147,446.4,146.7,444.9,146.7z"/>
		</g>
		<g>
			<path class="st0" d="M463.6,144.6c2.2,0,4,0.6,5.4,1.9c1.4,1.3,2.1,3,2.1,5.2s-0.7,3.9-2.1,5.2c-1.4,1.3-3.2,2-5.5,2
				c-2.4,0-4.3-0.8-5.5-2.4h-0.2l-0.2,2.1h-2v-19.5h2.4v7.8C459.3,145.4,461.2,144.6,463.6,144.6z M459.5,155.4
				c0.9,0.9,2.2,1.4,3.8,1.4s2.9-0.5,3.9-1.4c1-0.9,1.5-2.1,1.5-3.6c0-1.5-0.5-2.7-1.5-3.6c-1-0.9-2.3-1.4-3.9-1.4s-2.9,0.4-3.8,1.3
				c-0.9,0.9-1.4,2.1-1.4,3.6C458.1,153.3,458.5,154.5,459.5,155.4z"/>
		</g>
		<g>
			<path class="st0" d="M490.9,139.4c3,0,5.3,0.9,6.9,2.6c1.7,1.7,2.5,4.1,2.5,7c0,2.9-0.8,5.3-2.4,7c-1.6,1.8-4,2.6-7,2.6h-8.5
				v-19.3H490.9z M490.8,156.4c2.3,0,4.1-0.7,5.2-2c1.1-1.3,1.7-3.1,1.7-5.4c0-2.2-0.6-4-1.7-5.3c-1.2-1.3-2.9-2-5.2-2H485v14.7
				H490.8z"/>
		</g>
		<g>
			<path class="st0" d="M518.3,151.5c0,0.2,0,0.5-0.1,0.9h-12.6c0.1,1.4,0.6,2.5,1.6,3.3c1,0.8,2.3,1.2,3.9,1.2c2.5,0,4-0.8,4.6-2.3
				h2.4c-0.3,1.3-1.1,2.4-2.4,3.2c-1.2,0.8-2.8,1.1-4.6,1.1c-2.4,0-4.3-0.6-5.8-1.9c-1.4-1.3-2.1-3-2.1-5.1c0-2.2,0.7-3.9,2.1-5.3
				c1.4-1.3,3.3-2,5.6-2c2.1,0,3.8,0.6,5.2,1.8C517.6,147.6,518.3,149.3,518.3,151.5z M511,146.7c-1.5,0-2.7,0.4-3.6,1.1
				c-0.9,0.7-1.5,1.7-1.6,2.8h10.1c-0.1-1.2-0.5-2.1-1.4-2.9C513.6,147,512.5,146.7,511,146.7z"/>
		</g>
		<g>
			<path class="st0" d="M525.9,158.7l-6.4-13.8h2.6l5.2,11.3h0.2l5.2-11.3h2.6l-6.4,13.8H525.9z"/>
		</g>
	</g>
	<g>
		<g>
			<path class="st0" d="M135.9,643.7c-63,0-114.3-20.7-114.3-46.1c0-25.4,51.3-46.1,114.3-46.1s114.3,20.7,114.3,46.1
				C250.2,623.1,198.9,643.7,135.9,643.7z M135.9,552.5c-62.5,0-113.3,20.3-113.3,45.1c0,24.9,50.8,45.1,113.3,45.1
				s113.3-20.3,113.3-45.1C249.2,572.7,198.4,552.5,135.9,552.5z"/>
		</g>
	</g>
	<g>
		<g>
			<path class="st0" d="M64.7,601.5c0,1.6-0.7,2.9-2,3.7c-1.3,0.8-3,1.2-5,1.2c-2.3,0-4.1-0.5-5.4-1.4c-1.3-0.9-2-2.3-2.2-4h2.4
				c0.4,2.2,2.2,3.3,5.2,3.3c1.4,0,2.5-0.2,3.3-0.7c0.8-0.4,1.3-1.2,1.3-2.1c0-0.4-0.1-0.8-0.3-1.2c-0.2-0.3-0.4-0.6-0.6-0.9
				c-0.2-0.2-0.6-0.4-1-0.6c-0.4-0.2-0.8-0.3-1.1-0.4c-0.3-0.1-0.7-0.2-1.2-0.3l-2.2-0.4c-0.7-0.2-1.3-0.3-1.8-0.5
				c-0.5-0.2-1.1-0.5-1.6-0.9c-0.5-0.4-0.9-0.8-1.2-1.4c-0.3-0.6-0.4-1.2-0.4-1.9c0-1.5,0.6-2.8,1.9-3.6c1.3-0.9,3-1.3,5-1.3
				c2.1,0,3.7,0.5,5,1.4c1.2,0.9,1.9,2.1,2,3.6h-2.4c-0.1-0.9-0.6-1.6-1.3-2.2c-0.8-0.6-1.8-0.8-3.2-0.8c-1.3,0-2.4,0.3-3.2,0.8
				c-0.8,0.5-1.2,1.2-1.2,2.1c0,0.4,0.1,0.8,0.3,1.2c0.2,0.3,0.5,0.6,1,0.8c0.4,0.2,0.8,0.4,1.2,0.5c0.4,0.1,0.9,0.3,1.4,0.4
				l2.2,0.4C62.9,597.1,64.7,598.8,64.7,601.5z"/>
		</g>
		<g>
			<path class="st0" d="M74.7,606.4c-2.2,0-4-0.6-5.4-1.9c-1.4-1.2-2.1-2.8-2.1-4.7c0-1.9,0.7-3.5,2.1-4.8c1.4-1.2,3.2-1.9,5.4-1.9
				c2.2,0,4,0.6,5.4,1.9c1.4,1.2,2.1,2.8,2.1,4.7c0,1.9-0.7,3.5-2.1,4.7C78.7,605.8,76.9,606.4,74.7,606.4z M70.9,603.1
				c0.9,0.9,2.2,1.3,3.8,1.3c1.6,0,2.9-0.4,3.8-1.3c0.9-0.9,1.4-2,1.4-3.3s-0.5-2.4-1.4-3.3c-0.9-0.9-2.2-1.3-3.8-1.3
				c-1.6,0-2.9,0.4-3.8,1.3c-0.9,0.9-1.4,2-1.4,3.3S70,602.2,70.9,603.1z"/>
		</g>
		<g>
			<path class="st0" d="M92,606.4c-2.3,0-4.1-0.6-5.5-1.8c-1.3-1.2-2-2.8-2-4.7c0-1.9,0.7-3.6,2.1-4.8c1.4-1.3,3.2-1.9,5.4-1.9
				c1.8,0,3.3,0.4,4.5,1.2c1.2,0.8,2,1.9,2.3,3.4h-2.3c-0.2-0.7-0.8-1.4-1.5-1.8c-0.8-0.5-1.8-0.7-2.9-0.7c-1.6,0-2.8,0.4-3.8,1.3
				c-0.9,0.9-1.4,2-1.4,3.4c0,1.3,0.5,2.4,1.4,3.3c0.9,0.8,2.2,1.3,3.8,1.3c1.2,0,2.1-0.2,2.9-0.6c0.8-0.4,1.3-1,1.6-1.8h2.3
				c-0.3,1.4-1,2.4-2.3,3.2C95.4,606,93.9,606.4,92,606.4z"/>
		</g>
		<g>
			<path class="st0" d="M103.8,591c-0.3,0.3-0.6,0.4-1,0.4c-0.4,0-0.8-0.1-1.1-0.4c-0.3-0.3-0.4-0.6-0.4-1s0.1-0.8,0.4-1
				c0.3-0.3,0.6-0.4,1.1-0.4c0.4,0,0.8,0.1,1,0.4c0.3,0.3,0.4,0.6,0.4,1.1C104.3,590.3,104.1,590.7,103.8,591z M101.7,606.1v-12.7
				h2.2v12.7H101.7z"/>
		</g>
		<g>
			<path class="st0" d="M120.6,604.4h0.4v1.7h-1.1c-1.4,0-2.2-0.6-2.5-1.9c-1.1,1.4-2.9,2.1-5.4,2.1c-1.5,0-2.7-0.3-3.7-0.9
				c-0.9-0.6-1.4-1.5-1.4-2.8c0-1.2,0.4-2,1.2-2.7c0.8-0.6,1.9-1,3.3-1.1l5.7-0.4v-0.6c0-0.9-0.3-1.7-1-2.2s-1.6-0.8-2.8-0.8
				c-2.1,0-3.3,0.8-3.7,2.4h-2.3c0.2-1.3,0.8-2.3,1.8-3.1c1-0.8,2.4-1.2,4.1-1.2c1.8,0,3.2,0.4,4.3,1.2c1.1,0.8,1.6,2,1.6,3.5v5.2
				c0,0.4,0.1,0.8,0.3,0.9C119.9,604.3,120.2,604.4,120.6,604.4z M117.2,601v-0.9l-5.1,0.4c-1.9,0.2-2.9,0.9-2.9,2.1c0,1.3,1,2,3,2
				c1.3,0,2.5-0.3,3.5-0.9C116.7,603.2,117.2,602.3,117.2,601z"/>
		</g>
		<g>
			<path class="st0" d="M123.4,606.1v-18.1h2.2v18.1H123.4z"/>
		</g>
		<g>
			<path class="st0" d="M157.2,588.3v17.8h-2.3v-14h-0.2l-6.6,11.9h-2.5l-6.6-11.9h-0.2v14h-2.3v-17.8h3l7.3,13.4h0.2l7.3-13.4
				H157.2z"/>
		</g>
		<g>
			<path class="st0" d="M174.4,599.5c0,0.2,0,0.4-0.1,0.8h-11.6c0.1,1.3,0.6,2.3,1.4,3.1c0.9,0.8,2.1,1.1,3.6,1.1
				c2.3,0,3.7-0.7,4.3-2.1h2.2c-0.3,1.2-1.1,2.2-2.2,2.9c-1.1,0.7-2.6,1.1-4.3,1.1c-2.2,0-4-0.6-5.3-1.8c-1.3-1.2-2-2.8-2-4.7
				c0-2,0.7-3.6,2-4.9c1.3-1.2,3-1.8,5.1-1.8c1.9,0,3.5,0.6,4.8,1.7C173.8,595.9,174.4,597.5,174.4,599.5z M167.7,595
				c-1.4,0-2.5,0.3-3.3,1c-0.8,0.7-1.3,1.6-1.5,2.6h9.4c-0.1-1.1-0.5-2-1.3-2.6C170.1,595.4,169,595,167.7,595z"/>
		</g>
		<g>
			<path class="st0" d="M188.9,588.1h2.2v18.1h-1.9l-0.2-1.9h-0.2c-1.1,1.5-2.8,2.2-5.1,2.2c-2.1,0-3.8-0.6-5-1.8
				c-1.3-1.2-1.9-2.8-1.9-4.8c0-2,0.6-3.6,1.9-4.8s3-1.8,5-1.8c2.2,0,3.9,0.7,5.1,2.1V588.1z M180.5,603.1c0.9,0.8,2.1,1.3,3.6,1.3
				c1.5,0,2.7-0.4,3.5-1.3c0.9-0.8,1.3-2,1.3-3.4c0-1.4-0.4-2.5-1.3-3.3c-0.9-0.8-2-1.2-3.5-1.2c-1.5,0-2.7,0.4-3.6,1.3
				c-0.9,0.8-1.4,1.9-1.4,3.3C179.1,601.2,179.6,602.3,180.5,603.1z"/>
		</g>
		<g>
			<path class="st0" d="M196.9,591c-0.3,0.3-0.6,0.4-1,0.4c-0.4,0-0.8-0.1-1.1-0.4c-0.3-0.3-0.4-0.6-0.4-1s0.1-0.8,0.4-1
				c0.3-0.3,0.6-0.4,1.1-0.4c0.4,0,0.8,0.1,1,0.4c0.3,0.3,0.4,0.6,0.4,1.1C197.3,590.3,197.2,590.7,196.9,591z M194.7,606.1v-12.7
				h2.2v12.7H194.7z"/>
		</g>
		<g>
			<path class="st0" d="M213.7,604.4h0.4v1.7H213c-1.4,0-2.2-0.6-2.5-1.9c-1.1,1.4-2.9,2.1-5.4,2.1c-1.5,0-2.7-0.3-3.7-0.9
				c-0.9-0.6-1.4-1.5-1.4-2.8c0-1.2,0.4-2,1.2-2.7c0.8-0.6,1.9-1,3.3-1.1l5.7-0.4v-0.6c0-0.9-0.3-1.7-1-2.2s-1.6-0.8-2.8-0.8
				c-2.1,0-3.3,0.8-3.7,2.4h-2.3c0.2-1.3,0.8-2.3,1.8-3.1c1-0.8,2.4-1.2,4.1-1.2c1.8,0,3.2,0.4,4.3,1.2c1.1,0.8,1.6,2,1.6,3.5v5.2
				c0,0.4,0.1,0.8,0.3,0.9C213,604.3,213.3,604.4,213.7,604.4z M210.3,601v-0.9l-5.1,0.4c-1.9,0.2-2.9,0.9-2.9,2.1c0,1.3,1,2,3,2
				c1.3,0,2.5-0.3,3.5-0.9C209.8,603.2,210.3,602.3,210.3,601z"/>
		</g>
	</g>
	<g>
		<g>
			<path class="st0" d="M85.1,304.3c-25.5-30.8-27.1-62.4-23.9-83.4c3.4-22.8,13-38.5,13.1-38.7l0.9,0.5c-0.1,0.2-9.6,15.7-13,38.3
				c-3.1,20.8-1.6,52.1,23.7,82.6L85.1,304.3z"/>
		</g>
		<g>
			<g>
				<polygon class="st0" points="79.4,306.7 91.7,311 89.2,298.2 				"/>
			</g>
		</g>
	</g>
	<g>
		<g>
			<path class="st0" d="M444.8,392.7l-0.4-0.9c41.4-20.7,53.3-55.6,56-81.3c2.9-27.9-4.1-51.1-4.2-51.3l1-0.3
				c0.1,0.2,7.1,23.7,4.2,51.7C498.6,336.5,486.6,371.8,444.8,392.7z"/>
		</g>
		<g>
			<g>
				<polygon class="st0" points="443.5,385.5 436.1,396.1 449,397.2 				"/>
			</g>
		</g>
	</g>
	<g>
		<g>
			<path class="st0" d="M74.2,528.3c-0.1-0.2-6.9-20.8-6-46.7c0.8-23.9,8.4-57.3,40.4-80.8l0.6,0.8c-31.7,23.2-39.3,56.3-40,80
				c-0.8,25.7,5.9,46.1,6,46.3L74.2,528.3z"/>
		</g>
		<g>
			<g>
				<polygon class="st0" points="111.1,407.8 116.7,396.1 103.8,397.1 				"/>
			</g>
		</g>
	</g>
</g>
</svg>
