<svg width="193" height="197" viewBox="0 0 193 197" fill="none" xmlns="http://www.w3.org/2000/svg">
<path d="M116.366 50.8908C137.272 63.2981 153.912 79.8692 163.924 96.6059C173.944 113.357 177.271 130.169 171.766 143.167C166.262 156.164 152.892 163.067 135.559 163.584C118.241 164.101 97.069 158.232 76.1632 145.824C55.2573 133.417 38.6174 116.846 28.606 100.109C18.586 83.3583 15.2589 66.5461 20.7632 53.5486C26.2675 40.5511 39.6375 33.6484 56.9706 33.1309C74.2887 32.6138 95.4605 38.4835 116.366 50.8908Z" stroke="white"/>
<path d="M113.084 150.87C113.046 151.008 113.056 151.092 113.128 151.28C113.275 151.666 113.52 152.529 113.634 153.087C114.328 156.375 113.628 160.001 111.843 162.398C111.29 163.14 110.599 163.815 110.004 164.2C109.755 164.359 109.717 164.401 109.682 164.555C109.579 164.957 109.866 165.248 110.169 165.055C110.444 164.879 111.144 164.559 111.523 164.432C114.018 163.609 116.732 164.584 118.624 166.983C119.162 167.66 119.613 168.428 120.003 169.319C120.205 169.79 120.266 169.89 120.362 169.942C120.52 170.027 120.706 169.902 120.761 169.67C120.802 169.518 120.791 169.453 120.686 169.178C120.376 168.368 120.125 167.262 120.015 166.223C119.744 163.678 120.267 161.035 121.45 159.003C122.041 157.985 122.685 157.245 123.616 156.519C124.109 156.138 124.154 156.092 124.177 155.951C124.209 155.775 124.139 155.568 124.029 155.494C123.898 155.409 123.759 155.433 123.52 155.585C123.184 155.799 122.44 156.111 121.98 156.236C119.701 156.837 117.249 155.959 115.484 153.905C114.802 153.11 114.111 151.972 113.772 151.085C113.647 150.757 113.495 150.56 113.374 150.571C113.232 150.589 113.126 150.699 113.084 150.87ZM115.825 159.359C116.392 160.102 115.216 158.461 116.014 158.96C116.438 159.223 114.566 159.488 114.991 159.601C115.951 159.865 120.644 157.34 121.761 157.168C121.793 157.159 114.034 159.504 113.855 159.744C112.229 161.945 119.065 162.983 119.347 166.073C119.376 166.384 119.399 166.681 119.403 166.727C119.409 166.801 118.92 158.067 118.882 158.013C117.415 156.081 116.283 163.725 114.361 163.378C113.854 163.287 112.98 163.269 112.434 163.347C112.211 163.375 115.816 163.561 115.84 163.528C116.482 162.657 117.567 163.124 117.907 162.391C118.644 160.812 114.525 157.737 114.548 155.833C114.554 155.235 114.202 157.372 114.148 157.232C114.091 157.083 116.68 165.071 115.825 159.359Z" fill="#CEFF00"/>
<path d="M129.354 44.9374C129.3 45.306 129.346 45.519 129.571 45.9781C130.034 46.9198 130.861 49.0591 131.288 50.4551C133.861 58.6853 133.131 68.2918 129.431 75.1238C128.285 77.2388 126.786 79.2291 125.442 80.4378C124.878 80.9383 124.797 81.0605 124.753 81.4718C124.61 82.5448 125.386 83.1921 126.073 82.5825C126.694 82.0313 128.312 80.9511 129.199 80.4854C135.049 77.4583 141.916 78.9886 147.164 84.4901C148.654 86.0418 149.957 87.8602 151.145 90.0169C151.764 91.158 151.938 91.3926 152.187 91.4929C152.595 91.6546 153.014 91.266 153.085 90.6454C153.144 90.2387 153.099 90.0757 152.769 89.4047C151.798 87.4267 150.89 84.6667 150.343 82.0246C149 75.5591 149.563 68.5525 151.897 62.8817C153.061 60.0402 154.427 57.8984 156.499 55.6878C157.597 54.5279 157.694 54.3912 157.712 54.0209C157.741 53.555 157.515 53.0459 157.229 52.8943C156.887 52.7242 156.554 52.8343 156.014 53.3132C155.254 53.9879 153.528 55.0631 152.442 55.5529C147.059 57.9286 140.855 56.5534 136.009 51.8947C134.137 50.0907 132.151 47.4076 131.087 45.2411C130.694 44.4403 130.272 43.9867 129.979 44.0606C129.64 44.1586 129.411 44.4806 129.354 44.9374ZM138.305 65.8401C139.883 67.5496 136.582 63.7439 138.657 64.7424C139.76 65.2678 135.276 66.6291 136.34 66.7656C138.746 67.099 149.488 58.8829 152.158 58.0351C152.235 58.0006 133.985 66.8641 133.615 67.5466C130.248 73.8136 147.161 74.0131 148.676 81.8806C148.831 82.6732 148.968 83.4307 148.99 83.5466C149.024 83.7359 145.489 61.3834 145.381 61.2595C141.293 56.8072 140.591 76.9355 135.822 76.7384C134.565 76.6879 132.431 76.9573 131.125 77.3562C130.59 77.5095 139.412 76.6826 139.46 76.589C140.789 74.1082 143.554 74.9207 144.186 72.9065C145.553 68.5666 134.706 62.1267 134.251 57.2068C134.104 55.6638 133.821 61.3038 133.653 60.9625C133.474 60.5979 141.919 80.2642 138.305 65.8401Z" fill="#CEFF00"/>
</svg>
