<svg width="202" height="198" viewBox="0 0 202 198" fill="none" xmlns="http://www.w3.org/2000/svg">
<path d="M116.366 51.8908C137.272 64.2981 153.912 80.8692 163.924 97.6059C173.944 114.357 177.271 131.169 171.766 144.167C166.262 157.164 152.892 164.067 135.559 164.584C118.241 165.101 97.069 159.232 76.1632 146.824C55.2573 134.417 38.6174 117.846 28.606 101.109C18.586 84.3583 15.2589 67.5461 20.7632 54.5486C26.2675 41.5511 39.6375 34.6484 56.9706 34.1309C74.2887 33.6138 95.4605 39.4835 116.366 51.8908Z" stroke="white"/>
<path d="M73.4078 136.735C73.3705 136.873 73.3802 136.957 73.4521 137.145C73.5995 137.531 73.8442 138.395 73.9582 138.952C74.6527 142.24 73.9523 145.866 72.1669 148.263C71.6142 149.006 70.9234 149.68 70.3287 150.065C70.0793 150.224 70.0414 150.266 70.0061 150.421C69.9033 150.822 70.1899 151.113 70.4936 150.92C70.7682 150.745 71.4686 150.424 71.847 150.297C74.342 149.474 77.0567 150.449 78.9487 152.848C79.4862 153.525 79.9371 154.294 80.327 155.184C80.5293 155.655 80.5899 155.755 80.6863 155.807C80.8447 155.892 81.0307 155.768 81.0856 155.535C81.1265 155.383 81.1151 155.318 81.0101 155.043C80.7005 154.233 80.449 153.127 80.3393 152.088C80.0683 149.543 80.5913 146.9 81.7747 144.868C82.3656 143.85 83.0087 143.11 83.9406 142.384C84.4335 142.004 84.4787 141.957 84.5014 141.817C84.533 141.64 84.4628 141.433 84.3536 141.359C84.2224 141.275 84.0829 141.298 83.8443 141.45C83.5081 141.664 82.7643 141.976 82.3043 142.102C80.0256 142.702 77.5729 141.824 75.808 139.77C75.1265 138.975 74.4357 137.838 74.0966 136.95C73.9712 136.622 73.8195 136.425 73.698 136.436C73.5567 136.454 73.4504 136.564 73.4078 136.735ZM76.1493 145.224C76.7162 145.967 75.5406 144.326 76.3383 144.825C76.7626 145.089 74.8903 145.353 75.3154 145.466C76.2749 145.73 80.9684 143.205 82.0848 143.033C82.1175 143.024 74.3579 145.369 74.1797 145.609C72.5527 147.81 79.3891 148.848 79.6707 151.938C79.6998 152.249 79.7233 152.546 79.7273 152.592C79.7331 152.666 79.2447 143.932 79.2063 143.878C77.7396 141.946 76.6069 149.59 74.6853 149.244C74.1786 149.153 73.304 149.134 72.7584 149.212C72.5353 149.24 76.1406 149.426 76.1639 149.393C76.8064 148.522 77.8911 148.99 78.2315 148.257C78.9678 146.678 74.8495 143.602 74.8725 141.698C74.8781 141.1 74.5259 143.237 74.4725 143.098C74.4152 142.948 77.0042 150.936 76.1493 145.224Z" fill="#CEFF00"/>
<path d="M160.151 111.194C160.097 111.563 160.143 111.776 160.368 112.235C160.83 113.177 161.658 115.316 162.085 116.712C164.658 124.942 163.928 134.549 160.228 141.381C159.082 143.496 157.583 145.486 156.239 146.695C155.675 147.195 155.594 147.317 155.549 147.729C155.407 148.802 156.183 149.449 156.87 148.839C157.491 148.288 159.109 147.208 159.996 146.742C165.846 143.715 172.713 145.245 177.961 150.747C179.451 152.299 180.754 154.117 181.942 156.274C182.561 157.415 182.735 157.649 182.984 157.75C183.392 157.911 183.811 157.523 183.882 156.902C183.941 156.496 183.896 156.333 183.566 155.662C182.595 153.683 181.686 150.924 181.14 148.281C179.797 141.816 180.36 134.809 182.694 129.139C183.858 126.297 185.224 124.155 187.296 121.945C188.394 120.785 188.491 120.648 188.508 120.278C188.538 119.812 188.312 119.303 188.026 119.151C187.684 118.981 187.351 119.091 186.811 119.57C186.051 120.245 184.325 121.32 183.239 121.81C177.856 124.185 171.652 122.81 166.806 118.152C164.934 116.348 162.948 113.664 161.884 111.498C161.491 110.697 161.069 110.244 160.776 110.317C160.437 110.415 160.208 110.737 160.151 111.194ZM169.101 132.097C170.68 133.806 167.379 130.001 169.454 130.999C170.557 131.525 166.073 132.886 167.137 133.022C169.543 133.356 180.285 125.14 182.955 124.292C183.032 124.257 164.782 133.121 164.412 133.803C161.045 140.07 177.958 140.27 179.473 148.137C179.628 148.93 179.765 149.688 179.786 149.803C179.82 149.993 176.286 127.64 176.178 127.516C172.09 123.064 171.388 143.192 166.619 142.995C165.361 142.945 163.228 143.214 161.922 143.613C161.386 143.766 170.209 142.939 170.257 142.846C171.586 140.365 174.351 141.178 174.982 139.163C176.35 134.823 165.503 128.384 165.047 123.464C164.9 121.921 164.618 127.561 164.45 127.219C164.271 126.855 172.716 146.521 169.101 132.097Z" fill="#CEFF00"/>
</svg>
