<svg width="1168" height="691" viewBox="0 0 1168 691" fill="none" xmlns="http://www.w3.org/2000/svg">
<path d="M610.555 520.606L589.505 392.939L507.446 492.993L553.178 371.912L432.074 417.635L532.147 335.592L404.457 314.546L532.147 293.499L432.074 211.456L553.178 257.179L507.446 136.098L589.505 236.152L610.555 108.485L631.605 236.152L713.663 136.098L667.932 257.179L789.035 211.456L688.963 293.499L816.653 314.546L688.963 335.592L789.035 417.635L667.932 371.912L713.663 492.993L631.605 392.939L610.555 520.606ZM590.259 390.122L610.555 513.207L630.851 390.122L709.953 486.566L665.869 369.849L782.607 413.926L686.145 334.838L809.252 314.546L686.145 294.253L782.607 215.165L665.869 259.242L709.953 142.525L630.851 238.969L610.555 115.884L590.259 238.969L511.157 142.525L555.241 259.242L438.502 215.165L534.965 294.253L411.857 314.546L534.965 334.838L438.502 413.926L555.241 369.849L511.157 486.566L590.259 390.122Z" fill="white"/>
<path d="M550.994 321.31V299.133H558.256C560.656 299.133 562.481 299.629 563.692 300.621C564.902 301.612 565.517 303.08 565.517 305.044C565.517 306.076 565.219 306.988 564.624 307.801C564.029 308.595 563.235 309.21 562.224 309.646C563.414 309.983 564.366 310.618 565.061 311.55C565.755 312.483 566.112 313.613 566.112 314.903C566.112 316.886 565.457 318.453 564.168 319.604C562.878 320.735 561.053 321.31 558.692 321.31H550.994V321.31ZM553.93 308.595H558.355C559.644 308.595 560.656 308.277 561.43 307.623C562.204 306.988 562.581 306.115 562.581 305.004C562.581 303.774 562.224 302.902 561.509 302.346C560.795 301.791 559.724 301.513 558.256 301.513H553.93V308.595ZM553.93 310.935V318.929H558.771C560.14 318.929 561.212 318.572 561.985 317.878C562.779 317.164 563.176 316.192 563.176 314.962C563.176 312.284 561.728 310.955 558.811 310.955H553.93V310.935Z" fill="white"/>
<path d="M577.183 307.365C576.746 307.285 576.29 307.265 575.794 307.265C573.949 307.265 572.699 308.059 572.024 309.626V321.329H569.207V304.845H571.945L571.985 306.75C572.917 305.282 574.227 304.548 575.913 304.548C576.468 304.548 576.885 304.627 577.163 304.766V307.365H577.183Z" fill="white"/>
<path d="M588.572 321.31C588.414 320.992 588.275 320.397 588.176 319.564C586.866 320.933 585.299 321.607 583.473 321.607C581.847 321.607 580.517 321.151 579.466 320.219C578.414 319.306 577.898 318.136 577.898 316.727C577.898 315.002 578.553 313.673 579.863 312.72C581.172 311.768 582.997 311.292 585.378 311.292H588.116V310.003C588.116 309.011 587.818 308.237 587.223 307.642C586.628 307.067 585.755 306.769 584.624 306.769C583.612 306.769 582.779 307.027 582.085 307.523C581.39 308.019 581.073 308.654 581.073 309.368H578.236C578.236 308.555 578.533 307.741 579.109 306.988C579.684 306.214 580.478 305.619 581.489 305.163C582.481 304.706 583.593 304.488 584.783 304.488C586.688 304.488 588.176 304.964 589.247 305.917C590.318 306.869 590.874 308.178 590.933 309.844V317.441C590.933 318.949 591.132 320.159 591.509 321.052V321.29H588.572V321.31ZM583.89 319.167C584.783 319.167 585.616 318.929 586.41 318.473C587.203 318.017 587.779 317.422 588.136 316.688V313.296H585.934C582.481 313.296 580.755 314.307 580.755 316.331C580.755 317.223 581.053 317.898 581.648 318.394C582.204 318.929 582.958 319.167 583.89 319.167Z" fill="white"/>
<path d="M597.242 304.826L597.341 306.889C598.611 305.302 600.238 304.509 602.282 304.509C605.773 304.509 607.519 306.473 607.559 310.4V321.29H604.742V310.38C604.722 309.19 604.464 308.317 603.928 307.742C603.393 307.167 602.559 306.889 601.429 306.889C600.516 306.889 599.702 307.127 599.028 307.623C598.333 308.119 597.798 308.754 597.421 309.547V321.29H594.604V304.806H597.242V304.826Z" fill="white"/>
<path d="M610.336 312.939C610.336 310.4 610.931 308.377 612.141 306.829C613.332 305.282 614.919 304.528 616.843 304.528C618.768 304.528 620.296 305.183 621.426 306.512V297.923H624.244V321.33H621.645L621.506 319.564C620.375 320.953 618.808 321.647 616.804 321.647C614.899 321.647 613.332 320.874 612.141 319.306C610.931 317.739 610.336 315.696 610.336 313.177V312.939ZM613.153 313.256C613.153 315.121 613.53 316.589 614.304 317.64C615.078 318.692 616.149 319.227 617.498 319.227C619.284 319.227 620.593 318.434 621.407 316.827V309.249C620.553 307.702 619.264 306.909 617.518 306.909C616.129 306.909 615.058 307.444 614.284 308.515C613.55 309.587 613.153 311.174 613.153 313.256Z" fill="white"/>
<path d="M627.875 300.462C627.875 300.005 628.014 299.609 628.292 299.311C628.569 298.994 628.986 298.835 629.542 298.835C630.097 298.835 630.514 298.994 630.792 299.311C631.069 299.628 631.228 300.005 631.228 300.462C631.228 300.918 631.089 301.295 630.792 301.612C630.514 301.91 630.097 302.068 629.542 302.068C628.986 302.068 628.569 301.91 628.292 301.612C628.014 301.295 627.875 300.918 627.875 300.462ZM630.911 321.31H628.093V304.826H630.911V321.31Z" fill="white"/>
<path d="M637.319 304.826L637.418 306.889C638.688 305.302 640.314 304.509 642.358 304.509C645.85 304.509 647.596 306.473 647.635 310.4V321.29H644.798V310.38C644.778 309.19 644.521 308.317 643.985 307.742C643.449 307.167 642.616 306.889 641.485 306.889C640.572 306.889 639.759 307.127 639.084 307.623C638.39 308.119 637.854 308.754 637.477 309.547V321.29H634.66V304.806H637.319V304.826Z" fill="white"/>
<path d="M650.412 312.939C650.412 310.36 651.007 308.317 652.198 306.809C653.388 305.282 654.955 304.528 656.92 304.528C658.923 304.528 660.511 305.242 661.622 306.671L661.761 304.846H664.34V320.933C664.34 323.075 663.705 324.742 662.435 325.971C661.165 327.201 659.479 327.816 657.336 327.816C656.146 327.816 654.975 327.558 653.844 327.062C652.714 326.547 651.841 325.852 651.245 324.98L652.714 323.294C653.924 324.781 655.392 325.535 657.158 325.535C658.527 325.535 659.598 325.158 660.372 324.385C661.146 323.611 661.522 322.52 661.522 321.131V319.723C660.392 321.032 658.864 321.667 656.9 321.667C654.975 321.667 653.408 320.893 652.218 319.326C651.007 317.739 650.412 315.617 650.412 312.939ZM653.249 313.256C653.249 315.121 653.626 316.569 654.4 317.64C655.154 318.711 656.225 319.227 657.594 319.227C659.38 319.227 660.669 318.414 661.503 316.807V309.269C660.63 307.702 659.34 306.909 657.614 306.909C656.245 306.909 655.174 307.444 654.4 308.515C653.646 309.587 653.249 311.173 653.249 313.256Z" fill="white"/>
<path d="M331.487 626.214C246.969 626.214 178.203 598.463 178.203 564.345C178.203 530.226 246.969 502.455 331.487 502.455C416.005 502.455 484.771 530.206 484.771 564.345C484.771 598.463 416.005 626.214 331.487 626.214ZM331.487 503.764C247.703 503.764 179.532 530.94 179.532 564.325C179.532 597.709 247.703 624.885 331.487 624.885C415.271 624.885 483.441 597.709 483.441 564.325C483.441 530.94 415.291 503.764 331.487 503.764Z" fill="white"/>
<path d="M249.132 563.492C246.394 562.698 244.391 561.746 243.141 560.596C241.891 559.445 241.276 558.037 241.276 556.351C241.276 554.446 242.03 552.859 243.557 551.61C245.085 550.36 247.069 549.745 249.509 549.745C251.176 549.745 252.664 550.062 253.953 550.717C255.263 551.352 256.275 552.244 256.989 553.375C257.703 554.506 258.06 555.736 258.06 557.085H254.846C254.846 555.617 254.39 554.466 253.457 553.613C252.525 552.78 251.216 552.344 249.509 552.344C247.942 552.344 246.712 552.681 245.819 553.395C244.946 554.089 244.49 555.061 244.49 556.291C244.49 557.283 244.906 558.116 245.74 558.79C246.573 559.465 248.001 560.1 250.025 560.675C252.029 561.25 253.616 561.865 254.747 562.54C255.878 563.214 256.731 564.007 257.267 564.92C257.822 565.832 258.1 566.904 258.1 568.133C258.1 570.097 257.326 571.664 255.799 572.854C254.271 574.045 252.227 574.62 249.668 574.62C248.001 574.62 246.454 574.303 245.006 573.668C243.557 573.033 242.446 572.16 241.673 571.049C240.899 569.939 240.502 568.689 240.502 567.28H243.716C243.716 568.748 244.252 569.899 245.343 570.752C246.434 571.605 247.863 572.021 249.668 572.021C251.354 572.021 252.644 571.684 253.537 570.99C254.43 570.296 254.886 569.363 254.886 568.173C254.886 566.983 254.469 566.07 253.636 565.416C252.823 564.761 251.315 564.126 249.132 563.492Z" fill="white"/>
<path d="M260.065 565.118C260.065 563.352 260.402 561.765 261.096 560.357C261.791 558.948 262.763 557.857 263.993 557.104C265.223 556.33 266.632 555.953 268.219 555.953C270.679 555.953 272.643 556.806 274.171 558.492C275.679 560.198 276.433 562.44 276.433 565.256V565.475C276.433 567.22 276.095 568.807 275.421 570.196C274.746 571.584 273.794 572.675 272.544 573.449C271.294 574.222 269.866 574.619 268.239 574.619C265.798 574.619 263.815 573.766 262.307 572.08C260.799 570.374 260.045 568.133 260.045 565.336V565.118H260.065ZM263.16 565.494C263.16 567.498 263.616 569.085 264.549 570.295C265.481 571.505 266.711 572.1 268.259 572.1C269.826 572.1 271.056 571.485 271.989 570.255C272.901 569.025 273.377 567.319 273.377 565.098C273.377 563.114 272.901 561.527 271.969 560.297C271.036 559.067 269.786 558.453 268.239 558.453C266.711 558.453 265.501 559.067 264.568 560.258C263.636 561.507 263.16 563.233 263.16 565.494Z" fill="white"/>
<path d="M286.689 572.12C287.78 572.12 288.753 571.783 289.566 571.128C290.379 570.473 290.836 569.62 290.935 568.629H293.851C293.792 569.66 293.435 570.632 292.78 571.564C292.125 572.497 291.252 573.231 290.161 573.786C289.07 574.342 287.919 574.619 286.689 574.619C284.229 574.619 282.285 573.806 280.836 572.16C279.388 570.533 278.674 568.291 278.674 565.455V564.939C278.674 563.193 278.991 561.626 279.646 560.258C280.281 558.889 281.213 557.838 282.424 557.084C283.634 556.33 285.042 555.953 286.689 555.953C288.713 555.953 290.379 556.568 291.729 557.758C293.058 558.968 293.772 560.535 293.871 562.459H290.955C290.875 561.289 290.419 560.337 289.625 559.583C288.832 558.829 287.86 558.453 286.689 558.453C285.122 558.453 283.912 559.008 283.058 560.139C282.205 561.269 281.769 562.896 281.769 565.018V565.594C281.769 567.676 282.205 569.263 283.058 570.394C283.912 571.525 285.102 572.12 286.689 572.12Z" fill="white"/>
<path d="M296.471 551.511C296.471 551.015 296.629 550.598 296.927 550.241C297.225 549.904 297.681 549.726 298.276 549.726C298.871 549.726 299.328 549.904 299.645 550.241C299.963 550.579 300.101 551.015 300.101 551.511C300.101 552.007 299.943 552.423 299.645 552.761C299.328 553.098 298.871 553.256 298.276 553.256C297.681 553.256 297.225 553.098 296.927 552.761C296.61 552.443 296.471 552.027 296.471 551.511ZM299.804 574.303H296.729V556.311H299.804V574.303Z" fill="white"/>
<path d="M314.982 574.302C314.803 573.945 314.664 573.311 314.545 572.398C313.117 573.886 311.411 574.62 309.427 574.62C307.661 574.62 306.193 574.124 305.062 573.112C303.931 572.101 303.355 570.831 303.355 569.304C303.355 567.439 304.07 565.971 305.498 564.94C306.927 563.908 308.931 563.392 311.51 563.392H314.506V561.984C314.506 560.913 314.188 560.06 313.533 559.405C312.899 558.771 311.946 558.453 310.696 558.453C309.605 558.453 308.673 558.731 307.939 559.286C307.204 559.842 306.827 560.516 306.827 561.29H303.732C303.732 560.397 304.05 559.524 304.685 558.691C305.32 557.858 306.193 557.184 307.284 556.708C308.375 556.212 309.585 555.974 310.895 555.974C312.978 555.974 314.585 556.489 315.775 557.521C316.966 558.552 317.561 559.981 317.601 561.806V570.097C317.601 571.744 317.819 573.073 318.236 574.045V574.302H314.982V574.302ZM309.883 571.942C310.855 571.942 311.768 571.684 312.621 571.188C313.494 570.692 314.109 570.038 314.506 569.244V565.555H312.085C308.315 565.555 306.431 566.665 306.431 568.867C306.431 569.839 306.748 570.593 307.403 571.129C308.038 571.684 308.871 571.942 309.883 571.942Z" fill="white"/>
<path d="M324.901 574.302H321.826V548.753H324.901V574.302Z" fill="white"/>
<path d="M341.17 550.062L349.086 569.82L357.002 550.062H361.149V574.283H357.954V564.841L358.252 554.665L350.296 574.283H347.856L339.92 554.724L340.237 564.86V574.303H337.043V550.062H341.17Z" fill="white"/>
<path d="M372.933 574.619C370.493 574.619 368.509 573.826 366.981 572.219C365.453 570.612 364.68 568.47 364.68 565.792V565.217C364.68 563.431 365.017 561.845 365.711 560.436C366.386 559.028 367.338 557.937 368.568 557.143C369.798 556.35 371.128 555.953 372.556 555.953C374.897 555.953 376.723 556.727 378.012 558.274C379.302 559.821 379.957 562.023 379.957 564.899V566.189H367.755C367.795 567.954 368.31 569.402 369.302 570.493C370.294 571.584 371.564 572.14 373.092 572.14C374.183 572.14 375.096 571.921 375.85 571.465C376.604 571.029 377.258 570.434 377.834 569.7L379.718 571.168C378.211 573.469 375.949 574.619 372.933 574.619ZM372.536 558.492C371.286 558.492 370.255 558.948 369.402 559.841C368.549 560.754 368.033 562.003 367.834 563.65H376.861V563.412C376.782 561.845 376.346 560.635 375.592 559.782C374.858 558.909 373.826 558.492 372.536 558.492Z" fill="white"/>
<path d="M381.901 565.138C381.901 562.381 382.555 560.159 383.865 558.473C385.174 556.787 386.881 555.954 389.003 555.954C391.106 555.954 392.773 556.668 394.003 558.116V548.733H397.078V574.283H394.241L394.082 572.358C392.852 573.866 391.146 574.62 388.944 574.62C386.861 574.62 385.154 573.767 383.845 572.061C382.536 570.355 381.881 568.133 381.881 565.376V565.138H381.901ZM384.976 565.495C384.976 567.538 385.393 569.125 386.246 570.296C387.079 571.446 388.25 572.021 389.738 572.021C391.682 572.021 393.11 571.148 394.023 569.403V561.131C393.11 559.425 391.682 558.592 389.777 558.592C388.269 558.592 387.099 559.167 386.246 560.338C385.412 561.488 384.976 563.214 384.976 565.495Z" fill="white"/>
<path d="M401.047 551.511C401.047 551.015 401.206 550.598 401.503 550.241C401.801 549.904 402.257 549.726 402.852 549.726C403.447 549.726 403.904 549.904 404.221 550.241C404.539 550.579 404.678 551.015 404.678 551.511C404.678 552.007 404.519 552.423 404.221 552.761C403.904 553.098 403.447 553.256 402.852 553.256C402.257 553.256 401.801 553.098 401.503 552.761C401.186 552.443 401.047 552.027 401.047 551.511ZM404.36 574.303H401.285V556.311H404.36V574.303Z" fill="white"/>
<path d="M419.558 574.302C419.379 573.945 419.24 573.311 419.121 572.398C417.693 573.886 415.987 574.62 414.003 574.62C412.237 574.62 410.769 574.124 409.638 573.112C408.507 572.101 407.932 570.831 407.932 569.304C407.932 567.439 408.646 565.971 410.074 564.94C411.503 563.908 413.507 563.392 416.086 563.392H419.082V561.984C419.082 560.913 418.764 560.06 418.11 559.405C417.475 558.771 416.522 558.453 415.272 558.453C414.181 558.453 413.249 558.731 412.515 559.286C411.781 559.842 411.404 560.516 411.404 561.29H408.309C408.309 560.397 408.626 559.524 409.261 558.691C409.896 557.858 410.769 557.184 411.86 556.708C412.951 556.212 414.161 555.974 415.471 555.974C417.554 555.974 419.161 556.489 420.351 557.521C421.522 558.552 422.137 559.981 422.177 561.806V570.097C422.177 571.744 422.395 573.073 422.812 574.045V574.302H419.558V574.302ZM414.439 571.942C415.411 571.942 416.324 571.684 417.177 571.188C418.05 570.692 418.665 570.038 419.062 569.244V565.555H416.641C412.872 565.555 410.987 566.665 410.987 568.867C410.987 569.839 411.304 570.593 411.959 571.129C412.614 571.684 413.427 571.942 414.439 571.942Z" fill="white"/>
<path d="M221.712 325.237L204.927 291.436L183.242 322.341L171.933 286.318L145.328 313.177L140.884 275.646L109.061 296.276L114.398 258.766L77.3166 268.009L98.0295 236.113L61.7422 223.794L98.0295 211.476L77.3166 179.599L114.398 188.842L109.061 151.352L140.884 171.982L145.328 134.451L171.933 161.31L183.242 125.287L204.927 156.192L221.732 122.391L238.516 156.192L260.202 125.287L271.51 161.31L298.116 134.451L302.56 171.982L334.383 151.352L329.046 188.862L366.127 179.619L345.414 211.515L381.702 223.834L345.414 236.152L366.107 268.049L329.027 258.805L334.363 296.316L302.54 275.686L298.096 313.216L271.491 286.358L260.182 322.381L238.497 291.476L221.712 325.237ZM205.146 288.52L221.712 321.865L238.278 288.52L259.666 318.989L270.796 283.502L296.965 309.924L301.31 273.088L332.399 293.241L327.221 256.782L362.774 265.649L343.093 235.339L377.019 223.814L343.093 212.289L362.774 181.979L327.241 190.846L332.419 154.387L301.33 174.54L296.985 137.704L270.816 164.126L259.666 128.639L238.278 159.128L221.712 125.783L205.146 159.128L183.758 128.639L172.608 164.126L146.439 137.704L142.094 174.54L111.005 154.387L116.183 190.846L80.6299 181.979L100.311 212.289L66.3847 223.814L100.311 235.339L80.6299 265.649L116.163 256.782L110.985 293.241L142.074 273.088L146.419 309.924L172.608 283.502L183.758 318.989L205.146 288.52Z" fill="white"/>
<path d="M173.641 235.16V207.548H181.438C183.838 207.548 185.961 208.083 187.806 209.135C189.652 210.206 191.08 211.713 192.092 213.657C193.104 215.621 193.6 217.863 193.62 220.402V222.167C193.62 224.766 193.124 227.047 192.112 229.011C191.1 230.975 189.671 232.482 187.806 233.514C185.941 234.565 183.779 235.101 181.299 235.12H173.641V235.16ZM177.291 210.523V232.185H181.12C183.918 232.185 186.12 231.312 187.668 229.566C189.235 227.821 190.009 225.341 190.009 222.108V220.501C190.009 217.367 189.275 214.927 187.806 213.181C186.338 211.436 184.235 210.563 181.537 210.543H177.291V210.523Z" fill="white"/>
<path d="M197.607 209.194C197.607 208.618 197.786 208.142 198.123 207.745C198.48 207.349 198.996 207.15 199.671 207.15C200.345 207.15 200.881 207.349 201.218 207.745C201.575 208.142 201.754 208.618 201.754 209.194C201.754 209.769 201.575 210.245 201.218 210.622C200.861 210.999 200.345 211.197 199.671 211.197C198.996 211.197 198.48 210.999 198.123 210.622C197.786 210.245 197.607 209.769 197.607 209.194ZM201.417 235.159H197.905V214.649H201.417V235.159Z" fill="white"/>
<path d="M205.207 224.726C205.207 221.532 205.941 218.993 207.429 217.089C208.917 215.204 210.861 214.252 213.302 214.252C215.802 214.252 217.766 215.145 219.155 216.91L219.333 214.629H222.547V234.644C222.547 237.302 221.754 239.385 220.186 240.912C218.619 242.439 216.496 243.213 213.837 243.213C212.349 243.213 210.901 242.896 209.492 242.261C208.084 241.626 206.993 240.753 206.259 239.662L208.084 237.56C209.592 239.424 211.437 240.357 213.599 240.357C215.306 240.357 216.635 239.881 217.587 238.909C218.54 237.956 219.016 236.588 219.016 234.842V233.077C217.607 234.703 215.702 235.497 213.262 235.497C210.861 235.497 208.917 234.525 207.429 232.601C205.961 230.696 205.207 228.078 205.207 224.726ZM208.739 225.122C208.739 227.443 209.215 229.248 210.167 230.577C211.119 231.906 212.449 232.561 214.155 232.561C216.377 232.561 217.984 231.549 219.036 229.546V220.183C217.964 218.219 216.357 217.247 214.195 217.247C212.488 217.247 211.159 217.902 210.187 219.231C209.215 220.56 208.739 222.524 208.739 225.122Z" fill="white"/>
<path d="M226.891 209.194C226.891 208.618 227.069 208.142 227.406 207.745C227.764 207.349 228.279 207.15 228.954 207.15C229.629 207.15 230.164 207.349 230.502 207.745C230.859 208.142 231.037 208.618 231.037 209.194C231.037 209.769 230.859 210.245 230.502 210.622C230.144 210.999 229.629 211.197 228.954 211.197C228.279 211.197 227.764 210.999 227.406 210.622C227.069 210.245 226.891 209.769 226.891 209.194ZM230.68 235.159H227.168V214.649H230.68V235.159Z" fill="white"/>
<path d="M240.085 209.67V214.629H243.914V217.347H240.085V230.101C240.085 230.915 240.264 231.549 240.601 231.946C240.938 232.363 241.534 232.561 242.347 232.561C242.744 232.561 243.299 232.482 244.014 232.343V235.179C243.081 235.437 242.188 235.556 241.315 235.556C239.748 235.556 238.558 235.08 237.764 234.128C236.97 233.176 236.574 231.827 236.574 230.082V217.366H232.844V214.649H236.574V209.69H240.085V209.67Z" fill="white"/>
<path d="M259.706 235.16C259.508 234.763 259.349 234.029 259.21 232.998C257.583 234.684 255.639 235.537 253.377 235.537C251.354 235.537 249.687 234.962 248.397 233.811C247.108 232.661 246.453 231.213 246.453 229.467C246.453 227.325 247.267 225.678 248.893 224.488C250.52 223.298 252.802 222.723 255.758 222.723H259.171V221.116C259.171 219.886 258.813 218.914 258.079 218.18C257.345 217.446 256.274 217.089 254.845 217.089C253.596 217.089 252.544 217.407 251.691 218.041C250.838 218.676 250.421 219.43 250.421 220.342H246.89C246.89 219.311 247.247 218.339 247.981 217.367C248.715 216.415 249.687 215.661 250.937 215.106C252.187 214.55 253.556 214.272 255.044 214.272C257.405 214.272 259.27 214.868 260.599 216.038C261.948 217.228 262.643 218.855 262.682 220.918V230.36C262.682 232.244 262.92 233.732 263.396 234.863V235.16H259.706V235.16ZM253.893 232.482C254.984 232.482 256.036 232.205 257.028 231.629C258.02 231.054 258.734 230.32 259.171 229.408V225.202H256.413C252.108 225.202 249.965 226.452 249.965 228.971C249.965 230.062 250.322 230.935 251.056 231.55C251.79 232.185 252.742 232.482 253.893 232.482Z" fill="white"/>
<path d="M271.016 235.16H267.504V206.04H271.016V235.16Z" fill="white"/>
<path d="M982.616 345.51L966.724 315.041L942.222 339.142L936.547 305.242L905.776 320.536L910.875 286.556L876.889 291.654L892.185 260.888L858.279 255.214L882.384 230.716L851.91 214.828L882.384 198.939L858.279 174.441L892.185 168.767L876.889 138.001L910.875 143.099L905.776 109.12L936.547 124.413L942.222 90.513L966.724 114.614L982.616 84.1455L998.508 114.614L1023.01 90.513L1028.68 124.413L1059.46 109.12L1054.36 143.099L1088.34 138.001L1073.05 168.767L1106.95 174.441L1082.85 198.939L1113.32 214.828L1082.85 230.716L1106.95 255.214L1073.05 260.888L1088.34 291.654L1054.36 286.556L1059.46 320.536L1028.68 305.242L1023.01 339.142L998.508 315.041L982.616 345.51ZM967.061 312.859L982.616 342.653L998.17 312.859L1022.14 336.425L1027.67 303.278L1057.77 318.254L1052.79 285.009L1086.04 289.988L1071.06 259.896L1104.22 254.361L1080.65 230.399L1110.45 214.847L1080.65 199.296L1104.22 175.333L1071.06 169.799L1086.04 139.707L1052.79 144.686L1057.77 111.44L1027.67 126.417L1022.14 93.2306L998.17 116.796L982.616 87.002L967.061 116.796L943.095 93.2306L937.559 126.377L907.462 111.401L912.442 144.646L879.19 139.668L894.169 169.759L861.017 175.294L884.587 199.256L854.787 214.808L884.587 230.359L861.017 254.322L894.169 259.856L879.19 289.948L912.442 284.969L907.462 318.215L937.559 303.238L943.095 336.385L967.061 312.859Z" fill="white"/>
<path d="M929.187 217.148L929.643 220.341L930.318 217.465L935.119 200.564H937.818L942.5 217.465L943.174 220.401L943.69 217.148L947.46 200.584H950.674L944.801 224.805H941.885L936.885 207.15L936.508 205.305L936.131 207.15L930.953 224.805H928.036L922.184 200.584H925.378L929.187 217.148Z" fill="white"/>
<path d="M959.82 225.122C957.38 225.122 955.396 224.328 953.868 222.722C952.34 221.115 951.566 218.973 951.566 216.295V215.739C951.566 213.954 951.904 212.367 952.598 210.959C953.273 209.55 954.225 208.459 955.455 207.666C956.685 206.872 958.014 206.476 959.443 206.476C961.784 206.476 963.609 207.249 964.899 208.796C966.189 210.344 966.843 212.546 966.843 215.422V216.711H954.642C954.681 218.477 955.197 219.925 956.189 221.016C957.181 222.107 958.451 222.662 959.979 222.662C961.07 222.662 961.982 222.444 962.736 221.988C963.49 221.551 964.145 220.956 964.72 220.222L966.605 221.69C965.097 223.971 962.836 225.122 959.82 225.122ZM959.443 208.995C958.193 208.995 957.161 209.451 956.308 210.344C955.455 211.256 954.939 212.506 954.741 214.152H963.768V213.914C963.689 212.347 963.252 211.137 962.498 210.284C961.744 209.411 960.713 208.995 959.443 208.995Z" fill="white"/>
<path d="M984.798 215.997C984.798 218.754 984.163 220.956 982.894 222.622C981.624 224.289 979.937 225.122 977.795 225.122C975.513 225.122 973.767 224.309 972.517 222.702L972.359 224.785H969.521V199.235H972.597V208.777C973.847 207.229 975.553 206.456 977.735 206.456C979.918 206.456 981.644 207.289 982.894 208.935C984.144 210.582 984.759 212.843 984.759 215.719V215.997H984.798ZM981.703 215.64C981.703 213.537 981.306 211.931 980.493 210.78C979.68 209.63 978.509 209.074 977.001 209.074C974.977 209.074 973.509 210.026 972.617 211.911V219.687C973.549 221.571 975.037 222.523 977.021 222.523C978.489 222.523 979.64 221.948 980.473 220.817C981.306 219.647 981.703 217.941 981.703 215.64Z" fill="white"/>
<path d="M994.659 215.64C994.659 212.883 995.313 210.661 996.623 208.975C997.932 207.289 999.638 206.456 1001.76 206.456C1003.86 206.456 1005.53 207.17 1006.76 208.618V199.235H1009.84V224.785H1007L1006.84 222.86C1005.61 224.368 1003.9 225.122 1001.7 225.122C999.619 225.122 997.912 224.269 996.603 222.563C995.293 220.857 994.639 218.635 994.639 215.878V215.64H994.659ZM997.734 215.997C997.734 218.04 998.15 219.627 999.003 220.797C999.837 221.948 1001.01 222.523 1002.5 222.523C1004.44 222.523 1005.87 221.65 1006.78 219.905V211.633C1005.87 209.927 1004.44 209.094 1002.53 209.094C1001.03 209.094 999.857 209.669 999.003 210.84C998.15 211.99 997.734 213.696 997.734 215.997Z" fill="white"/>
<path d="M1021.24 225.122C1018.8 225.122 1016.82 224.328 1015.29 222.722C1013.76 221.115 1012.99 218.973 1012.99 216.295V215.739C1012.99 213.954 1013.33 212.367 1014.02 210.959C1014.7 209.55 1015.65 208.459 1016.88 207.666C1018.11 206.872 1019.44 206.476 1020.87 206.476C1023.21 206.476 1025.03 207.249 1026.32 208.796C1027.61 210.344 1028.27 212.546 1028.27 215.422V216.711H1016.07C1016.11 218.477 1016.62 219.925 1017.61 221.016C1018.6 222.107 1019.87 222.662 1021.4 222.662C1022.49 222.662 1023.41 222.444 1024.16 221.988C1024.91 221.551 1025.57 220.956 1026.14 220.222L1028.03 221.69C1026.52 223.971 1024.26 225.122 1021.24 225.122ZM1020.85 208.995C1019.6 208.995 1018.57 209.451 1017.71 210.344C1016.86 211.256 1016.34 212.506 1016.14 214.152H1025.17V213.914C1025.09 212.347 1024.66 211.137 1023.9 210.284C1023.17 209.411 1022.14 208.995 1020.85 208.995Z" fill="white"/>
<path d="M1036.7 220.619L1041.16 206.793H1044.32L1037.87 224.785H1035.53L1029 206.793H1032.16L1036.7 220.619Z" fill="white"/>
<path d="M664.361 132.706C664.361 132.706 725.984 30.0724 859.031 85.892" stroke="white" stroke-width="0.5" stroke-miterlimit="10"/>
<path d="M854.547 91.3077L867.82 89.7605L859.844 79.0488L854.547 91.3077Z" fill="white"/>
<path d="M193.619 502.455C193.619 502.455 118.167 443.045 146.419 343.367" stroke="white" stroke-width="0.5" stroke-miterlimit="10"/>
<path d="M196.217 496.008L201.157 508.406L187.943 506.501L196.217 496.008Z" fill="white"/>
<path d="M936.408 383.119C936.408 383.119 858.377 562.599 540.58 569.264" stroke="white" stroke-width="0.5" stroke-miterlimit="10"/>
<path d="M542.347 562.42L530.979 569.422L542.704 575.77L542.347 562.42Z" fill="white"/>
<path d="M924.321 626.078C929.06 630.148 934.936 632.691 940.506 633.204C941.312 637.543 943.682 641.296 947.395 644.083C953.087 648.349 961.271 649.914 970.445 648.484C972.338 648.19 974.134 647.811 975.856 647.347C981.56 645.819 986.397 643.325 990.795 639.683C996.267 635.148 1001.26 628.742 1006.99 618.927C1018.53 599.137 1011.89 580.691 1000.18 571.193C996.462 568.174 992.334 566.707 987.863 566.756C987.851 566.67 987.839 566.597 987.814 566.512C986.849 563.248 983.551 558.077 979.007 552.686C973.779 546.501 967.379 540.573 960.966 536.001C946.674 525.807 935.168 523.435 925.775 528.752C921.793 531.014 919.325 534.571 918.837 538.8C918.14 544.863 921.39 551.574 928.01 557.686C932.188 561.536 937.965 565.741 943.67 569.531C940.75 569.36 937.648 569.69 934.765 570.521C930.221 571.841 926.813 574.286 925.176 577.403C922.868 581.816 922.794 586.62 924.773 591.313C922.684 593 915.844 599.369 916.003 610.37C916.088 615.871 919.118 621.604 924.321 626.078ZM950.62 574.005C955.958 577.342 960.526 579.982 962.676 581.192C961.137 583.075 959.524 585.36 958.34 587.842C956.141 587.341 950.534 585.544 947.322 579.701C946.968 579.053 946.161 578.821 945.514 579.175C944.867 579.53 944.634 580.337 944.989 580.984C948.531 587.438 954.443 589.627 957.314 590.348C956.617 592.414 956.288 594.565 956.568 596.667C956.959 599.577 958.462 602.07 961.027 604.136C952.208 608.365 943.657 606.984 934.972 599.931C926.679 593.208 923.979 585.446 927.534 578.65C928.828 576.18 931.662 574.2 935.498 573.088C940.738 571.56 946.919 571.951 950.62 574.005ZM985.176 566.976C983.771 567.184 982.342 567.526 980.876 568.015C975.245 569.897 970.469 573.479 967.464 576.156C967.098 576.474 965.925 577.55 964.459 579.151C960.209 576.743 939.871 565.008 929.83 555.73C923.942 550.291 920.913 544.228 921.499 539.106C921.89 535.696 923.833 532.921 927.094 531.075C935.486 526.32 946.064 528.642 959.415 538.177C972.729 547.663 983.234 561.158 985.176 566.976ZM943.254 633.29C943.963 633.265 944.671 633.216 945.355 633.119C946.283 632.984 947.163 632.813 948.006 632.593C952.33 631.432 955.506 628.987 957.265 625.418C959.549 620.785 959.121 614.758 956.129 608.659C956.52 608.573 956.91 608.475 957.314 608.378C959.402 607.815 961.491 606.972 963.58 605.847C963.959 606.055 964.349 606.263 964.765 606.471C965.4 606.776 966.047 607.058 966.695 607.314C968.099 615.296 971.666 619.281 974.463 621.225C977.676 623.462 980.607 623.584 980.73 623.584C980.864 623.584 980.998 623.572 981.12 623.535C981.67 623.388 982.085 622.899 982.11 622.288C982.134 621.555 981.56 620.931 980.827 620.907C980.449 620.883 972.265 620.345 969.577 608.194C975.221 609.515 981.206 608.549 987.142 605.322C992.847 602.229 996.475 598.183 996.621 598.012C997.11 597.462 997.061 596.619 996.511 596.13C995.962 595.641 995.119 595.689 994.63 596.24C994.557 596.313 991.1 600.163 985.811 603.012C979.74 606.287 973.877 606.972 968.344 605.077C968.319 605.065 968.295 605.065 968.27 605.053C967.476 604.772 966.695 604.454 965.925 604.075C961.906 602.107 959.647 599.503 959.219 596.337C958.327 589.81 965.094 581.84 969.235 578.173C974.305 573.675 987.289 564.189 998.502 573.296C1009.32 582.072 1015.44 599.185 1004.7 617.619C993.861 636.199 984.797 643.594 970.042 645.88C961.577 647.188 954.101 645.807 948.995 641.981C946.003 639.695 944.036 636.724 943.254 633.29ZM918.678 610.333C918.543 601.251 923.869 595.653 926.019 593.77C927.692 596.631 930.123 599.418 933.311 601.997C938.112 605.884 942.985 608.231 947.823 608.952C949.655 609.221 951.511 609.27 953.368 609.087C956.336 614.685 956.886 620.174 954.895 624.232C953.197 627.667 949.777 629.818 945.013 630.478C938.906 631.322 931.65 628.852 926.068 624.061C921.438 620.076 918.739 615.076 918.678 610.333Z" fill="white"/>
<path d="M530.977 100.987C530.977 100.987 419.516 11.4657 271.768 82.718" stroke="white" stroke-width="0.5" stroke-miterlimit="10"/>
<path d="M270.618 75.9346L263.158 87.0033L276.491 87.9356L270.618 75.9346Z" fill="white"/>
</svg>
