<svg width="54" height="54" viewBox="0 0 54 54" fill="none" xmlns="http://www.w3.org/2000/svg">
<path d="M33.1134 47.9687C33.2741 47.7096 33.2852 47.5349 33.1759 47.118C32.9516 46.2628 32.6779 44.3918 32.6187 43.2072C32.2112 36.2058 35.6864 29.2372 41.5236 25.3067C43.3308 24.09 45.4774 23.081 47.2392 22.6077C47.977 22.4142 48.097 22.3487 48.2597 22.0546C48.712 21.2958 48.0736 20.5604 47.1752 20.796C46.3627 21.0091 44.3467 21.2975 43.2776 21.3609C36.2359 21.7449 29.3998 18.3834 25.3942 12.5658C24.2543 10.9219 23.3867 9.13805 22.7361 7.13767C22.4024 6.08251 22.2842 5.85038 22.0493 5.69501C21.6629 5.4422 21.1099 5.59842 20.8602 6.04092C20.6837 6.32702 20.6855 6.46372 20.8454 7.07315C21.3165 8.86958 21.5017 11.2323 21.3364 13.3897C20.9387 18.6712 18.3722 23.7441 14.3075 27.2443C12.2764 28.9999 10.2282 30.1655 7.41345 31.1552C5.92602 31.6712 5.78464 31.7424 5.66188 32.0144C5.4995 32.3542 5.59592 32.809 5.85565 33.0148C6.16949 33.2526 6.55303 33.2775 7.25894 33.0924C8.25341 32.8315 10.3822 32.5817 11.6687 32.5644C18.0334 32.5184 24.2109 35.5497 28.0284 40.6057C29.5016 42.562 30.8486 45.2145 31.3646 47.182C31.5554 47.9093 31.8744 48.3855 32.2046 48.4244C32.591 48.4603 32.9241 48.2927 33.1134 47.9687ZM29.5223 29.4078C28.3327 27.6169 30.7552 31.5351 28.8404 30.1173C27.8208 29.3676 32.9493 29.7927 31.861 29.347C29.4093 28.3214 15.7316 31.0197 12.6673 30.7945C12.5761 30.7955 34.3814 30.0326 34.9643 29.6399C40.2906 26.0259 22.4499 20.4235 23.0598 14.0351C23.1195 13.391 23.1876 12.7787 23.197 12.6848C23.2143 12.5319 20.6662 30.4337 20.7454 30.5613C23.8185 35.2181 30.2245 20.3503 35.2151 22.0355C36.5314 22.4788 38.8643 22.9644 40.3591 23.0865C40.9686 23.1441 31.4005 20.9199 31.3234 20.9746C29.2191 22.4065 26.522 20.9058 25.2872 22.2127C22.6195 25.0264 32.2856 33.3527 31.3833 37.189C31.1048 38.3935 32.9907 34.2552 33.0719 34.5652C33.1593 34.8964 29.7554 17.4258 29.5223 29.4078Z" fill="#CEFF00"/>
</svg>
