<svg width="324" height="324" viewBox="0 0 324 324" fill="none" xmlns="http://www.w3.org/2000/svg">
<circle cx="162" cy="162" r="162" fill="black"/>
<path d="M225 161H163V225C181.382 224.972 199.664 222.223 217.289 216.836C222.398 198.692 224.994 179.894 225 161V161Z" stroke="#C9F04D" stroke-width="2.01" stroke-miterlimit="10"/>
<path d="M224.865 161C224.858 179.95 222.21 198.803 217 217C253.301 205.998 281 185.045 281 161H224.865Z" stroke="#C9F04D" stroke-width="4" stroke-miterlimit="10"/>
<path d="M163 161H99C99.0029 179.949 101.699 198.802 107.008 216.992C125.198 222.301 144.051 224.997 163 225V225V161Z" stroke="#C9F04D" stroke-width="4" stroke-miterlimit="10"/>
<path d="M217 107C222.276 124.535 224.97 142.718 225 161H281C281 137.799 253.309 117.577 217 107Z" stroke="#C9F04D" stroke-width="4" stroke-miterlimit="10"/>
<path d="M217.052 106.804C253.307 117.419 281 137.715 281 161C281.038 130.329 268.821 100.874 246.986 79C235.908 84.839 224.163 89.3589 212 92.4643C213.862 97.0419 215.558 101.841 217.052 106.804Z" stroke="#C9F04D" stroke-width="4" stroke-miterlimit="10"/>
<path d="M107 217C108.481 221.847 110.167 226.533 112.01 231C128.656 226.816 145.791 224.691 163 224.675V224.675C144.048 224.672 125.193 222.088 107 217Z" stroke="#C9F04D" stroke-width="2.01" stroke-miterlimit="10"/>
<path d="M112.048 92C110.188 96.7925 108.498 101.809 107 107C125.197 101.549 144.05 98.7786 163 98.7718C145.806 98.759 128.683 96.4833 112.048 92V92Z" stroke="#C9F04D" stroke-width="2.01" stroke-miterlimit="10"/>
<path d="M212.043 92C196.041 96.4596 179.557 98.7341 163 98.7671C181.282 98.7983 199.465 101.571 217 107C215.534 101.809 213.87 96.7883 212.043 92Z" stroke="#C9F04D" stroke-width="2.01" stroke-miterlimit="10"/>
<path d="M212.08 231C213.89 226.537 215.561 221.848 217 217C199.469 222.067 181.284 224.654 163 224.68C179.571 224.708 196.069 226.832 212.08 231V231Z" stroke="#C9F04D" stroke-width="4" stroke-miterlimit="10"/>
<path d="M163 161H225C224.97 142.672 222.323 124.442 217.138 106.862C199.558 101.677 181.328 99.0298 163 99V99V161Z" stroke="#C9F04D" stroke-width="4" stroke-miterlimit="10"/>
<path opacity="0.4" d="M163 99C144.106 99.0064 125.308 101.602 107.164 106.711C101.777 124.336 99.0276 142.618 99 161H163V99Z" stroke="#C9F04D" stroke-width="4" stroke-miterlimit="10"/>
<path d="M107.05 216.72C70.462 205.864 43.0001 184.966 43.0001 161C42.9608 192.403 55.1634 222.566 76.9825 245C88.0685 239.028 99.8246 234.413 112 231.256C110.18 226.618 108.514 221.753 107.05 216.72Z" stroke="#C9F04D" stroke-width="4" stroke-miterlimit="10"/>
<path d="M112 231.504C123.696 260.573 142.186 281 163 281V225C145.788 225.016 128.649 227.202 112 231.504V231.504Z" stroke="#C9F04D" stroke-width="2.01" stroke-miterlimit="10"/>
<path d="M111.675 231C99.2712 234.16 87.2942 238.777 76 244.753C87.3134 256.243 100.842 265.372 115.786 271.598C130.73 277.824 146.785 281.021 163 281C142.053 281 123.446 260.364 111.675 231Z" stroke="#C9F04D" stroke-width="4" stroke-miterlimit="10"/>
<path d="M212 231.623C196.014 227.256 179.544 225.029 163 225V281C182.994 281 200.752 260.632 212 231.623Z" stroke="#C9F04D" stroke-width="4" stroke-miterlimit="10"/>
<path d="M217.042 216.47C215.543 221.59 213.855 226.542 212 231.255C224.131 234.435 235.846 239.049 246.898 245C268.789 222.592 281.039 192.419 281 161V161C281 184.817 253.319 205.572 217.042 216.47Z" stroke="#C9F04D" stroke-width="4" stroke-miterlimit="10"/>
<path d="M163 281C178.649 281.02 194.143 277.829 208.57 271.613C222.996 265.398 236.063 256.285 247 244.81C236.102 238.83 224.552 234.195 212.591 231C201.207 260.375 183.235 281 163 281Z" stroke="#C9F04D" stroke-width="4" stroke-miterlimit="10"/>
<path d="M107.039 106.559C108.511 101.682 110.172 96.9675 112 92.4639C99.7921 89.3821 88.0054 84.8615 76.8948 79C55.132 100.9 42.9609 130.345 43.0001 161C43.0001 137.605 70.4743 117.146 107.039 106.559Z" stroke="#C9F04D" stroke-width="4" stroke-miterlimit="10"/>
<path d="M112 92.543C128.651 96.8179 145.789 98.9878 163 99V99V43C142.22 43 123.738 63.5697 112 92.543Z" stroke="#C9F04D" stroke-width="4" stroke-miterlimit="10"/>
<path d="M163 99C179.542 98.9679 196.011 96.7578 212 92.4243C200.712 63.546 182.937 43 163 43V99Z" stroke="#C9F04D" stroke-width="4" stroke-miterlimit="10"/>
<path d="M107 217C101.759 198.807 99.0965 179.952 99.0936 161H43C43 185.086 70.4405 206.089 107 217Z" stroke="#C9F04D" stroke-width="4" stroke-miterlimit="10"/>
<path d="M163 43.0001C146.785 42.9795 130.73 46.1098 115.786 52.2054C100.842 58.3011 87.3134 67.2383 76 78.488C87.3485 84.3705 99.3876 88.9072 111.857 92C123.628 63.3443 142.162 43.0001 163 43.0001Z" stroke="#C9F04D" stroke-width="4" stroke-miterlimit="10"/>
<path d="M107 107C70.4845 117.443 43 137.748 43 161H98.917C98.9596 142.714 101.682 124.529 107 107Z" stroke="#C9F04D" stroke-width="4" stroke-miterlimit="10"/>
<path d="M212.415 92C224.439 88.8707 236.049 84.316 247 78.4321C236.063 67.1979 222.996 58.2752 208.57 52.19C194.143 46.1047 178.649 42.98 163 43.0001C183.13 43.0001 201.032 63.3932 212.415 92Z" stroke="#C9F04D" stroke-width="4" stroke-miterlimit="10"/>
</svg>
