<svg width="420" height="420" viewBox="0 0 420 420" fill="none" xmlns="http://www.w3.org/2000/svg">
<circle cx="210" cy="210" r="210" fill="black"/>
<path d="M354.983 196.66C354.983 198.886 348.83 201.258 341.615 203.536C334.401 205.815 324.534 203.907 319.348 206.186C308.328 210.956 316.696 222.085 322.2 221.343C328.605 220.535 339.878 225.132 343.724 230.1C345.05 232.246 343.127 234.366 341.469 236.46C338.525 240.355 333.194 244.409 331.337 248.781C330.997 249.768 330.896 250.821 331.041 251.855C331.186 252.889 331.574 253.874 332.173 254.73C334.003 258.267 338.194 262.016 336.151 266.176C333.22 272.576 344.878 276.1 344.201 282.075C343.883 283.744 341.947 285.387 338.897 287.003C332.517 290.329 322.982 293.429 316.139 296.278C307.837 299.259 306.232 325.955 260.876 326.988C195.826 328.472 209.936 354.612 196.131 353.989C172.511 352.929 198.624 335.308 146.438 318.8C135.603 315.369 129.9 301.882 131.531 298.238C133.932 293.403 124.9 291.137 118.163 285.758C113.402 281.611 116.253 275.08 110.365 271.754C106.996 269.873 103.906 268.031 102.408 266.176C100.909 264.322 97.6864 262.44 93.9332 260.533C90.18 258.625 85.976 256.69 82.5544 254.73C76.7191 251.404 73.6555 248.026 77.7402 242.686C87.2093 231.518 85.8964 230.471 72.6343 223.635C54.9958 215.156 54.1471 213.036 71.9845 203.576C75.8968 201.297 79.2521 198.992 79.3052 196.7C79.3052 191.758 73.3903 187.055 71.7988 182.63C70.9103 180.311 71.0429 178.019 74.3054 175.741C79.2388 171.766 96.0021 177.065 99.0921 171.633C100.248 169.018 101.761 166.574 103.588 164.373C105.683 161.843 107.567 159.392 107.129 157.418C106.064 154.228 104.579 151.194 102.713 148.395C99.1726 144.943 95.4258 141.709 91.493 138.71C87.395 135.531 77.0506 130.496 79.1328 125.329C79.9683 123.435 87.3154 119.91 91.5726 118.082C95.8297 116.254 97.0233 116.108 101.559 114.346C106.094 112.584 109.304 110.835 110.842 109.139C112.559 107.286 114.461 105.612 116.518 104.144C122.526 99.6398 127.977 89.5708 133.268 84.4038C137.247 80.4292 140.178 76.3353 144.621 72.9039C166.026 57.0981 202.324 72.7582 206.833 77.2627C222.602 93.0155 236.248 67.3792 259.735 67.3792C273.979 67.3792 282.984 74.6395 287.586 83.0657C290.503 88.3652 311.059 85.9539 316.059 88.9084C317.881 89.7788 319.303 91.3086 320.038 93.1877C321.364 98.0897 317.478 103.018 318.327 107.987C318.619 109.656 318.208 111.736 314.017 113.657C309.826 115.578 302.771 113.935 297.492 115.883C292.214 117.83 290.477 123.66 290.477 127.25C290.477 134.1 295.052 135.398 302.413 137.65C309.773 139.903 317.16 136.14 326.802 138.339C338.127 141.599 368.046 144.248 359.479 156.57C357.119 162.134 347.225 168.321 341.682 170.812C336.178 173.767 325.767 176.681 333.154 182.63C336.257 184.948 341.602 187.267 346.257 189.625C350.912 191.984 355.01 194.329 354.983 196.66Z" fill="#C9F04D" stroke="black" stroke-width="4" stroke-miterlimit="10" stroke-linecap="round"/>
<path d="M191.612 170.625C188.66 174.154 185.003 176.666 185.852 181.795C185.852 187.572 198.273 210.707 184.833 206.49C178.695 203.951 174.777 198.796 168.952 194.896C163.297 190.362 154.076 193.376 149.649 187.823C146.724 182.628 154.455 166.077 157.603 162.904C159.637 160.779 161.393 158.398 162.827 155.819C164.89 151.945 170.872 150.531 172.23 145.653C178.264 123.351 180.066 107.765 188.321 141.819C189.875 147.411 191.938 157.775 194.041 161.86C196.457 164.94 193.806 168.126 191.612 170.625Z" fill="black"/>
<path d="M227.637 170.715C224.574 173.352 220.433 175.87 221.064 180.088C222.142 184.663 225.783 191.005 228.583 195.303C232.172 200.339 235.589 206.074 241.518 206.997C244.17 207.054 246.784 206.356 249.057 204.984C251.329 203.612 253.168 201.622 254.36 199.245C257.554 192.995 258.724 187.379 260.196 180.932C260.788 178.902 257.462 174.129 258.75 172.02C260.591 168.974 267.57 165.428 265.678 162.106C265.152 161.183 264.639 155.316 264.008 152.969C261.774 144.492 254.426 138.177 250.982 129.963C242.595 110.095 240.085 132.521 239.296 141.934C238.954 145.89 234.551 148.342 234.275 152.033C233.999 155.725 241.189 159.548 237.377 165.903C235.274 169.502 231.041 167.972 227.637 170.715Z" fill="black"/>
<path d="M299 221.318C299 232.713 297.293 244.293 288.351 247.647C280 250.79 277.439 250.552 273.159 254.857C269.653 258.369 272.922 262.779 270.165 266.318C268.852 268.035 265.622 266.173 262.746 271.098C260.422 275.059 261.17 286.547 253.239 288.462C243.864 290.733 234.975 290.02 225.153 289.544C218.889 289.36 214.097 297.599 208.175 296.965C196.186 295.645 199.246 285.491 182.872 282.771C174.166 281.331 178.933 270.042 169.505 269.646C160.077 269.249 159.184 263.043 149.704 260.482C136.481 256.89 142.718 240.411 133.107 236.806C124.519 233.598 124.309 223.193 121 217" stroke="black" stroke-width="4" stroke-miterlimit="10" stroke-linecap="round"/>
</svg>
