<svg width="527" height="527" viewBox="0 0 527 527" fill="none" xmlns="http://www.w3.org/2000/svg">
<circle cx="263" cy="263" r="210" fill="black"/>
<path d="M337.211 263.5H263.5V337.211C285.353 337.179 307.089 334.012 328.044 327.808C334.117 306.911 337.203 285.261 337.211 263.5V263.5Z" stroke="#C9F04D" stroke-width="2.01" stroke-miterlimit="10"/>
<path d="M337.21 263.5C337.203 285.261 334.117 306.911 328.043 327.808C370.356 315.174 402.642 291.112 402.642 263.5H337.21Z" stroke="#C9F04D" stroke-width="2.01" stroke-miterlimit="10"/>
<path d="M263.5 263.5H189.79C189.793 285.324 192.898 307.038 199.012 327.988C219.963 334.102 241.676 337.207 263.5 337.211V337.211V263.5Z" stroke="#C9F04D" stroke-width="2.01" stroke-miterlimit="10"/>
<path d="M327.863 199.137C334.028 220.037 337.175 241.71 337.211 263.5H402.642C402.642 235.846 370.287 211.743 327.863 199.137Z" stroke="#C9F04D" stroke-width="2.01" stroke-miterlimit="10"/>
<path d="M327.864 199.136C370.259 211.742 402.642 235.846 402.642 263.499C402.687 227.074 388.4 192.094 362.867 166.115C349.913 173.05 336.179 178.418 321.956 182.106C324.133 187.542 326.116 193.242 327.864 199.136Z" stroke="#C9F04D" stroke-width="2.01" stroke-miterlimit="10"/>
<path d="M199.012 327.988C200.718 333.813 202.659 339.444 204.781 344.811C223.95 339.784 243.683 337.23 263.5 337.211V337.211C241.675 337.207 219.962 334.102 199.012 327.988Z" stroke="#C9F04D" stroke-width="2.01" stroke-miterlimit="10"/>
<path d="M204.989 182.244C202.854 187.583 200.912 193.172 199.192 198.956C220.089 192.882 241.739 189.796 263.5 189.789C243.755 189.774 224.092 187.239 204.989 182.244V182.244Z" stroke="#C9F04D" stroke-width="2.01" stroke-miterlimit="10"/>
<path d="M321.955 182.105C302.882 187.169 283.234 189.751 263.5 189.789C285.29 189.824 306.963 192.972 327.863 199.136C326.116 193.242 324.133 187.542 321.955 182.105Z" stroke="#C9F04D" stroke-width="2.01" stroke-miterlimit="10"/>
<path d="M322.163 344.95C324.327 339.486 326.324 333.744 328.044 327.809C307.089 334.013 285.353 337.18 263.5 337.211C283.307 337.246 303.025 339.847 322.163 344.95V344.95Z" stroke="#C9F04D" stroke-width="2.01" stroke-miterlimit="10"/>
<path d="M263.5 263.5H337.211C337.175 241.71 334.028 220.036 327.863 199.136C306.963 192.972 285.29 189.824 263.5 189.789V189.789V263.5Z" stroke="#C9F04D" stroke-width="2.01" stroke-miterlimit="10"/>
<path d="M263.5 189.789C241.739 189.797 220.089 192.883 199.192 198.956C192.988 219.91 189.821 241.646 189.79 263.5H263.5V189.789Z" stroke="#C9F04D" stroke-width="2.01" stroke-miterlimit="10"/>
<path d="M199.012 327.988C156.366 315.423 124.358 291.237 124.358 263.5C124.312 299.844 138.535 334.754 163.966 360.718C176.888 353.805 190.59 348.465 204.781 344.811C202.659 339.443 200.718 333.813 199.012 327.988Z" stroke="#C9F04D" stroke-width="2.01" stroke-miterlimit="10"/>
<path d="M204.781 344.811C218.247 378.775 239.536 402.642 263.5 402.642V337.211C243.683 337.23 223.95 339.784 204.781 344.811V344.811Z" stroke="#C9F04D" stroke-width="2.01" stroke-miterlimit="10"/>
<path d="M204.781 344.811C190.59 348.465 176.888 353.805 163.966 360.718C176.91 374.008 192.388 384.566 209.484 391.767C226.581 398.968 244.949 402.666 263.5 402.642C239.535 402.642 218.247 378.774 204.781 344.811Z" stroke="#C9F04D" stroke-width="2.01" stroke-miterlimit="10"/>
<path d="M322.163 344.95C303.025 339.847 283.307 337.245 263.5 337.211V402.642C287.437 402.642 308.697 378.844 322.163 344.95Z" stroke="#C9F04D" stroke-width="2.01" stroke-miterlimit="10"/>
<path d="M328.044 327.808C326.296 333.744 324.327 339.485 322.164 344.949C336.313 348.636 349.976 353.984 362.867 360.884C388.4 334.906 402.687 299.925 402.642 263.5V263.5C402.642 291.112 370.356 315.174 328.044 327.808Z" stroke="#C9F04D" stroke-width="2.01" stroke-miterlimit="10"/>
<path d="M263.5 402.642C282.012 402.666 300.34 398.983 317.406 391.811C334.472 384.64 349.93 374.124 362.867 360.884C349.976 353.984 336.313 348.636 322.163 344.949C308.697 378.844 287.437 402.642 263.5 402.642Z" stroke="#C9F04D" stroke-width="2.01" stroke-miterlimit="10"/>
<path d="M199.192 198.957C200.912 193.174 202.853 187.585 204.989 182.246C190.723 178.592 176.95 173.233 163.966 166.283C138.535 192.247 124.312 227.157 124.358 263.501C124.358 235.764 156.463 211.508 199.192 198.957Z" stroke="#C9F04D" stroke-width="2.01" stroke-miterlimit="10"/>
<path d="M204.989 182.244C224.092 187.239 243.755 189.774 263.5 189.789V189.789V124.357C239.66 124.357 218.455 148.391 204.989 182.244Z" stroke="#C9F04D" stroke-width="2.01" stroke-miterlimit="10"/>
<path d="M263.5 189.789C283.234 189.751 302.882 187.169 321.955 182.106C308.489 148.364 287.284 124.357 263.5 124.357V189.789Z" stroke="#C9F04D" stroke-width="2.01" stroke-miterlimit="10"/>
<path d="M199.012 327.988C192.898 307.038 189.793 285.324 189.789 263.5H124.358C124.358 291.237 156.366 315.423 199.012 327.988Z" stroke="#C9F04D" stroke-width="2.01" stroke-miterlimit="10"/>
<path d="M263.5 124.358C244.949 124.333 226.581 128.031 209.484 135.232C192.388 142.434 176.91 152.992 163.966 166.282C176.95 173.231 190.723 178.591 204.989 182.244C218.455 148.392 239.66 124.358 263.5 124.358Z" stroke="#C9F04D" stroke-width="2.01" stroke-miterlimit="10"/>
<path d="M199.192 198.957C156.464 211.439 124.303 235.708 124.303 263.501H189.734C189.784 241.644 192.969 219.909 199.192 198.957Z" stroke="#C9F04D" stroke-width="2.01" stroke-miterlimit="10"/>
<path d="M321.955 182.106C336.179 178.418 349.913 173.05 362.867 166.115C349.93 152.876 334.472 142.36 317.406 135.188C300.34 128.016 282.012 124.334 263.5 124.358C287.312 124.358 308.489 148.392 321.955 182.106Z" stroke="#C9F04D" stroke-width="2.01" stroke-miterlimit="10"/>
</svg>
