<?xml version="1.0" encoding="utf-8"?>
<!-- Generator: Adobe Illustrator 25.2.1, SVG Export Plug-In . SVG Version: 6.00 Build 0)  -->
<svg version="1.1" id="Warstwa_1" xmlns="http://www.w3.org/2000/svg" xmlns:xlink="http://www.w3.org/1999/xlink" x="0px" y="0px"
	 viewBox="0 0 249.16 279.21" style="enable-background:new 0 0 249.16 279.21;" xml:space="preserve">
<style type="text/css">
	.st0{fill:none;stroke:#CEFF00;stroke-width:0.5;stroke-miterlimit:10;}
	.st1{fill:#CEFF00;}
</style>
<g>
	<g>
		<path class="st0" d="M151.22,32.83L151.22,32.83c0.35-1.75,0.54-3.55,0.54-5.4c0-15.01-12.17-27.18-27.18-27.18
			S97.4,12.42,97.4,27.43c0,1.85,0.19,3.65,0.54,5.4h0l0.01,0.02c0.15,0.74,0.34,1.48,0.55,2.2l26.09,104.56l26.09-104.56
			c0.21-0.72,0.4-1.45,0.55-2.2L151.22,32.83z"/>
		<path class="st0" d="M97.94,246.38L97.94,246.38c-0.35,1.75-0.54,3.55-0.54,5.4c0,15.01,12.17,27.18,27.18,27.18
			s27.18-12.17,27.18-27.18c0-1.85-0.19-3.65-0.54-5.4h0l-0.01-0.02c-0.15-0.74-0.34-1.48-0.55-2.2L124.58,139.6L98.49,244.16
			c-0.21,0.72-0.4,1.45-0.55,2.2L97.94,246.38z"/>
	</g>
	<g>
		<path class="st0" d="M203.73,63.14L203.73,63.14c1.34-1.18,2.81-2.24,4.41-3.16c13-7.5,29.62-3.05,37.12,9.95
			s3.05,29.62-9.95,37.12c-1.6,0.92-3.26,1.67-4.94,2.23l0,0l-0.02,0.01c-0.72,0.24-1.45,0.45-2.18,0.62L124.58,139.6l77.51-74.87
			c0.52-0.54,1.06-1.07,1.63-1.57L203.73,63.14z"/>
		<path class="st0" d="M45.43,216.06L45.43,216.06c-1.34,1.18-2.81,2.24-4.41,3.16c-13,7.5-29.62,3.05-37.12-9.95
			s-3.05-29.62,9.95-37.12c1.6-0.92,3.26-1.67,4.94-2.23l0,0l0.02-0.01c0.72-0.24,1.45-0.45,2.18-0.62l103.59-29.69l-77.51,74.87
			c-0.52,0.54-1.06,1.07-1.63,1.57L45.43,216.06z"/>
	</g>
	<g>
		<path class="st0" d="M45.43,63.14L45.43,63.14c-1.34-1.18-2.81-2.24-4.41-3.16c-13-7.5-29.62-3.05-37.12,9.95
			s-3.05,29.62,9.95,37.12c1.6,0.92,3.26,1.67,4.94,2.23l0,0l0.02,0.01c0.72,0.24,1.45,0.45,2.18,0.62l103.59,29.69L47.07,64.73
			c-0.52-0.54-1.06-1.07-1.63-1.57L45.43,63.14z"/>
		<path class="st0" d="M203.73,216.06L203.73,216.06c1.34,1.18,2.81,2.24,4.41,3.16c13,7.5,29.62,3.05,37.12-9.95
			s3.05-29.62-9.95-37.12c-1.6-0.92-3.26-1.67-4.94-2.23l0,0l-0.02-0.01c-0.72-0.24-1.45-0.45-2.18-0.62L124.58,139.6l77.51,74.87
			c0.52,0.54,1.06,1.07,1.63,1.57L203.73,216.06z"/>
	</g>
</g>
</svg>
