<svg width="195" height="226" viewBox="0 0 195 226" fill="none" xmlns="http://www.w3.org/2000/svg">
<g clip-path="url(#clip0)">
<path d="M119.267 78.9544C125.739 64.922 129.029 44.9081 122.79 27.7288C118.496 15.9188 109.4 6.06794 99.0506 2.03332C91.5024 -0.911527 84.0031 -0.642145 77.3541 2.81085C60.71 11.4556 64.7778 31.1206 69.0902 51.9365L69.763 55.1936C72.5462 68.7668 63.4626 75.8381 51.9629 84.7951C46.8859 88.7501 41.6376 92.8337 36.946 97.8785C32.866 102.268 29.8076 106.793 27.5932 111.55C23.6662 111.182 15.91 111.323 9.49951 116.821C2.18373 123.09 -0.929765 134.172 0.238559 149.759C2.18373 175.602 9.93381 195.714 21.5131 204.934C25.6848 208.258 30.1195 209.972 34.4747 209.972C35.3066 209.972 36.1324 209.911 36.9521 209.783C44.0599 208.699 48.5313 206.734 50.6294 203.777C50.7212 203.648 50.7885 203.52 50.868 203.397C54.6115 206.446 58.7098 209.232 63.169 211.687C76.094 218.813 97.7416 226.007 115.823 226.007C123.243 226.007 130.063 224.795 135.434 221.874C147.869 215.103 150.634 202.264 150.359 194.226C162.067 192.34 169.988 184.583 174.019 176.049C178.527 166.504 176.857 156.775 175.365 151.596C178.949 150.702 182.473 149.196 185.58 146.729C191.825 141.77 194.994 134.062 194.994 123.813C195 96.0418 148.848 80.8339 119.267 78.9544ZM45.4178 200.054C45.1181 200.464 43.3809 202.32 35.9917 203.446C32.658 203.948 29.0368 202.736 25.5013 199.913C20.6812 196.075 9.19979 183.457 6.62458 149.269C5.6153 135.868 7.97029 126.598 13.6223 121.707C17.4148 118.425 22.0636 117.801 25.1893 117.825C21.1032 131.325 22.8098 146.79 27.1406 166.039C29.9177 178.406 36.3465 189.579 45.7237 198.769C45.5402 199.179 45.4239 199.607 45.4178 200.054ZM181.61 141.702C173.016 148.523 159.045 145.933 154.971 144.984C153.252 144.58 151.527 145.651 151.124 147.372C150.72 149.092 151.79 150.818 153.509 151.222C156.763 151.988 162.617 153.01 168.973 152.576C170.196 156.5 172.08 165.169 168.233 173.306C162.036 186.414 148.928 191.275 133.164 186.316C131.488 185.789 129.684 186.726 129.152 188.41C128.62 190.099 129.562 191.893 131.244 192.426C135.813 193.865 140.028 194.532 143.924 194.624C144.028 199.626 142.933 210.487 132.369 216.236C118.239 223.931 86.1807 217.056 66.2519 206.066C48.9106 196.509 37.2334 181.797 33.3737 164.637C26.1252 132.402 28.211 116.656 41.6315 102.225C45.9683 97.5602 51.0148 93.6357 55.8899 89.8338C68.087 80.3319 79.6112 71.3627 76.0328 53.8895L75.36 50.6202C70.7723 28.4696 68.558 14.578 80.3024 8.48014C86.5783 5.22306 92.6952 6.41691 96.7262 7.99035C105.412 11.376 113.095 19.7759 116.771 29.9083C122.998 47.0509 118.325 68.0811 111.346 80.3686C110.789 81.3543 110.789 82.5666 111.352 83.5461C111.914 84.5318 112.96 85.1379 114.092 85.1563C139.379 85.4257 188.59 99.3173 188.59 123.801C188.602 132.004 186.247 138.023 181.61 141.702Z" fill="white"/>
<path d="M55.9635 138.304C56.3183 138.304 56.673 138.242 57.0278 138.12C57.1746 138.065 72.1548 132.83 85.508 130.92C87.2574 130.669 88.4747 129.047 88.2239 127.296C87.9731 125.545 86.3521 124.332 84.6027 124.577C70.6134 126.579 55.5414 131.851 54.9053 132.077C53.2353 132.665 52.3606 134.496 52.9478 136.161C53.4066 137.483 54.6422 138.304 55.9635 138.304Z" fill="white"/>
<path d="M95.7292 149.747C81.7644 147.463 54.7767 147.984 53.6328 148.008C51.8651 148.045 50.4643 149.508 50.4949 151.277C50.5316 153.047 52.0363 154.492 53.7613 154.412C54.0304 154.406 81.2995 153.879 94.6955 156.065C94.8728 156.096 95.0441 156.108 95.2154 156.108C96.7568 156.108 98.1148 154.994 98.3717 153.42C98.6592 151.682 97.4725 150.035 95.7292 149.747Z" fill="white"/>
<path d="M82.9204 173.562C73.6533 168.474 54.7216 167.152 53.9203 167.097C52.2014 166.981 50.6355 168.315 50.5132 170.078C50.3969 171.842 51.7304 173.372 53.4921 173.489C53.6756 173.501 71.8183 174.774 79.8436 179.176C80.3329 179.446 80.859 179.574 81.3789 179.574C82.5106 179.574 83.6055 178.974 84.1866 177.909C85.0368 176.36 84.468 174.413 82.9204 173.562Z" fill="white"/>
</g>
<defs>
<clipPath id="clip0">
<rect width="195" height="226" fill="white"/>
</clipPath>
</defs>
</svg>
