<?xml version="1.0" encoding="utf-8"?>
<!-- Generator: Adobe Illustrator 25.2.1, SVG Export Plug-In . SVG Version: 6.00 Build 0)  -->
<svg version="1.1" id="Warstwa_1" xmlns="http://www.w3.org/2000/svg" xmlns:xlink="http://www.w3.org/1999/xlink" x="0px" y="0px"
	 viewBox="0 0 468.27 375.23" style="enable-background:new 0 0 468.27 375.23;" xml:space="preserve">
<style type="text/css">
	.st0{fill:#CEFF00;}
	.st1{fill:none;stroke:#FFFFFF;stroke-miterlimit:10;}
</style>
<path id="Path_111" class="st0" d="M468.27,186c-99.21,0-153.4,0.28-170.99-16.84C281.09,153.4,281.09,99.55,281.09,0h-3.24
	c0,99.55,0,153.39-16.19,169.15c-2.67,2.49-5.73,4.52-9.08,5.99c-11.71,5.38-25.19,5.38-36.91,0c-3.34-1.47-6.41-3.49-9.07-5.99
	C190.42,153.39,190.42,99.55,190.42,0h-3.24c0,99.55,0,153.39-16.19,169.15C153.4,186.27,99.21,186,0,186l0,0v3.24
	c99.21,0,153.4-0.28,170.99,16.84c16.19,15.76,16.19,69.6,16.19,169.15h3.24c0-99.55,0-153.39,16.19-169.15
	c2.66-2.5,5.73-4.52,9.07-5.99c11.71-5.37,25.19-5.37,36.91,0c3.34,1.47,6.41,3.5,9.08,5.99c16.19,15.76,16.19,69.6,16.19,169.15
	h3.24c0-99.55,0-153.39,16.19-169.15c17.59-17.12,71.78-16.84,170.99-16.84L468.27,186L468.27,186L468.27,186z"/>
</svg>
