<svg xmlns="http://www.w3.org/2000/svg"  viewBox="0 0 100 100" width="100px" height="100px"><circle cx="52" cy="52" r="44" opacity=".35"/><circle cx="50" cy="50" r="44" fill="#f2f2f2"/><circle cx="50" cy="50" r="34.772" fill="#d84178"/><path fill="#b73b3b" fill-rule="evenodd" d="M50,13.553C29.88,13.553,13.553,29.88,13.553,50 S29.88,86.447,50,86.447c20.082,0,36.447-16.326,36.447-36.447S70.082,13.553,50,13.553z M74.073,30.353 c4.348,5.298,6.958,12.057,7.036,19.37c-1.028-0.197-11.306-2.293-21.662-0.988c-0.237-0.514-0.436-1.068-0.672-1.62 c-0.632-1.502-1.345-3.043-2.056-4.507C68.183,37.943,73.402,31.223,74.073,30.353z M50,18.929c7.905,0,15.14,2.965,20.634,7.827 c-0.554,0.791-5.257,7.076-16.326,11.226c-5.099-9.369-10.752-17.037-11.621-18.223C45.02,19.206,47.471,18.929,50,18.929z M36.757,21.854c0.829,1.106,6.364,8.815,11.543,17.986c-14.548,3.874-27.395,3.796-28.778,3.796 C21.539,33.991,28.061,25.965,36.757,21.854z M18.851,50.04c0-0.317,0-0.632,0-0.949c1.345,0.04,16.445,0.237,31.98-4.428 c0.909,1.739,1.739,3.519,2.529,5.298c-0.395,0.118-0.831,0.237-1.225,0.355c-16.049,5.179-24.587,19.33-25.3,20.516 C21.894,65.339,18.851,58.024,18.851,50.04z M50,81.149c-7.195,0-13.835-2.451-19.093-6.562c0.554-1.146,6.878-13.321,24.43-19.448 c0.078-0.04,0.118-0.04,0.199-0.078c4.388,11.346,6.167,20.871,6.641,23.599C58.419,80.28,54.308,81.149,50,81.149z M67.354,75.813 c-0.317-1.897-1.977-10.989-6.048-22.176c9.764-1.542,18.302,0.988,19.37,1.345C79.332,63.638,74.35,71.108,67.354,75.813z" clip-rule="evenodd"/><path fill="#40396e" d="M50,89c-21.505,0-39-17.495-39-39s17.495-39,39-39s39,17.495,39,39S71.505,89,50,89z M50,14 c-19.851,0-36,16.149-36,36s16.149,36,36,36s36-16.149,36-36S69.851,14,50,14z"/></svg>