<svg width="1121" height="182" viewBox="0 0 1121 182" fill="none" xmlns="http://www.w3.org/2000/svg">
<path d="M696.26 0H665.99V181.63H696.26V0Z" fill="white"/>
<path d="M30.27 137.07V0H0V115.17C0 118.96 1.51 122.6 4.19 125.28L56.36 177.45C59.04 180.13 62.68 181.64 66.47 181.64H181.64V151.37H44.57C36.67 151.36 30.27 144.96 30.27 137.07Z" fill="white"/>
<path d="M363.27 137.07C363.27 144.97 356.87 151.36 348.98 151.36H256.48C248.58 151.36 242.19 144.96 242.19 137.07V0H211.92V115.17C211.92 118.96 213.43 122.6 216.11 125.28L268.28 177.45C270.96 180.13 274.6 181.64 278.39 181.64H327.09C330.88 181.64 334.52 180.13 337.2 177.45L389.37 125.28C392.05 122.6 393.55 118.96 393.55 115.17V0H363.28V137.07H363.27Z" fill="white"/>
<path d="M851.81 4.18999C849.13 1.50999 845.49 0 841.7 0H793C789.21 0 785.57 1.49999 782.89 4.18999L730.72 56.36C728.04 59.04 726.53 62.68 726.53 66.47V181.64H756.8V44.57C756.8 36.67 763.2 30.27 771.09 30.27H863.59C871.49 30.27 877.88 36.67 877.88 44.57V181.64H908.15V66.47C908.15 62.68 906.64 59.04 903.96 56.36L851.81 4.18999Z" fill="white"/>
<path d="M635.72 60.55L631.53 56.36L605.46 30.29L605.44 30.27L579.36 4.18999C576.68 1.50999 573.04 0 569.25 0H489.52H483.6L453.32 30.27L423.05 60.54V66.46V181.63H453.32V44.53C453.34 36.65 459.73 30.27 467.61 30.27H514.62V181.63H544.13V30.28H591.14C599.01 30.28 605.4 36.65 605.43 44.53V181.64H635.7V66.47C635.7 66.46 635.7 66.46 635.7 66.46V60.55H635.72Z" fill="white"/>
<path d="M1115.78 56.35L1063.85 4.14001C1061.1 1.39001 1057.52 0.0100098 1053.68 0.0100098H1005.04C1001.2 0.0100098 997.35 1.39001 994.88 4.14001L942.67 56.35C939.93 59.1 938.55 62.67 938.55 66.52V181.65H968.77V136.31H1089.68V181.65H1120.18V66.52C1120.18 62.67 1118.53 59.1 1115.78 56.35ZM1089.68 106.09H968.77V44.54C968.77 36.57 975.09 30.25 983.06 30.25H1075.39C1083.36 30.25 1089.68 36.57 1089.68 44.54V106.09V106.09Z" fill="white"/>
</svg>
